<?xml version="1.0" encoding="UTF-8" standalone="no"?>
<!-- Created with Inkscape (http://www.inkscape.org/) -->

<svg
   xmlns:dc="http://purl.org/dc/elements/1.1/"
   xmlns:cc="http://creativecommons.org/ns#"
   xmlns:rdf="http://www.w3.org/1999/02/22-rdf-syntax-ns#"
   xmlns:svg="http://www.w3.org/2000/svg"
   xmlns="http://www.w3.org/2000/svg"
   xmlns:sodipodi="http://sodipodi.sourceforge.net/DTD/sodipodi-0.dtd"
   xmlns:inkscape="http://www.inkscape.org/namespaces/inkscape"
   width="210mm"
   height="297mm"
   viewBox="0 0 744.09448819 1052.3622047"
   id="svg2"
   version="1.1"
   inkscape:version="0.91 r13725"
   sodipodi:docname="swra416B.svg">
  <defs
     id="defs4" />
  <sodipodi:namedview
     id="base"
     pagecolor="#ffffff"
     bordercolor="#666666"
     borderopacity="1.0"
     inkscape:pageopacity="1"
     inkscape:pageshadow="2"
     inkscape:zoom="11.313709"
     inkscape:cx="46.432548"
     inkscape:cy="21.521428"
     inkscape:document-units="mm"
     inkscape:current-layer="layer1"
     showgrid="false"
     inkscape:snap-page="true"
     inkscape:window-width="1536"
     inkscape:window-height="801"
     inkscape:window-x="-8"
     inkscape:window-y="-8"
     inkscape:window-maximized="1" />
  <metadata
     id="metadata7">
    <rdf:RDF>
      <cc:Work
         rdf:about="">
        <dc:format>image/svg+xml</dc:format>
        <dc:type
           rdf:resource="http://purl.org/dc/dcmitype/StillImage" />
        <dc:title></dc:title>
      </cc:Work>
    </rdf:RDF>
  </metadata>
  <g
     inkscape:label="Layer 1"
     inkscape:groupmode="layer"
     id="layer1">
    <rect
       style="opacity:0;fill:#000000;fill-opacity:1;fill-rule:nonzero;stroke:none;stroke-opacity:1"
       id="rect4136"
       width="225.71428"
       height="25.714285"
       x="177.14285"
       y="563.79077" />
    <rect
       style="fill:#000000;fill-opacity:1;fill-rule:evenodd;stroke:#000000;stroke-width:0;stroke-linecap:butt;stroke-linejoin:miter;stroke-miterlimit:4;stroke-dasharray:none;stroke-opacity:1"
       id="rect4159"
       width="74.409439"
       height="3.5432971"
       x="5.0000003e-006"
       y="1048.8188" />
    <path
       style="fill:#000000;fill-opacity:1;fill-rule:evenodd;stroke:#000000;stroke-width:0;stroke-linecap:butt;stroke-linejoin:miter;stroke-miterlimit:4;stroke-dasharray:none;stroke-opacity:1"
       d="m 17.715531,1027.5536 -0.0039,-1.7656 -3.546875,-5.3164 0.0078,-8.8594 -3.546875,-5.3125 -3.5390618,0 0.0078,1.7734 3.5390618,5.3243 -0.0078,8.8554 3.554688,5.3047 z"
       id="path4180"
       inkscape:connector-curvature="0" />
    <path
       inkscape:connector-curvature="0"
       id="path4182"
       d="m 24.802145,1027.5536 -0.0039,-1.7656 -3.546875,-5.3164 0.0078,-8.8594 -3.546875,-5.3125 -3.539062,0 0.0078,1.7734 3.539062,5.3243 -0.0078,8.8554 3.554688,5.3047 z"
       style="fill:#000000;fill-opacity:1;fill-rule:evenodd;stroke:#000000;stroke-width:0;stroke-linecap:butt;stroke-linejoin:miter;stroke-miterlimit:4;stroke-dasharray:none;stroke-opacity:1" />
    <path
       style="fill:#000000;fill-opacity:1;fill-rule:evenodd;stroke:#000000;stroke-width:0;stroke-linecap:butt;stroke-linejoin:miter;stroke-miterlimit:4;stroke-dasharray:none;stroke-opacity:1"
       d="m 31.88876,1027.5536 -0.0039,-1.7656 -3.546875,-5.3164 0.0078,-8.8594 -3.546875,-5.3125 -3.539062,0 0.0078,1.7734 3.539062,5.3243 -0.0078,8.8554 3.554688,5.3047 z"
       id="path4184"
       inkscape:connector-curvature="0" />
    <path
       inkscape:connector-curvature="0"
       id="path4186"
       d="m 38.975374,1027.5536 -0.0039,-1.7656 -3.546875,-5.3164 0.0078,-8.8594 -3.546875,-5.3125 -3.539062,0 0.0078,1.7734 3.539062,5.3243 -0.0078,8.8554 3.554688,5.3047 z"
       style="fill:#000000;fill-opacity:1;fill-rule:evenodd;stroke:#000000;stroke-width:0;stroke-linecap:butt;stroke-linejoin:miter;stroke-miterlimit:4;stroke-dasharray:none;stroke-opacity:1" />
    <path
       style="fill:#000000;fill-opacity:1;fill-rule:evenodd;stroke:#000000;stroke-width:0;stroke-linecap:butt;stroke-linejoin:miter;stroke-miterlimit:4;stroke-dasharray:none;stroke-opacity:1"
       d="m 46.061988,1027.5536 -0.0039,-1.7656 -3.546875,-5.3164 0.0078,-8.8594 -3.546875,-5.3125 -3.539062,0 0.0078,1.7734 3.539062,5.3243 -0.0078,8.8554 3.554688,5.3047 z"
       id="path4188"
       inkscape:connector-curvature="0" />
    <path
       inkscape:connector-curvature="0"
       id="path4190"
       d="m 53.148602,1027.5536 -0.0039,-1.7656 -3.546875,-5.3164 0.0078,-8.8594 -3.546875,-5.3125 -3.539062,0 0.0078,1.7734 3.539062,5.3243 -0.0078,8.8554 3.554688,5.3047 z"
       style="fill:#000000;fill-opacity:1;fill-rule:evenodd;stroke:#000000;stroke-width:0;stroke-linecap:butt;stroke-linejoin:miter;stroke-miterlimit:4;stroke-dasharray:none;stroke-opacity:1" />
    <path
       style="fill:#000000;fill-opacity:1;fill-rule:evenodd;stroke:#000000;stroke-width:0;stroke-linecap:butt;stroke-linejoin:miter;stroke-miterlimit:4;stroke-dasharray:none;stroke-opacity:1"
       d="m 60.235216,1027.5536 -0.0039,-1.7656 -3.546875,-5.3164 0.0078,-8.8594 -3.546875,-5.3125 -3.539062,0 0.0078,1.7734 3.539062,5.3243 -0.0078,8.8554 3.554688,5.3047 z"
       id="path4192"
       inkscape:connector-curvature="0" />
    <path
       inkscape:connector-curvature="0"
       id="path4194"
       d="m 67.32183,1027.5536 -0.0039,-1.7656 -3.546875,-5.3164 0.0078,-8.8594 -3.546875,-5.3125 -3.539062,0 0.0078,1.7734 3.539062,5.3243 -0.0078,8.8554 3.554688,5.3047 z"
       style="fill:#000000;fill-opacity:1;fill-rule:evenodd;stroke:#000000;stroke-width:0;stroke-linecap:butt;stroke-linejoin:miter;stroke-miterlimit:4;stroke-dasharray:none;stroke-opacity:1" />
    <path
       style="fill:#000000;fill-opacity:1;fill-rule:evenodd;stroke:#000000;stroke-width:0;stroke-linecap:butt;stroke-linejoin:miter;stroke-miterlimit:4;stroke-dasharray:none;stroke-opacity:1"
       d="m 74.408445,1027.5536 -0.0039,-1.7656 -3.546875,-5.3164 0.0078,-8.8594 -3.546875,-5.3125 -3.539062,0 0.0078,1.7734 3.539062,5.3243 -0.0078,8.8554 3.554688,5.3047 z"
       id="path4196"
       inkscape:connector-curvature="0" />
  </g>
</svg>
