M48
;DRILL file {KiCad 4.0.7-e2-6376~58~ubuntu14.04.1} date Tue Sep  5 20:40:18 2017
;FORMAT={3:3/ absolute / metric / suppress leading zeros}
FMAT,2
METRIC,TZ
T1C0.400
T2C0.800
T3C1.000
T4C1.200
%
G90
G05
M71
T1
X99000Y-106150
X100450Y-125500
X103150Y-118750
X104000Y-105300
X106700Y-103500
X106800Y-102700
X107400Y-111200
X108200Y-125200
X109890Y-75980
X110400Y-151700
X110400Y-157100
X110400Y-161290
X111800Y-124400
X112350Y-164500
X112520Y-34370
X113000Y-111100
X113000Y-149100
X113430Y-75030
X113650Y-115400
X113710Y-91550
X113800Y-99200
X114440Y-67850
X115780Y-41720
X115810Y-48620
X115820Y-34630
X117410Y-28040
X119400Y-115100
X120240Y-101900
X120680Y-47330
X120690Y-33360
X120690Y-54350
X120710Y-40330
X121700Y-103450
X122200Y-104300
X122200Y-105100
X123200Y-115850
X124010Y-27130
X124030Y-41690
X124040Y-34650
X124050Y-48620
X125030Y-104080
X125100Y-86460
X125400Y-115100
X125500Y-121300
X125940Y-103450
X126070Y-82240
X126990Y-101120
X127500Y-118400
X127750Y-92750
X128300Y-121300
X128910Y-54300
X129200Y-118400
X130100Y-125700
X130310Y-74210
X130470Y-39140
X130490Y-46130
X130520Y-32200
X130800Y-126400
X131290Y-98190
X132280Y-34640
X132290Y-41670
X132290Y-48600
X132300Y-27220
X132600Y-118400
X133500Y-87000
X133780Y-73960
X133790Y-67910
X136700Y-83300
X137210Y-54280
X138600Y-115000
X138700Y-149800
X138710Y-32110
X138740Y-39120
X138800Y-53100
X138830Y-46120
X138850Y-55350
X139400Y-115700
X139500Y-151200
X140550Y-48610
X140560Y-27190
X140560Y-41680
X140570Y-34660
X140900Y-103960
X142500Y-88200
X143000Y-103300
X144300Y-102900
X145410Y-33380
X145440Y-54310
X145450Y-40350
X146890Y-46110
X147200Y-157000
X148600Y-92600
X148600Y-118400
X148620Y-105180
X148620Y-105180
X148900Y-132500
X151180Y-101970
X151700Y-120200
X151780Y-106000
X151900Y-132550
X151990Y-95990
X157740Y-88960
X157760Y-98120
T2
X139000Y-80000
X139000Y-95240
T3
X83820Y-109220
X83820Y-113030
X86360Y-109220
X86360Y-113030
X88900Y-109220
X88900Y-113030
X91440Y-109220
X91440Y-113030
X93980Y-109220
X93980Y-113030
X96520Y-109220
X96520Y-113030
X99060Y-109220
X99060Y-113030
X101600Y-109220
X101600Y-113030
X104140Y-109220
X104140Y-113030
X106680Y-109220
X106680Y-113030
X109220Y-83820
X109220Y-86360
X109220Y-88900
X111760Y-60960
X111760Y-64770
X111760Y-83820
X111760Y-86360
X111760Y-88900
X111760Y-109220
X111760Y-113030
X112014Y-70358
X112014Y-72898
X114300Y-60960
X114300Y-64770
X114300Y-109220
X114300Y-113030
X114554Y-70358
X114554Y-72898
X115570Y-83820
X115570Y-86360
X115570Y-88900
X116840Y-60960
X116840Y-64770
X116840Y-109220
X116840Y-113030
X117094Y-70358
X117094Y-72898
X118110Y-83820
X118110Y-86360
X118110Y-88900
X119380Y-60960
X119380Y-64770
X119380Y-109220
X119380Y-113030
X119634Y-70358
X119634Y-72898
X121920Y-60960
X121920Y-64770
X121920Y-109220
X121920Y-113030
X124460Y-60960
X124460Y-64770
X124460Y-109220
X124460Y-113030
X127000Y-109220
X127000Y-113030
X129540Y-60960
X129540Y-64770
X129540Y-109220
X129540Y-113030
X132080Y-60960
X132080Y-64770
X133350Y-109220
X133350Y-113030
X134620Y-60960
X134620Y-64770
X135890Y-109220
X135890Y-113030
X137160Y-60960
X137160Y-64770
X138430Y-109220
X138430Y-113030
X139000Y-70000
X139000Y-74000
X139700Y-60960
X139700Y-64770
X140970Y-109220
X140970Y-113030
X141540Y-70000
X141540Y-74000
X142240Y-60960
X142240Y-64770
X142900Y-56600
X143510Y-109220
X143510Y-113030
X144080Y-70000
X144080Y-74000
X144780Y-60960
X144780Y-64770
X146050Y-109220
X146050Y-113030
X146620Y-70000
X146620Y-74000
X147320Y-60960
X147320Y-64770
X148590Y-109220
X148590Y-113030
X151130Y-109220
X151130Y-113030
X153670Y-109220
X153670Y-113030
X155600Y-143560
X155600Y-146100
X156210Y-109220
X156210Y-113030
T4
X155800Y-126200
X155800Y-138900
T0
M30
