G04 #@! TF.FileFunction,Profile,NP*
%FSLAX46Y46*%
G04 Gerber Fmt 4.6, Leading zero omitted, Abs format (unit mm)*
G04 Created by KiCad (PCBNEW 4.0.7-e2-6376~58~ubuntu14.04.1) date Tue Sep  5 20:37:50 2017*
%MOMM*%
%LPD*%
G01*
G04 APERTURE LIST*
%ADD10C,0.100000*%
%ADD11C,0.150000*%
G04 APERTURE END LIST*
D10*
D11*
X149860000Y-26416000D02*
X149860000Y-57404000D01*
X147320000Y-26416000D02*
X149860000Y-26416000D01*
X149860000Y-57404000D02*
X149860000Y-57912000D01*
X109220000Y-26416000D02*
X147320000Y-26416000D01*
X109220000Y-57150000D02*
X109220000Y-26416000D01*
X158750000Y-168910000D02*
X158750000Y-115570000D01*
X81280000Y-168910000D02*
X158750000Y-168910000D01*
X81280000Y-115570000D02*
X81280000Y-168910000D01*
X144000000Y-155000000D02*
X144000000Y-159000000D01*
X114000000Y-155000000D02*
X144000000Y-155000000D01*
X114000000Y-159000000D02*
X114000000Y-155000000D01*
X144000000Y-159000000D02*
X114000000Y-159000000D01*
X81280000Y-98425000D02*
X81280000Y-115570000D01*
X106045000Y-98425000D02*
X81280000Y-98425000D01*
X106045000Y-80010000D02*
X106045000Y-98425000D01*
X109220000Y-80010000D02*
X106045000Y-80010000D01*
X109220000Y-57150000D02*
X109220000Y-80010000D01*
X158750000Y-76835000D02*
X158750000Y-115570000D01*
X149860000Y-76835000D02*
X158750000Y-76835000D01*
X149860000Y-57785000D02*
X149860000Y-76835000D01*
M02*
