G04 #@! TF.FileFunction,Soldermask,Bot*
%FSLAX46Y46*%
G04 Gerber Fmt 4.6, Leading zero omitted, Abs format (unit mm)*
G04 Created by KiCad (PCBNEW 4.0.7-e2-6376~58~ubuntu14.04.1) date Tue Sep  5 20:37:50 2017*
%MOMM*%
%LPD*%
G01*
G04 APERTURE LIST*
%ADD10C,0.100000*%
%ADD11R,1.900000X1.100000*%
%ADD12R,1.200000X1.400000*%
%ADD13C,2.800000*%
%ADD14O,2.800000X2.800000*%
%ADD15R,1.650000X1.400000*%
%ADD16R,1.400000X1.650000*%
%ADD17R,2.100000X2.100000*%
%ADD18O,2.100000X2.100000*%
%ADD19R,0.700000X1.400000*%
%ADD20R,2.400000X1.700000*%
%ADD21R,1.700000X1.100000*%
%ADD22R,1.100000X1.700000*%
%ADD23C,2.000000*%
%ADD24O,2.000000X2.000000*%
G04 APERTURE END LIST*
D10*
D11*
X154900000Y-121650000D03*
X154900000Y-120150000D03*
X154900000Y-117150000D03*
D12*
X158000000Y-115750000D03*
X155800000Y-115750000D03*
X155800000Y-123050000D03*
X158000000Y-123050000D03*
D13*
X155800000Y-126200000D03*
D14*
X155800000Y-138900000D03*
D15*
X118250000Y-29500000D03*
X118250000Y-31500000D03*
X126500000Y-29500000D03*
X126500000Y-31500000D03*
X134750000Y-29500000D03*
X134750000Y-31500000D03*
X143250000Y-29500000D03*
X143250000Y-31500000D03*
X118250000Y-36500000D03*
X118250000Y-38500000D03*
X126500000Y-36500000D03*
X126500000Y-38500000D03*
X134750000Y-36500000D03*
X134750000Y-38500000D03*
X143000000Y-36500000D03*
X143000000Y-38500000D03*
X118250000Y-43500000D03*
X118250000Y-45500000D03*
X126500000Y-43500000D03*
X126500000Y-45500000D03*
X134750000Y-43500000D03*
X134750000Y-45500000D03*
X143010000Y-45500000D03*
X143010000Y-43500000D03*
X118250000Y-52500000D03*
X118250000Y-50500000D03*
X126510000Y-52500000D03*
X126510000Y-50500000D03*
X134750000Y-52500000D03*
X134750000Y-50500000D03*
D16*
X132750000Y-116750000D03*
X130750000Y-116750000D03*
X134850000Y-116750000D03*
X136850000Y-116750000D03*
D17*
X112014000Y-72898000D03*
D18*
X112014000Y-70358000D03*
X114554000Y-72898000D03*
X114554000Y-70358000D03*
X117094000Y-72898000D03*
X117094000Y-70358000D03*
X119634000Y-72898000D03*
X119634000Y-70358000D03*
D17*
X139000000Y-70000000D03*
D18*
X141540000Y-70000000D03*
X144080000Y-70000000D03*
X146620000Y-70000000D03*
D17*
X147320000Y-60960000D03*
D18*
X144780000Y-60960000D03*
X142240000Y-60960000D03*
X139700000Y-60960000D03*
X137160000Y-60960000D03*
X134620000Y-60960000D03*
X132080000Y-60960000D03*
X129540000Y-60960000D03*
D17*
X147320000Y-64770000D03*
D18*
X144780000Y-64770000D03*
X142240000Y-64770000D03*
X139700000Y-64770000D03*
X137160000Y-64770000D03*
X134620000Y-64770000D03*
X132080000Y-64770000D03*
X129540000Y-64770000D03*
D17*
X156210000Y-113030000D03*
D18*
X153670000Y-113030000D03*
X151130000Y-113030000D03*
X148590000Y-113030000D03*
X146050000Y-113030000D03*
X143510000Y-113030000D03*
X140970000Y-113030000D03*
X138430000Y-113030000D03*
X135890000Y-113030000D03*
X133350000Y-113030000D03*
D17*
X156210000Y-109220000D03*
D18*
X153670000Y-109220000D03*
X151130000Y-109220000D03*
X148590000Y-109220000D03*
X146050000Y-109220000D03*
X143510000Y-109220000D03*
X140970000Y-109220000D03*
X138430000Y-109220000D03*
X135890000Y-109220000D03*
X133350000Y-109220000D03*
D17*
X129540000Y-113030000D03*
D18*
X127000000Y-113030000D03*
X124460000Y-113030000D03*
X121920000Y-113030000D03*
X119380000Y-113030000D03*
X116840000Y-113030000D03*
X114300000Y-113030000D03*
X111760000Y-113030000D03*
D17*
X129540000Y-109220000D03*
D18*
X127000000Y-109220000D03*
X124460000Y-109220000D03*
X121920000Y-109220000D03*
X119380000Y-109220000D03*
X116840000Y-109220000D03*
X114300000Y-109220000D03*
X111760000Y-109220000D03*
D17*
X124460000Y-60960000D03*
D18*
X121920000Y-60960000D03*
X119380000Y-60960000D03*
X116840000Y-60960000D03*
X114300000Y-60960000D03*
X111760000Y-60960000D03*
D17*
X124460000Y-64770000D03*
D18*
X121920000Y-64770000D03*
X119380000Y-64770000D03*
X116840000Y-64770000D03*
X114300000Y-64770000D03*
X111760000Y-64770000D03*
D17*
X106680000Y-113030000D03*
D18*
X104140000Y-113030000D03*
X101600000Y-113030000D03*
X99060000Y-113030000D03*
X96520000Y-113030000D03*
X93980000Y-113030000D03*
X91440000Y-113030000D03*
X88900000Y-113030000D03*
X86360000Y-113030000D03*
X83820000Y-113030000D03*
D17*
X106680000Y-109220000D03*
D18*
X104140000Y-109220000D03*
X101600000Y-109220000D03*
X99060000Y-109220000D03*
X96520000Y-109220000D03*
X93980000Y-109220000D03*
X91440000Y-109220000D03*
X88900000Y-109220000D03*
X86360000Y-109220000D03*
X83820000Y-109220000D03*
D17*
X139000000Y-74000000D03*
D18*
X141540000Y-74000000D03*
X144080000Y-74000000D03*
X146620000Y-74000000D03*
D17*
X109220000Y-83820000D03*
D18*
X111760000Y-83820000D03*
X109220000Y-86360000D03*
X111760000Y-86360000D03*
X109220000Y-88900000D03*
X111760000Y-88900000D03*
D17*
X115570000Y-83820000D03*
D18*
X118110000Y-83820000D03*
X115570000Y-86360000D03*
X118110000Y-86360000D03*
X115570000Y-88900000D03*
X118110000Y-88900000D03*
D19*
X131250000Y-120000000D03*
X130750000Y-120000000D03*
X130250000Y-120000000D03*
X129750000Y-120000000D03*
X129250000Y-120000000D03*
X128750000Y-120000000D03*
X128250000Y-120000000D03*
X127750000Y-120000000D03*
X127250000Y-120000000D03*
X126750000Y-120000000D03*
D20*
X133550000Y-122700000D03*
X124450000Y-122700000D03*
D17*
X155600000Y-146100000D03*
D18*
X155600000Y-143560000D03*
D21*
X147200000Y-154250000D03*
X147200000Y-152350000D03*
D22*
X126550000Y-116750000D03*
X128450000Y-116750000D03*
D23*
X139000000Y-80000000D03*
D24*
X139000000Y-95240000D03*
D17*
X142900000Y-56600000D03*
D15*
X143000000Y-52560000D03*
X143000000Y-50560000D03*
M02*
