G04 #@! TF.FileFunction,Legend,Bot*
%FSLAX46Y46*%
G04 Gerber Fmt 4.6, Leading zero omitted, Abs format (unit mm)*
G04 Created by KiCad (PCBNEW 4.0.7-e2-6376~58~ubuntu14.04.1) date Tue Sep  5 20:37:50 2017*
%MOMM*%
%LPD*%
G01*
G04 APERTURE LIST*
%ADD10C,0.100000*%
%ADD11C,0.381000*%
%ADD12C,0.120000*%
%ADD13C,0.150000*%
%ADD14C,0.050000*%
G04 APERTURE END LIST*
D10*
D11*
G36*
X154700000Y-116949800D02*
X154700000Y-117350000D01*
X155599900Y-117350000D01*
X155599900Y-116949800D01*
X154700000Y-116949800D01*
G37*
X154700000Y-116949800D02*
X154700000Y-117350000D01*
X155599900Y-117350000D01*
X155599900Y-116949800D01*
X154700000Y-116949800D01*
D10*
X155600000Y-122750000D02*
X155600000Y-116050000D01*
X155600000Y-116050000D02*
X158200000Y-116050000D01*
X158200000Y-119400000D02*
X158200000Y-120700000D01*
X158200000Y-120700000D02*
X158200000Y-122750000D01*
X158200000Y-122750000D02*
X155600000Y-122750000D01*
D11*
G36*
X154700000Y-119950107D02*
X154700000Y-120350000D01*
X155599750Y-120350000D01*
X155599750Y-119950107D01*
X154700000Y-119950107D01*
G37*
X154700000Y-119950107D02*
X154700000Y-120350000D01*
X155599750Y-120350000D01*
X155599750Y-119950107D01*
X154700000Y-119950107D01*
G36*
X154700000Y-121451750D02*
X154700000Y-121850000D01*
X155598890Y-121850000D01*
X155598890Y-121451750D01*
X154700000Y-121451750D01*
G37*
X154700000Y-121451750D02*
X154700000Y-121850000D01*
X155598890Y-121850000D01*
X155598890Y-121451750D01*
X154700000Y-121451750D01*
G36*
X155550000Y-122752280D02*
X155550000Y-123250000D01*
X155949355Y-123250000D01*
X155949355Y-122752280D01*
X155550000Y-122752280D01*
G37*
X155550000Y-122752280D02*
X155550000Y-123250000D01*
X155949355Y-123250000D01*
X155949355Y-122752280D01*
X155550000Y-122752280D01*
G36*
X157850000Y-122750250D02*
X157850000Y-123250000D01*
X158250100Y-123250000D01*
X158250100Y-122750250D01*
X157850000Y-122750250D01*
G37*
X157850000Y-122750250D02*
X157850000Y-123250000D01*
X158250100Y-123250000D01*
X158250100Y-122750250D01*
X157850000Y-122750250D01*
G36*
X157850000Y-115543090D02*
X157850000Y-116050000D01*
X158252420Y-116050000D01*
X158252420Y-115543090D01*
X157850000Y-115543090D01*
G37*
X157850000Y-115543090D02*
X157850000Y-116050000D01*
X158252420Y-116050000D01*
X158252420Y-115543090D01*
X157850000Y-115543090D01*
G36*
X155550000Y-115543150D02*
X155550000Y-116050000D01*
X155948309Y-116050000D01*
X155948309Y-115543150D01*
X155550000Y-115543150D01*
G37*
X155550000Y-115543150D02*
X155550000Y-116050000D01*
X155948309Y-116050000D01*
X155948309Y-115543150D01*
X155550000Y-115543150D01*
D10*
X158200000Y-119400000D02*
X159400000Y-119400000D01*
X159400000Y-119400000D02*
X159700000Y-119700000D01*
X159700000Y-119700000D02*
X159700000Y-120400000D01*
X159700000Y-120400000D02*
X159400000Y-120700000D01*
X159400000Y-120700000D02*
X158200000Y-120700000D01*
X158200000Y-119400000D02*
X158200000Y-116050000D01*
D12*
X117400000Y-31000000D02*
X117400000Y-30000000D01*
X119100000Y-30000000D02*
X119100000Y-31000000D01*
X125650000Y-31000000D02*
X125650000Y-30000000D01*
X127350000Y-30000000D02*
X127350000Y-31000000D01*
X133900000Y-31000000D02*
X133900000Y-30000000D01*
X135600000Y-30000000D02*
X135600000Y-31000000D01*
X142400000Y-31000000D02*
X142400000Y-30000000D01*
X144100000Y-30000000D02*
X144100000Y-31000000D01*
X117400000Y-38000000D02*
X117400000Y-37000000D01*
X119100000Y-37000000D02*
X119100000Y-38000000D01*
X125650000Y-38000000D02*
X125650000Y-37000000D01*
X127350000Y-37000000D02*
X127350000Y-38000000D01*
X133900000Y-38000000D02*
X133900000Y-37000000D01*
X135600000Y-37000000D02*
X135600000Y-38000000D01*
X142150000Y-38000000D02*
X142150000Y-37000000D01*
X143850000Y-37000000D02*
X143850000Y-38000000D01*
X117400000Y-45000000D02*
X117400000Y-44000000D01*
X119100000Y-44000000D02*
X119100000Y-45000000D01*
X125650000Y-45000000D02*
X125650000Y-44000000D01*
X127350000Y-44000000D02*
X127350000Y-45000000D01*
X133900000Y-45000000D02*
X133900000Y-44000000D01*
X135600000Y-44000000D02*
X135600000Y-45000000D01*
X143860000Y-44000000D02*
X143860000Y-45000000D01*
X142160000Y-45000000D02*
X142160000Y-44000000D01*
X119100000Y-51000000D02*
X119100000Y-52000000D01*
X117400000Y-52000000D02*
X117400000Y-51000000D01*
X127360000Y-51000000D02*
X127360000Y-52000000D01*
X125660000Y-52000000D02*
X125660000Y-51000000D01*
X135600000Y-51000000D02*
X135600000Y-52000000D01*
X133900000Y-52000000D02*
X133900000Y-51000000D01*
X131250000Y-115900000D02*
X132250000Y-115900000D01*
X132250000Y-117600000D02*
X131250000Y-117600000D01*
X136350000Y-117600000D02*
X135350000Y-117600000D01*
X135350000Y-115900000D02*
X136350000Y-115900000D01*
D13*
X126200000Y-119500000D02*
G75*
G03X126200000Y-119500000I-100000J0D01*
G01*
X124300000Y-120100000D02*
X126400000Y-120100000D01*
X133700000Y-120100000D02*
X131600000Y-120100000D01*
X124100000Y-123700000D02*
X124100000Y-123500000D01*
X124100000Y-119800000D02*
X124100000Y-121900000D01*
X133900000Y-123500000D02*
X133900000Y-123700000D01*
X133900000Y-120200000D02*
X133900000Y-121900000D01*
X133900000Y-123700000D02*
X133100000Y-123700000D01*
X133100000Y-123700000D02*
X133100000Y-124700000D01*
X133100000Y-124700000D02*
X124900000Y-124700000D01*
X124900000Y-124700000D02*
X124900000Y-123700000D01*
X124900000Y-123700000D02*
X124100000Y-123700000D01*
X124100000Y-119800000D02*
X124300000Y-119800000D01*
X124300000Y-119800000D02*
X124300000Y-120100000D01*
X133700000Y-120100000D02*
X133700000Y-119800000D01*
X133700000Y-119800000D02*
X133900000Y-119800000D01*
X133900000Y-119800000D02*
X133900000Y-120200000D01*
D12*
X146320000Y-152700000D02*
X146320000Y-153900000D01*
X148080000Y-153900000D02*
X148080000Y-152700000D01*
X128100000Y-115870000D02*
X126900000Y-115870000D01*
X126900000Y-117630000D02*
X128100000Y-117630000D01*
X143850000Y-51060000D02*
X143850000Y-52060000D01*
X142150000Y-52060000D02*
X142150000Y-51060000D01*
D14*
X155023996Y-118542824D02*
X154909644Y-118580941D01*
X154871527Y-118619058D01*
X154833410Y-118695292D01*
X154833410Y-118809644D01*
X154871527Y-118885878D01*
X154909644Y-118923996D01*
X154985879Y-118962113D01*
X155290816Y-118962113D01*
X155290816Y-118161652D01*
X155023996Y-118161652D01*
X154947761Y-118199769D01*
X154909644Y-118237886D01*
X154871527Y-118314121D01*
X154871527Y-118390355D01*
X154909644Y-118466589D01*
X154947761Y-118504707D01*
X155023996Y-118542824D01*
X155290816Y-118542824D01*
X154071066Y-118962113D02*
X154528472Y-118962113D01*
X154299769Y-118962113D02*
X154299769Y-118161652D01*
X154376003Y-118276003D01*
X154452238Y-118352238D01*
X154528472Y-118390355D01*
X157846728Y-124973472D02*
X157846728Y-124172816D01*
X157541716Y-124172816D01*
X157465463Y-124210942D01*
X157427336Y-124249068D01*
X157389210Y-124325321D01*
X157389210Y-124439701D01*
X157427336Y-124515954D01*
X157465463Y-124554080D01*
X157541716Y-124592207D01*
X157846728Y-124592207D01*
X156931692Y-124973472D02*
X157007945Y-124935345D01*
X157046072Y-124897219D01*
X157084198Y-124820966D01*
X157084198Y-124592207D01*
X157046072Y-124515954D01*
X157007945Y-124477827D01*
X156931692Y-124439701D01*
X156817313Y-124439701D01*
X156741060Y-124477827D01*
X156702933Y-124515954D01*
X156664807Y-124592207D01*
X156664807Y-124820966D01*
X156702933Y-124897219D01*
X156741060Y-124935345D01*
X156817313Y-124973472D01*
X156931692Y-124973472D01*
X156397922Y-124439701D02*
X156245416Y-124973472D01*
X156092910Y-124592207D01*
X155940404Y-124973472D01*
X155787898Y-124439701D01*
X155177875Y-124935345D02*
X155254128Y-124973472D01*
X155406634Y-124973472D01*
X155482887Y-124935345D01*
X155521013Y-124859092D01*
X155521013Y-124554080D01*
X155482887Y-124477827D01*
X155406634Y-124439701D01*
X155254128Y-124439701D01*
X155177875Y-124477827D01*
X155139748Y-124554080D01*
X155139748Y-124630333D01*
X155521013Y-124706586D01*
X154796610Y-124973472D02*
X154796610Y-124439701D01*
X154796610Y-124592207D02*
X154758483Y-124515954D01*
X154720357Y-124477827D01*
X154644104Y-124439701D01*
X154567851Y-124439701D01*
D13*
X117107143Y-30333334D02*
X117154762Y-30285715D01*
X117202381Y-30142858D01*
X117202381Y-30047620D01*
X117154762Y-29904762D01*
X117059524Y-29809524D01*
X116964286Y-29761905D01*
X116773810Y-29714286D01*
X116630952Y-29714286D01*
X116440476Y-29761905D01*
X116345238Y-29809524D01*
X116250000Y-29904762D01*
X116202381Y-30047620D01*
X116202381Y-30142858D01*
X116250000Y-30285715D01*
X116297619Y-30333334D01*
X116202381Y-30666667D02*
X116202381Y-31285715D01*
X116583333Y-30952381D01*
X116583333Y-31095239D01*
X116630952Y-31190477D01*
X116678571Y-31238096D01*
X116773810Y-31285715D01*
X117011905Y-31285715D01*
X117107143Y-31238096D01*
X117154762Y-31190477D01*
X117202381Y-31095239D01*
X117202381Y-30809524D01*
X117154762Y-30714286D01*
X117107143Y-30666667D01*
X125357143Y-30333334D02*
X125404762Y-30285715D01*
X125452381Y-30142858D01*
X125452381Y-30047620D01*
X125404762Y-29904762D01*
X125309524Y-29809524D01*
X125214286Y-29761905D01*
X125023810Y-29714286D01*
X124880952Y-29714286D01*
X124690476Y-29761905D01*
X124595238Y-29809524D01*
X124500000Y-29904762D01*
X124452381Y-30047620D01*
X124452381Y-30142858D01*
X124500000Y-30285715D01*
X124547619Y-30333334D01*
X124785714Y-31190477D02*
X125452381Y-31190477D01*
X124404762Y-30952381D02*
X125119048Y-30714286D01*
X125119048Y-31333334D01*
X133607143Y-30333334D02*
X133654762Y-30285715D01*
X133702381Y-30142858D01*
X133702381Y-30047620D01*
X133654762Y-29904762D01*
X133559524Y-29809524D01*
X133464286Y-29761905D01*
X133273810Y-29714286D01*
X133130952Y-29714286D01*
X132940476Y-29761905D01*
X132845238Y-29809524D01*
X132750000Y-29904762D01*
X132702381Y-30047620D01*
X132702381Y-30142858D01*
X132750000Y-30285715D01*
X132797619Y-30333334D01*
X132702381Y-31238096D02*
X132702381Y-30761905D01*
X133178571Y-30714286D01*
X133130952Y-30761905D01*
X133083333Y-30857143D01*
X133083333Y-31095239D01*
X133130952Y-31190477D01*
X133178571Y-31238096D01*
X133273810Y-31285715D01*
X133511905Y-31285715D01*
X133607143Y-31238096D01*
X133654762Y-31190477D01*
X133702381Y-31095239D01*
X133702381Y-30857143D01*
X133654762Y-30761905D01*
X133607143Y-30714286D01*
X142107143Y-30333334D02*
X142154762Y-30285715D01*
X142202381Y-30142858D01*
X142202381Y-30047620D01*
X142154762Y-29904762D01*
X142059524Y-29809524D01*
X141964286Y-29761905D01*
X141773810Y-29714286D01*
X141630952Y-29714286D01*
X141440476Y-29761905D01*
X141345238Y-29809524D01*
X141250000Y-29904762D01*
X141202381Y-30047620D01*
X141202381Y-30142858D01*
X141250000Y-30285715D01*
X141297619Y-30333334D01*
X141202381Y-31190477D02*
X141202381Y-31000000D01*
X141250000Y-30904762D01*
X141297619Y-30857143D01*
X141440476Y-30761905D01*
X141630952Y-30714286D01*
X142011905Y-30714286D01*
X142107143Y-30761905D01*
X142154762Y-30809524D01*
X142202381Y-30904762D01*
X142202381Y-31095239D01*
X142154762Y-31190477D01*
X142107143Y-31238096D01*
X142011905Y-31285715D01*
X141773810Y-31285715D01*
X141678571Y-31238096D01*
X141630952Y-31190477D01*
X141583333Y-31095239D01*
X141583333Y-30904762D01*
X141630952Y-30809524D01*
X141678571Y-30761905D01*
X141773810Y-30714286D01*
X117107143Y-37333334D02*
X117154762Y-37285715D01*
X117202381Y-37142858D01*
X117202381Y-37047620D01*
X117154762Y-36904762D01*
X117059524Y-36809524D01*
X116964286Y-36761905D01*
X116773810Y-36714286D01*
X116630952Y-36714286D01*
X116440476Y-36761905D01*
X116345238Y-36809524D01*
X116250000Y-36904762D01*
X116202381Y-37047620D01*
X116202381Y-37142858D01*
X116250000Y-37285715D01*
X116297619Y-37333334D01*
X116202381Y-37666667D02*
X116202381Y-38333334D01*
X117202381Y-37904762D01*
X125357143Y-37333334D02*
X125404762Y-37285715D01*
X125452381Y-37142858D01*
X125452381Y-37047620D01*
X125404762Y-36904762D01*
X125309524Y-36809524D01*
X125214286Y-36761905D01*
X125023810Y-36714286D01*
X124880952Y-36714286D01*
X124690476Y-36761905D01*
X124595238Y-36809524D01*
X124500000Y-36904762D01*
X124452381Y-37047620D01*
X124452381Y-37142858D01*
X124500000Y-37285715D01*
X124547619Y-37333334D01*
X124880952Y-37904762D02*
X124833333Y-37809524D01*
X124785714Y-37761905D01*
X124690476Y-37714286D01*
X124642857Y-37714286D01*
X124547619Y-37761905D01*
X124500000Y-37809524D01*
X124452381Y-37904762D01*
X124452381Y-38095239D01*
X124500000Y-38190477D01*
X124547619Y-38238096D01*
X124642857Y-38285715D01*
X124690476Y-38285715D01*
X124785714Y-38238096D01*
X124833333Y-38190477D01*
X124880952Y-38095239D01*
X124880952Y-37904762D01*
X124928571Y-37809524D01*
X124976190Y-37761905D01*
X125071429Y-37714286D01*
X125261905Y-37714286D01*
X125357143Y-37761905D01*
X125404762Y-37809524D01*
X125452381Y-37904762D01*
X125452381Y-38095239D01*
X125404762Y-38190477D01*
X125357143Y-38238096D01*
X125261905Y-38285715D01*
X125071429Y-38285715D01*
X124976190Y-38238096D01*
X124928571Y-38190477D01*
X124880952Y-38095239D01*
X133607143Y-37333334D02*
X133654762Y-37285715D01*
X133702381Y-37142858D01*
X133702381Y-37047620D01*
X133654762Y-36904762D01*
X133559524Y-36809524D01*
X133464286Y-36761905D01*
X133273810Y-36714286D01*
X133130952Y-36714286D01*
X132940476Y-36761905D01*
X132845238Y-36809524D01*
X132750000Y-36904762D01*
X132702381Y-37047620D01*
X132702381Y-37142858D01*
X132750000Y-37285715D01*
X132797619Y-37333334D01*
X133702381Y-37809524D02*
X133702381Y-38000000D01*
X133654762Y-38095239D01*
X133607143Y-38142858D01*
X133464286Y-38238096D01*
X133273810Y-38285715D01*
X132892857Y-38285715D01*
X132797619Y-38238096D01*
X132750000Y-38190477D01*
X132702381Y-38095239D01*
X132702381Y-37904762D01*
X132750000Y-37809524D01*
X132797619Y-37761905D01*
X132892857Y-37714286D01*
X133130952Y-37714286D01*
X133226190Y-37761905D01*
X133273810Y-37809524D01*
X133321429Y-37904762D01*
X133321429Y-38095239D01*
X133273810Y-38190477D01*
X133226190Y-38238096D01*
X133130952Y-38285715D01*
X141857143Y-36857143D02*
X141904762Y-36809524D01*
X141952381Y-36666667D01*
X141952381Y-36571429D01*
X141904762Y-36428571D01*
X141809524Y-36333333D01*
X141714286Y-36285714D01*
X141523810Y-36238095D01*
X141380952Y-36238095D01*
X141190476Y-36285714D01*
X141095238Y-36333333D01*
X141000000Y-36428571D01*
X140952381Y-36571429D01*
X140952381Y-36666667D01*
X141000000Y-36809524D01*
X141047619Y-36857143D01*
X141952381Y-37809524D02*
X141952381Y-37238095D01*
X141952381Y-37523809D02*
X140952381Y-37523809D01*
X141095238Y-37428571D01*
X141190476Y-37333333D01*
X141238095Y-37238095D01*
X140952381Y-38428571D02*
X140952381Y-38523810D01*
X141000000Y-38619048D01*
X141047619Y-38666667D01*
X141142857Y-38714286D01*
X141333333Y-38761905D01*
X141571429Y-38761905D01*
X141761905Y-38714286D01*
X141857143Y-38666667D01*
X141904762Y-38619048D01*
X141952381Y-38523810D01*
X141952381Y-38428571D01*
X141904762Y-38333333D01*
X141857143Y-38285714D01*
X141761905Y-38238095D01*
X141571429Y-38190476D01*
X141333333Y-38190476D01*
X141142857Y-38238095D01*
X141047619Y-38285714D01*
X141000000Y-38333333D01*
X140952381Y-38428571D01*
X117107143Y-43857143D02*
X117154762Y-43809524D01*
X117202381Y-43666667D01*
X117202381Y-43571429D01*
X117154762Y-43428571D01*
X117059524Y-43333333D01*
X116964286Y-43285714D01*
X116773810Y-43238095D01*
X116630952Y-43238095D01*
X116440476Y-43285714D01*
X116345238Y-43333333D01*
X116250000Y-43428571D01*
X116202381Y-43571429D01*
X116202381Y-43666667D01*
X116250000Y-43809524D01*
X116297619Y-43857143D01*
X117202381Y-44809524D02*
X117202381Y-44238095D01*
X117202381Y-44523809D02*
X116202381Y-44523809D01*
X116345238Y-44428571D01*
X116440476Y-44333333D01*
X116488095Y-44238095D01*
X117202381Y-45761905D02*
X117202381Y-45190476D01*
X117202381Y-45476190D02*
X116202381Y-45476190D01*
X116345238Y-45380952D01*
X116440476Y-45285714D01*
X116488095Y-45190476D01*
X125357143Y-43857143D02*
X125404762Y-43809524D01*
X125452381Y-43666667D01*
X125452381Y-43571429D01*
X125404762Y-43428571D01*
X125309524Y-43333333D01*
X125214286Y-43285714D01*
X125023810Y-43238095D01*
X124880952Y-43238095D01*
X124690476Y-43285714D01*
X124595238Y-43333333D01*
X124500000Y-43428571D01*
X124452381Y-43571429D01*
X124452381Y-43666667D01*
X124500000Y-43809524D01*
X124547619Y-43857143D01*
X125452381Y-44809524D02*
X125452381Y-44238095D01*
X125452381Y-44523809D02*
X124452381Y-44523809D01*
X124595238Y-44428571D01*
X124690476Y-44333333D01*
X124738095Y-44238095D01*
X124547619Y-45190476D02*
X124500000Y-45238095D01*
X124452381Y-45333333D01*
X124452381Y-45571429D01*
X124500000Y-45666667D01*
X124547619Y-45714286D01*
X124642857Y-45761905D01*
X124738095Y-45761905D01*
X124880952Y-45714286D01*
X125452381Y-45142857D01*
X125452381Y-45761905D01*
X133607143Y-43857143D02*
X133654762Y-43809524D01*
X133702381Y-43666667D01*
X133702381Y-43571429D01*
X133654762Y-43428571D01*
X133559524Y-43333333D01*
X133464286Y-43285714D01*
X133273810Y-43238095D01*
X133130952Y-43238095D01*
X132940476Y-43285714D01*
X132845238Y-43333333D01*
X132750000Y-43428571D01*
X132702381Y-43571429D01*
X132702381Y-43666667D01*
X132750000Y-43809524D01*
X132797619Y-43857143D01*
X133702381Y-44809524D02*
X133702381Y-44238095D01*
X133702381Y-44523809D02*
X132702381Y-44523809D01*
X132845238Y-44428571D01*
X132940476Y-44333333D01*
X132988095Y-44238095D01*
X132702381Y-45142857D02*
X132702381Y-45761905D01*
X133083333Y-45428571D01*
X133083333Y-45571429D01*
X133130952Y-45666667D01*
X133178571Y-45714286D01*
X133273810Y-45761905D01*
X133511905Y-45761905D01*
X133607143Y-45714286D01*
X133654762Y-45666667D01*
X133702381Y-45571429D01*
X133702381Y-45285714D01*
X133654762Y-45190476D01*
X133607143Y-45142857D01*
X144867143Y-43857143D02*
X144914762Y-43809524D01*
X144962381Y-43666667D01*
X144962381Y-43571429D01*
X144914762Y-43428571D01*
X144819524Y-43333333D01*
X144724286Y-43285714D01*
X144533810Y-43238095D01*
X144390952Y-43238095D01*
X144200476Y-43285714D01*
X144105238Y-43333333D01*
X144010000Y-43428571D01*
X143962381Y-43571429D01*
X143962381Y-43666667D01*
X144010000Y-43809524D01*
X144057619Y-43857143D01*
X144962381Y-44809524D02*
X144962381Y-44238095D01*
X144962381Y-44523809D02*
X143962381Y-44523809D01*
X144105238Y-44428571D01*
X144200476Y-44333333D01*
X144248095Y-44238095D01*
X144295714Y-45666667D02*
X144962381Y-45666667D01*
X143914762Y-45428571D02*
X144629048Y-45190476D01*
X144629048Y-45809524D01*
X120107143Y-50857143D02*
X120154762Y-50809524D01*
X120202381Y-50666667D01*
X120202381Y-50571429D01*
X120154762Y-50428571D01*
X120059524Y-50333333D01*
X119964286Y-50285714D01*
X119773810Y-50238095D01*
X119630952Y-50238095D01*
X119440476Y-50285714D01*
X119345238Y-50333333D01*
X119250000Y-50428571D01*
X119202381Y-50571429D01*
X119202381Y-50666667D01*
X119250000Y-50809524D01*
X119297619Y-50857143D01*
X120202381Y-51809524D02*
X120202381Y-51238095D01*
X120202381Y-51523809D02*
X119202381Y-51523809D01*
X119345238Y-51428571D01*
X119440476Y-51333333D01*
X119488095Y-51238095D01*
X119202381Y-52714286D02*
X119202381Y-52238095D01*
X119678571Y-52190476D01*
X119630952Y-52238095D01*
X119583333Y-52333333D01*
X119583333Y-52571429D01*
X119630952Y-52666667D01*
X119678571Y-52714286D01*
X119773810Y-52761905D01*
X120011905Y-52761905D01*
X120107143Y-52714286D01*
X120154762Y-52666667D01*
X120202381Y-52571429D01*
X120202381Y-52333333D01*
X120154762Y-52238095D01*
X120107143Y-52190476D01*
X128367143Y-50857143D02*
X128414762Y-50809524D01*
X128462381Y-50666667D01*
X128462381Y-50571429D01*
X128414762Y-50428571D01*
X128319524Y-50333333D01*
X128224286Y-50285714D01*
X128033810Y-50238095D01*
X127890952Y-50238095D01*
X127700476Y-50285714D01*
X127605238Y-50333333D01*
X127510000Y-50428571D01*
X127462381Y-50571429D01*
X127462381Y-50666667D01*
X127510000Y-50809524D01*
X127557619Y-50857143D01*
X128462381Y-51809524D02*
X128462381Y-51238095D01*
X128462381Y-51523809D02*
X127462381Y-51523809D01*
X127605238Y-51428571D01*
X127700476Y-51333333D01*
X127748095Y-51238095D01*
X127462381Y-52666667D02*
X127462381Y-52476190D01*
X127510000Y-52380952D01*
X127557619Y-52333333D01*
X127700476Y-52238095D01*
X127890952Y-52190476D01*
X128271905Y-52190476D01*
X128367143Y-52238095D01*
X128414762Y-52285714D01*
X128462381Y-52380952D01*
X128462381Y-52571429D01*
X128414762Y-52666667D01*
X128367143Y-52714286D01*
X128271905Y-52761905D01*
X128033810Y-52761905D01*
X127938571Y-52714286D01*
X127890952Y-52666667D01*
X127843333Y-52571429D01*
X127843333Y-52380952D01*
X127890952Y-52285714D01*
X127938571Y-52238095D01*
X128033810Y-52190476D01*
X136607143Y-50857143D02*
X136654762Y-50809524D01*
X136702381Y-50666667D01*
X136702381Y-50571429D01*
X136654762Y-50428571D01*
X136559524Y-50333333D01*
X136464286Y-50285714D01*
X136273810Y-50238095D01*
X136130952Y-50238095D01*
X135940476Y-50285714D01*
X135845238Y-50333333D01*
X135750000Y-50428571D01*
X135702381Y-50571429D01*
X135702381Y-50666667D01*
X135750000Y-50809524D01*
X135797619Y-50857143D01*
X136702381Y-51809524D02*
X136702381Y-51238095D01*
X136702381Y-51523809D02*
X135702381Y-51523809D01*
X135845238Y-51428571D01*
X135940476Y-51333333D01*
X135988095Y-51238095D01*
X135702381Y-52142857D02*
X135702381Y-52809524D01*
X136702381Y-52380952D01*
X132392857Y-115607143D02*
X132440476Y-115654762D01*
X132583333Y-115702381D01*
X132678571Y-115702381D01*
X132821429Y-115654762D01*
X132916667Y-115559524D01*
X132964286Y-115464286D01*
X133011905Y-115273810D01*
X133011905Y-115130952D01*
X132964286Y-114940476D01*
X132916667Y-114845238D01*
X132821429Y-114750000D01*
X132678571Y-114702381D01*
X132583333Y-114702381D01*
X132440476Y-114750000D01*
X132392857Y-114797619D01*
X131440476Y-115702381D02*
X132011905Y-115702381D01*
X131726191Y-115702381D02*
X131726191Y-114702381D01*
X131821429Y-114845238D01*
X131916667Y-114940476D01*
X132011905Y-114988095D01*
X130869048Y-115130952D02*
X130964286Y-115083333D01*
X131011905Y-115035714D01*
X131059524Y-114940476D01*
X131059524Y-114892857D01*
X131011905Y-114797619D01*
X130964286Y-114750000D01*
X130869048Y-114702381D01*
X130678571Y-114702381D01*
X130583333Y-114750000D01*
X130535714Y-114797619D01*
X130488095Y-114892857D01*
X130488095Y-114940476D01*
X130535714Y-115035714D01*
X130583333Y-115083333D01*
X130678571Y-115130952D01*
X130869048Y-115130952D01*
X130964286Y-115178571D01*
X131011905Y-115226190D01*
X131059524Y-115321429D01*
X131059524Y-115511905D01*
X131011905Y-115607143D01*
X130964286Y-115654762D01*
X130869048Y-115702381D01*
X130678571Y-115702381D01*
X130583333Y-115654762D01*
X130535714Y-115607143D01*
X130488095Y-115511905D01*
X130488095Y-115321429D01*
X130535714Y-115226190D01*
X130583333Y-115178571D01*
X130678571Y-115130952D01*
X136492857Y-118607143D02*
X136540476Y-118654762D01*
X136683333Y-118702381D01*
X136778571Y-118702381D01*
X136921429Y-118654762D01*
X137016667Y-118559524D01*
X137064286Y-118464286D01*
X137111905Y-118273810D01*
X137111905Y-118130952D01*
X137064286Y-117940476D01*
X137016667Y-117845238D01*
X136921429Y-117750000D01*
X136778571Y-117702381D01*
X136683333Y-117702381D01*
X136540476Y-117750000D01*
X136492857Y-117797619D01*
X136111905Y-117797619D02*
X136064286Y-117750000D01*
X135969048Y-117702381D01*
X135730952Y-117702381D01*
X135635714Y-117750000D01*
X135588095Y-117797619D01*
X135540476Y-117892857D01*
X135540476Y-117988095D01*
X135588095Y-118130952D01*
X136159524Y-118702381D01*
X135540476Y-118702381D01*
X134588095Y-118702381D02*
X135159524Y-118702381D01*
X134873810Y-118702381D02*
X134873810Y-117702381D01*
X134969048Y-117845238D01*
X135064286Y-117940476D01*
X135159524Y-117988095D01*
X133409523Y-117652381D02*
X133409523Y-118366667D01*
X133457143Y-118509524D01*
X133552381Y-118604762D01*
X133695238Y-118652381D01*
X133790476Y-118652381D01*
X132409523Y-118652381D02*
X132980952Y-118652381D01*
X132695238Y-118652381D02*
X132695238Y-117652381D01*
X132790476Y-117795238D01*
X132885714Y-117890476D01*
X132980952Y-117938095D01*
X131552380Y-117985714D02*
X131552380Y-118652381D01*
X131790476Y-117604762D02*
X132028571Y-118319048D01*
X131409523Y-118319048D01*
X149302381Y-153133334D02*
X148826190Y-152800000D01*
X149302381Y-152561905D02*
X148302381Y-152561905D01*
X148302381Y-152942858D01*
X148350000Y-153038096D01*
X148397619Y-153085715D01*
X148492857Y-153133334D01*
X148635714Y-153133334D01*
X148730952Y-153085715D01*
X148778571Y-153038096D01*
X148826190Y-152942858D01*
X148826190Y-152561905D01*
X148302381Y-153990477D02*
X148302381Y-153800000D01*
X148350000Y-153704762D01*
X148397619Y-153657143D01*
X148540476Y-153561905D01*
X148730952Y-153514286D01*
X149111905Y-153514286D01*
X149207143Y-153561905D01*
X149254762Y-153609524D01*
X149302381Y-153704762D01*
X149302381Y-153895239D01*
X149254762Y-153990477D01*
X149207143Y-154038096D01*
X149111905Y-154085715D01*
X148873810Y-154085715D01*
X148778571Y-154038096D01*
X148730952Y-153990477D01*
X148683333Y-153895239D01*
X148683333Y-153704762D01*
X148730952Y-153609524D01*
X148778571Y-153561905D01*
X148873810Y-153514286D01*
X127666666Y-118852381D02*
X128000000Y-118376190D01*
X128238095Y-118852381D02*
X128238095Y-117852381D01*
X127857142Y-117852381D01*
X127761904Y-117900000D01*
X127714285Y-117947619D01*
X127666666Y-118042857D01*
X127666666Y-118185714D01*
X127714285Y-118280952D01*
X127761904Y-118328571D01*
X127857142Y-118376190D01*
X128238095Y-118376190D01*
X127095238Y-118280952D02*
X127190476Y-118233333D01*
X127238095Y-118185714D01*
X127285714Y-118090476D01*
X127285714Y-118042857D01*
X127238095Y-117947619D01*
X127190476Y-117900000D01*
X127095238Y-117852381D01*
X126904761Y-117852381D01*
X126809523Y-117900000D01*
X126761904Y-117947619D01*
X126714285Y-118042857D01*
X126714285Y-118090476D01*
X126761904Y-118185714D01*
X126809523Y-118233333D01*
X126904761Y-118280952D01*
X127095238Y-118280952D01*
X127190476Y-118328571D01*
X127238095Y-118376190D01*
X127285714Y-118471429D01*
X127285714Y-118661905D01*
X127238095Y-118757143D01*
X127190476Y-118804762D01*
X127095238Y-118852381D01*
X126904761Y-118852381D01*
X126809523Y-118804762D01*
X126761904Y-118757143D01*
X126714285Y-118661905D01*
X126714285Y-118471429D01*
X126761904Y-118376190D01*
X126809523Y-118328571D01*
X126904761Y-118280952D01*
X144857143Y-50917143D02*
X144904762Y-50869524D01*
X144952381Y-50726667D01*
X144952381Y-50631429D01*
X144904762Y-50488571D01*
X144809524Y-50393333D01*
X144714286Y-50345714D01*
X144523810Y-50298095D01*
X144380952Y-50298095D01*
X144190476Y-50345714D01*
X144095238Y-50393333D01*
X144000000Y-50488571D01*
X143952381Y-50631429D01*
X143952381Y-50726667D01*
X144000000Y-50869524D01*
X144047619Y-50917143D01*
X144047619Y-51298095D02*
X144000000Y-51345714D01*
X143952381Y-51440952D01*
X143952381Y-51679048D01*
X144000000Y-51774286D01*
X144047619Y-51821905D01*
X144142857Y-51869524D01*
X144238095Y-51869524D01*
X144380952Y-51821905D01*
X144952381Y-51250476D01*
X144952381Y-51869524D01*
X144047619Y-52250476D02*
X144000000Y-52298095D01*
X143952381Y-52393333D01*
X143952381Y-52631429D01*
X144000000Y-52726667D01*
X144047619Y-52774286D01*
X144142857Y-52821905D01*
X144238095Y-52821905D01*
X144380952Y-52774286D01*
X144952381Y-52202857D01*
X144952381Y-52821905D01*
M02*
