G04 #@! TF.FileFunction,Copper,L1,Top,Signal*
%FSLAX46Y46*%
G04 Gerber Fmt 4.6, Leading zero omitted, Abs format (unit mm)*
G04 Created by KiCad (PCBNEW 4.0.7-e2-6376~58~ubuntu14.04.1) date Tue Sep  5 20:37:50 2017*
%MOMM*%
%LPD*%
G01*
G04 APERTURE LIST*
%ADD10C,0.100000*%
%ADD11C,0.010000*%
%ADD12C,2.400000*%
%ADD13O,2.400000X2.400000*%
%ADD14R,1.000000X1.250000*%
%ADD15R,1.250000X1.000000*%
%ADD16R,1.000000X1.600000*%
%ADD17R,1.600000X1.000000*%
%ADD18R,1.500000X1.000000*%
%ADD19R,1.700000X1.700000*%
%ADD20O,1.700000X1.700000*%
%ADD21C,0.500000*%
%ADD22R,0.800000X2.000000*%
%ADD23R,1.300000X0.700000*%
%ADD24R,0.700000X1.300000*%
%ADD25R,1.050000X0.650000*%
%ADD26C,1.600000*%
%ADD27O,1.600000X1.600000*%
%ADD28R,0.558800X1.320800*%
%ADD29R,1.750440X0.700176*%
%ADD30R,1.752980X0.701191*%
%ADD31R,1.751610X0.700643*%
%ADD32R,1.752180X0.700871*%
%ADD33R,1.752460X0.700982*%
%ADD34R,1.750430X0.700174*%
%ADD35R,1.751770X0.700710*%
%ADD36R,1.752640X0.701055*%
%ADD37R,1.500920X1.500920*%
%ADD38R,1.501800X1.501800*%
%ADD39R,1.501100X0.800585*%
%ADD40R,1.400640X0.800364*%
%ADD41R,1.000010X1.500010*%
%ADD42R,1.501930X1.001290*%
%ADD43C,0.600000*%
%ADD44C,0.500000*%
%ADD45C,0.200000*%
%ADD46C,0.250000*%
G04 APERTURE END LIST*
D10*
D11*
G36*
X93943651Y-146065876D02*
X81948500Y-146059500D01*
X81942125Y-133556350D01*
X81935749Y-121053200D01*
X104897400Y-121053200D01*
X104897401Y-133042029D01*
X104897401Y-145030858D01*
X93943650Y-145024479D01*
X82989900Y-145018100D01*
X82983523Y-133556350D01*
X82977145Y-122094600D01*
X103856000Y-122094600D01*
X103856000Y-143989464D01*
X84031300Y-143976700D01*
X84024920Y-133556350D01*
X84018539Y-123136000D01*
X102840000Y-123136000D01*
X102840000Y-142948000D01*
X93986286Y-142948000D01*
X93179162Y-142947979D01*
X92421335Y-142947913D01*
X91711301Y-142947795D01*
X91047556Y-142947619D01*
X90428598Y-142947379D01*
X89852922Y-142947070D01*
X89319026Y-142946684D01*
X88825407Y-142946216D01*
X88370559Y-142945659D01*
X87952981Y-142945008D01*
X87571168Y-142944256D01*
X87223618Y-142943397D01*
X86908827Y-142942425D01*
X86625291Y-142941334D01*
X86371507Y-142940117D01*
X86145971Y-142938770D01*
X85947181Y-142937284D01*
X85773633Y-142935655D01*
X85623823Y-142933876D01*
X85496247Y-142931941D01*
X85389404Y-142929844D01*
X85301788Y-142927579D01*
X85231897Y-142925140D01*
X85178227Y-142922519D01*
X85139274Y-142919713D01*
X85113537Y-142916713D01*
X85099509Y-142913515D01*
X85096286Y-142911714D01*
X85093067Y-142903458D01*
X85090039Y-142884348D01*
X85087197Y-142852923D01*
X85084535Y-142807721D01*
X85082047Y-142747279D01*
X85079728Y-142670136D01*
X85077573Y-142574831D01*
X85075575Y-142459900D01*
X85073729Y-142323882D01*
X85072029Y-142165315D01*
X85070469Y-141982738D01*
X85069045Y-141774687D01*
X85067750Y-141539702D01*
X85066578Y-141276321D01*
X85065525Y-140983080D01*
X85064584Y-140658519D01*
X85063750Y-140301176D01*
X85063017Y-139909588D01*
X85062379Y-139482294D01*
X85061831Y-139017831D01*
X85061367Y-138514739D01*
X85060982Y-137971554D01*
X85060669Y-137386815D01*
X85060424Y-136759060D01*
X85060240Y-136086826D01*
X85060113Y-135368653D01*
X85060035Y-134603078D01*
X85060002Y-133788640D01*
X85060000Y-133513714D01*
X85060000Y-124152000D01*
X101773200Y-124152000D01*
X101773200Y-141906681D01*
X93943650Y-141900290D01*
X86114100Y-141893900D01*
X86101324Y-125218800D01*
X100731800Y-125218800D01*
X100731800Y-125777600D01*
X86660200Y-125777600D01*
X86660200Y-141347800D01*
X101239800Y-141347800D01*
X101239800Y-124685400D01*
X85618800Y-124685400D01*
X85618800Y-142389200D01*
X102332000Y-142389200D01*
X102332000Y-123669400D01*
X84577400Y-123669400D01*
X84577400Y-143430600D01*
X103348000Y-143430600D01*
X103348000Y-122653400D01*
X83536000Y-122653400D01*
X83536000Y-144472000D01*
X104389400Y-144472000D01*
X104389400Y-121612000D01*
X82494600Y-121612000D01*
X82494600Y-145513400D01*
X105405400Y-145513400D01*
X105405400Y-121053200D01*
X105938800Y-121053200D01*
X105938801Y-133562726D01*
X105938801Y-146072253D01*
X93943651Y-146065876D01*
X93943651Y-146065876D01*
G37*
X93943651Y-146065876D02*
X81948500Y-146059500D01*
X81942125Y-133556350D01*
X81935749Y-121053200D01*
X104897400Y-121053200D01*
X104897401Y-133042029D01*
X104897401Y-145030858D01*
X93943650Y-145024479D01*
X82989900Y-145018100D01*
X82983523Y-133556350D01*
X82977145Y-122094600D01*
X103856000Y-122094600D01*
X103856000Y-143989464D01*
X84031300Y-143976700D01*
X84024920Y-133556350D01*
X84018539Y-123136000D01*
X102840000Y-123136000D01*
X102840000Y-142948000D01*
X93986286Y-142948000D01*
X93179162Y-142947979D01*
X92421335Y-142947913D01*
X91711301Y-142947795D01*
X91047556Y-142947619D01*
X90428598Y-142947379D01*
X89852922Y-142947070D01*
X89319026Y-142946684D01*
X88825407Y-142946216D01*
X88370559Y-142945659D01*
X87952981Y-142945008D01*
X87571168Y-142944256D01*
X87223618Y-142943397D01*
X86908827Y-142942425D01*
X86625291Y-142941334D01*
X86371507Y-142940117D01*
X86145971Y-142938770D01*
X85947181Y-142937284D01*
X85773633Y-142935655D01*
X85623823Y-142933876D01*
X85496247Y-142931941D01*
X85389404Y-142929844D01*
X85301788Y-142927579D01*
X85231897Y-142925140D01*
X85178227Y-142922519D01*
X85139274Y-142919713D01*
X85113537Y-142916713D01*
X85099509Y-142913515D01*
X85096286Y-142911714D01*
X85093067Y-142903458D01*
X85090039Y-142884348D01*
X85087197Y-142852923D01*
X85084535Y-142807721D01*
X85082047Y-142747279D01*
X85079728Y-142670136D01*
X85077573Y-142574831D01*
X85075575Y-142459900D01*
X85073729Y-142323882D01*
X85072029Y-142165315D01*
X85070469Y-141982738D01*
X85069045Y-141774687D01*
X85067750Y-141539702D01*
X85066578Y-141276321D01*
X85065525Y-140983080D01*
X85064584Y-140658519D01*
X85063750Y-140301176D01*
X85063017Y-139909588D01*
X85062379Y-139482294D01*
X85061831Y-139017831D01*
X85061367Y-138514739D01*
X85060982Y-137971554D01*
X85060669Y-137386815D01*
X85060424Y-136759060D01*
X85060240Y-136086826D01*
X85060113Y-135368653D01*
X85060035Y-134603078D01*
X85060002Y-133788640D01*
X85060000Y-133513714D01*
X85060000Y-124152000D01*
X101773200Y-124152000D01*
X101773200Y-141906681D01*
X93943650Y-141900290D01*
X86114100Y-141893900D01*
X86101324Y-125218800D01*
X100731800Y-125218800D01*
X100731800Y-125777600D01*
X86660200Y-125777600D01*
X86660200Y-141347800D01*
X101239800Y-141347800D01*
X101239800Y-124685400D01*
X85618800Y-124685400D01*
X85618800Y-142389200D01*
X102332000Y-142389200D01*
X102332000Y-123669400D01*
X84577400Y-123669400D01*
X84577400Y-143430600D01*
X103348000Y-143430600D01*
X103348000Y-122653400D01*
X83536000Y-122653400D01*
X83536000Y-144472000D01*
X104389400Y-144472000D01*
X104389400Y-121612000D01*
X82494600Y-121612000D01*
X82494600Y-145513400D01*
X105405400Y-145513400D01*
X105405400Y-121053200D01*
X105938800Y-121053200D01*
X105938801Y-133562726D01*
X105938801Y-146072253D01*
X93943651Y-146065876D01*
D12*
X155800000Y-126200000D03*
D13*
X155800000Y-138900000D03*
D14*
X98400000Y-116400000D03*
X100400000Y-116400000D03*
X100400000Y-118650000D03*
X98400000Y-118650000D03*
D15*
X132140000Y-67880000D03*
X132140000Y-69880000D03*
D14*
X152670000Y-88900000D03*
X154670000Y-88900000D03*
X107250000Y-151750000D03*
X105250000Y-151750000D03*
X107400000Y-157100000D03*
X105400000Y-157100000D03*
X107400000Y-161900000D03*
X105400000Y-161900000D03*
X107300000Y-166900000D03*
X105300000Y-166900000D03*
X153400000Y-154200000D03*
X151400000Y-154200000D03*
X141400000Y-77400000D03*
X139400000Y-77400000D03*
D16*
X151900000Y-130600000D03*
X148900000Y-130600000D03*
D17*
X151100000Y-146400000D03*
X151100000Y-143400000D03*
D18*
X115785000Y-28920000D03*
X120685000Y-28920000D03*
X115785000Y-32120000D03*
X120685000Y-32120000D03*
X124040000Y-28920000D03*
X128940000Y-28920000D03*
X124040000Y-32120000D03*
X128940000Y-32120000D03*
X132295000Y-28920000D03*
X137195000Y-28920000D03*
X132295000Y-32120000D03*
X137195000Y-32120000D03*
X140550000Y-28920000D03*
X145450000Y-28920000D03*
X140550000Y-32120000D03*
X145450000Y-32120000D03*
X115785000Y-35905000D03*
X120685000Y-35905000D03*
X115785000Y-39105000D03*
X120685000Y-39105000D03*
X124040000Y-35905000D03*
X128940000Y-35905000D03*
X124040000Y-39105000D03*
X128940000Y-39105000D03*
X132295000Y-35905000D03*
X137195000Y-35905000D03*
X132295000Y-39105000D03*
X137195000Y-39105000D03*
X140550000Y-35905000D03*
X145450000Y-35905000D03*
X140550000Y-39105000D03*
X145450000Y-39105000D03*
X115785000Y-42890000D03*
X120685000Y-42890000D03*
X115785000Y-46090000D03*
X120685000Y-46090000D03*
X124040000Y-42890000D03*
X128940000Y-42890000D03*
X124040000Y-46090000D03*
X128940000Y-46090000D03*
X132295000Y-42890000D03*
X137195000Y-42890000D03*
X132295000Y-46090000D03*
X137195000Y-46090000D03*
X140550000Y-42890000D03*
X145450000Y-42890000D03*
X140550000Y-46090000D03*
X145450000Y-46090000D03*
X115785000Y-49875000D03*
X120685000Y-49875000D03*
X115785000Y-53075000D03*
X120685000Y-53075000D03*
X124040000Y-49875000D03*
X128940000Y-49875000D03*
X124040000Y-53075000D03*
X128940000Y-53075000D03*
X132295000Y-49875000D03*
X137195000Y-49875000D03*
X132295000Y-53075000D03*
X137195000Y-53075000D03*
X140550000Y-49875000D03*
X145450000Y-49875000D03*
X140550000Y-53075000D03*
X145450000Y-53075000D03*
D19*
X112014000Y-72898000D03*
D20*
X112014000Y-70358000D03*
X114554000Y-72898000D03*
X114554000Y-70358000D03*
X117094000Y-72898000D03*
X117094000Y-70358000D03*
X119634000Y-72898000D03*
X119634000Y-70358000D03*
D19*
X139000000Y-70000000D03*
D20*
X141540000Y-70000000D03*
X144080000Y-70000000D03*
X146620000Y-70000000D03*
D19*
X147320000Y-60960000D03*
D20*
X144780000Y-60960000D03*
X142240000Y-60960000D03*
X139700000Y-60960000D03*
X137160000Y-60960000D03*
X134620000Y-60960000D03*
X132080000Y-60960000D03*
X129540000Y-60960000D03*
D19*
X147320000Y-64770000D03*
D20*
X144780000Y-64770000D03*
X142240000Y-64770000D03*
X139700000Y-64770000D03*
X137160000Y-64770000D03*
X134620000Y-64770000D03*
X132080000Y-64770000D03*
X129540000Y-64770000D03*
D19*
X156210000Y-113030000D03*
D20*
X153670000Y-113030000D03*
X151130000Y-113030000D03*
X148590000Y-113030000D03*
X146050000Y-113030000D03*
X143510000Y-113030000D03*
X140970000Y-113030000D03*
X138430000Y-113030000D03*
X135890000Y-113030000D03*
X133350000Y-113030000D03*
D19*
X156210000Y-109220000D03*
D20*
X153670000Y-109220000D03*
X151130000Y-109220000D03*
X148590000Y-109220000D03*
X146050000Y-109220000D03*
X143510000Y-109220000D03*
X140970000Y-109220000D03*
X138430000Y-109220000D03*
X135890000Y-109220000D03*
X133350000Y-109220000D03*
D19*
X129540000Y-113030000D03*
D20*
X127000000Y-113030000D03*
X124460000Y-113030000D03*
X121920000Y-113030000D03*
X119380000Y-113030000D03*
X116840000Y-113030000D03*
X114300000Y-113030000D03*
X111760000Y-113030000D03*
D19*
X129540000Y-109220000D03*
D20*
X127000000Y-109220000D03*
X124460000Y-109220000D03*
X121920000Y-109220000D03*
X119380000Y-109220000D03*
X116840000Y-109220000D03*
X114300000Y-109220000D03*
X111760000Y-109220000D03*
D19*
X124460000Y-60960000D03*
D20*
X121920000Y-60960000D03*
X119380000Y-60960000D03*
X116840000Y-60960000D03*
X114300000Y-60960000D03*
X111760000Y-60960000D03*
D19*
X124460000Y-64770000D03*
D20*
X121920000Y-64770000D03*
X119380000Y-64770000D03*
X116840000Y-64770000D03*
X114300000Y-64770000D03*
X111760000Y-64770000D03*
D19*
X106680000Y-113030000D03*
D20*
X104140000Y-113030000D03*
X101600000Y-113030000D03*
X99060000Y-113030000D03*
X96520000Y-113030000D03*
X93980000Y-113030000D03*
X91440000Y-113030000D03*
X88900000Y-113030000D03*
X86360000Y-113030000D03*
X83820000Y-113030000D03*
D19*
X106680000Y-109220000D03*
D20*
X104140000Y-109220000D03*
X101600000Y-109220000D03*
X99060000Y-109220000D03*
X96520000Y-109220000D03*
X93980000Y-109220000D03*
X91440000Y-109220000D03*
X88900000Y-109220000D03*
X86360000Y-109220000D03*
X83820000Y-109220000D03*
D19*
X139000000Y-74000000D03*
D20*
X141540000Y-74000000D03*
X144080000Y-74000000D03*
X146620000Y-74000000D03*
D19*
X109220000Y-83820000D03*
D20*
X111760000Y-83820000D03*
X109220000Y-86360000D03*
X111760000Y-86360000D03*
X109220000Y-88900000D03*
X111760000Y-88900000D03*
D19*
X115570000Y-83820000D03*
D20*
X118110000Y-83820000D03*
X115570000Y-86360000D03*
X118110000Y-86360000D03*
X115570000Y-88900000D03*
X118110000Y-88900000D03*
D19*
X155600000Y-146100000D03*
D20*
X155600000Y-143560000D03*
D21*
X105700000Y-121300000D03*
X100450000Y-125500000D03*
D22*
X148600000Y-139600000D03*
X150600000Y-139600000D03*
D23*
X112522000Y-29784000D03*
X112522000Y-31684000D03*
D24*
X105300000Y-149000000D03*
X107200000Y-149000000D03*
X105300000Y-154750000D03*
X107200000Y-154750000D03*
X105300000Y-159500000D03*
X107200000Y-159500000D03*
X105300000Y-164500000D03*
X107200000Y-164500000D03*
D23*
X136400000Y-84950000D03*
X136400000Y-86850000D03*
D25*
X90205000Y-153865000D03*
X94355000Y-153865000D03*
X94355000Y-151715000D03*
X90205000Y-151715000D03*
X86205000Y-159115000D03*
X90355000Y-159115000D03*
X90355000Y-156965000D03*
X86205000Y-156965000D03*
X94705000Y-159115000D03*
X98855000Y-159115000D03*
X98855000Y-156965000D03*
X94705000Y-156965000D03*
X90205000Y-164865000D03*
X94355000Y-164865000D03*
X94355000Y-162715000D03*
X90205000Y-162715000D03*
X149335000Y-159075000D03*
X153485000Y-159075000D03*
X153485000Y-156925000D03*
X149335000Y-156925000D03*
D26*
X139000000Y-80000000D03*
D27*
X139000000Y-95240000D03*
D28*
X150739800Y-134031600D03*
X149800000Y-134031600D03*
X148860200Y-134031600D03*
X148860200Y-136368400D03*
X150739800Y-136368400D03*
D19*
X142900000Y-56600000D03*
D29*
X155038000Y-95075000D03*
D30*
X155038000Y-96175000D03*
D31*
X155038000Y-97275000D03*
D32*
X155038000Y-98375000D03*
D33*
X155038000Y-99475000D03*
D34*
X155038000Y-100575000D03*
D35*
X155038000Y-101675000D03*
D36*
X155038000Y-102775000D03*
D37*
X154913000Y-104075000D03*
D38*
X154913000Y-92625000D03*
D39*
X147313000Y-104250000D03*
D40*
X146663000Y-92300000D03*
D41*
X145813000Y-103895000D03*
D42*
X144213000Y-92700000D03*
D43*
X151900000Y-132550000D03*
X148900000Y-132500000D03*
X151700000Y-120200000D03*
X110400000Y-151700000D03*
X110400000Y-161290000D03*
X110400000Y-157100000D03*
X148600000Y-92600000D03*
X113710000Y-91550000D03*
X129200000Y-118400000D03*
X127500000Y-118400000D03*
X148600000Y-118400000D03*
X132600000Y-118400000D03*
X113800000Y-99200000D03*
X148620000Y-105180000D03*
X148620000Y-105180000D03*
X133780000Y-73960000D03*
X133790000Y-67910000D03*
X114440000Y-67850000D03*
X120690000Y-33360000D03*
X130520000Y-32200000D03*
X138710000Y-32110000D03*
X145410000Y-33380000D03*
X120710000Y-40330000D03*
X130470000Y-39140000D03*
X138740000Y-39120000D03*
X145450000Y-40350000D03*
X146890000Y-46110000D03*
X138830000Y-46120000D03*
X130490000Y-46130000D03*
X120680000Y-47330000D03*
X145440000Y-54310000D03*
X137210000Y-54280000D03*
X128910000Y-54300000D03*
X120690000Y-54350000D03*
X138800000Y-53100000D03*
X138850000Y-55350000D03*
X157740000Y-88960000D03*
X131290000Y-98190000D03*
X130310000Y-74210000D03*
X140560000Y-27190000D03*
X132300000Y-27220000D03*
X124010000Y-27130000D03*
X140570000Y-34660000D03*
X132280000Y-34640000D03*
X124040000Y-34650000D03*
X115820000Y-34630000D03*
X140560000Y-41680000D03*
X132290000Y-41670000D03*
X124030000Y-41690000D03*
X115780000Y-41720000D03*
X115810000Y-48620000D03*
X124050000Y-48620000D03*
X132290000Y-48600000D03*
X140550000Y-48610000D03*
X117410000Y-28040000D03*
X157760000Y-98120000D03*
X104000000Y-105300000D03*
X122200000Y-105100000D03*
X103150000Y-118750000D03*
X100450000Y-125500000D03*
X106700000Y-103500000D03*
X121700000Y-103450000D03*
X147200000Y-157000000D03*
X151780000Y-106000000D03*
X151990000Y-95990000D03*
X99000000Y-106150000D03*
X126990000Y-101120000D03*
X127750000Y-92750000D03*
X109890000Y-75980000D03*
X113430000Y-75030000D03*
X122200000Y-104300000D03*
X142500000Y-88200000D03*
X136700000Y-83300000D03*
X139500000Y-151200000D03*
X139400000Y-115700000D03*
X138700000Y-149800000D03*
X138600000Y-115000000D03*
X112520000Y-34370000D03*
X120240000Y-101900000D03*
X151180000Y-101970000D03*
X113000000Y-149100000D03*
X113000000Y-111100000D03*
X106800000Y-102700000D03*
X144300000Y-102900000D03*
X143000000Y-103300000D03*
X125940000Y-103450000D03*
X126070000Y-82240000D03*
X125100000Y-86460000D03*
X125030000Y-104080000D03*
X140900000Y-103960000D03*
X133500000Y-87000000D03*
X128300000Y-121300000D03*
X125500000Y-121300000D03*
X125400000Y-115100000D03*
X119400000Y-115100000D03*
X130100000Y-125700000D03*
X111800000Y-124400000D03*
X113650000Y-115400000D03*
X112350000Y-164500000D03*
X123200000Y-115850000D03*
X130800000Y-126400000D03*
X108200000Y-125200000D03*
X107400000Y-111200000D03*
D44*
X148860200Y-134031600D02*
X148860200Y-132539800D01*
X148900000Y-132500000D02*
X148860200Y-132539800D01*
X151900000Y-130600000D02*
X151900000Y-132550000D01*
X151900000Y-132550000D02*
X151900000Y-132871400D01*
X151900000Y-132871400D02*
X150739800Y-134031600D01*
X151900000Y-120400000D02*
X151900000Y-130600000D01*
X151700000Y-120200000D02*
X151900000Y-120400000D01*
X98400000Y-116400000D02*
X98400000Y-118650000D01*
X83820000Y-113030000D02*
X83820000Y-113120000D01*
X83820000Y-113120000D02*
X85550000Y-114850000D01*
X96850000Y-114850000D02*
X98400000Y-116400000D01*
X85550000Y-114850000D02*
X96850000Y-114850000D01*
X132080000Y-64770000D02*
X132080000Y-67820000D01*
X132080000Y-67820000D02*
X132140000Y-67880000D01*
X132080000Y-64770000D02*
X134620000Y-64770000D01*
X132080000Y-60960000D02*
X134620000Y-60960000D01*
X148900000Y-130600000D02*
X148900000Y-118700000D01*
X148900000Y-118700000D02*
X148600000Y-118400000D01*
X149800000Y-134031600D02*
X149800000Y-131500000D01*
X149800000Y-131500000D02*
X148900000Y-130600000D01*
X148300000Y-130600000D02*
X148900000Y-130600000D01*
X155600000Y-143560000D02*
X157900000Y-143560000D01*
X158000000Y-143700000D02*
X157900000Y-143700000D01*
X158000000Y-143660000D02*
X158000000Y-143700000D01*
X157900000Y-143560000D02*
X158000000Y-143660000D01*
X155600000Y-143560000D02*
X151260000Y-143560000D01*
X151260000Y-143560000D02*
X151100000Y-143400000D01*
X149950000Y-149550000D02*
X156250000Y-149550000D01*
X156250000Y-149550000D02*
X157900000Y-147900000D01*
X157900000Y-147900000D02*
X157900000Y-143700000D01*
X157900000Y-141000000D02*
X155800000Y-138900000D01*
X157900000Y-143700000D02*
X157900000Y-141000000D01*
X152345000Y-159075000D02*
X149335000Y-159075000D01*
X153485000Y-159075000D02*
X152345000Y-159075000D01*
X150130000Y-161290000D02*
X110400000Y-161290000D01*
X152345000Y-159075000D02*
X150130000Y-161290000D01*
X153400000Y-154200000D02*
X153800000Y-154200000D01*
X153800000Y-154200000D02*
X155100000Y-155500000D01*
X155100000Y-157460000D02*
X153485000Y-159075000D01*
X155100000Y-155500000D02*
X155100000Y-157460000D01*
X147200000Y-147500000D02*
X147900000Y-147500000D01*
X148300000Y-130600000D02*
X147200000Y-131700000D01*
X147200000Y-131700000D02*
X147200000Y-147500000D01*
X153400000Y-153000000D02*
X153400000Y-154200000D01*
X147900000Y-147500000D02*
X149950000Y-149550000D01*
X149950000Y-149550000D02*
X153400000Y-153000000D01*
X110350000Y-151750000D02*
X107250000Y-151750000D01*
X110400000Y-151700000D02*
X110350000Y-151750000D01*
X107400000Y-157100000D02*
X110400000Y-157100000D01*
D45*
X139000000Y-95240000D02*
X146560000Y-95240000D01*
X146663000Y-95137000D02*
X146663000Y-92300000D01*
X146560000Y-95240000D02*
X146663000Y-95137000D01*
D44*
X148600000Y-92600000D02*
X146963000Y-92600000D01*
X146963000Y-92600000D02*
X146663000Y-92300000D01*
X154913000Y-92625000D02*
X148625000Y-92625000D01*
X148625000Y-92625000D02*
X148600000Y-92600000D01*
X141540000Y-74000000D02*
X141540000Y-77260000D01*
X141540000Y-77260000D02*
X141400000Y-77400000D01*
X144080000Y-74000000D02*
X146620000Y-74000000D01*
X141540000Y-74000000D02*
X144080000Y-74000000D01*
X139000000Y-74000000D02*
X141540000Y-74000000D01*
X113710000Y-91550000D02*
X117450000Y-91550000D01*
X118110000Y-90890000D02*
X118110000Y-88900000D01*
X117450000Y-91550000D02*
X118110000Y-90890000D01*
X111760000Y-88900000D02*
X111760000Y-91460000D01*
X111800000Y-91500000D02*
X111760000Y-91460000D01*
X113660000Y-91500000D02*
X111800000Y-91500000D01*
X113660000Y-91500000D02*
X113710000Y-91550000D01*
D46*
X127500000Y-118400000D02*
X129200000Y-118400000D01*
D44*
X110400000Y-161290000D02*
X110400000Y-161350000D01*
X110400000Y-161350000D02*
X109850000Y-161900000D01*
X109850000Y-161900000D02*
X107400000Y-161900000D01*
X148600000Y-118400000D02*
X132600000Y-118400000D01*
X83820000Y-109220000D02*
X83820000Y-99580000D01*
X84200000Y-99200000D02*
X113800000Y-99200000D01*
X83820000Y-99580000D02*
X84200000Y-99200000D01*
X148620000Y-105180000D02*
X148620000Y-104620000D01*
X148250000Y-104250000D02*
X147313000Y-104250000D01*
X148620000Y-104620000D02*
X148250000Y-104250000D01*
X154588000Y-92300000D02*
X154913000Y-92625000D01*
X154913000Y-104075000D02*
X156925000Y-104075000D01*
X156925000Y-100575000D02*
X155038000Y-100575000D01*
X157000000Y-100500000D02*
X156925000Y-100575000D01*
X157000000Y-104000000D02*
X157000000Y-100500000D01*
X156925000Y-104075000D02*
X157000000Y-104000000D01*
X148620000Y-105180000D02*
X153808000Y-105180000D01*
X153808000Y-105180000D02*
X154913000Y-104075000D01*
X147313000Y-104250000D02*
X146168000Y-104250000D01*
X146168000Y-104250000D02*
X145813000Y-103895000D01*
X146750000Y-92387000D02*
X146663000Y-92300000D01*
X152670000Y-88900000D02*
X152670000Y-90382000D01*
X152670000Y-90382000D02*
X154913000Y-92625000D01*
X139000000Y-74000000D02*
X133820000Y-74000000D01*
X133820000Y-74000000D02*
X133780000Y-73960000D01*
X133760000Y-67880000D02*
X132140000Y-67880000D01*
X133790000Y-67910000D02*
X133760000Y-67880000D01*
X122112000Y-67880000D02*
X114470000Y-67880000D01*
X114470000Y-67880000D02*
X114440000Y-67850000D01*
X132140000Y-67880000D02*
X122112000Y-67880000D01*
X122112000Y-67880000D02*
X119634000Y-70358000D01*
X132210000Y-67810000D02*
X132140000Y-67880000D01*
X120685000Y-32120000D02*
X120685000Y-33355000D01*
X120685000Y-33355000D02*
X120690000Y-33360000D01*
X128940000Y-32120000D02*
X130440000Y-32120000D01*
X130440000Y-32120000D02*
X130520000Y-32200000D01*
X137195000Y-32120000D02*
X138700000Y-32120000D01*
X138700000Y-32120000D02*
X138710000Y-32110000D01*
X145450000Y-32120000D02*
X145450000Y-33340000D01*
X145450000Y-33340000D02*
X145410000Y-33380000D01*
X120685000Y-39105000D02*
X120685000Y-40305000D01*
X120685000Y-40305000D02*
X120710000Y-40330000D01*
X128940000Y-39105000D02*
X130435000Y-39105000D01*
X130435000Y-39105000D02*
X130470000Y-39140000D01*
X137195000Y-39105000D02*
X138725000Y-39105000D01*
X138725000Y-39105000D02*
X138740000Y-39120000D01*
X145450000Y-39105000D02*
X145450000Y-40350000D01*
X145450000Y-46090000D02*
X146870000Y-46090000D01*
X146870000Y-46090000D02*
X146890000Y-46110000D01*
X137195000Y-46090000D02*
X138800000Y-46090000D01*
X138800000Y-46090000D02*
X138830000Y-46120000D01*
X130450000Y-46090000D02*
X128940000Y-46090000D01*
X130490000Y-46130000D02*
X130450000Y-46090000D01*
X120685000Y-46090000D02*
X120685000Y-47325000D01*
X120685000Y-47325000D02*
X120680000Y-47330000D01*
X145450000Y-53075000D02*
X145450000Y-54300000D01*
X145450000Y-54300000D02*
X145440000Y-54310000D01*
X137195000Y-53075000D02*
X137195000Y-54265000D01*
X137195000Y-54265000D02*
X137210000Y-54280000D01*
X128940000Y-53075000D02*
X128940000Y-54270000D01*
X128940000Y-54270000D02*
X128910000Y-54300000D01*
X120685000Y-53075000D02*
X120685000Y-54345000D01*
X120685000Y-54345000D02*
X120690000Y-54350000D01*
X83820000Y-109220000D02*
X83820000Y-108980000D01*
X94355000Y-164865000D02*
X94815000Y-164865000D01*
X94815000Y-164865000D02*
X98300000Y-168350000D01*
X107300000Y-167550000D02*
X107300000Y-166900000D01*
X106500000Y-168350000D02*
X107300000Y-167550000D01*
X98300000Y-168350000D02*
X106500000Y-168350000D01*
X90205000Y-164865000D02*
X94355000Y-164865000D01*
X86205000Y-159115000D02*
X86205000Y-160865000D01*
X86205000Y-160865000D02*
X90205000Y-164865000D01*
X94705000Y-159115000D02*
X98855000Y-159115000D01*
X90355000Y-159115000D02*
X94705000Y-159115000D01*
X86205000Y-159115000D02*
X90355000Y-159115000D01*
X90205000Y-153865000D02*
X86985000Y-153865000D01*
X84700000Y-157610000D02*
X86205000Y-159115000D01*
X84700000Y-156150000D02*
X84700000Y-157610000D01*
X86985000Y-153865000D02*
X84700000Y-156150000D01*
X94355000Y-153865000D02*
X90205000Y-153865000D01*
X107250000Y-151750000D02*
X107250000Y-152450000D01*
X95070000Y-153150000D02*
X94355000Y-153865000D01*
X106550000Y-153150000D02*
X95070000Y-153150000D01*
X107250000Y-152450000D02*
X106550000Y-153150000D01*
X139700000Y-60960000D02*
X139700000Y-60700000D01*
X139700000Y-60700000D02*
X141200000Y-59200000D01*
X143020000Y-59200000D02*
X144780000Y-60960000D01*
X141200000Y-59200000D02*
X143020000Y-59200000D01*
X138800000Y-55300000D02*
X138800000Y-53100000D01*
X138850000Y-55350000D02*
X138800000Y-55300000D01*
X144780000Y-64770000D02*
X147320000Y-64770000D01*
X144780000Y-60960000D02*
X147320000Y-60960000D01*
X144080000Y-70000000D02*
X146620000Y-70000000D01*
X141540000Y-70000000D02*
X144080000Y-70000000D01*
X139000000Y-70000000D02*
X141540000Y-70000000D01*
X157760000Y-98120000D02*
X155293000Y-98120000D01*
X155293000Y-98120000D02*
X155038000Y-98375000D01*
X157680000Y-88900000D02*
X154670000Y-88900000D01*
X157740000Y-88960000D02*
X157680000Y-88900000D01*
X156038000Y-98125000D02*
X131355000Y-98125000D01*
X131355000Y-98125000D02*
X131290000Y-98190000D01*
X112014000Y-72898000D02*
X112014000Y-73464000D01*
X112014000Y-73464000D02*
X112760000Y-74210000D01*
X112760000Y-74210000D02*
X130310000Y-74210000D01*
X130310000Y-74210000D02*
X132140000Y-72380000D01*
X132140000Y-72380000D02*
X132140000Y-69880000D01*
X132260000Y-70000000D02*
X136310000Y-70000000D01*
X136310000Y-70000000D02*
X139000000Y-70000000D01*
X132260000Y-70000000D02*
X132140000Y-69880000D01*
X140550000Y-28920000D02*
X140550000Y-27200000D01*
X140550000Y-27200000D02*
X140560000Y-27190000D01*
X132295000Y-28920000D02*
X132295000Y-27225000D01*
X132295000Y-27225000D02*
X132300000Y-27220000D01*
X124040000Y-28920000D02*
X124040000Y-27160000D01*
X124040000Y-27160000D02*
X124010000Y-27130000D01*
X140550000Y-35905000D02*
X140550000Y-34680000D01*
X140550000Y-34680000D02*
X140570000Y-34660000D01*
X132295000Y-35905000D02*
X132295000Y-34655000D01*
X132295000Y-34655000D02*
X132280000Y-34640000D01*
X124040000Y-35905000D02*
X124040000Y-34650000D01*
X115785000Y-35905000D02*
X115785000Y-34665000D01*
X115785000Y-34665000D02*
X115820000Y-34630000D01*
X140550000Y-42890000D02*
X140550000Y-41690000D01*
X140550000Y-41690000D02*
X140560000Y-41680000D01*
X132295000Y-42890000D02*
X132295000Y-41675000D01*
X132295000Y-41675000D02*
X132290000Y-41670000D01*
X124040000Y-42890000D02*
X124040000Y-41700000D01*
X124040000Y-41700000D02*
X124030000Y-41690000D01*
X115785000Y-42890000D02*
X115785000Y-41725000D01*
X115785000Y-41725000D02*
X115780000Y-41720000D01*
X115785000Y-49875000D02*
X115785000Y-48645000D01*
X115785000Y-48645000D02*
X115810000Y-48620000D01*
X124040000Y-49875000D02*
X124040000Y-48630000D01*
X124040000Y-48630000D02*
X124050000Y-48620000D01*
X132295000Y-49875000D02*
X132295000Y-48605000D01*
X132295000Y-48605000D02*
X132290000Y-48600000D01*
X140550000Y-49875000D02*
X140550000Y-48610000D01*
X115785000Y-28920000D02*
X116530000Y-28920000D01*
X116530000Y-28920000D02*
X117410000Y-28040000D01*
X156038000Y-98125000D02*
X157755000Y-98125000D01*
X157755000Y-98125000D02*
X157760000Y-98120000D01*
D46*
X112522000Y-29784000D02*
X112522000Y-29428000D01*
X118915000Y-27150000D02*
X120685000Y-28920000D01*
X114800000Y-27150000D02*
X118915000Y-27150000D01*
X112522000Y-29428000D02*
X114800000Y-27150000D01*
X115785000Y-32120000D02*
X116180000Y-32120000D01*
X116180000Y-32120000D02*
X118400000Y-29900000D01*
X118400000Y-29900000D02*
X127960000Y-29900000D01*
X127960000Y-29900000D02*
X128940000Y-28920000D01*
X124040000Y-32120000D02*
X124040000Y-31810000D01*
X124040000Y-31810000D02*
X125300000Y-30550000D01*
X125300000Y-30550000D02*
X131300000Y-30550000D01*
X131300000Y-30550000D02*
X131950000Y-29900000D01*
X131950000Y-29900000D02*
X136215000Y-29900000D01*
X136215000Y-29900000D02*
X137195000Y-28920000D01*
X132295000Y-32120000D02*
X132295000Y-31705000D01*
X132295000Y-31705000D02*
X133500000Y-30500000D01*
X133500000Y-30500000D02*
X139200000Y-30500000D01*
X139200000Y-30500000D02*
X139950000Y-29750000D01*
X139950000Y-29750000D02*
X144620000Y-29750000D01*
X144620000Y-29750000D02*
X145450000Y-28920000D01*
X140550000Y-32120000D02*
X140530000Y-32120000D01*
X140530000Y-32120000D02*
X139250000Y-33400000D01*
X139250000Y-33400000D02*
X123190000Y-33400000D01*
X123190000Y-33400000D02*
X120685000Y-35905000D01*
X115785000Y-39105000D02*
X115995000Y-39105000D01*
X115995000Y-39105000D02*
X118150000Y-36950000D01*
X118150000Y-36950000D02*
X127895000Y-36950000D01*
X127895000Y-36950000D02*
X128940000Y-35905000D01*
X124040000Y-39105000D02*
X124040000Y-38960000D01*
X124040000Y-38960000D02*
X125450000Y-37550000D01*
X125450000Y-37550000D02*
X131350000Y-37550000D01*
X131350000Y-37550000D02*
X131950000Y-36950000D01*
X131950000Y-36950000D02*
X136150000Y-36950000D01*
X136150000Y-36950000D02*
X137195000Y-35905000D01*
X144450000Y-37450000D02*
X144750000Y-37450000D01*
X133750000Y-37450000D02*
X144450000Y-37450000D01*
X132295000Y-38905000D02*
X133750000Y-37450000D01*
X145450000Y-36750000D02*
X145450000Y-35905000D01*
X144750000Y-37450000D02*
X145450000Y-36750000D01*
X132295000Y-39105000D02*
X132295000Y-38905000D01*
X140550000Y-39105000D02*
X140550000Y-39150000D01*
X140550000Y-39150000D02*
X139350000Y-40350000D01*
X139350000Y-40350000D02*
X123225000Y-40350000D01*
X123225000Y-40350000D02*
X120685000Y-42890000D01*
X115785000Y-46090000D02*
X115785000Y-45865000D01*
X115785000Y-45865000D02*
X117850000Y-43800000D01*
X117850000Y-43800000D02*
X128030000Y-43800000D01*
X128030000Y-43800000D02*
X128940000Y-42890000D01*
X131300000Y-44300000D02*
X132000000Y-44300000D01*
X125900002Y-44300000D02*
X131300000Y-44300000D01*
X124110002Y-46090000D02*
X125900002Y-44300000D01*
X136185000Y-43900000D02*
X137195000Y-42890000D01*
X132400000Y-43900000D02*
X136185000Y-43900000D01*
X132000000Y-44300000D02*
X132400000Y-43900000D01*
X124040000Y-46090000D02*
X124110002Y-46090000D01*
X140350000Y-43950000D02*
X144390000Y-43950000D01*
X139850000Y-44450000D02*
X140350000Y-43950000D01*
X133800000Y-44450000D02*
X139850000Y-44450000D01*
X132295000Y-45955000D02*
X133800000Y-44450000D01*
X144390000Y-43950000D02*
X145450000Y-42890000D01*
X132295000Y-46090000D02*
X132295000Y-45955000D01*
X140550000Y-46090000D02*
X140550000Y-46250000D01*
X140550000Y-46250000D02*
X139350000Y-47450000D01*
X139350000Y-47450000D02*
X123110000Y-47450000D01*
X123110000Y-47450000D02*
X120685000Y-49875000D01*
X115785000Y-53075000D02*
X115785000Y-52665000D01*
X115785000Y-52665000D02*
X117550000Y-50900000D01*
X117550000Y-50900000D02*
X125200000Y-50900000D01*
X125200000Y-50900000D02*
X127600000Y-50900000D01*
X127600000Y-50900000D02*
X128625000Y-49875000D01*
X128625000Y-49875000D02*
X128940000Y-49875000D01*
X124040000Y-53075000D02*
X124040000Y-53010002D01*
X124040000Y-53010002D02*
X125650002Y-51400000D01*
X125650002Y-51400000D02*
X131700000Y-51400000D01*
X131700000Y-51400000D02*
X132200000Y-50900000D01*
X132200000Y-50900000D02*
X136500000Y-50900000D01*
X136500000Y-50900000D02*
X137195000Y-50205000D01*
X137195000Y-50205000D02*
X137195000Y-49875000D01*
X132295000Y-53075000D02*
X132295000Y-52905000D01*
X132295000Y-52905000D02*
X133700000Y-51500000D01*
X133700000Y-51500000D02*
X143825000Y-51500000D01*
X143825000Y-51500000D02*
X145450000Y-49875000D01*
D45*
X140550000Y-53075000D02*
X140550000Y-54250000D01*
X140550000Y-54250000D02*
X142900000Y-56600000D01*
D46*
X140550000Y-53075000D02*
X140550000Y-53100000D01*
D44*
X151100000Y-146400000D02*
X155300000Y-146400000D01*
X155300000Y-146400000D02*
X155600000Y-146100000D01*
X148600000Y-139600000D02*
X148600000Y-145950000D01*
X149050000Y-146400000D02*
X151100000Y-146400000D01*
X148600000Y-145950000D02*
X149050000Y-146400000D01*
X148860200Y-136368400D02*
X148860200Y-139339800D01*
X148860200Y-139339800D02*
X148600000Y-139600000D01*
X150739800Y-136368400D02*
X150739800Y-139460200D01*
X150739800Y-139460200D02*
X150600000Y-139600000D01*
X104140000Y-113030000D02*
X104140000Y-115840000D01*
X104140000Y-115840000D02*
X104700000Y-116400000D01*
X100400000Y-116400000D02*
X104700000Y-116400000D01*
X105700000Y-117400000D02*
X105700000Y-121300000D01*
X104700000Y-116400000D02*
X105700000Y-117400000D01*
D45*
X104200000Y-105500000D02*
X104000000Y-105300000D01*
X121700000Y-105500000D02*
X104200000Y-105500000D01*
X122200000Y-105100000D02*
X121700000Y-105500000D01*
D44*
X100400000Y-118650000D02*
X103050000Y-118650000D01*
X103050000Y-118650000D02*
X103150000Y-118750000D01*
D45*
X107100000Y-103900000D02*
X106700000Y-103500000D01*
X121250000Y-103900000D02*
X107100000Y-103900000D01*
X121700000Y-103450000D02*
X121250000Y-103900000D01*
D46*
X90205000Y-151715000D02*
X94355000Y-151715000D01*
X94355000Y-151715000D02*
X94390000Y-151750000D01*
X94390000Y-151750000D02*
X105250000Y-151750000D01*
X105250000Y-151750000D02*
X105300000Y-151700000D01*
X105300000Y-151700000D02*
X105300000Y-149000000D01*
X105300000Y-154750000D02*
X105300000Y-157000000D01*
X105300000Y-157000000D02*
X105400000Y-157100000D01*
X86205000Y-156965000D02*
X90355000Y-156965000D01*
X90355000Y-156965000D02*
X92570000Y-154750000D01*
X92570000Y-154750000D02*
X105300000Y-154750000D01*
X94705000Y-156965000D02*
X98855000Y-156965000D01*
X98855000Y-156965000D02*
X101390000Y-159500000D01*
X101390000Y-159500000D02*
X105300000Y-159500000D01*
X105300000Y-159500000D02*
X105400000Y-159600000D01*
X105400000Y-159600000D02*
X105400000Y-161900000D01*
X90205000Y-162715000D02*
X94355000Y-162715000D01*
X94355000Y-162715000D02*
X96140000Y-164500000D01*
X96140000Y-164500000D02*
X105300000Y-164500000D01*
X105300000Y-164500000D02*
X105300000Y-166900000D01*
D45*
X151400000Y-154200000D02*
X150150000Y-154200000D01*
X149335000Y-155015000D02*
X149335000Y-156925000D01*
X150150000Y-154200000D02*
X149335000Y-155015000D01*
X149335000Y-156925000D02*
X147275000Y-156925000D01*
X147275000Y-156925000D02*
X147200000Y-157000000D01*
D46*
X153485000Y-156925000D02*
X149335000Y-156925000D01*
D45*
X139000000Y-80000000D02*
X139000000Y-82350000D01*
X139000000Y-82350000D02*
X136400000Y-84950000D01*
X139400000Y-77400000D02*
X139400000Y-79600000D01*
X139400000Y-79600000D02*
X139000000Y-80000000D01*
X151990000Y-95990000D02*
X152250000Y-96250000D01*
X99150000Y-106000000D02*
X151600000Y-106000000D01*
X99000000Y-106150000D02*
X99150000Y-106000000D01*
X151600000Y-106000000D02*
X151780000Y-106000000D01*
X152250000Y-96250000D02*
X154963000Y-96250000D01*
X154963000Y-96250000D02*
X155038000Y-96175000D01*
D46*
X158410000Y-97030000D02*
X156720000Y-97030000D01*
X98240000Y-107500000D02*
X157900000Y-107500000D01*
X157900000Y-107500000D02*
X158400000Y-107000000D01*
X158400000Y-107000000D02*
X158400000Y-98000000D01*
X158400000Y-98000000D02*
X158410000Y-97030000D01*
X96520000Y-109220000D02*
X98240000Y-107500000D01*
X156475000Y-97275000D02*
X155038000Y-97275000D01*
X156720000Y-97030000D02*
X156475000Y-97275000D01*
X155063000Y-99500000D02*
X157750000Y-99500000D01*
X96200000Y-107000000D02*
X93980000Y-109220000D01*
X96200000Y-107000000D02*
X157700000Y-107000000D01*
X157700000Y-107000000D02*
X157949998Y-106750002D01*
X157949998Y-106750002D02*
X157949998Y-99600000D01*
X157949998Y-99600000D02*
X157750000Y-99500000D01*
X155063000Y-99500000D02*
X155038000Y-99475000D01*
D45*
X155063000Y-99500000D02*
X155038000Y-99475000D01*
X126990000Y-101120000D02*
X127010000Y-101100000D01*
X127010000Y-101100000D02*
X153860000Y-101100000D01*
X153860000Y-101100000D02*
X154185000Y-101425000D01*
X144213000Y-92700000D02*
X127800000Y-92700000D01*
X127800000Y-92700000D02*
X127750000Y-92750000D01*
X113300000Y-66950000D02*
X112750000Y-66950000D01*
D46*
X114554000Y-72898000D02*
X113300000Y-71644000D01*
X113300000Y-66950000D02*
X113300000Y-71644000D01*
D45*
X111760000Y-65960000D02*
X111760000Y-64770000D01*
X112750000Y-66950000D02*
X111760000Y-65960000D01*
X109890000Y-75980000D02*
X110840000Y-75030000D01*
X110840000Y-75030000D02*
X113430000Y-75030000D01*
X88900000Y-106800000D02*
X88900000Y-109220000D01*
X91300000Y-104400000D02*
X88900000Y-106800000D01*
X122100000Y-104400000D02*
X91300000Y-104400000D01*
X122200000Y-104300000D02*
X122100000Y-104400000D01*
X117500000Y-87600000D02*
X116200000Y-88900000D01*
X132900000Y-88200000D02*
X142500000Y-88200000D01*
X132300000Y-87600000D02*
X132900000Y-88200000D01*
X117500000Y-87600000D02*
X132300000Y-87600000D01*
X115570000Y-88900000D02*
X116200000Y-88900000D01*
D46*
X115570000Y-88900000D02*
X113600000Y-88900000D01*
X110520000Y-87600000D02*
X109220000Y-88900000D01*
X112300000Y-87600000D02*
X110520000Y-87600000D01*
X113600000Y-88900000D02*
X112300000Y-87600000D01*
D44*
X136180000Y-83820000D02*
X136700000Y-83300000D01*
X136180000Y-83820000D02*
X118110000Y-83820000D01*
D46*
X118110000Y-83820000D02*
X118110000Y-84290000D01*
X118110000Y-84290000D02*
X117300000Y-85100000D01*
X117300000Y-85100000D02*
X113040000Y-85100000D01*
X113040000Y-85100000D02*
X111760000Y-83820000D01*
D45*
X156210000Y-113030000D02*
X156170000Y-113030000D01*
X156170000Y-113030000D02*
X153500000Y-115700000D01*
X109900000Y-159500000D02*
X107200000Y-159500000D01*
X111500000Y-157900000D02*
X109900000Y-159500000D01*
X111500000Y-154900000D02*
X111500000Y-157900000D01*
X113700000Y-152700000D02*
X111500000Y-154900000D01*
X138000000Y-152700000D02*
X113700000Y-152700000D01*
X139500000Y-151200000D02*
X138000000Y-152700000D01*
X153500000Y-115700000D02*
X139400000Y-115700000D01*
X153670000Y-113030000D02*
X153670000Y-113530000D01*
X153670000Y-113530000D02*
X152200000Y-115000000D01*
X108850000Y-154750000D02*
X107200000Y-154750000D01*
X113100000Y-150500000D02*
X108850000Y-154750000D01*
X138000000Y-150500000D02*
X113100000Y-150500000D01*
X138700000Y-149800000D02*
X138000000Y-150500000D01*
X152200000Y-115000000D02*
X138600000Y-115000000D01*
X153670000Y-113030000D02*
X153670000Y-113230000D01*
X112522000Y-34368000D02*
X112522000Y-31684000D01*
X112520000Y-34370000D02*
X112522000Y-34368000D01*
X151110000Y-101900000D02*
X120240000Y-101900000D01*
X151180000Y-101970000D02*
X151110000Y-101900000D01*
X146050000Y-109220000D02*
X145580000Y-109220000D01*
X145580000Y-109220000D02*
X143700000Y-111100000D01*
X112900000Y-149000000D02*
X107200000Y-149000000D01*
X113000000Y-149100000D02*
X112900000Y-149000000D01*
X143700000Y-111100000D02*
X113000000Y-111100000D01*
X106900000Y-102600000D02*
X106800000Y-102700000D01*
X144000000Y-102600000D02*
X106900000Y-102600000D01*
X144300000Y-102900000D02*
X144000000Y-102600000D01*
D46*
X109220000Y-86360000D02*
X109240000Y-86360000D01*
X109240000Y-86360000D02*
X110501801Y-85098199D01*
X110501801Y-85098199D02*
X112398199Y-85098199D01*
X112398199Y-85098199D02*
X113660000Y-86360000D01*
X113660000Y-86360000D02*
X115570000Y-86360000D01*
D45*
X115570000Y-83820000D02*
X115570000Y-83440000D01*
X115570000Y-83440000D02*
X116770000Y-82240000D01*
X142960000Y-103260000D02*
X143000000Y-103300000D01*
X126120000Y-103270000D02*
X142960000Y-103260000D01*
X125940000Y-103450000D02*
X126120000Y-103270000D01*
X116770000Y-82240000D02*
X126070000Y-82240000D01*
D46*
X109220000Y-83820000D02*
X109220000Y-83080000D01*
X109220000Y-83080000D02*
X110100000Y-82200000D01*
X110100000Y-82200000D02*
X113950000Y-82200000D01*
X113950000Y-82200000D02*
X115570000Y-83820000D01*
D45*
X125000000Y-86360000D02*
X118110000Y-86360000D01*
X125100000Y-86460000D02*
X125000000Y-86360000D01*
X125420000Y-104470000D02*
X125030000Y-104080000D01*
X140390000Y-104470000D02*
X125420000Y-104470000D01*
X140900000Y-103960000D02*
X140390000Y-104470000D01*
D46*
X118110000Y-86360000D02*
X118040000Y-86360000D01*
X118040000Y-86360000D02*
X116800000Y-87600000D01*
X116800000Y-87600000D02*
X113000000Y-87600000D01*
X113000000Y-87600000D02*
X111760000Y-86360000D01*
X135890000Y-113030000D02*
X135890000Y-113190000D01*
D45*
X136250000Y-87000000D02*
X133500000Y-87000000D01*
X136250000Y-87000000D02*
X136400000Y-86850000D01*
X125500000Y-121300000D02*
X128300000Y-121300000D01*
X119400000Y-115100000D02*
X125400000Y-115100000D01*
D46*
X113100000Y-125700000D02*
X130100000Y-125700000D01*
X111800000Y-124400000D02*
X113100000Y-125700000D01*
D45*
X122500000Y-115800000D02*
X123150000Y-115800000D01*
X113650000Y-115400000D02*
X114050000Y-115800000D01*
X114050000Y-115800000D02*
X122500000Y-115800000D01*
X112350000Y-164500000D02*
X107200000Y-164500000D01*
X123150000Y-115800000D02*
X123200000Y-115850000D01*
X101600000Y-113030000D02*
X101600000Y-112600000D01*
X101600000Y-112600000D02*
X103000000Y-111200000D01*
X109400000Y-126400000D02*
X130800000Y-126400000D01*
X108200000Y-125200000D02*
X109400000Y-126400000D01*
X103000000Y-111200000D02*
X107400000Y-111200000D01*
M02*
