G04 #@! TF.FileFunction,Soldermask,Top*
%FSLAX46Y46*%
G04 Gerber Fmt 4.6, Leading zero omitted, Abs format (unit mm)*
G04 Created by KiCad (PCBNEW 4.0.7-e2-6376~58~ubuntu14.04.1) date Tue Sep  5 20:37:50 2017*
%MOMM*%
%LPD*%
G01*
G04 APERTURE LIST*
%ADD10C,0.100000*%
%ADD11C,2.800000*%
%ADD12O,2.800000X2.800000*%
%ADD13R,1.400000X1.650000*%
%ADD14R,1.650000X1.400000*%
%ADD15R,1.400000X2.000000*%
%ADD16R,2.000000X1.400000*%
%ADD17R,1.900000X1.400000*%
%ADD18R,2.100000X2.100000*%
%ADD19O,2.100000X2.100000*%
%ADD20C,0.900000*%
%ADD21R,1.200000X2.400000*%
%ADD22R,1.700000X1.100000*%
%ADD23R,1.100000X1.700000*%
%ADD24R,1.450000X1.050000*%
%ADD25C,2.000000*%
%ADD26O,2.000000X2.000000*%
%ADD27R,0.958800X1.720800*%
%ADD28R,2.150440X1.100176*%
%ADD29R,2.152980X1.101191*%
%ADD30R,2.151610X1.100643*%
%ADD31R,2.152180X1.100871*%
%ADD32R,2.152460X1.100982*%
%ADD33R,2.150430X1.100174*%
%ADD34R,2.151770X1.100710*%
%ADD35R,2.152640X1.101055*%
%ADD36R,1.900920X1.900920*%
%ADD37R,1.901800X1.901800*%
%ADD38R,1.901100X1.200585*%
%ADD39R,1.800640X1.200364*%
%ADD40R,1.400010X1.900010*%
%ADD41R,1.901930X1.401290*%
G04 APERTURE END LIST*
D10*
D11*
X155800000Y-126200000D03*
D12*
X155800000Y-138900000D03*
D13*
X98400000Y-116400000D03*
X100400000Y-116400000D03*
X100400000Y-118650000D03*
X98400000Y-118650000D03*
D14*
X132140000Y-67880000D03*
X132140000Y-69880000D03*
D13*
X152670000Y-88900000D03*
X154670000Y-88900000D03*
X107250000Y-151750000D03*
X105250000Y-151750000D03*
X107400000Y-157100000D03*
X105400000Y-157100000D03*
X107400000Y-161900000D03*
X105400000Y-161900000D03*
X107300000Y-166900000D03*
X105300000Y-166900000D03*
X153400000Y-154200000D03*
X151400000Y-154200000D03*
X141400000Y-77400000D03*
X139400000Y-77400000D03*
D15*
X151900000Y-130600000D03*
X148900000Y-130600000D03*
D16*
X151100000Y-146400000D03*
X151100000Y-143400000D03*
D17*
X115785000Y-28920000D03*
X120685000Y-28920000D03*
X115785000Y-32120000D03*
X120685000Y-32120000D03*
X124040000Y-28920000D03*
X128940000Y-28920000D03*
X124040000Y-32120000D03*
X128940000Y-32120000D03*
X132295000Y-28920000D03*
X137195000Y-28920000D03*
X132295000Y-32120000D03*
X137195000Y-32120000D03*
X140550000Y-28920000D03*
X145450000Y-28920000D03*
X140550000Y-32120000D03*
X145450000Y-32120000D03*
X115785000Y-35905000D03*
X120685000Y-35905000D03*
X115785000Y-39105000D03*
X120685000Y-39105000D03*
X124040000Y-35905000D03*
X128940000Y-35905000D03*
X124040000Y-39105000D03*
X128940000Y-39105000D03*
X132295000Y-35905000D03*
X137195000Y-35905000D03*
X132295000Y-39105000D03*
X137195000Y-39105000D03*
X140550000Y-35905000D03*
X145450000Y-35905000D03*
X140550000Y-39105000D03*
X145450000Y-39105000D03*
X115785000Y-42890000D03*
X120685000Y-42890000D03*
X115785000Y-46090000D03*
X120685000Y-46090000D03*
X124040000Y-42890000D03*
X128940000Y-42890000D03*
X124040000Y-46090000D03*
X128940000Y-46090000D03*
X132295000Y-42890000D03*
X137195000Y-42890000D03*
X132295000Y-46090000D03*
X137195000Y-46090000D03*
X140550000Y-42890000D03*
X145450000Y-42890000D03*
X140550000Y-46090000D03*
X145450000Y-46090000D03*
X115785000Y-49875000D03*
X120685000Y-49875000D03*
X115785000Y-53075000D03*
X120685000Y-53075000D03*
X124040000Y-49875000D03*
X128940000Y-49875000D03*
X124040000Y-53075000D03*
X128940000Y-53075000D03*
X132295000Y-49875000D03*
X137195000Y-49875000D03*
X132295000Y-53075000D03*
X137195000Y-53075000D03*
X140550000Y-49875000D03*
X145450000Y-49875000D03*
X140550000Y-53075000D03*
X145450000Y-53075000D03*
D18*
X112014000Y-72898000D03*
D19*
X112014000Y-70358000D03*
X114554000Y-72898000D03*
X114554000Y-70358000D03*
X117094000Y-72898000D03*
X117094000Y-70358000D03*
X119634000Y-72898000D03*
X119634000Y-70358000D03*
D18*
X139000000Y-70000000D03*
D19*
X141540000Y-70000000D03*
X144080000Y-70000000D03*
X146620000Y-70000000D03*
D18*
X147320000Y-60960000D03*
D19*
X144780000Y-60960000D03*
X142240000Y-60960000D03*
X139700000Y-60960000D03*
X137160000Y-60960000D03*
X134620000Y-60960000D03*
X132080000Y-60960000D03*
X129540000Y-60960000D03*
D18*
X147320000Y-64770000D03*
D19*
X144780000Y-64770000D03*
X142240000Y-64770000D03*
X139700000Y-64770000D03*
X137160000Y-64770000D03*
X134620000Y-64770000D03*
X132080000Y-64770000D03*
X129540000Y-64770000D03*
D18*
X156210000Y-113030000D03*
D19*
X153670000Y-113030000D03*
X151130000Y-113030000D03*
X148590000Y-113030000D03*
X146050000Y-113030000D03*
X143510000Y-113030000D03*
X140970000Y-113030000D03*
X138430000Y-113030000D03*
X135890000Y-113030000D03*
X133350000Y-113030000D03*
D18*
X156210000Y-109220000D03*
D19*
X153670000Y-109220000D03*
X151130000Y-109220000D03*
X148590000Y-109220000D03*
X146050000Y-109220000D03*
X143510000Y-109220000D03*
X140970000Y-109220000D03*
X138430000Y-109220000D03*
X135890000Y-109220000D03*
X133350000Y-109220000D03*
D18*
X129540000Y-113030000D03*
D19*
X127000000Y-113030000D03*
X124460000Y-113030000D03*
X121920000Y-113030000D03*
X119380000Y-113030000D03*
X116840000Y-113030000D03*
X114300000Y-113030000D03*
X111760000Y-113030000D03*
D18*
X129540000Y-109220000D03*
D19*
X127000000Y-109220000D03*
X124460000Y-109220000D03*
X121920000Y-109220000D03*
X119380000Y-109220000D03*
X116840000Y-109220000D03*
X114300000Y-109220000D03*
X111760000Y-109220000D03*
D18*
X124460000Y-60960000D03*
D19*
X121920000Y-60960000D03*
X119380000Y-60960000D03*
X116840000Y-60960000D03*
X114300000Y-60960000D03*
X111760000Y-60960000D03*
D18*
X124460000Y-64770000D03*
D19*
X121920000Y-64770000D03*
X119380000Y-64770000D03*
X116840000Y-64770000D03*
X114300000Y-64770000D03*
X111760000Y-64770000D03*
D18*
X106680000Y-113030000D03*
D19*
X104140000Y-113030000D03*
X101600000Y-113030000D03*
X99060000Y-113030000D03*
X96520000Y-113030000D03*
X93980000Y-113030000D03*
X91440000Y-113030000D03*
X88900000Y-113030000D03*
X86360000Y-113030000D03*
X83820000Y-113030000D03*
D18*
X106680000Y-109220000D03*
D19*
X104140000Y-109220000D03*
X101600000Y-109220000D03*
X99060000Y-109220000D03*
X96520000Y-109220000D03*
X93980000Y-109220000D03*
X91440000Y-109220000D03*
X88900000Y-109220000D03*
X86360000Y-109220000D03*
X83820000Y-109220000D03*
D18*
X139000000Y-74000000D03*
D19*
X141540000Y-74000000D03*
X144080000Y-74000000D03*
X146620000Y-74000000D03*
D18*
X109220000Y-83820000D03*
D19*
X111760000Y-83820000D03*
X109220000Y-86360000D03*
X111760000Y-86360000D03*
X109220000Y-88900000D03*
X111760000Y-88900000D03*
D18*
X115570000Y-83820000D03*
D19*
X118110000Y-83820000D03*
X115570000Y-86360000D03*
X118110000Y-86360000D03*
X115570000Y-88900000D03*
X118110000Y-88900000D03*
D18*
X155600000Y-146100000D03*
D19*
X155600000Y-143560000D03*
D20*
X105700000Y-121300000D03*
X100450000Y-125500000D03*
D21*
X148600000Y-139600000D03*
X150600000Y-139600000D03*
D22*
X112522000Y-29784000D03*
X112522000Y-31684000D03*
D23*
X105300000Y-149000000D03*
X107200000Y-149000000D03*
X105300000Y-154750000D03*
X107200000Y-154750000D03*
X105300000Y-159500000D03*
X107200000Y-159500000D03*
X105300000Y-164500000D03*
X107200000Y-164500000D03*
D22*
X136400000Y-84950000D03*
X136400000Y-86850000D03*
D24*
X90205000Y-153865000D03*
X94355000Y-153865000D03*
X94355000Y-151715000D03*
X90205000Y-151715000D03*
X86205000Y-159115000D03*
X90355000Y-159115000D03*
X90355000Y-156965000D03*
X86205000Y-156965000D03*
X94705000Y-159115000D03*
X98855000Y-159115000D03*
X98855000Y-156965000D03*
X94705000Y-156965000D03*
X90205000Y-164865000D03*
X94355000Y-164865000D03*
X94355000Y-162715000D03*
X90205000Y-162715000D03*
X149335000Y-159075000D03*
X153485000Y-159075000D03*
X153485000Y-156925000D03*
X149335000Y-156925000D03*
D25*
X139000000Y-80000000D03*
D26*
X139000000Y-95240000D03*
D27*
X150739800Y-134031600D03*
X149800000Y-134031600D03*
X148860200Y-134031600D03*
X148860200Y-136368400D03*
X150739800Y-136368400D03*
D18*
X142900000Y-56600000D03*
D28*
X155038000Y-95075000D03*
D29*
X155038000Y-96175000D03*
D30*
X155038000Y-97275000D03*
D31*
X155038000Y-98375000D03*
D32*
X155038000Y-99475000D03*
D33*
X155038000Y-100575000D03*
D34*
X155038000Y-101675000D03*
D35*
X155038000Y-102775000D03*
D36*
X154913000Y-104075000D03*
D37*
X154913000Y-92625000D03*
D38*
X147313000Y-104250000D03*
D39*
X146663000Y-92300000D03*
D40*
X145813000Y-103895000D03*
D41*
X144213000Y-92700000D03*
M02*
