G04 #@! TF.FileFunction,Paste,Top*
%FSLAX46Y46*%
G04 Gerber Fmt 4.6, Leading zero omitted, Abs format (unit mm)*
G04 Created by KiCad (PCBNEW 4.0.7-e2-6376~58~ubuntu14.04.1) date Tue Sep  5 20:37:50 2017*
%MOMM*%
%LPD*%
G01*
G04 APERTURE LIST*
%ADD10C,0.100000*%
%ADD11R,1.000000X1.250000*%
%ADD12R,1.250000X1.000000*%
%ADD13R,1.000000X1.600000*%
%ADD14R,1.600000X1.000000*%
%ADD15R,1.500000X1.000000*%
%ADD16C,0.500000*%
%ADD17R,0.800000X2.000000*%
%ADD18R,1.300000X0.700000*%
%ADD19R,0.700000X1.300000*%
%ADD20R,1.050000X0.650000*%
%ADD21R,0.558800X1.320800*%
%ADD22R,1.750440X0.700176*%
%ADD23R,1.752980X0.701191*%
%ADD24R,1.751610X0.700643*%
%ADD25R,1.752180X0.700871*%
%ADD26R,1.752460X0.700982*%
%ADD27R,1.750430X0.700174*%
%ADD28R,1.751770X0.700710*%
%ADD29R,1.752640X0.701055*%
%ADD30R,1.500920X1.500920*%
%ADD31R,1.501800X1.501800*%
%ADD32R,1.501100X0.800585*%
%ADD33R,1.400640X0.800364*%
%ADD34R,1.000010X1.500010*%
%ADD35R,1.501930X1.001290*%
G04 APERTURE END LIST*
D10*
D11*
X98400000Y-116400000D03*
X100400000Y-116400000D03*
X100400000Y-118650000D03*
X98400000Y-118650000D03*
D12*
X132140000Y-67880000D03*
X132140000Y-69880000D03*
D11*
X152670000Y-88900000D03*
X154670000Y-88900000D03*
X107250000Y-151750000D03*
X105250000Y-151750000D03*
X107400000Y-157100000D03*
X105400000Y-157100000D03*
X107400000Y-161900000D03*
X105400000Y-161900000D03*
X107300000Y-166900000D03*
X105300000Y-166900000D03*
X153400000Y-154200000D03*
X151400000Y-154200000D03*
X141400000Y-77400000D03*
X139400000Y-77400000D03*
D13*
X151900000Y-130600000D03*
X148900000Y-130600000D03*
D14*
X151100000Y-146400000D03*
X151100000Y-143400000D03*
D15*
X115785000Y-28920000D03*
X120685000Y-28920000D03*
X115785000Y-32120000D03*
X120685000Y-32120000D03*
X124040000Y-28920000D03*
X128940000Y-28920000D03*
X124040000Y-32120000D03*
X128940000Y-32120000D03*
X132295000Y-28920000D03*
X137195000Y-28920000D03*
X132295000Y-32120000D03*
X137195000Y-32120000D03*
X140550000Y-28920000D03*
X145450000Y-28920000D03*
X140550000Y-32120000D03*
X145450000Y-32120000D03*
X115785000Y-35905000D03*
X120685000Y-35905000D03*
X115785000Y-39105000D03*
X120685000Y-39105000D03*
X124040000Y-35905000D03*
X128940000Y-35905000D03*
X124040000Y-39105000D03*
X128940000Y-39105000D03*
X132295000Y-35905000D03*
X137195000Y-35905000D03*
X132295000Y-39105000D03*
X137195000Y-39105000D03*
X140550000Y-35905000D03*
X145450000Y-35905000D03*
X140550000Y-39105000D03*
X145450000Y-39105000D03*
X115785000Y-42890000D03*
X120685000Y-42890000D03*
X115785000Y-46090000D03*
X120685000Y-46090000D03*
X124040000Y-42890000D03*
X128940000Y-42890000D03*
X124040000Y-46090000D03*
X128940000Y-46090000D03*
X132295000Y-42890000D03*
X137195000Y-42890000D03*
X132295000Y-46090000D03*
X137195000Y-46090000D03*
X140550000Y-42890000D03*
X145450000Y-42890000D03*
X140550000Y-46090000D03*
X145450000Y-46090000D03*
X115785000Y-49875000D03*
X120685000Y-49875000D03*
X115785000Y-53075000D03*
X120685000Y-53075000D03*
X124040000Y-49875000D03*
X128940000Y-49875000D03*
X124040000Y-53075000D03*
X128940000Y-53075000D03*
X132295000Y-49875000D03*
X137195000Y-49875000D03*
X132295000Y-53075000D03*
X137195000Y-53075000D03*
X140550000Y-49875000D03*
X145450000Y-49875000D03*
X140550000Y-53075000D03*
X145450000Y-53075000D03*
D16*
X105700000Y-121300000D03*
X100450000Y-125500000D03*
D17*
X148600000Y-139600000D03*
X150600000Y-139600000D03*
D18*
X112522000Y-29784000D03*
X112522000Y-31684000D03*
D19*
X105300000Y-149000000D03*
X107200000Y-149000000D03*
X105300000Y-154750000D03*
X107200000Y-154750000D03*
X105300000Y-159500000D03*
X107200000Y-159500000D03*
X105300000Y-164500000D03*
X107200000Y-164500000D03*
D18*
X136400000Y-84950000D03*
X136400000Y-86850000D03*
D20*
X90205000Y-153865000D03*
X94355000Y-153865000D03*
X94355000Y-151715000D03*
X90205000Y-151715000D03*
X86205000Y-159115000D03*
X90355000Y-159115000D03*
X90355000Y-156965000D03*
X86205000Y-156965000D03*
X94705000Y-159115000D03*
X98855000Y-159115000D03*
X98855000Y-156965000D03*
X94705000Y-156965000D03*
X90205000Y-164865000D03*
X94355000Y-164865000D03*
X94355000Y-162715000D03*
X90205000Y-162715000D03*
X149335000Y-159075000D03*
X153485000Y-159075000D03*
X153485000Y-156925000D03*
X149335000Y-156925000D03*
D21*
X150739800Y-134031600D03*
X149800000Y-134031600D03*
X148860200Y-134031600D03*
X148860200Y-136368400D03*
X150739800Y-136368400D03*
D22*
X155038000Y-95075000D03*
D23*
X155038000Y-96175000D03*
D24*
X155038000Y-97275000D03*
D25*
X155038000Y-98375000D03*
D26*
X155038000Y-99475000D03*
D27*
X155038000Y-100575000D03*
D28*
X155038000Y-101675000D03*
D29*
X155038000Y-102775000D03*
D30*
X154913000Y-104075000D03*
D31*
X154913000Y-92625000D03*
D32*
X147313000Y-104250000D03*
D33*
X146663000Y-92300000D03*
D34*
X145813000Y-103895000D03*
D35*
X144213000Y-92700000D03*
M02*
