G04 #@! TF.FileFunction,Paste,Bot*
%FSLAX46Y46*%
G04 Gerber Fmt 4.6, Leading zero omitted, Abs format (unit mm)*
G04 Created by KiCad (PCBNEW 4.0.7-e2-6376~58~ubuntu14.04.1) date Tue Sep  5 20:37:50 2017*
%MOMM*%
%LPD*%
G01*
G04 APERTURE LIST*
%ADD10C,0.100000*%
%ADD11R,1.500000X0.700000*%
%ADD12R,0.800000X1.000000*%
%ADD13R,1.250000X1.000000*%
%ADD14R,1.000000X1.250000*%
%ADD15R,0.300000X1.000000*%
%ADD16R,2.000000X1.300000*%
%ADD17R,1.300000X0.700000*%
%ADD18R,0.700000X1.300000*%
G04 APERTURE END LIST*
D10*
D11*
X154900000Y-121650000D03*
X154900000Y-120150000D03*
X154900000Y-117150000D03*
D12*
X158000000Y-115750000D03*
X155800000Y-115750000D03*
X155800000Y-123050000D03*
X158000000Y-123050000D03*
D13*
X118250000Y-29500000D03*
X118250000Y-31500000D03*
X126500000Y-29500000D03*
X126500000Y-31500000D03*
X134750000Y-29500000D03*
X134750000Y-31500000D03*
X143250000Y-29500000D03*
X143250000Y-31500000D03*
X118250000Y-36500000D03*
X118250000Y-38500000D03*
X126500000Y-36500000D03*
X126500000Y-38500000D03*
X134750000Y-36500000D03*
X134750000Y-38500000D03*
X143000000Y-36500000D03*
X143000000Y-38500000D03*
X118250000Y-43500000D03*
X118250000Y-45500000D03*
X126500000Y-43500000D03*
X126500000Y-45500000D03*
X134750000Y-43500000D03*
X134750000Y-45500000D03*
X143010000Y-45500000D03*
X143010000Y-43500000D03*
X118250000Y-52500000D03*
X118250000Y-50500000D03*
X126510000Y-52500000D03*
X126510000Y-50500000D03*
X134750000Y-52500000D03*
X134750000Y-50500000D03*
D14*
X132750000Y-116750000D03*
X130750000Y-116750000D03*
X134850000Y-116750000D03*
X136850000Y-116750000D03*
D15*
X131250000Y-120000000D03*
X130750000Y-120000000D03*
X130250000Y-120000000D03*
X129750000Y-120000000D03*
X129250000Y-120000000D03*
X128750000Y-120000000D03*
X128250000Y-120000000D03*
X127750000Y-120000000D03*
X127250000Y-120000000D03*
X126750000Y-120000000D03*
D16*
X133550000Y-122700000D03*
X124450000Y-122700000D03*
D17*
X147200000Y-154250000D03*
X147200000Y-152350000D03*
D18*
X126550000Y-116750000D03*
X128450000Y-116750000D03*
D13*
X143000000Y-52560000D03*
X143000000Y-50560000D03*
M02*
