G75*
%MOIN*%
%OFA0B0*%
%FSLAX25Y25*%
%IPPOS*%
%LPD*%
%AMOC8*
5,1,8,0,0,1.08239X$1,22.5*
%
%ADD10C,0.00000*%
%ADD11C,0.01000*%
%ADD12C,0.20485*%
%ADD13C,0.16548*%
%ADD14R,0.02769X0.02769*%
%ADD15R,0.04934X0.03359*%
%ADD16R,0.05131X0.04737*%
%ADD17R,0.04737X0.05131*%
%ADD18R,0.04442X0.03713*%
%ADD19R,0.04934X0.03162*%
%ADD20R,0.07099X0.05918*%
%ADD21R,0.03950X0.11430*%
%ADD22R,0.03556X0.06706*%
%ADD23C,0.04343*%
%ADD24R,0.06706X0.04737*%
%ADD25R,0.03713X0.04442*%
%ADD26C,0.05162*%
%ADD27R,0.05052X0.04934*%
%ADD28R,0.03556X0.07690*%
%ADD29R,0.05918X0.06706*%
%ADD30R,0.06706X0.06706*%
%ADD31R,0.03950X0.06706*%
%ADD32R,0.03950X0.06312*%
%ADD33R,0.06509X0.04737*%
%ADD34R,0.04737X0.06902*%
%ADD35OC8,0.06800*%
%ADD36R,0.04769X0.04769*%
%ADD37C,0.00954*%
%ADD38C,0.03556*%
%ADD39C,0.07887*%
%ADD40C,0.03600*%
%ADD41C,0.03400*%
%ADD42C,0.04200*%
%ADD43C,0.04000*%
D10*
X0057502Y0076836D02*
X0069503Y0072170D01*
X0084837Y0068836D01*
X0093504Y0067503D01*
X0108838Y0066836D01*
X0124172Y0067503D01*
X0130839Y0068836D01*
X0136173Y0070169D01*
X0140840Y0072170D01*
X0143507Y0073503D01*
X0146173Y0073503D01*
X0148174Y0072836D01*
X0160841Y0060169D01*
X0170175Y0052169D01*
X0175508Y0048168D01*
X0182842Y0043501D01*
X0191509Y0038168D01*
X0198843Y0034168D01*
X0208843Y0029501D01*
X0222844Y0024834D01*
X0232845Y0022167D01*
X0243512Y0019500D01*
X0252845Y0017500D01*
X0263513Y0016167D01*
X0276847Y0015500D01*
X0292848Y0015500D01*
X0306848Y0016833D01*
X0316849Y0018167D01*
X0327516Y0020167D01*
X0336183Y0022167D01*
X0342850Y0024167D01*
X0348850Y0026167D01*
X0356184Y0029501D01*
X0362184Y0032167D01*
X0370851Y0036834D01*
X0380185Y0042835D01*
X0385519Y0046168D01*
X0390852Y0050168D01*
X0396853Y0054835D01*
X0404186Y0060836D01*
X0410187Y0066836D01*
X0414187Y0071503D01*
X0416187Y0072170D01*
X0418854Y0072836D01*
X0424187Y0072170D01*
X0432188Y0070169D01*
X0439522Y0068836D01*
X0449522Y0068169D01*
X0458856Y0068836D01*
X0466856Y0070169D01*
X0472190Y0070836D01*
X0478857Y0072836D01*
X0486191Y0074836D01*
X0492858Y0077503D01*
X0499524Y0080170D01*
X0506191Y0083503D01*
X0512859Y0087504D01*
X0519526Y0092170D01*
X0524192Y0096171D01*
X0530193Y0102171D01*
X0534860Y0108838D01*
X0538860Y0116838D01*
X0541527Y0124172D01*
X0544193Y0131506D01*
X0546194Y0139506D01*
X0546860Y0146840D01*
X0546860Y0156840D01*
X0546194Y0164174D01*
X0544860Y0171508D01*
X0543527Y0176175D01*
X0540860Y0183508D01*
X0538193Y0189509D01*
X0535526Y0194176D01*
X0532859Y0198842D01*
X0524859Y0208176D01*
X0521526Y0211510D01*
X0516192Y0216177D01*
X0510858Y0219510D01*
X0504858Y0222844D01*
X0499524Y0224844D01*
X0492858Y0226844D01*
X0486191Y0227511D01*
X0472190Y0227511D01*
X0470856Y0228177D01*
X0470856Y0229511D01*
X0471523Y0232177D01*
X0472856Y0234178D01*
X0476857Y0240178D01*
X0480857Y0245512D01*
X0483524Y0250178D01*
X0486857Y0256179D01*
X0492191Y0263512D01*
X0498191Y0272180D01*
X0502191Y0278180D01*
X0507525Y0286847D01*
X0511525Y0295514D01*
X0514859Y0303514D01*
X0517525Y0310848D01*
X0520192Y0318848D01*
X0521526Y0325516D01*
X0521526Y0334183D01*
X0520859Y0339516D01*
X0520192Y0340850D01*
X0518859Y0341516D01*
X0515525Y0341516D01*
X0511525Y0340850D01*
X0506191Y0339516D01*
X0501525Y0338849D01*
X0497524Y0338849D01*
X0494858Y0339516D01*
X0488191Y0342850D01*
X0479523Y0347517D01*
X0470856Y0352850D01*
X0462856Y0356850D01*
X0456189Y0360184D01*
X0449522Y0362851D01*
X0441522Y0364851D01*
X0434855Y0366184D01*
X0426187Y0368851D01*
X0420187Y0370851D01*
X0415520Y0372851D01*
X0410853Y0375518D01*
X0406187Y0378852D01*
X0402853Y0382185D01*
X0400186Y0385519D01*
X0396186Y0394852D01*
X0393519Y0399519D01*
X0391519Y0403519D01*
X0388186Y0408853D01*
X0384185Y0414853D01*
X0381519Y0418853D01*
X0378852Y0423520D01*
X0376185Y0427521D01*
X0373518Y0432187D01*
X0370851Y0436188D01*
X0367518Y0440855D01*
X0363518Y0445522D01*
X0360851Y0448855D01*
X0356851Y0453522D01*
X0346184Y0464189D01*
X0339516Y0469523D01*
X0335516Y0472856D01*
X0330183Y0476190D01*
X0324182Y0478856D01*
X0317515Y0481523D01*
X0309515Y0483523D01*
X0304181Y0484190D01*
X0301515Y0484190D01*
X0300181Y0483523D01*
X0298181Y0480857D01*
X0296848Y0475523D01*
X0295514Y0468189D01*
X0294181Y0460189D01*
X0291514Y0453522D01*
X0288181Y0448188D01*
X0282847Y0444188D01*
X0277513Y0441521D01*
X0273513Y0440188D01*
X0270180Y0440188D01*
X0263513Y0440855D01*
X0257512Y0442855D01*
X0252845Y0444855D01*
X0249512Y0446855D01*
X0246178Y0450855D01*
X0243512Y0454189D01*
X0240845Y0458855D01*
X0238178Y0464189D01*
X0236178Y0469523D01*
X0234178Y0473523D01*
X0232178Y0476190D01*
X0230178Y0477523D01*
X0225511Y0477523D01*
X0220844Y0476190D01*
X0215510Y0474190D01*
X0210843Y0472190D01*
X0206177Y0469523D01*
X0200843Y0465523D01*
X0196843Y0462189D01*
X0192176Y0458189D01*
X0188842Y0454189D01*
X0185509Y0449522D01*
X0182175Y0445522D01*
X0178842Y0441521D01*
X0175508Y0435521D01*
X0171508Y0428854D01*
X0168175Y0422854D01*
X0164174Y0415520D01*
X0157507Y0402186D01*
X0153507Y0394852D01*
X0149507Y0388185D01*
X0145507Y0383518D01*
X0141507Y0378852D01*
X0136173Y0374185D01*
X0131506Y0370851D01*
X0124839Y0367518D01*
X0120172Y0364851D01*
X0115505Y0362851D01*
X0110172Y0360184D01*
X0105505Y0357517D01*
X0100838Y0353517D01*
X0095504Y0348850D01*
X0089504Y0343516D01*
X0083504Y0339516D01*
X0080170Y0336849D01*
X0074837Y0336849D01*
X0070170Y0338183D01*
X0064836Y0340183D01*
X0055502Y0342850D01*
X0052169Y0343516D01*
X0050169Y0342850D01*
X0048835Y0341516D01*
X0048835Y0334849D01*
X0049502Y0324849D01*
X0050835Y0316182D01*
X0052169Y0310181D01*
X0054169Y0303514D01*
X0056836Y0296181D01*
X0060169Y0288180D01*
X0063503Y0282180D01*
X0066170Y0276180D01*
X0068836Y0270846D01*
X0074837Y0260179D01*
X0081504Y0248845D01*
X0087504Y0240178D01*
X0094171Y0230177D01*
X0099505Y0224177D01*
X0094171Y0224177D01*
X0090171Y0225510D01*
X0084837Y0226844D01*
X0074170Y0226844D01*
X0068170Y0226177D01*
X0061503Y0224844D01*
X0055502Y0222844D01*
X0048835Y0220177D01*
X0041502Y0216177D01*
X0035501Y0211510D01*
X0029501Y0205509D01*
X0024834Y0200176D01*
X0019501Y0192176D01*
X0014167Y0180842D01*
X0011500Y0170841D01*
X0009500Y0149507D01*
X0010167Y0141506D01*
X0010833Y0134173D01*
X0012167Y0127506D01*
X0014167Y0120839D01*
X0016834Y0114838D01*
X0020167Y0108171D01*
X0024167Y0102838D01*
X0028168Y0097504D01*
X0034835Y0091504D01*
X0040168Y0086837D01*
X0044168Y0084170D01*
X0049502Y0080837D01*
X0057502Y0076836D01*
X0071626Y0090500D02*
X0071628Y0090693D01*
X0071635Y0090886D01*
X0071647Y0091079D01*
X0071664Y0091272D01*
X0071685Y0091464D01*
X0071711Y0091655D01*
X0071742Y0091846D01*
X0071777Y0092036D01*
X0071817Y0092225D01*
X0071862Y0092413D01*
X0071911Y0092600D01*
X0071965Y0092786D01*
X0072023Y0092970D01*
X0072086Y0093153D01*
X0072154Y0093334D01*
X0072225Y0093513D01*
X0072302Y0093691D01*
X0072382Y0093867D01*
X0072467Y0094040D01*
X0072556Y0094212D01*
X0072649Y0094381D01*
X0072746Y0094548D01*
X0072848Y0094713D01*
X0072953Y0094875D01*
X0073062Y0095034D01*
X0073176Y0095191D01*
X0073293Y0095344D01*
X0073413Y0095495D01*
X0073538Y0095643D01*
X0073666Y0095788D01*
X0073797Y0095929D01*
X0073932Y0096068D01*
X0074071Y0096203D01*
X0074212Y0096334D01*
X0074357Y0096462D01*
X0074505Y0096587D01*
X0074656Y0096707D01*
X0074809Y0096824D01*
X0074966Y0096938D01*
X0075125Y0097047D01*
X0075287Y0097152D01*
X0075452Y0097254D01*
X0075619Y0097351D01*
X0075788Y0097444D01*
X0075960Y0097533D01*
X0076133Y0097618D01*
X0076309Y0097698D01*
X0076487Y0097775D01*
X0076666Y0097846D01*
X0076847Y0097914D01*
X0077030Y0097977D01*
X0077214Y0098035D01*
X0077400Y0098089D01*
X0077587Y0098138D01*
X0077775Y0098183D01*
X0077964Y0098223D01*
X0078154Y0098258D01*
X0078345Y0098289D01*
X0078536Y0098315D01*
X0078728Y0098336D01*
X0078921Y0098353D01*
X0079114Y0098365D01*
X0079307Y0098372D01*
X0079500Y0098374D01*
X0079693Y0098372D01*
X0079886Y0098365D01*
X0080079Y0098353D01*
X0080272Y0098336D01*
X0080464Y0098315D01*
X0080655Y0098289D01*
X0080846Y0098258D01*
X0081036Y0098223D01*
X0081225Y0098183D01*
X0081413Y0098138D01*
X0081600Y0098089D01*
X0081786Y0098035D01*
X0081970Y0097977D01*
X0082153Y0097914D01*
X0082334Y0097846D01*
X0082513Y0097775D01*
X0082691Y0097698D01*
X0082867Y0097618D01*
X0083040Y0097533D01*
X0083212Y0097444D01*
X0083381Y0097351D01*
X0083548Y0097254D01*
X0083713Y0097152D01*
X0083875Y0097047D01*
X0084034Y0096938D01*
X0084191Y0096824D01*
X0084344Y0096707D01*
X0084495Y0096587D01*
X0084643Y0096462D01*
X0084788Y0096334D01*
X0084929Y0096203D01*
X0085068Y0096068D01*
X0085203Y0095929D01*
X0085334Y0095788D01*
X0085462Y0095643D01*
X0085587Y0095495D01*
X0085707Y0095344D01*
X0085824Y0095191D01*
X0085938Y0095034D01*
X0086047Y0094875D01*
X0086152Y0094713D01*
X0086254Y0094548D01*
X0086351Y0094381D01*
X0086444Y0094212D01*
X0086533Y0094040D01*
X0086618Y0093867D01*
X0086698Y0093691D01*
X0086775Y0093513D01*
X0086846Y0093334D01*
X0086914Y0093153D01*
X0086977Y0092970D01*
X0087035Y0092786D01*
X0087089Y0092600D01*
X0087138Y0092413D01*
X0087183Y0092225D01*
X0087223Y0092036D01*
X0087258Y0091846D01*
X0087289Y0091655D01*
X0087315Y0091464D01*
X0087336Y0091272D01*
X0087353Y0091079D01*
X0087365Y0090886D01*
X0087372Y0090693D01*
X0087374Y0090500D01*
X0087372Y0090307D01*
X0087365Y0090114D01*
X0087353Y0089921D01*
X0087336Y0089728D01*
X0087315Y0089536D01*
X0087289Y0089345D01*
X0087258Y0089154D01*
X0087223Y0088964D01*
X0087183Y0088775D01*
X0087138Y0088587D01*
X0087089Y0088400D01*
X0087035Y0088214D01*
X0086977Y0088030D01*
X0086914Y0087847D01*
X0086846Y0087666D01*
X0086775Y0087487D01*
X0086698Y0087309D01*
X0086618Y0087133D01*
X0086533Y0086960D01*
X0086444Y0086788D01*
X0086351Y0086619D01*
X0086254Y0086452D01*
X0086152Y0086287D01*
X0086047Y0086125D01*
X0085938Y0085966D01*
X0085824Y0085809D01*
X0085707Y0085656D01*
X0085587Y0085505D01*
X0085462Y0085357D01*
X0085334Y0085212D01*
X0085203Y0085071D01*
X0085068Y0084932D01*
X0084929Y0084797D01*
X0084788Y0084666D01*
X0084643Y0084538D01*
X0084495Y0084413D01*
X0084344Y0084293D01*
X0084191Y0084176D01*
X0084034Y0084062D01*
X0083875Y0083953D01*
X0083713Y0083848D01*
X0083548Y0083746D01*
X0083381Y0083649D01*
X0083212Y0083556D01*
X0083040Y0083467D01*
X0082867Y0083382D01*
X0082691Y0083302D01*
X0082513Y0083225D01*
X0082334Y0083154D01*
X0082153Y0083086D01*
X0081970Y0083023D01*
X0081786Y0082965D01*
X0081600Y0082911D01*
X0081413Y0082862D01*
X0081225Y0082817D01*
X0081036Y0082777D01*
X0080846Y0082742D01*
X0080655Y0082711D01*
X0080464Y0082685D01*
X0080272Y0082664D01*
X0080079Y0082647D01*
X0079886Y0082635D01*
X0079693Y0082628D01*
X0079500Y0082626D01*
X0079307Y0082628D01*
X0079114Y0082635D01*
X0078921Y0082647D01*
X0078728Y0082664D01*
X0078536Y0082685D01*
X0078345Y0082711D01*
X0078154Y0082742D01*
X0077964Y0082777D01*
X0077775Y0082817D01*
X0077587Y0082862D01*
X0077400Y0082911D01*
X0077214Y0082965D01*
X0077030Y0083023D01*
X0076847Y0083086D01*
X0076666Y0083154D01*
X0076487Y0083225D01*
X0076309Y0083302D01*
X0076133Y0083382D01*
X0075960Y0083467D01*
X0075788Y0083556D01*
X0075619Y0083649D01*
X0075452Y0083746D01*
X0075287Y0083848D01*
X0075125Y0083953D01*
X0074966Y0084062D01*
X0074809Y0084176D01*
X0074656Y0084293D01*
X0074505Y0084413D01*
X0074357Y0084538D01*
X0074212Y0084666D01*
X0074071Y0084797D01*
X0073932Y0084932D01*
X0073797Y0085071D01*
X0073666Y0085212D01*
X0073538Y0085357D01*
X0073413Y0085505D01*
X0073293Y0085656D01*
X0073176Y0085809D01*
X0073062Y0085966D01*
X0072953Y0086125D01*
X0072848Y0086287D01*
X0072746Y0086452D01*
X0072649Y0086619D01*
X0072556Y0086788D01*
X0072467Y0086960D01*
X0072382Y0087133D01*
X0072302Y0087309D01*
X0072225Y0087487D01*
X0072154Y0087666D01*
X0072086Y0087847D01*
X0072023Y0088030D01*
X0071965Y0088214D01*
X0071911Y0088400D01*
X0071862Y0088587D01*
X0071817Y0088775D01*
X0071777Y0088964D01*
X0071742Y0089154D01*
X0071711Y0089345D01*
X0071685Y0089536D01*
X0071664Y0089728D01*
X0071647Y0089921D01*
X0071635Y0090114D01*
X0071628Y0090307D01*
X0071626Y0090500D01*
X0046626Y0100500D02*
X0046628Y0100693D01*
X0046635Y0100886D01*
X0046647Y0101079D01*
X0046664Y0101272D01*
X0046685Y0101464D01*
X0046711Y0101655D01*
X0046742Y0101846D01*
X0046777Y0102036D01*
X0046817Y0102225D01*
X0046862Y0102413D01*
X0046911Y0102600D01*
X0046965Y0102786D01*
X0047023Y0102970D01*
X0047086Y0103153D01*
X0047154Y0103334D01*
X0047225Y0103513D01*
X0047302Y0103691D01*
X0047382Y0103867D01*
X0047467Y0104040D01*
X0047556Y0104212D01*
X0047649Y0104381D01*
X0047746Y0104548D01*
X0047848Y0104713D01*
X0047953Y0104875D01*
X0048062Y0105034D01*
X0048176Y0105191D01*
X0048293Y0105344D01*
X0048413Y0105495D01*
X0048538Y0105643D01*
X0048666Y0105788D01*
X0048797Y0105929D01*
X0048932Y0106068D01*
X0049071Y0106203D01*
X0049212Y0106334D01*
X0049357Y0106462D01*
X0049505Y0106587D01*
X0049656Y0106707D01*
X0049809Y0106824D01*
X0049966Y0106938D01*
X0050125Y0107047D01*
X0050287Y0107152D01*
X0050452Y0107254D01*
X0050619Y0107351D01*
X0050788Y0107444D01*
X0050960Y0107533D01*
X0051133Y0107618D01*
X0051309Y0107698D01*
X0051487Y0107775D01*
X0051666Y0107846D01*
X0051847Y0107914D01*
X0052030Y0107977D01*
X0052214Y0108035D01*
X0052400Y0108089D01*
X0052587Y0108138D01*
X0052775Y0108183D01*
X0052964Y0108223D01*
X0053154Y0108258D01*
X0053345Y0108289D01*
X0053536Y0108315D01*
X0053728Y0108336D01*
X0053921Y0108353D01*
X0054114Y0108365D01*
X0054307Y0108372D01*
X0054500Y0108374D01*
X0054693Y0108372D01*
X0054886Y0108365D01*
X0055079Y0108353D01*
X0055272Y0108336D01*
X0055464Y0108315D01*
X0055655Y0108289D01*
X0055846Y0108258D01*
X0056036Y0108223D01*
X0056225Y0108183D01*
X0056413Y0108138D01*
X0056600Y0108089D01*
X0056786Y0108035D01*
X0056970Y0107977D01*
X0057153Y0107914D01*
X0057334Y0107846D01*
X0057513Y0107775D01*
X0057691Y0107698D01*
X0057867Y0107618D01*
X0058040Y0107533D01*
X0058212Y0107444D01*
X0058381Y0107351D01*
X0058548Y0107254D01*
X0058713Y0107152D01*
X0058875Y0107047D01*
X0059034Y0106938D01*
X0059191Y0106824D01*
X0059344Y0106707D01*
X0059495Y0106587D01*
X0059643Y0106462D01*
X0059788Y0106334D01*
X0059929Y0106203D01*
X0060068Y0106068D01*
X0060203Y0105929D01*
X0060334Y0105788D01*
X0060462Y0105643D01*
X0060587Y0105495D01*
X0060707Y0105344D01*
X0060824Y0105191D01*
X0060938Y0105034D01*
X0061047Y0104875D01*
X0061152Y0104713D01*
X0061254Y0104548D01*
X0061351Y0104381D01*
X0061444Y0104212D01*
X0061533Y0104040D01*
X0061618Y0103867D01*
X0061698Y0103691D01*
X0061775Y0103513D01*
X0061846Y0103334D01*
X0061914Y0103153D01*
X0061977Y0102970D01*
X0062035Y0102786D01*
X0062089Y0102600D01*
X0062138Y0102413D01*
X0062183Y0102225D01*
X0062223Y0102036D01*
X0062258Y0101846D01*
X0062289Y0101655D01*
X0062315Y0101464D01*
X0062336Y0101272D01*
X0062353Y0101079D01*
X0062365Y0100886D01*
X0062372Y0100693D01*
X0062374Y0100500D01*
X0062372Y0100307D01*
X0062365Y0100114D01*
X0062353Y0099921D01*
X0062336Y0099728D01*
X0062315Y0099536D01*
X0062289Y0099345D01*
X0062258Y0099154D01*
X0062223Y0098964D01*
X0062183Y0098775D01*
X0062138Y0098587D01*
X0062089Y0098400D01*
X0062035Y0098214D01*
X0061977Y0098030D01*
X0061914Y0097847D01*
X0061846Y0097666D01*
X0061775Y0097487D01*
X0061698Y0097309D01*
X0061618Y0097133D01*
X0061533Y0096960D01*
X0061444Y0096788D01*
X0061351Y0096619D01*
X0061254Y0096452D01*
X0061152Y0096287D01*
X0061047Y0096125D01*
X0060938Y0095966D01*
X0060824Y0095809D01*
X0060707Y0095656D01*
X0060587Y0095505D01*
X0060462Y0095357D01*
X0060334Y0095212D01*
X0060203Y0095071D01*
X0060068Y0094932D01*
X0059929Y0094797D01*
X0059788Y0094666D01*
X0059643Y0094538D01*
X0059495Y0094413D01*
X0059344Y0094293D01*
X0059191Y0094176D01*
X0059034Y0094062D01*
X0058875Y0093953D01*
X0058713Y0093848D01*
X0058548Y0093746D01*
X0058381Y0093649D01*
X0058212Y0093556D01*
X0058040Y0093467D01*
X0057867Y0093382D01*
X0057691Y0093302D01*
X0057513Y0093225D01*
X0057334Y0093154D01*
X0057153Y0093086D01*
X0056970Y0093023D01*
X0056786Y0092965D01*
X0056600Y0092911D01*
X0056413Y0092862D01*
X0056225Y0092817D01*
X0056036Y0092777D01*
X0055846Y0092742D01*
X0055655Y0092711D01*
X0055464Y0092685D01*
X0055272Y0092664D01*
X0055079Y0092647D01*
X0054886Y0092635D01*
X0054693Y0092628D01*
X0054500Y0092626D01*
X0054307Y0092628D01*
X0054114Y0092635D01*
X0053921Y0092647D01*
X0053728Y0092664D01*
X0053536Y0092685D01*
X0053345Y0092711D01*
X0053154Y0092742D01*
X0052964Y0092777D01*
X0052775Y0092817D01*
X0052587Y0092862D01*
X0052400Y0092911D01*
X0052214Y0092965D01*
X0052030Y0093023D01*
X0051847Y0093086D01*
X0051666Y0093154D01*
X0051487Y0093225D01*
X0051309Y0093302D01*
X0051133Y0093382D01*
X0050960Y0093467D01*
X0050788Y0093556D01*
X0050619Y0093649D01*
X0050452Y0093746D01*
X0050287Y0093848D01*
X0050125Y0093953D01*
X0049966Y0094062D01*
X0049809Y0094176D01*
X0049656Y0094293D01*
X0049505Y0094413D01*
X0049357Y0094538D01*
X0049212Y0094666D01*
X0049071Y0094797D01*
X0048932Y0094932D01*
X0048797Y0095071D01*
X0048666Y0095212D01*
X0048538Y0095357D01*
X0048413Y0095505D01*
X0048293Y0095656D01*
X0048176Y0095809D01*
X0048062Y0095966D01*
X0047953Y0096125D01*
X0047848Y0096287D01*
X0047746Y0096452D01*
X0047649Y0096619D01*
X0047556Y0096788D01*
X0047467Y0096960D01*
X0047382Y0097133D01*
X0047302Y0097309D01*
X0047225Y0097487D01*
X0047154Y0097666D01*
X0047086Y0097847D01*
X0047023Y0098030D01*
X0046965Y0098214D01*
X0046911Y0098400D01*
X0046862Y0098587D01*
X0046817Y0098775D01*
X0046777Y0098964D01*
X0046742Y0099154D01*
X0046711Y0099345D01*
X0046685Y0099536D01*
X0046664Y0099728D01*
X0046647Y0099921D01*
X0046635Y0100114D01*
X0046628Y0100307D01*
X0046626Y0100500D01*
X0104322Y0075500D02*
X0104324Y0075584D01*
X0104330Y0075667D01*
X0104340Y0075750D01*
X0104354Y0075833D01*
X0104371Y0075915D01*
X0104393Y0075996D01*
X0104418Y0076075D01*
X0104447Y0076154D01*
X0104480Y0076231D01*
X0104516Y0076306D01*
X0104556Y0076380D01*
X0104599Y0076452D01*
X0104646Y0076521D01*
X0104696Y0076588D01*
X0104749Y0076653D01*
X0104805Y0076715D01*
X0104863Y0076775D01*
X0104925Y0076832D01*
X0104989Y0076885D01*
X0105056Y0076936D01*
X0105125Y0076983D01*
X0105196Y0077028D01*
X0105269Y0077068D01*
X0105344Y0077105D01*
X0105421Y0077139D01*
X0105499Y0077169D01*
X0105578Y0077195D01*
X0105659Y0077218D01*
X0105741Y0077236D01*
X0105823Y0077251D01*
X0105906Y0077262D01*
X0105989Y0077269D01*
X0106073Y0077272D01*
X0106157Y0077271D01*
X0106240Y0077266D01*
X0106324Y0077257D01*
X0106406Y0077244D01*
X0106488Y0077228D01*
X0106569Y0077207D01*
X0106650Y0077183D01*
X0106728Y0077155D01*
X0106806Y0077123D01*
X0106882Y0077087D01*
X0106956Y0077048D01*
X0107028Y0077006D01*
X0107098Y0076960D01*
X0107166Y0076911D01*
X0107231Y0076859D01*
X0107294Y0076804D01*
X0107354Y0076746D01*
X0107412Y0076685D01*
X0107466Y0076621D01*
X0107518Y0076555D01*
X0107566Y0076487D01*
X0107611Y0076416D01*
X0107652Y0076343D01*
X0107691Y0076269D01*
X0107725Y0076193D01*
X0107756Y0076115D01*
X0107783Y0076036D01*
X0107807Y0075955D01*
X0107826Y0075874D01*
X0107842Y0075792D01*
X0107854Y0075709D01*
X0107862Y0075625D01*
X0107866Y0075542D01*
X0107866Y0075458D01*
X0107862Y0075375D01*
X0107854Y0075291D01*
X0107842Y0075208D01*
X0107826Y0075126D01*
X0107807Y0075045D01*
X0107783Y0074964D01*
X0107756Y0074885D01*
X0107725Y0074807D01*
X0107691Y0074731D01*
X0107652Y0074657D01*
X0107611Y0074584D01*
X0107566Y0074513D01*
X0107518Y0074445D01*
X0107466Y0074379D01*
X0107412Y0074315D01*
X0107354Y0074254D01*
X0107294Y0074196D01*
X0107231Y0074141D01*
X0107166Y0074089D01*
X0107098Y0074040D01*
X0107028Y0073994D01*
X0106956Y0073952D01*
X0106882Y0073913D01*
X0106806Y0073877D01*
X0106728Y0073845D01*
X0106650Y0073817D01*
X0106569Y0073793D01*
X0106488Y0073772D01*
X0106406Y0073756D01*
X0106324Y0073743D01*
X0106240Y0073734D01*
X0106157Y0073729D01*
X0106073Y0073728D01*
X0105989Y0073731D01*
X0105906Y0073738D01*
X0105823Y0073749D01*
X0105741Y0073764D01*
X0105659Y0073782D01*
X0105578Y0073805D01*
X0105499Y0073831D01*
X0105421Y0073861D01*
X0105344Y0073895D01*
X0105269Y0073932D01*
X0105196Y0073972D01*
X0105125Y0074017D01*
X0105056Y0074064D01*
X0104989Y0074115D01*
X0104925Y0074168D01*
X0104863Y0074225D01*
X0104805Y0074285D01*
X0104749Y0074347D01*
X0104696Y0074412D01*
X0104646Y0074479D01*
X0104599Y0074548D01*
X0104556Y0074620D01*
X0104516Y0074694D01*
X0104480Y0074769D01*
X0104447Y0074846D01*
X0104418Y0074925D01*
X0104393Y0075004D01*
X0104371Y0075085D01*
X0104354Y0075167D01*
X0104340Y0075250D01*
X0104330Y0075333D01*
X0104324Y0075416D01*
X0104322Y0075500D01*
X0116134Y0075500D02*
X0116136Y0075584D01*
X0116142Y0075667D01*
X0116152Y0075750D01*
X0116166Y0075833D01*
X0116183Y0075915D01*
X0116205Y0075996D01*
X0116230Y0076075D01*
X0116259Y0076154D01*
X0116292Y0076231D01*
X0116328Y0076306D01*
X0116368Y0076380D01*
X0116411Y0076452D01*
X0116458Y0076521D01*
X0116508Y0076588D01*
X0116561Y0076653D01*
X0116617Y0076715D01*
X0116675Y0076775D01*
X0116737Y0076832D01*
X0116801Y0076885D01*
X0116868Y0076936D01*
X0116937Y0076983D01*
X0117008Y0077028D01*
X0117081Y0077068D01*
X0117156Y0077105D01*
X0117233Y0077139D01*
X0117311Y0077169D01*
X0117390Y0077195D01*
X0117471Y0077218D01*
X0117553Y0077236D01*
X0117635Y0077251D01*
X0117718Y0077262D01*
X0117801Y0077269D01*
X0117885Y0077272D01*
X0117969Y0077271D01*
X0118052Y0077266D01*
X0118136Y0077257D01*
X0118218Y0077244D01*
X0118300Y0077228D01*
X0118381Y0077207D01*
X0118462Y0077183D01*
X0118540Y0077155D01*
X0118618Y0077123D01*
X0118694Y0077087D01*
X0118768Y0077048D01*
X0118840Y0077006D01*
X0118910Y0076960D01*
X0118978Y0076911D01*
X0119043Y0076859D01*
X0119106Y0076804D01*
X0119166Y0076746D01*
X0119224Y0076685D01*
X0119278Y0076621D01*
X0119330Y0076555D01*
X0119378Y0076487D01*
X0119423Y0076416D01*
X0119464Y0076343D01*
X0119503Y0076269D01*
X0119537Y0076193D01*
X0119568Y0076115D01*
X0119595Y0076036D01*
X0119619Y0075955D01*
X0119638Y0075874D01*
X0119654Y0075792D01*
X0119666Y0075709D01*
X0119674Y0075625D01*
X0119678Y0075542D01*
X0119678Y0075458D01*
X0119674Y0075375D01*
X0119666Y0075291D01*
X0119654Y0075208D01*
X0119638Y0075126D01*
X0119619Y0075045D01*
X0119595Y0074964D01*
X0119568Y0074885D01*
X0119537Y0074807D01*
X0119503Y0074731D01*
X0119464Y0074657D01*
X0119423Y0074584D01*
X0119378Y0074513D01*
X0119330Y0074445D01*
X0119278Y0074379D01*
X0119224Y0074315D01*
X0119166Y0074254D01*
X0119106Y0074196D01*
X0119043Y0074141D01*
X0118978Y0074089D01*
X0118910Y0074040D01*
X0118840Y0073994D01*
X0118768Y0073952D01*
X0118694Y0073913D01*
X0118618Y0073877D01*
X0118540Y0073845D01*
X0118462Y0073817D01*
X0118381Y0073793D01*
X0118300Y0073772D01*
X0118218Y0073756D01*
X0118136Y0073743D01*
X0118052Y0073734D01*
X0117969Y0073729D01*
X0117885Y0073728D01*
X0117801Y0073731D01*
X0117718Y0073738D01*
X0117635Y0073749D01*
X0117553Y0073764D01*
X0117471Y0073782D01*
X0117390Y0073805D01*
X0117311Y0073831D01*
X0117233Y0073861D01*
X0117156Y0073895D01*
X0117081Y0073932D01*
X0117008Y0073972D01*
X0116937Y0074017D01*
X0116868Y0074064D01*
X0116801Y0074115D01*
X0116737Y0074168D01*
X0116675Y0074225D01*
X0116617Y0074285D01*
X0116561Y0074347D01*
X0116508Y0074412D01*
X0116458Y0074479D01*
X0116411Y0074548D01*
X0116368Y0074620D01*
X0116328Y0074694D01*
X0116292Y0074769D01*
X0116259Y0074846D01*
X0116230Y0074925D01*
X0116205Y0075004D01*
X0116183Y0075085D01*
X0116166Y0075167D01*
X0116152Y0075250D01*
X0116142Y0075333D01*
X0116136Y0075416D01*
X0116134Y0075500D01*
X0026626Y0180500D02*
X0026628Y0180693D01*
X0026635Y0180886D01*
X0026647Y0181079D01*
X0026664Y0181272D01*
X0026685Y0181464D01*
X0026711Y0181655D01*
X0026742Y0181846D01*
X0026777Y0182036D01*
X0026817Y0182225D01*
X0026862Y0182413D01*
X0026911Y0182600D01*
X0026965Y0182786D01*
X0027023Y0182970D01*
X0027086Y0183153D01*
X0027154Y0183334D01*
X0027225Y0183513D01*
X0027302Y0183691D01*
X0027382Y0183867D01*
X0027467Y0184040D01*
X0027556Y0184212D01*
X0027649Y0184381D01*
X0027746Y0184548D01*
X0027848Y0184713D01*
X0027953Y0184875D01*
X0028062Y0185034D01*
X0028176Y0185191D01*
X0028293Y0185344D01*
X0028413Y0185495D01*
X0028538Y0185643D01*
X0028666Y0185788D01*
X0028797Y0185929D01*
X0028932Y0186068D01*
X0029071Y0186203D01*
X0029212Y0186334D01*
X0029357Y0186462D01*
X0029505Y0186587D01*
X0029656Y0186707D01*
X0029809Y0186824D01*
X0029966Y0186938D01*
X0030125Y0187047D01*
X0030287Y0187152D01*
X0030452Y0187254D01*
X0030619Y0187351D01*
X0030788Y0187444D01*
X0030960Y0187533D01*
X0031133Y0187618D01*
X0031309Y0187698D01*
X0031487Y0187775D01*
X0031666Y0187846D01*
X0031847Y0187914D01*
X0032030Y0187977D01*
X0032214Y0188035D01*
X0032400Y0188089D01*
X0032587Y0188138D01*
X0032775Y0188183D01*
X0032964Y0188223D01*
X0033154Y0188258D01*
X0033345Y0188289D01*
X0033536Y0188315D01*
X0033728Y0188336D01*
X0033921Y0188353D01*
X0034114Y0188365D01*
X0034307Y0188372D01*
X0034500Y0188374D01*
X0034693Y0188372D01*
X0034886Y0188365D01*
X0035079Y0188353D01*
X0035272Y0188336D01*
X0035464Y0188315D01*
X0035655Y0188289D01*
X0035846Y0188258D01*
X0036036Y0188223D01*
X0036225Y0188183D01*
X0036413Y0188138D01*
X0036600Y0188089D01*
X0036786Y0188035D01*
X0036970Y0187977D01*
X0037153Y0187914D01*
X0037334Y0187846D01*
X0037513Y0187775D01*
X0037691Y0187698D01*
X0037867Y0187618D01*
X0038040Y0187533D01*
X0038212Y0187444D01*
X0038381Y0187351D01*
X0038548Y0187254D01*
X0038713Y0187152D01*
X0038875Y0187047D01*
X0039034Y0186938D01*
X0039191Y0186824D01*
X0039344Y0186707D01*
X0039495Y0186587D01*
X0039643Y0186462D01*
X0039788Y0186334D01*
X0039929Y0186203D01*
X0040068Y0186068D01*
X0040203Y0185929D01*
X0040334Y0185788D01*
X0040462Y0185643D01*
X0040587Y0185495D01*
X0040707Y0185344D01*
X0040824Y0185191D01*
X0040938Y0185034D01*
X0041047Y0184875D01*
X0041152Y0184713D01*
X0041254Y0184548D01*
X0041351Y0184381D01*
X0041444Y0184212D01*
X0041533Y0184040D01*
X0041618Y0183867D01*
X0041698Y0183691D01*
X0041775Y0183513D01*
X0041846Y0183334D01*
X0041914Y0183153D01*
X0041977Y0182970D01*
X0042035Y0182786D01*
X0042089Y0182600D01*
X0042138Y0182413D01*
X0042183Y0182225D01*
X0042223Y0182036D01*
X0042258Y0181846D01*
X0042289Y0181655D01*
X0042315Y0181464D01*
X0042336Y0181272D01*
X0042353Y0181079D01*
X0042365Y0180886D01*
X0042372Y0180693D01*
X0042374Y0180500D01*
X0042372Y0180307D01*
X0042365Y0180114D01*
X0042353Y0179921D01*
X0042336Y0179728D01*
X0042315Y0179536D01*
X0042289Y0179345D01*
X0042258Y0179154D01*
X0042223Y0178964D01*
X0042183Y0178775D01*
X0042138Y0178587D01*
X0042089Y0178400D01*
X0042035Y0178214D01*
X0041977Y0178030D01*
X0041914Y0177847D01*
X0041846Y0177666D01*
X0041775Y0177487D01*
X0041698Y0177309D01*
X0041618Y0177133D01*
X0041533Y0176960D01*
X0041444Y0176788D01*
X0041351Y0176619D01*
X0041254Y0176452D01*
X0041152Y0176287D01*
X0041047Y0176125D01*
X0040938Y0175966D01*
X0040824Y0175809D01*
X0040707Y0175656D01*
X0040587Y0175505D01*
X0040462Y0175357D01*
X0040334Y0175212D01*
X0040203Y0175071D01*
X0040068Y0174932D01*
X0039929Y0174797D01*
X0039788Y0174666D01*
X0039643Y0174538D01*
X0039495Y0174413D01*
X0039344Y0174293D01*
X0039191Y0174176D01*
X0039034Y0174062D01*
X0038875Y0173953D01*
X0038713Y0173848D01*
X0038548Y0173746D01*
X0038381Y0173649D01*
X0038212Y0173556D01*
X0038040Y0173467D01*
X0037867Y0173382D01*
X0037691Y0173302D01*
X0037513Y0173225D01*
X0037334Y0173154D01*
X0037153Y0173086D01*
X0036970Y0173023D01*
X0036786Y0172965D01*
X0036600Y0172911D01*
X0036413Y0172862D01*
X0036225Y0172817D01*
X0036036Y0172777D01*
X0035846Y0172742D01*
X0035655Y0172711D01*
X0035464Y0172685D01*
X0035272Y0172664D01*
X0035079Y0172647D01*
X0034886Y0172635D01*
X0034693Y0172628D01*
X0034500Y0172626D01*
X0034307Y0172628D01*
X0034114Y0172635D01*
X0033921Y0172647D01*
X0033728Y0172664D01*
X0033536Y0172685D01*
X0033345Y0172711D01*
X0033154Y0172742D01*
X0032964Y0172777D01*
X0032775Y0172817D01*
X0032587Y0172862D01*
X0032400Y0172911D01*
X0032214Y0172965D01*
X0032030Y0173023D01*
X0031847Y0173086D01*
X0031666Y0173154D01*
X0031487Y0173225D01*
X0031309Y0173302D01*
X0031133Y0173382D01*
X0030960Y0173467D01*
X0030788Y0173556D01*
X0030619Y0173649D01*
X0030452Y0173746D01*
X0030287Y0173848D01*
X0030125Y0173953D01*
X0029966Y0174062D01*
X0029809Y0174176D01*
X0029656Y0174293D01*
X0029505Y0174413D01*
X0029357Y0174538D01*
X0029212Y0174666D01*
X0029071Y0174797D01*
X0028932Y0174932D01*
X0028797Y0175071D01*
X0028666Y0175212D01*
X0028538Y0175357D01*
X0028413Y0175505D01*
X0028293Y0175656D01*
X0028176Y0175809D01*
X0028062Y0175966D01*
X0027953Y0176125D01*
X0027848Y0176287D01*
X0027746Y0176452D01*
X0027649Y0176619D01*
X0027556Y0176788D01*
X0027467Y0176960D01*
X0027382Y0177133D01*
X0027302Y0177309D01*
X0027225Y0177487D01*
X0027154Y0177666D01*
X0027086Y0177847D01*
X0027023Y0178030D01*
X0026965Y0178214D01*
X0026911Y0178400D01*
X0026862Y0178587D01*
X0026817Y0178775D01*
X0026777Y0178964D01*
X0026742Y0179154D01*
X0026711Y0179345D01*
X0026685Y0179536D01*
X0026664Y0179728D01*
X0026647Y0179921D01*
X0026635Y0180114D01*
X0026628Y0180307D01*
X0026626Y0180500D01*
X0056626Y0205500D02*
X0056628Y0205693D01*
X0056635Y0205886D01*
X0056647Y0206079D01*
X0056664Y0206272D01*
X0056685Y0206464D01*
X0056711Y0206655D01*
X0056742Y0206846D01*
X0056777Y0207036D01*
X0056817Y0207225D01*
X0056862Y0207413D01*
X0056911Y0207600D01*
X0056965Y0207786D01*
X0057023Y0207970D01*
X0057086Y0208153D01*
X0057154Y0208334D01*
X0057225Y0208513D01*
X0057302Y0208691D01*
X0057382Y0208867D01*
X0057467Y0209040D01*
X0057556Y0209212D01*
X0057649Y0209381D01*
X0057746Y0209548D01*
X0057848Y0209713D01*
X0057953Y0209875D01*
X0058062Y0210034D01*
X0058176Y0210191D01*
X0058293Y0210344D01*
X0058413Y0210495D01*
X0058538Y0210643D01*
X0058666Y0210788D01*
X0058797Y0210929D01*
X0058932Y0211068D01*
X0059071Y0211203D01*
X0059212Y0211334D01*
X0059357Y0211462D01*
X0059505Y0211587D01*
X0059656Y0211707D01*
X0059809Y0211824D01*
X0059966Y0211938D01*
X0060125Y0212047D01*
X0060287Y0212152D01*
X0060452Y0212254D01*
X0060619Y0212351D01*
X0060788Y0212444D01*
X0060960Y0212533D01*
X0061133Y0212618D01*
X0061309Y0212698D01*
X0061487Y0212775D01*
X0061666Y0212846D01*
X0061847Y0212914D01*
X0062030Y0212977D01*
X0062214Y0213035D01*
X0062400Y0213089D01*
X0062587Y0213138D01*
X0062775Y0213183D01*
X0062964Y0213223D01*
X0063154Y0213258D01*
X0063345Y0213289D01*
X0063536Y0213315D01*
X0063728Y0213336D01*
X0063921Y0213353D01*
X0064114Y0213365D01*
X0064307Y0213372D01*
X0064500Y0213374D01*
X0064693Y0213372D01*
X0064886Y0213365D01*
X0065079Y0213353D01*
X0065272Y0213336D01*
X0065464Y0213315D01*
X0065655Y0213289D01*
X0065846Y0213258D01*
X0066036Y0213223D01*
X0066225Y0213183D01*
X0066413Y0213138D01*
X0066600Y0213089D01*
X0066786Y0213035D01*
X0066970Y0212977D01*
X0067153Y0212914D01*
X0067334Y0212846D01*
X0067513Y0212775D01*
X0067691Y0212698D01*
X0067867Y0212618D01*
X0068040Y0212533D01*
X0068212Y0212444D01*
X0068381Y0212351D01*
X0068548Y0212254D01*
X0068713Y0212152D01*
X0068875Y0212047D01*
X0069034Y0211938D01*
X0069191Y0211824D01*
X0069344Y0211707D01*
X0069495Y0211587D01*
X0069643Y0211462D01*
X0069788Y0211334D01*
X0069929Y0211203D01*
X0070068Y0211068D01*
X0070203Y0210929D01*
X0070334Y0210788D01*
X0070462Y0210643D01*
X0070587Y0210495D01*
X0070707Y0210344D01*
X0070824Y0210191D01*
X0070938Y0210034D01*
X0071047Y0209875D01*
X0071152Y0209713D01*
X0071254Y0209548D01*
X0071351Y0209381D01*
X0071444Y0209212D01*
X0071533Y0209040D01*
X0071618Y0208867D01*
X0071698Y0208691D01*
X0071775Y0208513D01*
X0071846Y0208334D01*
X0071914Y0208153D01*
X0071977Y0207970D01*
X0072035Y0207786D01*
X0072089Y0207600D01*
X0072138Y0207413D01*
X0072183Y0207225D01*
X0072223Y0207036D01*
X0072258Y0206846D01*
X0072289Y0206655D01*
X0072315Y0206464D01*
X0072336Y0206272D01*
X0072353Y0206079D01*
X0072365Y0205886D01*
X0072372Y0205693D01*
X0072374Y0205500D01*
X0072372Y0205307D01*
X0072365Y0205114D01*
X0072353Y0204921D01*
X0072336Y0204728D01*
X0072315Y0204536D01*
X0072289Y0204345D01*
X0072258Y0204154D01*
X0072223Y0203964D01*
X0072183Y0203775D01*
X0072138Y0203587D01*
X0072089Y0203400D01*
X0072035Y0203214D01*
X0071977Y0203030D01*
X0071914Y0202847D01*
X0071846Y0202666D01*
X0071775Y0202487D01*
X0071698Y0202309D01*
X0071618Y0202133D01*
X0071533Y0201960D01*
X0071444Y0201788D01*
X0071351Y0201619D01*
X0071254Y0201452D01*
X0071152Y0201287D01*
X0071047Y0201125D01*
X0070938Y0200966D01*
X0070824Y0200809D01*
X0070707Y0200656D01*
X0070587Y0200505D01*
X0070462Y0200357D01*
X0070334Y0200212D01*
X0070203Y0200071D01*
X0070068Y0199932D01*
X0069929Y0199797D01*
X0069788Y0199666D01*
X0069643Y0199538D01*
X0069495Y0199413D01*
X0069344Y0199293D01*
X0069191Y0199176D01*
X0069034Y0199062D01*
X0068875Y0198953D01*
X0068713Y0198848D01*
X0068548Y0198746D01*
X0068381Y0198649D01*
X0068212Y0198556D01*
X0068040Y0198467D01*
X0067867Y0198382D01*
X0067691Y0198302D01*
X0067513Y0198225D01*
X0067334Y0198154D01*
X0067153Y0198086D01*
X0066970Y0198023D01*
X0066786Y0197965D01*
X0066600Y0197911D01*
X0066413Y0197862D01*
X0066225Y0197817D01*
X0066036Y0197777D01*
X0065846Y0197742D01*
X0065655Y0197711D01*
X0065464Y0197685D01*
X0065272Y0197664D01*
X0065079Y0197647D01*
X0064886Y0197635D01*
X0064693Y0197628D01*
X0064500Y0197626D01*
X0064307Y0197628D01*
X0064114Y0197635D01*
X0063921Y0197647D01*
X0063728Y0197664D01*
X0063536Y0197685D01*
X0063345Y0197711D01*
X0063154Y0197742D01*
X0062964Y0197777D01*
X0062775Y0197817D01*
X0062587Y0197862D01*
X0062400Y0197911D01*
X0062214Y0197965D01*
X0062030Y0198023D01*
X0061847Y0198086D01*
X0061666Y0198154D01*
X0061487Y0198225D01*
X0061309Y0198302D01*
X0061133Y0198382D01*
X0060960Y0198467D01*
X0060788Y0198556D01*
X0060619Y0198649D01*
X0060452Y0198746D01*
X0060287Y0198848D01*
X0060125Y0198953D01*
X0059966Y0199062D01*
X0059809Y0199176D01*
X0059656Y0199293D01*
X0059505Y0199413D01*
X0059357Y0199538D01*
X0059212Y0199666D01*
X0059071Y0199797D01*
X0058932Y0199932D01*
X0058797Y0200071D01*
X0058666Y0200212D01*
X0058538Y0200357D01*
X0058413Y0200505D01*
X0058293Y0200656D01*
X0058176Y0200809D01*
X0058062Y0200966D01*
X0057953Y0201125D01*
X0057848Y0201287D01*
X0057746Y0201452D01*
X0057649Y0201619D01*
X0057556Y0201788D01*
X0057467Y0201960D01*
X0057382Y0202133D01*
X0057302Y0202309D01*
X0057225Y0202487D01*
X0057154Y0202666D01*
X0057086Y0202847D01*
X0057023Y0203030D01*
X0056965Y0203214D01*
X0056911Y0203400D01*
X0056862Y0203587D01*
X0056817Y0203775D01*
X0056777Y0203964D01*
X0056742Y0204154D01*
X0056711Y0204345D01*
X0056685Y0204536D01*
X0056664Y0204728D01*
X0056647Y0204921D01*
X0056635Y0205114D01*
X0056628Y0205307D01*
X0056626Y0205500D01*
X0067657Y0310500D02*
X0067660Y0310742D01*
X0067669Y0310983D01*
X0067684Y0311224D01*
X0067704Y0311465D01*
X0067731Y0311705D01*
X0067764Y0311944D01*
X0067802Y0312183D01*
X0067846Y0312420D01*
X0067896Y0312657D01*
X0067952Y0312892D01*
X0068014Y0313125D01*
X0068081Y0313357D01*
X0068154Y0313588D01*
X0068232Y0313816D01*
X0068317Y0314042D01*
X0068406Y0314267D01*
X0068501Y0314489D01*
X0068602Y0314708D01*
X0068708Y0314926D01*
X0068819Y0315140D01*
X0068936Y0315352D01*
X0069057Y0315560D01*
X0069184Y0315766D01*
X0069316Y0315968D01*
X0069453Y0316168D01*
X0069594Y0316363D01*
X0069740Y0316556D01*
X0069891Y0316744D01*
X0070047Y0316929D01*
X0070207Y0317110D01*
X0070371Y0317287D01*
X0070540Y0317460D01*
X0070713Y0317629D01*
X0070890Y0317793D01*
X0071071Y0317953D01*
X0071256Y0318109D01*
X0071444Y0318260D01*
X0071637Y0318406D01*
X0071832Y0318547D01*
X0072032Y0318684D01*
X0072234Y0318816D01*
X0072440Y0318943D01*
X0072648Y0319064D01*
X0072860Y0319181D01*
X0073074Y0319292D01*
X0073292Y0319398D01*
X0073511Y0319499D01*
X0073733Y0319594D01*
X0073958Y0319683D01*
X0074184Y0319768D01*
X0074412Y0319846D01*
X0074643Y0319919D01*
X0074875Y0319986D01*
X0075108Y0320048D01*
X0075343Y0320104D01*
X0075580Y0320154D01*
X0075817Y0320198D01*
X0076056Y0320236D01*
X0076295Y0320269D01*
X0076535Y0320296D01*
X0076776Y0320316D01*
X0077017Y0320331D01*
X0077258Y0320340D01*
X0077500Y0320343D01*
X0077742Y0320340D01*
X0077983Y0320331D01*
X0078224Y0320316D01*
X0078465Y0320296D01*
X0078705Y0320269D01*
X0078944Y0320236D01*
X0079183Y0320198D01*
X0079420Y0320154D01*
X0079657Y0320104D01*
X0079892Y0320048D01*
X0080125Y0319986D01*
X0080357Y0319919D01*
X0080588Y0319846D01*
X0080816Y0319768D01*
X0081042Y0319683D01*
X0081267Y0319594D01*
X0081489Y0319499D01*
X0081708Y0319398D01*
X0081926Y0319292D01*
X0082140Y0319181D01*
X0082352Y0319064D01*
X0082560Y0318943D01*
X0082766Y0318816D01*
X0082968Y0318684D01*
X0083168Y0318547D01*
X0083363Y0318406D01*
X0083556Y0318260D01*
X0083744Y0318109D01*
X0083929Y0317953D01*
X0084110Y0317793D01*
X0084287Y0317629D01*
X0084460Y0317460D01*
X0084629Y0317287D01*
X0084793Y0317110D01*
X0084953Y0316929D01*
X0085109Y0316744D01*
X0085260Y0316556D01*
X0085406Y0316363D01*
X0085547Y0316168D01*
X0085684Y0315968D01*
X0085816Y0315766D01*
X0085943Y0315560D01*
X0086064Y0315352D01*
X0086181Y0315140D01*
X0086292Y0314926D01*
X0086398Y0314708D01*
X0086499Y0314489D01*
X0086594Y0314267D01*
X0086683Y0314042D01*
X0086768Y0313816D01*
X0086846Y0313588D01*
X0086919Y0313357D01*
X0086986Y0313125D01*
X0087048Y0312892D01*
X0087104Y0312657D01*
X0087154Y0312420D01*
X0087198Y0312183D01*
X0087236Y0311944D01*
X0087269Y0311705D01*
X0087296Y0311465D01*
X0087316Y0311224D01*
X0087331Y0310983D01*
X0087340Y0310742D01*
X0087343Y0310500D01*
X0087340Y0310258D01*
X0087331Y0310017D01*
X0087316Y0309776D01*
X0087296Y0309535D01*
X0087269Y0309295D01*
X0087236Y0309056D01*
X0087198Y0308817D01*
X0087154Y0308580D01*
X0087104Y0308343D01*
X0087048Y0308108D01*
X0086986Y0307875D01*
X0086919Y0307643D01*
X0086846Y0307412D01*
X0086768Y0307184D01*
X0086683Y0306958D01*
X0086594Y0306733D01*
X0086499Y0306511D01*
X0086398Y0306292D01*
X0086292Y0306074D01*
X0086181Y0305860D01*
X0086064Y0305648D01*
X0085943Y0305440D01*
X0085816Y0305234D01*
X0085684Y0305032D01*
X0085547Y0304832D01*
X0085406Y0304637D01*
X0085260Y0304444D01*
X0085109Y0304256D01*
X0084953Y0304071D01*
X0084793Y0303890D01*
X0084629Y0303713D01*
X0084460Y0303540D01*
X0084287Y0303371D01*
X0084110Y0303207D01*
X0083929Y0303047D01*
X0083744Y0302891D01*
X0083556Y0302740D01*
X0083363Y0302594D01*
X0083168Y0302453D01*
X0082968Y0302316D01*
X0082766Y0302184D01*
X0082560Y0302057D01*
X0082352Y0301936D01*
X0082140Y0301819D01*
X0081926Y0301708D01*
X0081708Y0301602D01*
X0081489Y0301501D01*
X0081267Y0301406D01*
X0081042Y0301317D01*
X0080816Y0301232D01*
X0080588Y0301154D01*
X0080357Y0301081D01*
X0080125Y0301014D01*
X0079892Y0300952D01*
X0079657Y0300896D01*
X0079420Y0300846D01*
X0079183Y0300802D01*
X0078944Y0300764D01*
X0078705Y0300731D01*
X0078465Y0300704D01*
X0078224Y0300684D01*
X0077983Y0300669D01*
X0077742Y0300660D01*
X0077500Y0300657D01*
X0077258Y0300660D01*
X0077017Y0300669D01*
X0076776Y0300684D01*
X0076535Y0300704D01*
X0076295Y0300731D01*
X0076056Y0300764D01*
X0075817Y0300802D01*
X0075580Y0300846D01*
X0075343Y0300896D01*
X0075108Y0300952D01*
X0074875Y0301014D01*
X0074643Y0301081D01*
X0074412Y0301154D01*
X0074184Y0301232D01*
X0073958Y0301317D01*
X0073733Y0301406D01*
X0073511Y0301501D01*
X0073292Y0301602D01*
X0073074Y0301708D01*
X0072860Y0301819D01*
X0072648Y0301936D01*
X0072440Y0302057D01*
X0072234Y0302184D01*
X0072032Y0302316D01*
X0071832Y0302453D01*
X0071637Y0302594D01*
X0071444Y0302740D01*
X0071256Y0302891D01*
X0071071Y0303047D01*
X0070890Y0303207D01*
X0070713Y0303371D01*
X0070540Y0303540D01*
X0070371Y0303713D01*
X0070207Y0303890D01*
X0070047Y0304071D01*
X0069891Y0304256D01*
X0069740Y0304444D01*
X0069594Y0304637D01*
X0069453Y0304832D01*
X0069316Y0305032D01*
X0069184Y0305234D01*
X0069057Y0305440D01*
X0068936Y0305648D01*
X0068819Y0305860D01*
X0068708Y0306074D01*
X0068602Y0306292D01*
X0068501Y0306511D01*
X0068406Y0306733D01*
X0068317Y0306958D01*
X0068232Y0307184D01*
X0068154Y0307412D01*
X0068081Y0307643D01*
X0068014Y0307875D01*
X0067952Y0308108D01*
X0067896Y0308343D01*
X0067846Y0308580D01*
X0067802Y0308817D01*
X0067764Y0309056D01*
X0067731Y0309295D01*
X0067704Y0309535D01*
X0067684Y0309776D01*
X0067669Y0310017D01*
X0067660Y0310258D01*
X0067657Y0310500D01*
X0218945Y0269854D02*
X0218945Y0261980D01*
X0337055Y0261980D01*
X0337055Y0269854D01*
X0218945Y0269854D01*
X0212449Y0418673D02*
X0212451Y0418747D01*
X0212457Y0418821D01*
X0212467Y0418894D01*
X0212481Y0418967D01*
X0212498Y0419039D01*
X0212520Y0419109D01*
X0212545Y0419179D01*
X0212574Y0419247D01*
X0212607Y0419313D01*
X0212643Y0419378D01*
X0212683Y0419440D01*
X0212725Y0419501D01*
X0212771Y0419559D01*
X0212820Y0419614D01*
X0212872Y0419667D01*
X0212927Y0419717D01*
X0212984Y0419763D01*
X0213044Y0419807D01*
X0213106Y0419847D01*
X0213170Y0419884D01*
X0213236Y0419918D01*
X0213304Y0419948D01*
X0213373Y0419974D01*
X0213444Y0419997D01*
X0213515Y0420015D01*
X0213588Y0420030D01*
X0213661Y0420041D01*
X0213735Y0420048D01*
X0213809Y0420051D01*
X0213882Y0420050D01*
X0213956Y0420045D01*
X0214030Y0420036D01*
X0214103Y0420023D01*
X0214175Y0420006D01*
X0214246Y0419986D01*
X0214316Y0419961D01*
X0214384Y0419933D01*
X0214451Y0419902D01*
X0214516Y0419866D01*
X0214579Y0419828D01*
X0214640Y0419786D01*
X0214699Y0419740D01*
X0214755Y0419692D01*
X0214808Y0419641D01*
X0214858Y0419587D01*
X0214906Y0419530D01*
X0214950Y0419471D01*
X0214992Y0419409D01*
X0215030Y0419346D01*
X0215064Y0419280D01*
X0215095Y0419213D01*
X0215122Y0419144D01*
X0215145Y0419074D01*
X0215165Y0419003D01*
X0215181Y0418930D01*
X0215193Y0418857D01*
X0215201Y0418784D01*
X0215205Y0418710D01*
X0215205Y0418636D01*
X0215201Y0418562D01*
X0215193Y0418489D01*
X0215181Y0418416D01*
X0215165Y0418343D01*
X0215145Y0418272D01*
X0215122Y0418202D01*
X0215095Y0418133D01*
X0215064Y0418066D01*
X0215030Y0418000D01*
X0214992Y0417937D01*
X0214950Y0417875D01*
X0214906Y0417816D01*
X0214858Y0417759D01*
X0214808Y0417705D01*
X0214755Y0417654D01*
X0214699Y0417606D01*
X0214640Y0417560D01*
X0214579Y0417518D01*
X0214516Y0417480D01*
X0214451Y0417444D01*
X0214384Y0417413D01*
X0214316Y0417385D01*
X0214246Y0417360D01*
X0214175Y0417340D01*
X0214103Y0417323D01*
X0214030Y0417310D01*
X0213956Y0417301D01*
X0213882Y0417296D01*
X0213809Y0417295D01*
X0213735Y0417298D01*
X0213661Y0417305D01*
X0213588Y0417316D01*
X0213515Y0417331D01*
X0213444Y0417349D01*
X0213373Y0417372D01*
X0213304Y0417398D01*
X0213236Y0417428D01*
X0213170Y0417462D01*
X0213106Y0417499D01*
X0213044Y0417539D01*
X0212984Y0417583D01*
X0212927Y0417629D01*
X0212872Y0417679D01*
X0212820Y0417732D01*
X0212771Y0417787D01*
X0212725Y0417845D01*
X0212683Y0417906D01*
X0212643Y0417968D01*
X0212607Y0418033D01*
X0212574Y0418099D01*
X0212545Y0418167D01*
X0212520Y0418237D01*
X0212498Y0418307D01*
X0212481Y0418379D01*
X0212467Y0418452D01*
X0212457Y0418525D01*
X0212451Y0418599D01*
X0212449Y0418673D01*
X0340795Y0418673D02*
X0340797Y0418747D01*
X0340803Y0418821D01*
X0340813Y0418894D01*
X0340827Y0418967D01*
X0340844Y0419039D01*
X0340866Y0419109D01*
X0340891Y0419179D01*
X0340920Y0419247D01*
X0340953Y0419313D01*
X0340989Y0419378D01*
X0341029Y0419440D01*
X0341071Y0419501D01*
X0341117Y0419559D01*
X0341166Y0419614D01*
X0341218Y0419667D01*
X0341273Y0419717D01*
X0341330Y0419763D01*
X0341390Y0419807D01*
X0341452Y0419847D01*
X0341516Y0419884D01*
X0341582Y0419918D01*
X0341650Y0419948D01*
X0341719Y0419974D01*
X0341790Y0419997D01*
X0341861Y0420015D01*
X0341934Y0420030D01*
X0342007Y0420041D01*
X0342081Y0420048D01*
X0342155Y0420051D01*
X0342228Y0420050D01*
X0342302Y0420045D01*
X0342376Y0420036D01*
X0342449Y0420023D01*
X0342521Y0420006D01*
X0342592Y0419986D01*
X0342662Y0419961D01*
X0342730Y0419933D01*
X0342797Y0419902D01*
X0342862Y0419866D01*
X0342925Y0419828D01*
X0342986Y0419786D01*
X0343045Y0419740D01*
X0343101Y0419692D01*
X0343154Y0419641D01*
X0343204Y0419587D01*
X0343252Y0419530D01*
X0343296Y0419471D01*
X0343338Y0419409D01*
X0343376Y0419346D01*
X0343410Y0419280D01*
X0343441Y0419213D01*
X0343468Y0419144D01*
X0343491Y0419074D01*
X0343511Y0419003D01*
X0343527Y0418930D01*
X0343539Y0418857D01*
X0343547Y0418784D01*
X0343551Y0418710D01*
X0343551Y0418636D01*
X0343547Y0418562D01*
X0343539Y0418489D01*
X0343527Y0418416D01*
X0343511Y0418343D01*
X0343491Y0418272D01*
X0343468Y0418202D01*
X0343441Y0418133D01*
X0343410Y0418066D01*
X0343376Y0418000D01*
X0343338Y0417937D01*
X0343296Y0417875D01*
X0343252Y0417816D01*
X0343204Y0417759D01*
X0343154Y0417705D01*
X0343101Y0417654D01*
X0343045Y0417606D01*
X0342986Y0417560D01*
X0342925Y0417518D01*
X0342862Y0417480D01*
X0342797Y0417444D01*
X0342730Y0417413D01*
X0342662Y0417385D01*
X0342592Y0417360D01*
X0342521Y0417340D01*
X0342449Y0417323D01*
X0342376Y0417310D01*
X0342302Y0417301D01*
X0342228Y0417296D01*
X0342155Y0417295D01*
X0342081Y0417298D01*
X0342007Y0417305D01*
X0341934Y0417316D01*
X0341861Y0417331D01*
X0341790Y0417349D01*
X0341719Y0417372D01*
X0341650Y0417398D01*
X0341582Y0417428D01*
X0341516Y0417462D01*
X0341452Y0417499D01*
X0341390Y0417539D01*
X0341330Y0417583D01*
X0341273Y0417629D01*
X0341218Y0417679D01*
X0341166Y0417732D01*
X0341117Y0417787D01*
X0341071Y0417845D01*
X0341029Y0417906D01*
X0340989Y0417968D01*
X0340953Y0418033D01*
X0340920Y0418099D01*
X0340891Y0418167D01*
X0340866Y0418237D01*
X0340844Y0418307D01*
X0340827Y0418379D01*
X0340813Y0418452D01*
X0340803Y0418525D01*
X0340797Y0418599D01*
X0340795Y0418673D01*
X0487657Y0313500D02*
X0487660Y0313742D01*
X0487669Y0313983D01*
X0487684Y0314224D01*
X0487704Y0314465D01*
X0487731Y0314705D01*
X0487764Y0314944D01*
X0487802Y0315183D01*
X0487846Y0315420D01*
X0487896Y0315657D01*
X0487952Y0315892D01*
X0488014Y0316125D01*
X0488081Y0316357D01*
X0488154Y0316588D01*
X0488232Y0316816D01*
X0488317Y0317042D01*
X0488406Y0317267D01*
X0488501Y0317489D01*
X0488602Y0317708D01*
X0488708Y0317926D01*
X0488819Y0318140D01*
X0488936Y0318352D01*
X0489057Y0318560D01*
X0489184Y0318766D01*
X0489316Y0318968D01*
X0489453Y0319168D01*
X0489594Y0319363D01*
X0489740Y0319556D01*
X0489891Y0319744D01*
X0490047Y0319929D01*
X0490207Y0320110D01*
X0490371Y0320287D01*
X0490540Y0320460D01*
X0490713Y0320629D01*
X0490890Y0320793D01*
X0491071Y0320953D01*
X0491256Y0321109D01*
X0491444Y0321260D01*
X0491637Y0321406D01*
X0491832Y0321547D01*
X0492032Y0321684D01*
X0492234Y0321816D01*
X0492440Y0321943D01*
X0492648Y0322064D01*
X0492860Y0322181D01*
X0493074Y0322292D01*
X0493292Y0322398D01*
X0493511Y0322499D01*
X0493733Y0322594D01*
X0493958Y0322683D01*
X0494184Y0322768D01*
X0494412Y0322846D01*
X0494643Y0322919D01*
X0494875Y0322986D01*
X0495108Y0323048D01*
X0495343Y0323104D01*
X0495580Y0323154D01*
X0495817Y0323198D01*
X0496056Y0323236D01*
X0496295Y0323269D01*
X0496535Y0323296D01*
X0496776Y0323316D01*
X0497017Y0323331D01*
X0497258Y0323340D01*
X0497500Y0323343D01*
X0497742Y0323340D01*
X0497983Y0323331D01*
X0498224Y0323316D01*
X0498465Y0323296D01*
X0498705Y0323269D01*
X0498944Y0323236D01*
X0499183Y0323198D01*
X0499420Y0323154D01*
X0499657Y0323104D01*
X0499892Y0323048D01*
X0500125Y0322986D01*
X0500357Y0322919D01*
X0500588Y0322846D01*
X0500816Y0322768D01*
X0501042Y0322683D01*
X0501267Y0322594D01*
X0501489Y0322499D01*
X0501708Y0322398D01*
X0501926Y0322292D01*
X0502140Y0322181D01*
X0502352Y0322064D01*
X0502560Y0321943D01*
X0502766Y0321816D01*
X0502968Y0321684D01*
X0503168Y0321547D01*
X0503363Y0321406D01*
X0503556Y0321260D01*
X0503744Y0321109D01*
X0503929Y0320953D01*
X0504110Y0320793D01*
X0504287Y0320629D01*
X0504460Y0320460D01*
X0504629Y0320287D01*
X0504793Y0320110D01*
X0504953Y0319929D01*
X0505109Y0319744D01*
X0505260Y0319556D01*
X0505406Y0319363D01*
X0505547Y0319168D01*
X0505684Y0318968D01*
X0505816Y0318766D01*
X0505943Y0318560D01*
X0506064Y0318352D01*
X0506181Y0318140D01*
X0506292Y0317926D01*
X0506398Y0317708D01*
X0506499Y0317489D01*
X0506594Y0317267D01*
X0506683Y0317042D01*
X0506768Y0316816D01*
X0506846Y0316588D01*
X0506919Y0316357D01*
X0506986Y0316125D01*
X0507048Y0315892D01*
X0507104Y0315657D01*
X0507154Y0315420D01*
X0507198Y0315183D01*
X0507236Y0314944D01*
X0507269Y0314705D01*
X0507296Y0314465D01*
X0507316Y0314224D01*
X0507331Y0313983D01*
X0507340Y0313742D01*
X0507343Y0313500D01*
X0507340Y0313258D01*
X0507331Y0313017D01*
X0507316Y0312776D01*
X0507296Y0312535D01*
X0507269Y0312295D01*
X0507236Y0312056D01*
X0507198Y0311817D01*
X0507154Y0311580D01*
X0507104Y0311343D01*
X0507048Y0311108D01*
X0506986Y0310875D01*
X0506919Y0310643D01*
X0506846Y0310412D01*
X0506768Y0310184D01*
X0506683Y0309958D01*
X0506594Y0309733D01*
X0506499Y0309511D01*
X0506398Y0309292D01*
X0506292Y0309074D01*
X0506181Y0308860D01*
X0506064Y0308648D01*
X0505943Y0308440D01*
X0505816Y0308234D01*
X0505684Y0308032D01*
X0505547Y0307832D01*
X0505406Y0307637D01*
X0505260Y0307444D01*
X0505109Y0307256D01*
X0504953Y0307071D01*
X0504793Y0306890D01*
X0504629Y0306713D01*
X0504460Y0306540D01*
X0504287Y0306371D01*
X0504110Y0306207D01*
X0503929Y0306047D01*
X0503744Y0305891D01*
X0503556Y0305740D01*
X0503363Y0305594D01*
X0503168Y0305453D01*
X0502968Y0305316D01*
X0502766Y0305184D01*
X0502560Y0305057D01*
X0502352Y0304936D01*
X0502140Y0304819D01*
X0501926Y0304708D01*
X0501708Y0304602D01*
X0501489Y0304501D01*
X0501267Y0304406D01*
X0501042Y0304317D01*
X0500816Y0304232D01*
X0500588Y0304154D01*
X0500357Y0304081D01*
X0500125Y0304014D01*
X0499892Y0303952D01*
X0499657Y0303896D01*
X0499420Y0303846D01*
X0499183Y0303802D01*
X0498944Y0303764D01*
X0498705Y0303731D01*
X0498465Y0303704D01*
X0498224Y0303684D01*
X0497983Y0303669D01*
X0497742Y0303660D01*
X0497500Y0303657D01*
X0497258Y0303660D01*
X0497017Y0303669D01*
X0496776Y0303684D01*
X0496535Y0303704D01*
X0496295Y0303731D01*
X0496056Y0303764D01*
X0495817Y0303802D01*
X0495580Y0303846D01*
X0495343Y0303896D01*
X0495108Y0303952D01*
X0494875Y0304014D01*
X0494643Y0304081D01*
X0494412Y0304154D01*
X0494184Y0304232D01*
X0493958Y0304317D01*
X0493733Y0304406D01*
X0493511Y0304501D01*
X0493292Y0304602D01*
X0493074Y0304708D01*
X0492860Y0304819D01*
X0492648Y0304936D01*
X0492440Y0305057D01*
X0492234Y0305184D01*
X0492032Y0305316D01*
X0491832Y0305453D01*
X0491637Y0305594D01*
X0491444Y0305740D01*
X0491256Y0305891D01*
X0491071Y0306047D01*
X0490890Y0306207D01*
X0490713Y0306371D01*
X0490540Y0306540D01*
X0490371Y0306713D01*
X0490207Y0306890D01*
X0490047Y0307071D01*
X0489891Y0307256D01*
X0489740Y0307444D01*
X0489594Y0307637D01*
X0489453Y0307832D01*
X0489316Y0308032D01*
X0489184Y0308234D01*
X0489057Y0308440D01*
X0488936Y0308648D01*
X0488819Y0308860D01*
X0488708Y0309074D01*
X0488602Y0309292D01*
X0488501Y0309511D01*
X0488406Y0309733D01*
X0488317Y0309958D01*
X0488232Y0310184D01*
X0488154Y0310412D01*
X0488081Y0310643D01*
X0488014Y0310875D01*
X0487952Y0311108D01*
X0487896Y0311343D01*
X0487846Y0311580D01*
X0487802Y0311817D01*
X0487764Y0312056D01*
X0487731Y0312295D01*
X0487704Y0312535D01*
X0487684Y0312776D01*
X0487669Y0313017D01*
X0487660Y0313258D01*
X0487657Y0313500D01*
X0471626Y0213000D02*
X0471628Y0213193D01*
X0471635Y0213386D01*
X0471647Y0213579D01*
X0471664Y0213772D01*
X0471685Y0213964D01*
X0471711Y0214155D01*
X0471742Y0214346D01*
X0471777Y0214536D01*
X0471817Y0214725D01*
X0471862Y0214913D01*
X0471911Y0215100D01*
X0471965Y0215286D01*
X0472023Y0215470D01*
X0472086Y0215653D01*
X0472154Y0215834D01*
X0472225Y0216013D01*
X0472302Y0216191D01*
X0472382Y0216367D01*
X0472467Y0216540D01*
X0472556Y0216712D01*
X0472649Y0216881D01*
X0472746Y0217048D01*
X0472848Y0217213D01*
X0472953Y0217375D01*
X0473062Y0217534D01*
X0473176Y0217691D01*
X0473293Y0217844D01*
X0473413Y0217995D01*
X0473538Y0218143D01*
X0473666Y0218288D01*
X0473797Y0218429D01*
X0473932Y0218568D01*
X0474071Y0218703D01*
X0474212Y0218834D01*
X0474357Y0218962D01*
X0474505Y0219087D01*
X0474656Y0219207D01*
X0474809Y0219324D01*
X0474966Y0219438D01*
X0475125Y0219547D01*
X0475287Y0219652D01*
X0475452Y0219754D01*
X0475619Y0219851D01*
X0475788Y0219944D01*
X0475960Y0220033D01*
X0476133Y0220118D01*
X0476309Y0220198D01*
X0476487Y0220275D01*
X0476666Y0220346D01*
X0476847Y0220414D01*
X0477030Y0220477D01*
X0477214Y0220535D01*
X0477400Y0220589D01*
X0477587Y0220638D01*
X0477775Y0220683D01*
X0477964Y0220723D01*
X0478154Y0220758D01*
X0478345Y0220789D01*
X0478536Y0220815D01*
X0478728Y0220836D01*
X0478921Y0220853D01*
X0479114Y0220865D01*
X0479307Y0220872D01*
X0479500Y0220874D01*
X0479693Y0220872D01*
X0479886Y0220865D01*
X0480079Y0220853D01*
X0480272Y0220836D01*
X0480464Y0220815D01*
X0480655Y0220789D01*
X0480846Y0220758D01*
X0481036Y0220723D01*
X0481225Y0220683D01*
X0481413Y0220638D01*
X0481600Y0220589D01*
X0481786Y0220535D01*
X0481970Y0220477D01*
X0482153Y0220414D01*
X0482334Y0220346D01*
X0482513Y0220275D01*
X0482691Y0220198D01*
X0482867Y0220118D01*
X0483040Y0220033D01*
X0483212Y0219944D01*
X0483381Y0219851D01*
X0483548Y0219754D01*
X0483713Y0219652D01*
X0483875Y0219547D01*
X0484034Y0219438D01*
X0484191Y0219324D01*
X0484344Y0219207D01*
X0484495Y0219087D01*
X0484643Y0218962D01*
X0484788Y0218834D01*
X0484929Y0218703D01*
X0485068Y0218568D01*
X0485203Y0218429D01*
X0485334Y0218288D01*
X0485462Y0218143D01*
X0485587Y0217995D01*
X0485707Y0217844D01*
X0485824Y0217691D01*
X0485938Y0217534D01*
X0486047Y0217375D01*
X0486152Y0217213D01*
X0486254Y0217048D01*
X0486351Y0216881D01*
X0486444Y0216712D01*
X0486533Y0216540D01*
X0486618Y0216367D01*
X0486698Y0216191D01*
X0486775Y0216013D01*
X0486846Y0215834D01*
X0486914Y0215653D01*
X0486977Y0215470D01*
X0487035Y0215286D01*
X0487089Y0215100D01*
X0487138Y0214913D01*
X0487183Y0214725D01*
X0487223Y0214536D01*
X0487258Y0214346D01*
X0487289Y0214155D01*
X0487315Y0213964D01*
X0487336Y0213772D01*
X0487353Y0213579D01*
X0487365Y0213386D01*
X0487372Y0213193D01*
X0487374Y0213000D01*
X0487372Y0212807D01*
X0487365Y0212614D01*
X0487353Y0212421D01*
X0487336Y0212228D01*
X0487315Y0212036D01*
X0487289Y0211845D01*
X0487258Y0211654D01*
X0487223Y0211464D01*
X0487183Y0211275D01*
X0487138Y0211087D01*
X0487089Y0210900D01*
X0487035Y0210714D01*
X0486977Y0210530D01*
X0486914Y0210347D01*
X0486846Y0210166D01*
X0486775Y0209987D01*
X0486698Y0209809D01*
X0486618Y0209633D01*
X0486533Y0209460D01*
X0486444Y0209288D01*
X0486351Y0209119D01*
X0486254Y0208952D01*
X0486152Y0208787D01*
X0486047Y0208625D01*
X0485938Y0208466D01*
X0485824Y0208309D01*
X0485707Y0208156D01*
X0485587Y0208005D01*
X0485462Y0207857D01*
X0485334Y0207712D01*
X0485203Y0207571D01*
X0485068Y0207432D01*
X0484929Y0207297D01*
X0484788Y0207166D01*
X0484643Y0207038D01*
X0484495Y0206913D01*
X0484344Y0206793D01*
X0484191Y0206676D01*
X0484034Y0206562D01*
X0483875Y0206453D01*
X0483713Y0206348D01*
X0483548Y0206246D01*
X0483381Y0206149D01*
X0483212Y0206056D01*
X0483040Y0205967D01*
X0482867Y0205882D01*
X0482691Y0205802D01*
X0482513Y0205725D01*
X0482334Y0205654D01*
X0482153Y0205586D01*
X0481970Y0205523D01*
X0481786Y0205465D01*
X0481600Y0205411D01*
X0481413Y0205362D01*
X0481225Y0205317D01*
X0481036Y0205277D01*
X0480846Y0205242D01*
X0480655Y0205211D01*
X0480464Y0205185D01*
X0480272Y0205164D01*
X0480079Y0205147D01*
X0479886Y0205135D01*
X0479693Y0205128D01*
X0479500Y0205126D01*
X0479307Y0205128D01*
X0479114Y0205135D01*
X0478921Y0205147D01*
X0478728Y0205164D01*
X0478536Y0205185D01*
X0478345Y0205211D01*
X0478154Y0205242D01*
X0477964Y0205277D01*
X0477775Y0205317D01*
X0477587Y0205362D01*
X0477400Y0205411D01*
X0477214Y0205465D01*
X0477030Y0205523D01*
X0476847Y0205586D01*
X0476666Y0205654D01*
X0476487Y0205725D01*
X0476309Y0205802D01*
X0476133Y0205882D01*
X0475960Y0205967D01*
X0475788Y0206056D01*
X0475619Y0206149D01*
X0475452Y0206246D01*
X0475287Y0206348D01*
X0475125Y0206453D01*
X0474966Y0206562D01*
X0474809Y0206676D01*
X0474656Y0206793D01*
X0474505Y0206913D01*
X0474357Y0207038D01*
X0474212Y0207166D01*
X0474071Y0207297D01*
X0473932Y0207432D01*
X0473797Y0207571D01*
X0473666Y0207712D01*
X0473538Y0207857D01*
X0473413Y0208005D01*
X0473293Y0208156D01*
X0473176Y0208309D01*
X0473062Y0208466D01*
X0472953Y0208625D01*
X0472848Y0208787D01*
X0472746Y0208952D01*
X0472649Y0209119D01*
X0472556Y0209288D01*
X0472467Y0209460D01*
X0472382Y0209633D01*
X0472302Y0209809D01*
X0472225Y0209987D01*
X0472154Y0210166D01*
X0472086Y0210347D01*
X0472023Y0210530D01*
X0471965Y0210714D01*
X0471911Y0210900D01*
X0471862Y0211087D01*
X0471817Y0211275D01*
X0471777Y0211464D01*
X0471742Y0211654D01*
X0471711Y0211845D01*
X0471685Y0212036D01*
X0471664Y0212228D01*
X0471647Y0212421D01*
X0471635Y0212614D01*
X0471628Y0212807D01*
X0471626Y0213000D01*
X0471626Y0090500D02*
X0471628Y0090693D01*
X0471635Y0090886D01*
X0471647Y0091079D01*
X0471664Y0091272D01*
X0471685Y0091464D01*
X0471711Y0091655D01*
X0471742Y0091846D01*
X0471777Y0092036D01*
X0471817Y0092225D01*
X0471862Y0092413D01*
X0471911Y0092600D01*
X0471965Y0092786D01*
X0472023Y0092970D01*
X0472086Y0093153D01*
X0472154Y0093334D01*
X0472225Y0093513D01*
X0472302Y0093691D01*
X0472382Y0093867D01*
X0472467Y0094040D01*
X0472556Y0094212D01*
X0472649Y0094381D01*
X0472746Y0094548D01*
X0472848Y0094713D01*
X0472953Y0094875D01*
X0473062Y0095034D01*
X0473176Y0095191D01*
X0473293Y0095344D01*
X0473413Y0095495D01*
X0473538Y0095643D01*
X0473666Y0095788D01*
X0473797Y0095929D01*
X0473932Y0096068D01*
X0474071Y0096203D01*
X0474212Y0096334D01*
X0474357Y0096462D01*
X0474505Y0096587D01*
X0474656Y0096707D01*
X0474809Y0096824D01*
X0474966Y0096938D01*
X0475125Y0097047D01*
X0475287Y0097152D01*
X0475452Y0097254D01*
X0475619Y0097351D01*
X0475788Y0097444D01*
X0475960Y0097533D01*
X0476133Y0097618D01*
X0476309Y0097698D01*
X0476487Y0097775D01*
X0476666Y0097846D01*
X0476847Y0097914D01*
X0477030Y0097977D01*
X0477214Y0098035D01*
X0477400Y0098089D01*
X0477587Y0098138D01*
X0477775Y0098183D01*
X0477964Y0098223D01*
X0478154Y0098258D01*
X0478345Y0098289D01*
X0478536Y0098315D01*
X0478728Y0098336D01*
X0478921Y0098353D01*
X0479114Y0098365D01*
X0479307Y0098372D01*
X0479500Y0098374D01*
X0479693Y0098372D01*
X0479886Y0098365D01*
X0480079Y0098353D01*
X0480272Y0098336D01*
X0480464Y0098315D01*
X0480655Y0098289D01*
X0480846Y0098258D01*
X0481036Y0098223D01*
X0481225Y0098183D01*
X0481413Y0098138D01*
X0481600Y0098089D01*
X0481786Y0098035D01*
X0481970Y0097977D01*
X0482153Y0097914D01*
X0482334Y0097846D01*
X0482513Y0097775D01*
X0482691Y0097698D01*
X0482867Y0097618D01*
X0483040Y0097533D01*
X0483212Y0097444D01*
X0483381Y0097351D01*
X0483548Y0097254D01*
X0483713Y0097152D01*
X0483875Y0097047D01*
X0484034Y0096938D01*
X0484191Y0096824D01*
X0484344Y0096707D01*
X0484495Y0096587D01*
X0484643Y0096462D01*
X0484788Y0096334D01*
X0484929Y0096203D01*
X0485068Y0096068D01*
X0485203Y0095929D01*
X0485334Y0095788D01*
X0485462Y0095643D01*
X0485587Y0095495D01*
X0485707Y0095344D01*
X0485824Y0095191D01*
X0485938Y0095034D01*
X0486047Y0094875D01*
X0486152Y0094713D01*
X0486254Y0094548D01*
X0486351Y0094381D01*
X0486444Y0094212D01*
X0486533Y0094040D01*
X0486618Y0093867D01*
X0486698Y0093691D01*
X0486775Y0093513D01*
X0486846Y0093334D01*
X0486914Y0093153D01*
X0486977Y0092970D01*
X0487035Y0092786D01*
X0487089Y0092600D01*
X0487138Y0092413D01*
X0487183Y0092225D01*
X0487223Y0092036D01*
X0487258Y0091846D01*
X0487289Y0091655D01*
X0487315Y0091464D01*
X0487336Y0091272D01*
X0487353Y0091079D01*
X0487365Y0090886D01*
X0487372Y0090693D01*
X0487374Y0090500D01*
X0487372Y0090307D01*
X0487365Y0090114D01*
X0487353Y0089921D01*
X0487336Y0089728D01*
X0487315Y0089536D01*
X0487289Y0089345D01*
X0487258Y0089154D01*
X0487223Y0088964D01*
X0487183Y0088775D01*
X0487138Y0088587D01*
X0487089Y0088400D01*
X0487035Y0088214D01*
X0486977Y0088030D01*
X0486914Y0087847D01*
X0486846Y0087666D01*
X0486775Y0087487D01*
X0486698Y0087309D01*
X0486618Y0087133D01*
X0486533Y0086960D01*
X0486444Y0086788D01*
X0486351Y0086619D01*
X0486254Y0086452D01*
X0486152Y0086287D01*
X0486047Y0086125D01*
X0485938Y0085966D01*
X0485824Y0085809D01*
X0485707Y0085656D01*
X0485587Y0085505D01*
X0485462Y0085357D01*
X0485334Y0085212D01*
X0485203Y0085071D01*
X0485068Y0084932D01*
X0484929Y0084797D01*
X0484788Y0084666D01*
X0484643Y0084538D01*
X0484495Y0084413D01*
X0484344Y0084293D01*
X0484191Y0084176D01*
X0484034Y0084062D01*
X0483875Y0083953D01*
X0483713Y0083848D01*
X0483548Y0083746D01*
X0483381Y0083649D01*
X0483212Y0083556D01*
X0483040Y0083467D01*
X0482867Y0083382D01*
X0482691Y0083302D01*
X0482513Y0083225D01*
X0482334Y0083154D01*
X0482153Y0083086D01*
X0481970Y0083023D01*
X0481786Y0082965D01*
X0481600Y0082911D01*
X0481413Y0082862D01*
X0481225Y0082817D01*
X0481036Y0082777D01*
X0480846Y0082742D01*
X0480655Y0082711D01*
X0480464Y0082685D01*
X0480272Y0082664D01*
X0480079Y0082647D01*
X0479886Y0082635D01*
X0479693Y0082628D01*
X0479500Y0082626D01*
X0479307Y0082628D01*
X0479114Y0082635D01*
X0478921Y0082647D01*
X0478728Y0082664D01*
X0478536Y0082685D01*
X0478345Y0082711D01*
X0478154Y0082742D01*
X0477964Y0082777D01*
X0477775Y0082817D01*
X0477587Y0082862D01*
X0477400Y0082911D01*
X0477214Y0082965D01*
X0477030Y0083023D01*
X0476847Y0083086D01*
X0476666Y0083154D01*
X0476487Y0083225D01*
X0476309Y0083302D01*
X0476133Y0083382D01*
X0475960Y0083467D01*
X0475788Y0083556D01*
X0475619Y0083649D01*
X0475452Y0083746D01*
X0475287Y0083848D01*
X0475125Y0083953D01*
X0474966Y0084062D01*
X0474809Y0084176D01*
X0474656Y0084293D01*
X0474505Y0084413D01*
X0474357Y0084538D01*
X0474212Y0084666D01*
X0474071Y0084797D01*
X0473932Y0084932D01*
X0473797Y0085071D01*
X0473666Y0085212D01*
X0473538Y0085357D01*
X0473413Y0085505D01*
X0473293Y0085656D01*
X0473176Y0085809D01*
X0473062Y0085966D01*
X0472953Y0086125D01*
X0472848Y0086287D01*
X0472746Y0086452D01*
X0472649Y0086619D01*
X0472556Y0086788D01*
X0472467Y0086960D01*
X0472382Y0087133D01*
X0472302Y0087309D01*
X0472225Y0087487D01*
X0472154Y0087666D01*
X0472086Y0087847D01*
X0472023Y0088030D01*
X0471965Y0088214D01*
X0471911Y0088400D01*
X0471862Y0088587D01*
X0471817Y0088775D01*
X0471777Y0088964D01*
X0471742Y0089154D01*
X0471711Y0089345D01*
X0471685Y0089536D01*
X0471664Y0089728D01*
X0471647Y0089921D01*
X0471635Y0090114D01*
X0471628Y0090307D01*
X0471626Y0090500D01*
X0441626Y0085500D02*
X0441628Y0085693D01*
X0441635Y0085886D01*
X0441647Y0086079D01*
X0441664Y0086272D01*
X0441685Y0086464D01*
X0441711Y0086655D01*
X0441742Y0086846D01*
X0441777Y0087036D01*
X0441817Y0087225D01*
X0441862Y0087413D01*
X0441911Y0087600D01*
X0441965Y0087786D01*
X0442023Y0087970D01*
X0442086Y0088153D01*
X0442154Y0088334D01*
X0442225Y0088513D01*
X0442302Y0088691D01*
X0442382Y0088867D01*
X0442467Y0089040D01*
X0442556Y0089212D01*
X0442649Y0089381D01*
X0442746Y0089548D01*
X0442848Y0089713D01*
X0442953Y0089875D01*
X0443062Y0090034D01*
X0443176Y0090191D01*
X0443293Y0090344D01*
X0443413Y0090495D01*
X0443538Y0090643D01*
X0443666Y0090788D01*
X0443797Y0090929D01*
X0443932Y0091068D01*
X0444071Y0091203D01*
X0444212Y0091334D01*
X0444357Y0091462D01*
X0444505Y0091587D01*
X0444656Y0091707D01*
X0444809Y0091824D01*
X0444966Y0091938D01*
X0445125Y0092047D01*
X0445287Y0092152D01*
X0445452Y0092254D01*
X0445619Y0092351D01*
X0445788Y0092444D01*
X0445960Y0092533D01*
X0446133Y0092618D01*
X0446309Y0092698D01*
X0446487Y0092775D01*
X0446666Y0092846D01*
X0446847Y0092914D01*
X0447030Y0092977D01*
X0447214Y0093035D01*
X0447400Y0093089D01*
X0447587Y0093138D01*
X0447775Y0093183D01*
X0447964Y0093223D01*
X0448154Y0093258D01*
X0448345Y0093289D01*
X0448536Y0093315D01*
X0448728Y0093336D01*
X0448921Y0093353D01*
X0449114Y0093365D01*
X0449307Y0093372D01*
X0449500Y0093374D01*
X0449693Y0093372D01*
X0449886Y0093365D01*
X0450079Y0093353D01*
X0450272Y0093336D01*
X0450464Y0093315D01*
X0450655Y0093289D01*
X0450846Y0093258D01*
X0451036Y0093223D01*
X0451225Y0093183D01*
X0451413Y0093138D01*
X0451600Y0093089D01*
X0451786Y0093035D01*
X0451970Y0092977D01*
X0452153Y0092914D01*
X0452334Y0092846D01*
X0452513Y0092775D01*
X0452691Y0092698D01*
X0452867Y0092618D01*
X0453040Y0092533D01*
X0453212Y0092444D01*
X0453381Y0092351D01*
X0453548Y0092254D01*
X0453713Y0092152D01*
X0453875Y0092047D01*
X0454034Y0091938D01*
X0454191Y0091824D01*
X0454344Y0091707D01*
X0454495Y0091587D01*
X0454643Y0091462D01*
X0454788Y0091334D01*
X0454929Y0091203D01*
X0455068Y0091068D01*
X0455203Y0090929D01*
X0455334Y0090788D01*
X0455462Y0090643D01*
X0455587Y0090495D01*
X0455707Y0090344D01*
X0455824Y0090191D01*
X0455938Y0090034D01*
X0456047Y0089875D01*
X0456152Y0089713D01*
X0456254Y0089548D01*
X0456351Y0089381D01*
X0456444Y0089212D01*
X0456533Y0089040D01*
X0456618Y0088867D01*
X0456698Y0088691D01*
X0456775Y0088513D01*
X0456846Y0088334D01*
X0456914Y0088153D01*
X0456977Y0087970D01*
X0457035Y0087786D01*
X0457089Y0087600D01*
X0457138Y0087413D01*
X0457183Y0087225D01*
X0457223Y0087036D01*
X0457258Y0086846D01*
X0457289Y0086655D01*
X0457315Y0086464D01*
X0457336Y0086272D01*
X0457353Y0086079D01*
X0457365Y0085886D01*
X0457372Y0085693D01*
X0457374Y0085500D01*
X0457372Y0085307D01*
X0457365Y0085114D01*
X0457353Y0084921D01*
X0457336Y0084728D01*
X0457315Y0084536D01*
X0457289Y0084345D01*
X0457258Y0084154D01*
X0457223Y0083964D01*
X0457183Y0083775D01*
X0457138Y0083587D01*
X0457089Y0083400D01*
X0457035Y0083214D01*
X0456977Y0083030D01*
X0456914Y0082847D01*
X0456846Y0082666D01*
X0456775Y0082487D01*
X0456698Y0082309D01*
X0456618Y0082133D01*
X0456533Y0081960D01*
X0456444Y0081788D01*
X0456351Y0081619D01*
X0456254Y0081452D01*
X0456152Y0081287D01*
X0456047Y0081125D01*
X0455938Y0080966D01*
X0455824Y0080809D01*
X0455707Y0080656D01*
X0455587Y0080505D01*
X0455462Y0080357D01*
X0455334Y0080212D01*
X0455203Y0080071D01*
X0455068Y0079932D01*
X0454929Y0079797D01*
X0454788Y0079666D01*
X0454643Y0079538D01*
X0454495Y0079413D01*
X0454344Y0079293D01*
X0454191Y0079176D01*
X0454034Y0079062D01*
X0453875Y0078953D01*
X0453713Y0078848D01*
X0453548Y0078746D01*
X0453381Y0078649D01*
X0453212Y0078556D01*
X0453040Y0078467D01*
X0452867Y0078382D01*
X0452691Y0078302D01*
X0452513Y0078225D01*
X0452334Y0078154D01*
X0452153Y0078086D01*
X0451970Y0078023D01*
X0451786Y0077965D01*
X0451600Y0077911D01*
X0451413Y0077862D01*
X0451225Y0077817D01*
X0451036Y0077777D01*
X0450846Y0077742D01*
X0450655Y0077711D01*
X0450464Y0077685D01*
X0450272Y0077664D01*
X0450079Y0077647D01*
X0449886Y0077635D01*
X0449693Y0077628D01*
X0449500Y0077626D01*
X0449307Y0077628D01*
X0449114Y0077635D01*
X0448921Y0077647D01*
X0448728Y0077664D01*
X0448536Y0077685D01*
X0448345Y0077711D01*
X0448154Y0077742D01*
X0447964Y0077777D01*
X0447775Y0077817D01*
X0447587Y0077862D01*
X0447400Y0077911D01*
X0447214Y0077965D01*
X0447030Y0078023D01*
X0446847Y0078086D01*
X0446666Y0078154D01*
X0446487Y0078225D01*
X0446309Y0078302D01*
X0446133Y0078382D01*
X0445960Y0078467D01*
X0445788Y0078556D01*
X0445619Y0078649D01*
X0445452Y0078746D01*
X0445287Y0078848D01*
X0445125Y0078953D01*
X0444966Y0079062D01*
X0444809Y0079176D01*
X0444656Y0079293D01*
X0444505Y0079413D01*
X0444357Y0079538D01*
X0444212Y0079666D01*
X0444071Y0079797D01*
X0443932Y0079932D01*
X0443797Y0080071D01*
X0443666Y0080212D01*
X0443538Y0080357D01*
X0443413Y0080505D01*
X0443293Y0080656D01*
X0443176Y0080809D01*
X0443062Y0080966D01*
X0442953Y0081125D01*
X0442848Y0081287D01*
X0442746Y0081452D01*
X0442649Y0081619D01*
X0442556Y0081788D01*
X0442467Y0081960D01*
X0442382Y0082133D01*
X0442302Y0082309D01*
X0442225Y0082487D01*
X0442154Y0082666D01*
X0442086Y0082847D01*
X0442023Y0083030D01*
X0441965Y0083214D01*
X0441911Y0083400D01*
X0441862Y0083587D01*
X0441817Y0083775D01*
X0441777Y0083964D01*
X0441742Y0084154D01*
X0441711Y0084345D01*
X0441685Y0084536D01*
X0441664Y0084728D01*
X0441647Y0084921D01*
X0441635Y0085114D01*
X0441628Y0085307D01*
X0441626Y0085500D01*
D11*
X0278180Y0088837D02*
X0277513Y0086837D01*
X0276847Y0084837D01*
X0276847Y0083503D01*
X0275513Y0079503D01*
X0274847Y0078837D01*
X0268180Y0078837D01*
X0257512Y0080170D01*
X0253512Y0080170D01*
X0252179Y0080837D01*
X0251512Y0081503D01*
X0251512Y0082170D01*
X0252179Y0085503D01*
X0254846Y0092837D01*
X0256846Y0097504D01*
X0258179Y0098171D01*
X0259512Y0098171D01*
X0262846Y0097504D01*
X0272180Y0094837D01*
X0274847Y0094171D01*
X0276847Y0092837D01*
X0278180Y0091504D01*
X0278180Y0088837D01*
X0278032Y0088391D02*
X0253229Y0088391D01*
X0252866Y0087393D02*
X0277699Y0087393D01*
X0277366Y0086394D02*
X0252503Y0086394D01*
X0252157Y0085396D02*
X0277033Y0085396D01*
X0276847Y0084397D02*
X0251958Y0084397D01*
X0251758Y0083399D02*
X0276812Y0083399D01*
X0276479Y0082400D02*
X0251558Y0082400D01*
X0251614Y0081402D02*
X0276146Y0081402D01*
X0275813Y0080403D02*
X0253046Y0080403D01*
X0253592Y0089390D02*
X0278180Y0089390D01*
X0278180Y0090388D02*
X0253955Y0090388D01*
X0254318Y0091387D02*
X0278180Y0091387D01*
X0277299Y0092385D02*
X0254681Y0092385D01*
X0255080Y0093384D02*
X0276027Y0093384D01*
X0273999Y0094382D02*
X0255508Y0094382D01*
X0255936Y0095381D02*
X0270277Y0095381D01*
X0266782Y0096379D02*
X0256364Y0096379D01*
X0256792Y0097378D02*
X0263288Y0097378D01*
X0263634Y0079405D02*
X0275415Y0079405D01*
X0226844Y0098837D02*
X0224844Y0094171D01*
X0222844Y0094171D01*
X0220177Y0093504D01*
X0218844Y0092837D01*
X0216844Y0091504D01*
X0215510Y0090170D01*
X0214177Y0089504D01*
X0212844Y0089504D01*
X0208177Y0090837D01*
X0204176Y0092837D01*
X0203510Y0093504D01*
X0203510Y0096171D01*
X0204843Y0099504D01*
X0207510Y0106838D01*
X0208843Y0110171D01*
X0210177Y0112172D01*
X0211510Y0112838D01*
X0213510Y0112838D01*
X0224177Y0109505D01*
X0226177Y0108171D01*
X0227511Y0106838D01*
X0228178Y0106171D01*
X0228178Y0103504D01*
X0226844Y0098837D01*
X0226647Y0098376D02*
X0204392Y0098376D01*
X0203993Y0097378D02*
X0226219Y0097378D01*
X0225791Y0096379D02*
X0203593Y0096379D01*
X0203510Y0095381D02*
X0225363Y0095381D01*
X0224935Y0094382D02*
X0203510Y0094382D01*
X0203630Y0093384D02*
X0219937Y0093384D01*
X0218166Y0092385D02*
X0205080Y0092385D01*
X0207077Y0091387D02*
X0216727Y0091387D01*
X0215728Y0090388D02*
X0209747Y0090388D01*
X0204791Y0099375D02*
X0226998Y0099375D01*
X0227283Y0100373D02*
X0205159Y0100373D01*
X0205522Y0101372D02*
X0227568Y0101372D01*
X0227854Y0102370D02*
X0205885Y0102370D01*
X0206248Y0103369D02*
X0228139Y0103369D01*
X0228178Y0104368D02*
X0206612Y0104368D01*
X0206975Y0105366D02*
X0228178Y0105366D01*
X0227984Y0106365D02*
X0207338Y0106365D01*
X0207720Y0107363D02*
X0226986Y0107363D01*
X0225892Y0108362D02*
X0208119Y0108362D01*
X0208519Y0109360D02*
X0224394Y0109360D01*
X0221445Y0110359D02*
X0208968Y0110359D01*
X0209634Y0111357D02*
X0218250Y0111357D01*
X0215055Y0112356D02*
X0210545Y0112356D01*
D12*
X0077500Y0310500D03*
X0497500Y0313500D03*
D13*
X0479500Y0213000D03*
X0479500Y0090500D03*
X0449500Y0085500D03*
X0079500Y0090500D03*
X0054500Y0100500D03*
X0034500Y0180500D03*
X0064500Y0205500D03*
D14*
G36*
X0429744Y0295631D02*
X0427301Y0296930D01*
X0428600Y0299373D01*
X0431043Y0298074D01*
X0429744Y0295631D01*
G37*
G36*
X0433567Y0293598D02*
X0431124Y0294897D01*
X0432423Y0297340D01*
X0434866Y0296041D01*
X0433567Y0293598D01*
G37*
G36*
X0437391Y0291565D02*
X0434948Y0292864D01*
X0436247Y0295307D01*
X0438690Y0294008D01*
X0437391Y0291565D01*
G37*
G36*
X0441215Y0289532D02*
X0438772Y0290831D01*
X0440071Y0293274D01*
X0442514Y0291975D01*
X0441215Y0289532D01*
G37*
G36*
X0445039Y0287499D02*
X0442596Y0288798D01*
X0443895Y0291241D01*
X0446338Y0289942D01*
X0445039Y0287499D01*
G37*
G36*
X0448863Y0285466D02*
X0446420Y0286765D01*
X0447719Y0289208D01*
X0450162Y0287909D01*
X0448863Y0285466D01*
G37*
G36*
X0452686Y0283432D02*
X0450243Y0284731D01*
X0451542Y0287174D01*
X0453985Y0285875D01*
X0452686Y0283432D01*
G37*
G36*
X0456510Y0281399D02*
X0454067Y0282698D01*
X0455366Y0285141D01*
X0457809Y0283842D01*
X0456510Y0281399D01*
G37*
G36*
X0460334Y0279366D02*
X0457891Y0280665D01*
X0459190Y0283108D01*
X0461633Y0281809D01*
X0460334Y0279366D01*
G37*
G36*
X0462367Y0283190D02*
X0459924Y0284489D01*
X0461223Y0286932D01*
X0463666Y0285633D01*
X0462367Y0283190D01*
G37*
G36*
X0464400Y0287014D02*
X0461957Y0288313D01*
X0463256Y0290756D01*
X0465699Y0289457D01*
X0464400Y0287014D01*
G37*
G36*
X0460255Y0286765D02*
X0457812Y0288064D01*
X0459111Y0290507D01*
X0461554Y0289208D01*
X0460255Y0286765D01*
G37*
G36*
X0456262Y0285544D02*
X0453819Y0286843D01*
X0455118Y0289286D01*
X0457561Y0287987D01*
X0456262Y0285544D01*
G37*
G36*
X0452438Y0287577D02*
X0449995Y0288876D01*
X0451294Y0291319D01*
X0453737Y0290020D01*
X0452438Y0287577D01*
G37*
G36*
X0448614Y0289611D02*
X0446171Y0290910D01*
X0447470Y0293353D01*
X0449913Y0292054D01*
X0448614Y0289611D01*
G37*
G36*
X0444790Y0291644D02*
X0442347Y0292943D01*
X0443646Y0295386D01*
X0446089Y0294087D01*
X0444790Y0291644D01*
G37*
G36*
X0440967Y0293677D02*
X0438524Y0294976D01*
X0439823Y0297419D01*
X0442266Y0296120D01*
X0440967Y0293677D01*
G37*
G36*
X0437143Y0295710D02*
X0434700Y0297009D01*
X0435999Y0299452D01*
X0438442Y0298153D01*
X0437143Y0295710D01*
G37*
G36*
X0435922Y0299703D02*
X0433479Y0301002D01*
X0434778Y0303445D01*
X0437221Y0302146D01*
X0435922Y0299703D01*
G37*
G36*
X0431777Y0299455D02*
X0429334Y0300754D01*
X0430633Y0303197D01*
X0433076Y0301898D01*
X0431777Y0299455D01*
G37*
G36*
X0433810Y0303279D02*
X0431367Y0304578D01*
X0432666Y0307021D01*
X0435109Y0305722D01*
X0433810Y0303279D01*
G37*
G36*
X0437955Y0303527D02*
X0435512Y0304826D01*
X0436811Y0307269D01*
X0439254Y0305970D01*
X0437955Y0303527D01*
G37*
G36*
X0439988Y0307351D02*
X0437545Y0308650D01*
X0438844Y0311093D01*
X0441287Y0309794D01*
X0439988Y0307351D01*
G37*
G36*
X0435843Y0307103D02*
X0433400Y0308402D01*
X0434699Y0310845D01*
X0437142Y0309546D01*
X0435843Y0307103D01*
G37*
G36*
X0437876Y0310926D02*
X0435433Y0312225D01*
X0436732Y0314668D01*
X0439175Y0313369D01*
X0437876Y0310926D01*
G37*
G36*
X0442021Y0311175D02*
X0439578Y0312474D01*
X0440877Y0314917D01*
X0443320Y0313618D01*
X0442021Y0311175D01*
G37*
G36*
X0444055Y0314999D02*
X0441612Y0316298D01*
X0442911Y0318741D01*
X0445354Y0317442D01*
X0444055Y0314999D01*
G37*
G36*
X0439909Y0314750D02*
X0437466Y0316049D01*
X0438765Y0318492D01*
X0441208Y0317193D01*
X0439909Y0314750D01*
G37*
G36*
X0441943Y0318574D02*
X0439500Y0319873D01*
X0440799Y0322316D01*
X0443242Y0321017D01*
X0441943Y0318574D01*
G37*
G36*
X0446088Y0318822D02*
X0443645Y0320121D01*
X0444944Y0322564D01*
X0447387Y0321265D01*
X0446088Y0318822D01*
G37*
G36*
X0448121Y0322646D02*
X0445678Y0323945D01*
X0446977Y0326388D01*
X0449420Y0325089D01*
X0448121Y0322646D01*
G37*
G36*
X0443976Y0322398D02*
X0441533Y0323697D01*
X0442832Y0326140D01*
X0445275Y0324841D01*
X0443976Y0322398D01*
G37*
G36*
X0446009Y0326222D02*
X0443566Y0327521D01*
X0444865Y0329964D01*
X0447308Y0328665D01*
X0446009Y0326222D01*
G37*
G36*
X0455568Y0321139D02*
X0453125Y0322438D01*
X0454424Y0324881D01*
X0456867Y0323582D01*
X0455568Y0321139D01*
G37*
G36*
X0467040Y0315039D02*
X0464597Y0316338D01*
X0465896Y0318781D01*
X0468339Y0317482D01*
X0467040Y0315039D01*
G37*
G36*
X0472454Y0309708D02*
X0470011Y0311007D01*
X0471310Y0313450D01*
X0473753Y0312151D01*
X0472454Y0309708D01*
G37*
G36*
X0474566Y0306133D02*
X0472123Y0307432D01*
X0473422Y0309875D01*
X0475865Y0308576D01*
X0474566Y0306133D01*
G37*
G36*
X0472533Y0302309D02*
X0470090Y0303608D01*
X0471389Y0306051D01*
X0473832Y0304752D01*
X0472533Y0302309D01*
G37*
G36*
X0470500Y0298485D02*
X0468057Y0299784D01*
X0469356Y0302227D01*
X0471799Y0300928D01*
X0470500Y0298485D01*
G37*
G36*
X0468467Y0294661D02*
X0466024Y0295960D01*
X0467323Y0298403D01*
X0469766Y0297104D01*
X0468467Y0294661D01*
G37*
G36*
X0466433Y0290837D02*
X0463990Y0292136D01*
X0465289Y0294579D01*
X0467732Y0293280D01*
X0466433Y0290837D01*
G37*
G36*
X0462288Y0290589D02*
X0459845Y0291888D01*
X0461144Y0294331D01*
X0463587Y0293032D01*
X0462288Y0290589D01*
G37*
G36*
X0464321Y0294413D02*
X0461878Y0295712D01*
X0463177Y0298155D01*
X0465620Y0296856D01*
X0464321Y0294413D01*
G37*
G36*
X0466355Y0298237D02*
X0463912Y0299536D01*
X0465211Y0301979D01*
X0467654Y0300680D01*
X0466355Y0298237D01*
G37*
G36*
X0468388Y0302060D02*
X0465945Y0303359D01*
X0467244Y0305802D01*
X0469687Y0304503D01*
X0468388Y0302060D01*
G37*
G36*
X0470421Y0305884D02*
X0467978Y0307183D01*
X0469277Y0309626D01*
X0471720Y0308327D01*
X0470421Y0305884D01*
G37*
G36*
X0476599Y0309956D02*
X0474156Y0311255D01*
X0475455Y0313698D01*
X0477898Y0312399D01*
X0476599Y0309956D01*
G37*
D15*
X0480169Y0154732D03*
X0480169Y0146268D03*
X0463831Y0146268D03*
X0463831Y0154732D03*
X0115169Y0152232D03*
X0115169Y0143768D03*
X0098831Y0143768D03*
X0098831Y0152232D03*
X0090169Y0163768D03*
X0090169Y0172232D03*
X0073831Y0172232D03*
X0073831Y0163768D03*
X0065169Y0152232D03*
X0065169Y0143768D03*
X0073831Y0132232D03*
X0073831Y0123768D03*
X0090169Y0123768D03*
X0090169Y0132232D03*
X0048831Y0143768D03*
X0048831Y0152232D03*
D16*
X0131500Y0256154D03*
X0137500Y0256154D03*
X0143500Y0256154D03*
X0149500Y0256154D03*
X0149500Y0262846D03*
X0143500Y0262846D03*
X0137500Y0262846D03*
X0131500Y0262846D03*
X0337500Y0253846D03*
X0337500Y0247154D03*
D17*
X0462154Y0265500D03*
X0468846Y0265500D03*
X0212846Y0306500D03*
X0206154Y0306500D03*
X0201846Y0398500D03*
X0195154Y0398500D03*
X0144846Y0096500D03*
X0138154Y0096500D03*
X0141154Y0090500D03*
X0147846Y0090500D03*
D18*
G36*
X0298167Y0204674D02*
X0296503Y0200556D01*
X0293063Y0201946D01*
X0294727Y0206064D01*
X0298167Y0204674D01*
G37*
G36*
X0299937Y0209054D02*
X0298273Y0204936D01*
X0294833Y0206326D01*
X0296497Y0210444D01*
X0299937Y0209054D01*
G37*
G36*
X0305167Y0225674D02*
X0303503Y0221556D01*
X0300063Y0222946D01*
X0301727Y0227064D01*
X0305167Y0225674D01*
G37*
G36*
X0306937Y0230054D02*
X0305273Y0225936D01*
X0301833Y0227326D01*
X0303497Y0231444D01*
X0306937Y0230054D01*
G37*
G36*
X0351167Y0242674D02*
X0349503Y0238556D01*
X0346063Y0239946D01*
X0347727Y0244064D01*
X0351167Y0242674D01*
G37*
G36*
X0352937Y0247054D02*
X0351273Y0242936D01*
X0347833Y0244326D01*
X0349497Y0248444D01*
X0352937Y0247054D01*
G37*
G36*
X0376937Y0237054D02*
X0375273Y0232936D01*
X0371833Y0234326D01*
X0373497Y0238444D01*
X0376937Y0237054D01*
G37*
G36*
X0375167Y0232674D02*
X0373503Y0228556D01*
X0370063Y0229946D01*
X0371727Y0234064D01*
X0375167Y0232674D01*
G37*
G36*
X0400167Y0222674D02*
X0398503Y0218556D01*
X0395063Y0219946D01*
X0396727Y0224064D01*
X0400167Y0222674D01*
G37*
G36*
X0401937Y0227054D02*
X0400273Y0222936D01*
X0396833Y0224326D01*
X0398497Y0228444D01*
X0401937Y0227054D01*
G37*
X0457138Y0258500D03*
X0461862Y0258500D03*
G36*
X0474710Y0294325D02*
X0476795Y0298246D01*
X0480072Y0296503D01*
X0477987Y0292582D01*
X0474710Y0294325D01*
G37*
G36*
X0476928Y0298497D02*
X0479013Y0302418D01*
X0482290Y0300675D01*
X0480205Y0296754D01*
X0476928Y0298497D01*
G37*
G36*
X0356054Y0155063D02*
X0351936Y0156727D01*
X0353326Y0160167D01*
X0357444Y0158503D01*
X0356054Y0155063D01*
G37*
G36*
X0351674Y0156833D02*
X0347556Y0158497D01*
X0348946Y0161937D01*
X0353064Y0160273D01*
X0351674Y0156833D01*
G37*
G36*
X0331054Y0165063D02*
X0326936Y0166727D01*
X0328326Y0170167D01*
X0332444Y0168503D01*
X0331054Y0165063D01*
G37*
G36*
X0326674Y0166833D02*
X0322556Y0168497D01*
X0323946Y0171937D01*
X0328064Y0170273D01*
X0326674Y0166833D01*
G37*
G36*
X0307054Y0175063D02*
X0302936Y0176727D01*
X0304326Y0180167D01*
X0308444Y0178503D01*
X0307054Y0175063D01*
G37*
G36*
X0302674Y0176833D02*
X0298556Y0178497D01*
X0299946Y0181937D01*
X0304064Y0180273D01*
X0302674Y0176833D01*
G37*
G36*
X0376674Y0145833D02*
X0372556Y0147497D01*
X0373946Y0150937D01*
X0378064Y0149273D01*
X0376674Y0145833D01*
G37*
G36*
X0381054Y0144063D02*
X0376936Y0145727D01*
X0378326Y0149167D01*
X0382444Y0147503D01*
X0381054Y0144063D01*
G37*
X0154862Y0239500D03*
X0150138Y0239500D03*
X0150138Y0244500D03*
X0154862Y0244500D03*
X0130862Y0244500D03*
X0126138Y0244500D03*
X0126138Y0239500D03*
X0130862Y0239500D03*
X0107862Y0321500D03*
X0103138Y0321500D03*
D19*
X0134185Y0111240D03*
X0134185Y0103760D03*
X0144815Y0103760D03*
X0144815Y0107500D03*
X0144815Y0111240D03*
D20*
X0153500Y0114437D03*
X0153500Y0106563D03*
X0125500Y0104563D03*
X0125500Y0112437D03*
D21*
X0135988Y0121500D03*
X0147012Y0121500D03*
D22*
X0120858Y0082390D03*
X0114953Y0082390D03*
X0103142Y0082390D03*
D23*
X0106094Y0075500D03*
X0117906Y0075500D03*
D24*
G36*
X0231073Y0085574D02*
X0224628Y0087422D01*
X0225933Y0091974D01*
X0232378Y0090126D01*
X0231073Y0085574D01*
G37*
G36*
X0234546Y0097684D02*
X0228101Y0099532D01*
X0229406Y0104084D01*
X0235851Y0102236D01*
X0234546Y0097684D01*
G37*
G36*
X0253090Y0092367D02*
X0246645Y0094215D01*
X0247950Y0098767D01*
X0254395Y0096919D01*
X0253090Y0092367D01*
G37*
G36*
X0249617Y0080257D02*
X0243172Y0082105D01*
X0244477Y0086657D01*
X0250922Y0084809D01*
X0249617Y0080257D01*
G37*
G36*
X0342987Y0168603D02*
X0336771Y0171115D01*
X0338545Y0175505D01*
X0344761Y0172993D01*
X0342987Y0168603D01*
G37*
G36*
X0349769Y0165830D02*
X0343553Y0168342D01*
X0345327Y0172732D01*
X0351543Y0170220D01*
X0349769Y0165830D01*
G37*
G36*
X0354488Y0177511D02*
X0348272Y0180023D01*
X0350046Y0184413D01*
X0356262Y0181901D01*
X0354488Y0177511D01*
G37*
G36*
X0347707Y0180284D02*
X0341491Y0182796D01*
X0343265Y0187186D01*
X0349481Y0184674D01*
X0347707Y0180284D01*
G37*
G36*
X0357769Y0185831D02*
X0351553Y0188343D01*
X0353327Y0192733D01*
X0359543Y0190221D01*
X0357769Y0185831D01*
G37*
G36*
X0350988Y0188604D02*
X0344772Y0191116D01*
X0346546Y0195506D01*
X0352762Y0192994D01*
X0350988Y0188604D01*
G37*
G36*
X0362489Y0197512D02*
X0356273Y0200024D01*
X0358047Y0204414D01*
X0364263Y0201902D01*
X0362489Y0197512D01*
G37*
G36*
X0355707Y0200285D02*
X0349491Y0202797D01*
X0351265Y0207187D01*
X0357481Y0204675D01*
X0355707Y0200285D01*
G37*
G36*
X0365770Y0205832D02*
X0359554Y0208344D01*
X0361328Y0212734D01*
X0367544Y0210222D01*
X0365770Y0205832D01*
G37*
G36*
X0358988Y0208605D02*
X0352772Y0211117D01*
X0354546Y0215507D01*
X0360762Y0212995D01*
X0358988Y0208605D01*
G37*
G36*
X0370489Y0217513D02*
X0364273Y0220025D01*
X0366047Y0224415D01*
X0372263Y0221903D01*
X0370489Y0217513D01*
G37*
G36*
X0363708Y0220286D02*
X0357492Y0222798D01*
X0359266Y0227188D01*
X0365482Y0224676D01*
X0363708Y0220286D01*
G37*
G36*
X0383656Y0198605D02*
X0377440Y0201117D01*
X0379214Y0205507D01*
X0385430Y0202995D01*
X0383656Y0198605D01*
G37*
G36*
X0390437Y0195831D02*
X0384221Y0198343D01*
X0385995Y0202733D01*
X0392211Y0200221D01*
X0390437Y0195831D01*
G37*
G36*
X0387157Y0187511D02*
X0380941Y0190023D01*
X0382715Y0194413D01*
X0388931Y0191901D01*
X0387157Y0187511D01*
G37*
G36*
X0380375Y0190285D02*
X0374159Y0192797D01*
X0375933Y0197187D01*
X0382149Y0194675D01*
X0380375Y0190285D01*
G37*
G36*
X0375656Y0178604D02*
X0369440Y0181116D01*
X0371214Y0185506D01*
X0377430Y0182994D01*
X0375656Y0178604D01*
G37*
G36*
X0382437Y0175830D02*
X0376221Y0178342D01*
X0377995Y0182732D01*
X0384211Y0180220D01*
X0382437Y0175830D01*
G37*
G36*
X0379156Y0167510D02*
X0372940Y0170022D01*
X0374714Y0174412D01*
X0380930Y0171900D01*
X0379156Y0167510D01*
G37*
G36*
X0374437Y0155829D02*
X0368221Y0158341D01*
X0369995Y0162731D01*
X0376211Y0160219D01*
X0374437Y0155829D01*
G37*
G36*
X0367655Y0158603D02*
X0361439Y0161115D01*
X0363213Y0165505D01*
X0369429Y0162993D01*
X0367655Y0158603D01*
G37*
G36*
X0372375Y0170284D02*
X0366159Y0172796D01*
X0367933Y0177186D01*
X0374149Y0174674D01*
X0372375Y0170284D01*
G37*
G36*
X0392323Y0148602D02*
X0386107Y0151114D01*
X0387881Y0155504D01*
X0394097Y0152992D01*
X0392323Y0148602D01*
G37*
G36*
X0397043Y0160283D02*
X0390827Y0162795D01*
X0392601Y0167185D01*
X0398817Y0164673D01*
X0397043Y0160283D01*
G37*
G36*
X0400324Y0168603D02*
X0394108Y0171115D01*
X0395882Y0175505D01*
X0402098Y0172993D01*
X0400324Y0168603D01*
G37*
G36*
X0405043Y0180284D02*
X0398827Y0182796D01*
X0400601Y0187186D01*
X0406817Y0184674D01*
X0405043Y0180284D01*
G37*
G36*
X0408324Y0188604D02*
X0402108Y0191116D01*
X0403882Y0195506D01*
X0410098Y0192994D01*
X0408324Y0188604D01*
G37*
G36*
X0413044Y0200285D02*
X0406828Y0202797D01*
X0408602Y0207187D01*
X0414818Y0204675D01*
X0413044Y0200285D01*
G37*
G36*
X0395157Y0207512D02*
X0388941Y0210024D01*
X0390715Y0214414D01*
X0396931Y0211902D01*
X0395157Y0207512D01*
G37*
G36*
X0388376Y0210286D02*
X0382160Y0212798D01*
X0383934Y0217188D01*
X0390150Y0214676D01*
X0388376Y0210286D01*
G37*
G36*
X0345821Y0227513D02*
X0339605Y0230025D01*
X0341379Y0234415D01*
X0347595Y0231903D01*
X0345821Y0227513D01*
G37*
G36*
X0341102Y0215832D02*
X0334886Y0218344D01*
X0336660Y0222734D01*
X0342876Y0220222D01*
X0341102Y0215832D01*
G37*
G36*
X0337821Y0207512D02*
X0331605Y0210024D01*
X0333379Y0214414D01*
X0339595Y0211902D01*
X0337821Y0207512D01*
G37*
G36*
X0331039Y0210286D02*
X0324823Y0212798D01*
X0326597Y0217188D01*
X0332813Y0214676D01*
X0331039Y0210286D01*
G37*
G36*
X0326320Y0198605D02*
X0320104Y0201117D01*
X0321878Y0205507D01*
X0328094Y0202995D01*
X0326320Y0198605D01*
G37*
G36*
X0333101Y0195831D02*
X0326885Y0198343D01*
X0328659Y0202733D01*
X0334875Y0200221D01*
X0333101Y0195831D01*
G37*
G36*
X0329820Y0187511D02*
X0323604Y0190023D01*
X0325378Y0194413D01*
X0331594Y0191901D01*
X0329820Y0187511D01*
G37*
G36*
X0325101Y0175830D02*
X0318885Y0178342D01*
X0320659Y0182732D01*
X0326875Y0180220D01*
X0325101Y0175830D01*
G37*
G36*
X0318320Y0178604D02*
X0312104Y0181116D01*
X0313878Y0185506D01*
X0320094Y0182994D01*
X0318320Y0178604D01*
G37*
G36*
X0323039Y0190285D02*
X0316823Y0192797D01*
X0318597Y0197187D01*
X0324813Y0194675D01*
X0323039Y0190285D01*
G37*
G36*
X0305152Y0197512D02*
X0298936Y0200024D01*
X0300710Y0204414D01*
X0306926Y0201902D01*
X0305152Y0197512D01*
G37*
G36*
X0300433Y0185831D02*
X0294217Y0188343D01*
X0295991Y0192733D01*
X0302207Y0190221D01*
X0300433Y0185831D01*
G37*
G36*
X0308433Y0205832D02*
X0302217Y0208344D01*
X0303991Y0212734D01*
X0310207Y0210222D01*
X0308433Y0205832D01*
G37*
G36*
X0313153Y0217513D02*
X0306937Y0220025D01*
X0308711Y0224415D01*
X0314927Y0221903D01*
X0313153Y0217513D01*
G37*
G36*
X0316434Y0225833D02*
X0310218Y0228345D01*
X0311992Y0232735D01*
X0318208Y0230223D01*
X0316434Y0225833D01*
G37*
G36*
X0321153Y0237514D02*
X0314937Y0240026D01*
X0316711Y0244416D01*
X0322927Y0241904D01*
X0321153Y0237514D01*
G37*
G36*
X0339040Y0230287D02*
X0332824Y0232799D01*
X0334598Y0237189D01*
X0340814Y0234677D01*
X0339040Y0230287D01*
G37*
G36*
X0334320Y0218606D02*
X0328104Y0221118D01*
X0329878Y0225508D01*
X0336094Y0222996D01*
X0334320Y0218606D01*
G37*
X0232490Y0194475D03*
X0232490Y0181876D03*
X0213198Y0181876D03*
X0213198Y0194475D03*
D25*
X0213500Y0201638D03*
X0213500Y0206362D03*
X0233500Y0113362D03*
X0233500Y0108638D03*
X0313500Y0248138D03*
X0313500Y0252862D03*
X0381500Y0313138D03*
X0381500Y0317862D03*
X0431500Y0287862D03*
X0431500Y0283138D03*
X0206500Y0312138D03*
X0206500Y0316862D03*
X0188500Y0393138D03*
X0188500Y0397862D03*
D26*
X0195000Y0391539D03*
X0195000Y0316776D03*
D27*
X0421500Y0220945D03*
X0421500Y0214055D03*
X0433500Y0214055D03*
X0433500Y0220945D03*
D28*
X0394098Y0325945D03*
X0389768Y0325945D03*
X0385437Y0325945D03*
X0381106Y0325945D03*
X0376776Y0325945D03*
X0372445Y0325945D03*
X0368114Y0325945D03*
X0363783Y0325945D03*
D29*
X0359059Y0326437D03*
D30*
X0403744Y0326437D03*
D31*
X0357976Y0356358D03*
D32*
X0405024Y0358917D03*
D33*
X0359354Y0362264D03*
D34*
X0403449Y0368465D03*
D35*
X0110500Y0312500D03*
X0110500Y0302500D03*
X0110500Y0292500D03*
X0110500Y0282500D03*
X0100500Y0282500D03*
X0100500Y0292500D03*
X0100500Y0302500D03*
X0100500Y0312500D03*
D36*
G36*
X0485985Y0292776D02*
X0481776Y0295015D01*
X0484015Y0299224D01*
X0488224Y0296985D01*
X0485985Y0292776D01*
G37*
D37*
X0483488Y0290470D02*
X0483965Y0289993D01*
X0482456Y0289531D01*
X0481061Y0290273D01*
X0480599Y0291782D01*
X0481341Y0293177D01*
X0482850Y0293639D01*
X0484245Y0292897D01*
X0484707Y0291388D01*
X0483965Y0289993D01*
X0483474Y0290591D01*
X0482529Y0290302D01*
X0481659Y0290764D01*
X0481370Y0291709D01*
X0481832Y0292579D01*
X0482777Y0292868D01*
X0483647Y0292406D01*
X0483936Y0291461D01*
X0483474Y0290591D01*
X0482981Y0291188D01*
X0482604Y0291072D01*
X0482256Y0291257D01*
X0482140Y0291634D01*
X0482325Y0291982D01*
X0482702Y0292098D01*
X0483050Y0291913D01*
X0483166Y0291536D01*
X0482981Y0291188D01*
X0487902Y0288123D02*
X0488379Y0287646D01*
X0486870Y0287184D01*
X0485475Y0287926D01*
X0485013Y0289435D01*
X0485755Y0290830D01*
X0487264Y0291292D01*
X0488659Y0290550D01*
X0489121Y0289041D01*
X0488379Y0287646D01*
X0487888Y0288244D01*
X0486943Y0287955D01*
X0486073Y0288417D01*
X0485784Y0289362D01*
X0486246Y0290232D01*
X0487191Y0290521D01*
X0488061Y0290059D01*
X0488350Y0289114D01*
X0487888Y0288244D01*
X0487395Y0288841D01*
X0487018Y0288725D01*
X0486670Y0288910D01*
X0486554Y0289287D01*
X0486739Y0289635D01*
X0487116Y0289751D01*
X0487464Y0289566D01*
X0487580Y0289189D01*
X0487395Y0288841D01*
X0485555Y0283708D02*
X0486032Y0283231D01*
X0484523Y0282769D01*
X0483128Y0283511D01*
X0482666Y0285020D01*
X0483408Y0286415D01*
X0484917Y0286877D01*
X0486312Y0286135D01*
X0486774Y0284626D01*
X0486032Y0283231D01*
X0485541Y0283829D01*
X0484596Y0283540D01*
X0483726Y0284002D01*
X0483437Y0284947D01*
X0483899Y0285817D01*
X0484844Y0286106D01*
X0485714Y0285644D01*
X0486003Y0284699D01*
X0485541Y0283829D01*
X0485048Y0284426D01*
X0484671Y0284310D01*
X0484323Y0284495D01*
X0484207Y0284872D01*
X0484392Y0285220D01*
X0484769Y0285336D01*
X0485117Y0285151D01*
X0485233Y0284774D01*
X0485048Y0284426D01*
X0483208Y0279293D02*
X0483685Y0278816D01*
X0482176Y0278354D01*
X0480781Y0279096D01*
X0480319Y0280605D01*
X0481061Y0282000D01*
X0482570Y0282462D01*
X0483965Y0281720D01*
X0484427Y0280211D01*
X0483685Y0278816D01*
X0483194Y0279414D01*
X0482249Y0279125D01*
X0481379Y0279587D01*
X0481090Y0280532D01*
X0481552Y0281402D01*
X0482497Y0281691D01*
X0483367Y0281229D01*
X0483656Y0280284D01*
X0483194Y0279414D01*
X0482701Y0280011D01*
X0482324Y0279895D01*
X0481976Y0280080D01*
X0481860Y0280457D01*
X0482045Y0280805D01*
X0482422Y0280921D01*
X0482770Y0280736D01*
X0482886Y0280359D01*
X0482701Y0280011D01*
X0480860Y0274879D02*
X0481337Y0274402D01*
X0479828Y0273940D01*
X0478433Y0274682D01*
X0477971Y0276191D01*
X0478713Y0277586D01*
X0480222Y0278048D01*
X0481617Y0277306D01*
X0482079Y0275797D01*
X0481337Y0274402D01*
X0480846Y0275000D01*
X0479901Y0274711D01*
X0479031Y0275173D01*
X0478742Y0276118D01*
X0479204Y0276988D01*
X0480149Y0277277D01*
X0481019Y0276815D01*
X0481308Y0275870D01*
X0480846Y0275000D01*
X0480353Y0275597D01*
X0479976Y0275481D01*
X0479628Y0275666D01*
X0479512Y0276043D01*
X0479697Y0276391D01*
X0480074Y0276507D01*
X0480422Y0276322D01*
X0480538Y0275945D01*
X0480353Y0275597D01*
X0476446Y0277226D02*
X0476923Y0276749D01*
X0475414Y0276287D01*
X0474019Y0277029D01*
X0473557Y0278538D01*
X0474299Y0279933D01*
X0475808Y0280395D01*
X0477203Y0279653D01*
X0477665Y0278144D01*
X0476923Y0276749D01*
X0476432Y0277347D01*
X0475487Y0277058D01*
X0474617Y0277520D01*
X0474328Y0278465D01*
X0474790Y0279335D01*
X0475735Y0279624D01*
X0476605Y0279162D01*
X0476894Y0278217D01*
X0476432Y0277347D01*
X0475939Y0277944D01*
X0475562Y0277828D01*
X0475214Y0278013D01*
X0475098Y0278390D01*
X0475283Y0278738D01*
X0475660Y0278854D01*
X0476008Y0278669D01*
X0476124Y0278292D01*
X0475939Y0277944D01*
X0478793Y0281641D02*
X0479270Y0281164D01*
X0477761Y0280702D01*
X0476366Y0281444D01*
X0475904Y0282953D01*
X0476646Y0284348D01*
X0478155Y0284810D01*
X0479550Y0284068D01*
X0480012Y0282559D01*
X0479270Y0281164D01*
X0478779Y0281762D01*
X0477834Y0281473D01*
X0476964Y0281935D01*
X0476675Y0282880D01*
X0477137Y0283750D01*
X0478082Y0284039D01*
X0478952Y0283577D01*
X0479241Y0282632D01*
X0478779Y0281762D01*
X0478286Y0282359D01*
X0477909Y0282243D01*
X0477561Y0282428D01*
X0477445Y0282805D01*
X0477630Y0283153D01*
X0478007Y0283269D01*
X0478355Y0283084D01*
X0478471Y0282707D01*
X0478286Y0282359D01*
X0481140Y0286056D02*
X0481617Y0285579D01*
X0480108Y0285117D01*
X0478713Y0285859D01*
X0478251Y0287368D01*
X0478993Y0288763D01*
X0480502Y0289225D01*
X0481897Y0288483D01*
X0482359Y0286974D01*
X0481617Y0285579D01*
X0481126Y0286177D01*
X0480181Y0285888D01*
X0479311Y0286350D01*
X0479022Y0287295D01*
X0479484Y0288165D01*
X0480429Y0288454D01*
X0481299Y0287992D01*
X0481588Y0287047D01*
X0481126Y0286177D01*
X0480633Y0286774D01*
X0480256Y0286658D01*
X0479908Y0286843D01*
X0479792Y0287220D01*
X0479977Y0287568D01*
X0480354Y0287684D01*
X0480702Y0287499D01*
X0480818Y0287122D01*
X0480633Y0286774D01*
X0490250Y0292538D02*
X0490727Y0292061D01*
X0489218Y0291599D01*
X0487823Y0292341D01*
X0487361Y0293850D01*
X0488103Y0295245D01*
X0489612Y0295707D01*
X0491007Y0294965D01*
X0491469Y0293456D01*
X0490727Y0292061D01*
X0490236Y0292659D01*
X0489291Y0292370D01*
X0488421Y0292832D01*
X0488132Y0293777D01*
X0488594Y0294647D01*
X0489539Y0294936D01*
X0490409Y0294474D01*
X0490698Y0293529D01*
X0490236Y0292659D01*
X0489743Y0293256D01*
X0489366Y0293140D01*
X0489018Y0293325D01*
X0488902Y0293702D01*
X0489087Y0294050D01*
X0489464Y0294166D01*
X0489812Y0293981D01*
X0489928Y0293604D01*
X0489743Y0293256D01*
D38*
X0342173Y0418673D03*
X0213827Y0418673D03*
D39*
X0174000Y0155750D03*
X0174000Y0105750D03*
D40*
X0163500Y0098000D03*
X0160500Y0101500D03*
X0156500Y0101500D03*
X0152500Y0101500D03*
X0149500Y0096500D03*
X0139500Y0102500D03*
X0138500Y0111500D03*
X0128500Y0099500D03*
X0126500Y0096500D03*
X0124500Y0099500D03*
X0122500Y0096500D03*
X0120500Y0099500D03*
X0141500Y0133500D03*
X0144500Y0143500D03*
X0137500Y0161500D03*
X0131500Y0164500D03*
X0106500Y0156500D03*
X0082500Y0175500D03*
X0057500Y0156500D03*
X0082500Y0135500D03*
X0180500Y0087500D03*
X0241000Y0095500D03*
X0246000Y0078500D03*
X0237500Y0113000D03*
X0243000Y0151000D03*
X0239500Y0174500D03*
X0226500Y0181500D03*
X0243000Y0194500D03*
X0218000Y0206000D03*
X0159500Y0239500D03*
X0159500Y0244500D03*
X0149500Y0251500D03*
X0143500Y0251500D03*
X0137500Y0251500D03*
X0131500Y0251500D03*
X0121500Y0244500D03*
X0121500Y0239500D03*
X0131500Y0267500D03*
X0137500Y0267500D03*
X0143500Y0267500D03*
X0149500Y0267500D03*
X0149500Y0297500D03*
X0143500Y0297500D03*
X0137500Y0297500D03*
X0131500Y0297500D03*
X0125500Y0295500D03*
X0121500Y0298500D03*
X0186500Y0278500D03*
X0190500Y0278500D03*
X0194500Y0278500D03*
X0198500Y0278500D03*
X0202500Y0278500D03*
X0200500Y0306500D03*
X0200500Y0310500D03*
X0265500Y0305500D03*
X0278500Y0310500D03*
X0283500Y0315500D03*
X0281500Y0321500D03*
X0287500Y0304500D03*
X0278500Y0283500D03*
X0317500Y0252500D03*
X0306500Y0232500D03*
X0320000Y0227000D03*
X0328500Y0227500D03*
X0330500Y0218000D03*
X0343500Y0223500D03*
X0353500Y0217500D03*
X0346500Y0206500D03*
X0345500Y0197500D03*
X0339500Y0186500D03*
X0326500Y0183500D03*
X0334500Y0174500D03*
X0327500Y0163500D03*
X0343500Y0151500D03*
X0352500Y0153500D03*
X0359500Y0164500D03*
X0349500Y0173500D03*
X0364500Y0176500D03*
X0370500Y0187500D03*
X0372500Y0196500D03*
X0378500Y0207500D03*
X0386500Y0219500D03*
X0385500Y0233500D03*
X0378500Y0234500D03*
X0361500Y0229500D03*
X0366500Y0214500D03*
X0359500Y0193500D03*
X0333500Y0203500D03*
X0323000Y0197500D03*
X0320500Y0207500D03*
X0310500Y0213500D03*
X0299500Y0212500D03*
X0302500Y0193500D03*
X0309500Y0184500D03*
X0310500Y0175500D03*
X0370500Y0154500D03*
X0384500Y0154500D03*
X0384500Y0146500D03*
X0389500Y0166500D03*
X0386000Y0177000D03*
X0394500Y0178500D03*
X0397500Y0186500D03*
X0393500Y0197000D03*
X0399500Y0202000D03*
X0402500Y0197500D03*
X0404500Y0224500D03*
X0403500Y0233500D03*
X0401500Y0236500D03*
X0405500Y0236500D03*
X0407500Y0233500D03*
X0409500Y0236500D03*
X0389500Y0267500D03*
X0393500Y0270500D03*
X0397500Y0286500D03*
X0395500Y0290500D03*
X0396500Y0296500D03*
X0405500Y0298500D03*
X0409000Y0282000D03*
X0413500Y0280500D03*
X0416500Y0278500D03*
X0416500Y0282500D03*
X0420500Y0280500D03*
X0423500Y0278500D03*
X0423500Y0282500D03*
X0427500Y0282500D03*
X0431500Y0279000D03*
X0435500Y0271500D03*
X0444500Y0263500D03*
X0444500Y0259500D03*
X0444500Y0254500D03*
X0452500Y0258500D03*
X0453500Y0269500D03*
X0449500Y0273500D03*
X0462500Y0273500D03*
X0465500Y0254500D03*
X0494500Y0288500D03*
X0483500Y0302500D03*
X0479500Y0309500D03*
X0475500Y0300500D03*
X0468500Y0312500D03*
X0463500Y0312500D03*
X0458000Y0315500D03*
X0455500Y0311000D03*
X0451500Y0313500D03*
X0449000Y0309000D03*
X0446000Y0305500D03*
X0444500Y0301500D03*
X0443500Y0309000D03*
X0446000Y0313000D03*
X0456500Y0298500D03*
X0459000Y0294500D03*
X0424500Y0298500D03*
X0419500Y0319500D03*
X0416500Y0322500D03*
X0393000Y0333500D03*
X0385500Y0333500D03*
X0385500Y0319500D03*
X0390000Y0319000D03*
X0368000Y0332500D03*
X0348500Y0321500D03*
X0348500Y0315500D03*
X0357500Y0310500D03*
X0351500Y0283500D03*
X0354500Y0277500D03*
X0360500Y0279500D03*
X0364500Y0274500D03*
X0367500Y0280500D03*
X0360500Y0265500D03*
X0357500Y0261500D03*
X0350000Y0258000D03*
X0348500Y0271500D03*
X0354500Y0244500D03*
X0375500Y0254500D03*
X0459500Y0205500D03*
X0472000Y0155000D03*
X0459000Y0146500D03*
X0454500Y0154500D03*
X0364500Y0362500D03*
X0368500Y0378500D03*
X0188500Y0388500D03*
D41*
X0202500Y0316500D03*
X0210500Y0316500D03*
X0353500Y0326500D03*
X0372500Y0319500D03*
X0377500Y0313500D03*
X0409500Y0326500D03*
X0434000Y0329500D03*
X0435500Y0326500D03*
X0437500Y0329500D03*
X0439500Y0326500D03*
X0441500Y0329500D03*
X0457500Y0319500D03*
X0462500Y0316500D03*
X0463500Y0303500D03*
X0452500Y0293500D03*
X0435500Y0284500D03*
X0467500Y0270500D03*
X0474500Y0291500D03*
X0421500Y0225500D03*
X0438500Y0220500D03*
X0409500Y0358500D03*
X0353500Y0356500D03*
D42*
X0353500Y0250500D03*
X0441500Y0249500D03*
X0466500Y0249500D03*
X0475500Y0259500D03*
X0473500Y0286500D03*
X0259500Y0248500D03*
X0259500Y0157500D03*
X0259500Y0070500D03*
D43*
X0437200Y0178800D03*
X0437500Y0205500D03*
M02*
