G75*
%MOIN*%
%OFA0B0*%
%FSLAX25Y25*%
%IPPOS*%
%LPD*%
%AMOC8*
5,1,8,0,0,1.08239X$1,22.5*
%
%ADD10R,0.01969X0.01969*%
%ADD11R,0.04134X0.02559*%
%ADD12R,0.04331X0.03937*%
%ADD13R,0.03937X0.04331*%
%ADD14R,0.03642X0.02913*%
%ADD15R,0.04134X0.02362*%
%ADD16R,0.06299X0.05118*%
%ADD17R,0.03150X0.10630*%
%ADD18R,0.02756X0.05906*%
%ADD19R,0.05906X0.03937*%
%ADD20R,0.02913X0.03642*%
%ADD21C,0.04362*%
%ADD22R,0.04252X0.04134*%
%ADD23R,0.02756X0.06890*%
%ADD24R,0.05118X0.05906*%
%ADD25R,0.05906X0.05906*%
%ADD26R,0.03150X0.05906*%
%ADD27R,0.03150X0.05512*%
%ADD28R,0.05709X0.03937*%
%ADD29R,0.03937X0.06102*%
%ADD30OC8,0.06000*%
%ADD31R,0.03969X0.03969*%
%ADD32C,0.00794*%
%ADD33C,0.07087*%
%ADD34C,0.01200*%
%ADD35C,0.01000*%
%ADD36C,0.02800*%
%ADD37C,0.02000*%
%ADD38C,0.02600*%
%ADD39C,0.01600*%
%ADD40C,0.01800*%
%ADD41C,0.02800*%
%ADD42C,0.03400*%
%ADD43C,0.03000*%
%ADD44C,0.04000*%
%ADD45C,0.02100*%
%ADD46C,0.03200*%
D10*
G36*
X0429578Y0296172D02*
X0427842Y0297096D01*
X0428766Y0298832D01*
X0430502Y0297908D01*
X0429578Y0296172D01*
G37*
G36*
X0433401Y0294139D02*
X0431665Y0295063D01*
X0432589Y0296799D01*
X0434325Y0295875D01*
X0433401Y0294139D01*
G37*
G36*
X0437225Y0292106D02*
X0435489Y0293030D01*
X0436413Y0294766D01*
X0438149Y0293842D01*
X0437225Y0292106D01*
G37*
G36*
X0441049Y0290073D02*
X0439313Y0290997D01*
X0440237Y0292733D01*
X0441973Y0291809D01*
X0441049Y0290073D01*
G37*
G36*
X0444873Y0288040D02*
X0443137Y0288964D01*
X0444061Y0290700D01*
X0445797Y0289776D01*
X0444873Y0288040D01*
G37*
G36*
X0448697Y0286007D02*
X0446961Y0286931D01*
X0447885Y0288667D01*
X0449621Y0287743D01*
X0448697Y0286007D01*
G37*
G36*
X0452520Y0283973D02*
X0450784Y0284897D01*
X0451708Y0286633D01*
X0453444Y0285709D01*
X0452520Y0283973D01*
G37*
G36*
X0456344Y0281940D02*
X0454608Y0282864D01*
X0455532Y0284600D01*
X0457268Y0283676D01*
X0456344Y0281940D01*
G37*
G36*
X0460168Y0279907D02*
X0458432Y0280831D01*
X0459356Y0282567D01*
X0461092Y0281643D01*
X0460168Y0279907D01*
G37*
G36*
X0462201Y0283731D02*
X0460465Y0284655D01*
X0461389Y0286391D01*
X0463125Y0285467D01*
X0462201Y0283731D01*
G37*
G36*
X0464234Y0287555D02*
X0462498Y0288479D01*
X0463422Y0290215D01*
X0465158Y0289291D01*
X0464234Y0287555D01*
G37*
G36*
X0460089Y0287306D02*
X0458353Y0288230D01*
X0459277Y0289966D01*
X0461013Y0289042D01*
X0460089Y0287306D01*
G37*
G36*
X0456096Y0286085D02*
X0454360Y0287009D01*
X0455284Y0288745D01*
X0457020Y0287821D01*
X0456096Y0286085D01*
G37*
G36*
X0452272Y0288118D02*
X0450536Y0289042D01*
X0451460Y0290778D01*
X0453196Y0289854D01*
X0452272Y0288118D01*
G37*
G36*
X0448448Y0290152D02*
X0446712Y0291076D01*
X0447636Y0292812D01*
X0449372Y0291888D01*
X0448448Y0290152D01*
G37*
G36*
X0444624Y0292185D02*
X0442888Y0293109D01*
X0443812Y0294845D01*
X0445548Y0293921D01*
X0444624Y0292185D01*
G37*
G36*
X0440801Y0294218D02*
X0439065Y0295142D01*
X0439989Y0296878D01*
X0441725Y0295954D01*
X0440801Y0294218D01*
G37*
G36*
X0436977Y0296251D02*
X0435241Y0297175D01*
X0436165Y0298911D01*
X0437901Y0297987D01*
X0436977Y0296251D01*
G37*
G36*
X0435756Y0300244D02*
X0434020Y0301168D01*
X0434944Y0302904D01*
X0436680Y0301980D01*
X0435756Y0300244D01*
G37*
G36*
X0431611Y0299996D02*
X0429875Y0300920D01*
X0430799Y0302656D01*
X0432535Y0301732D01*
X0431611Y0299996D01*
G37*
G36*
X0433644Y0303820D02*
X0431908Y0304744D01*
X0432832Y0306480D01*
X0434568Y0305556D01*
X0433644Y0303820D01*
G37*
G36*
X0437789Y0304068D02*
X0436053Y0304992D01*
X0436977Y0306728D01*
X0438713Y0305804D01*
X0437789Y0304068D01*
G37*
G36*
X0439822Y0307892D02*
X0438086Y0308816D01*
X0439010Y0310552D01*
X0440746Y0309628D01*
X0439822Y0307892D01*
G37*
G36*
X0435677Y0307644D02*
X0433941Y0308568D01*
X0434865Y0310304D01*
X0436601Y0309380D01*
X0435677Y0307644D01*
G37*
G36*
X0437710Y0311467D02*
X0435974Y0312391D01*
X0436898Y0314127D01*
X0438634Y0313203D01*
X0437710Y0311467D01*
G37*
G36*
X0441855Y0311716D02*
X0440119Y0312640D01*
X0441043Y0314376D01*
X0442779Y0313452D01*
X0441855Y0311716D01*
G37*
G36*
X0443889Y0315540D02*
X0442153Y0316464D01*
X0443077Y0318200D01*
X0444813Y0317276D01*
X0443889Y0315540D01*
G37*
G36*
X0439743Y0315291D02*
X0438007Y0316215D01*
X0438931Y0317951D01*
X0440667Y0317027D01*
X0439743Y0315291D01*
G37*
G36*
X0441777Y0319115D02*
X0440041Y0320039D01*
X0440965Y0321775D01*
X0442701Y0320851D01*
X0441777Y0319115D01*
G37*
G36*
X0445922Y0319363D02*
X0444186Y0320287D01*
X0445110Y0322023D01*
X0446846Y0321099D01*
X0445922Y0319363D01*
G37*
G36*
X0447955Y0323187D02*
X0446219Y0324111D01*
X0447143Y0325847D01*
X0448879Y0324923D01*
X0447955Y0323187D01*
G37*
G36*
X0443810Y0322939D02*
X0442074Y0323863D01*
X0442998Y0325599D01*
X0444734Y0324675D01*
X0443810Y0322939D01*
G37*
G36*
X0445843Y0326763D02*
X0444107Y0327687D01*
X0445031Y0329423D01*
X0446767Y0328499D01*
X0445843Y0326763D01*
G37*
G36*
X0455402Y0321680D02*
X0453666Y0322604D01*
X0454590Y0324340D01*
X0456326Y0323416D01*
X0455402Y0321680D01*
G37*
G36*
X0466874Y0315580D02*
X0465138Y0316504D01*
X0466062Y0318240D01*
X0467798Y0317316D01*
X0466874Y0315580D01*
G37*
G36*
X0472288Y0310249D02*
X0470552Y0311173D01*
X0471476Y0312909D01*
X0473212Y0311985D01*
X0472288Y0310249D01*
G37*
G36*
X0474400Y0306674D02*
X0472664Y0307598D01*
X0473588Y0309334D01*
X0475324Y0308410D01*
X0474400Y0306674D01*
G37*
G36*
X0472367Y0302850D02*
X0470631Y0303774D01*
X0471555Y0305510D01*
X0473291Y0304586D01*
X0472367Y0302850D01*
G37*
G36*
X0470334Y0299026D02*
X0468598Y0299950D01*
X0469522Y0301686D01*
X0471258Y0300762D01*
X0470334Y0299026D01*
G37*
G36*
X0468301Y0295202D02*
X0466565Y0296126D01*
X0467489Y0297862D01*
X0469225Y0296938D01*
X0468301Y0295202D01*
G37*
G36*
X0466267Y0291378D02*
X0464531Y0292302D01*
X0465455Y0294038D01*
X0467191Y0293114D01*
X0466267Y0291378D01*
G37*
G36*
X0462122Y0291130D02*
X0460386Y0292054D01*
X0461310Y0293790D01*
X0463046Y0292866D01*
X0462122Y0291130D01*
G37*
G36*
X0464155Y0294954D02*
X0462419Y0295878D01*
X0463343Y0297614D01*
X0465079Y0296690D01*
X0464155Y0294954D01*
G37*
G36*
X0466189Y0298778D02*
X0464453Y0299702D01*
X0465377Y0301438D01*
X0467113Y0300514D01*
X0466189Y0298778D01*
G37*
G36*
X0468222Y0302601D02*
X0466486Y0303525D01*
X0467410Y0305261D01*
X0469146Y0304337D01*
X0468222Y0302601D01*
G37*
G36*
X0470255Y0306425D02*
X0468519Y0307349D01*
X0469443Y0309085D01*
X0471179Y0308161D01*
X0470255Y0306425D01*
G37*
G36*
X0476433Y0310497D02*
X0474697Y0311421D01*
X0475621Y0313157D01*
X0477357Y0312233D01*
X0476433Y0310497D01*
G37*
D11*
X0480169Y0154732D03*
X0480169Y0146268D03*
X0463831Y0146268D03*
X0463831Y0154732D03*
X0115169Y0152232D03*
X0115169Y0143768D03*
X0098831Y0143768D03*
X0098831Y0152232D03*
X0090169Y0163768D03*
X0090169Y0172232D03*
X0073831Y0172232D03*
X0073831Y0163768D03*
X0065169Y0152232D03*
X0065169Y0143768D03*
X0073831Y0132232D03*
X0073831Y0123768D03*
X0090169Y0123768D03*
X0090169Y0132232D03*
X0048831Y0143768D03*
X0048831Y0152232D03*
D12*
X0131500Y0256154D03*
X0137500Y0256154D03*
X0143500Y0256154D03*
X0149500Y0256154D03*
X0149500Y0262846D03*
X0143500Y0262846D03*
X0137500Y0262846D03*
X0131500Y0262846D03*
X0337500Y0253846D03*
X0337500Y0247154D03*
D13*
X0462154Y0265500D03*
X0468846Y0265500D03*
X0212846Y0306500D03*
X0206154Y0306500D03*
X0201846Y0398500D03*
X0195154Y0398500D03*
X0144846Y0096500D03*
X0138154Y0096500D03*
X0141154Y0090500D03*
X0147846Y0090500D03*
D14*
G36*
X0297647Y0204452D02*
X0296282Y0201077D01*
X0293583Y0202168D01*
X0294948Y0205543D01*
X0297647Y0204452D01*
G37*
G36*
X0299417Y0208832D02*
X0298052Y0205457D01*
X0295353Y0206548D01*
X0296718Y0209923D01*
X0299417Y0208832D01*
G37*
G36*
X0304647Y0225452D02*
X0303282Y0222077D01*
X0300583Y0223168D01*
X0301948Y0226543D01*
X0304647Y0225452D01*
G37*
G36*
X0306417Y0229832D02*
X0305052Y0226457D01*
X0302353Y0227548D01*
X0303718Y0230923D01*
X0306417Y0229832D01*
G37*
G36*
X0350647Y0242452D02*
X0349282Y0239077D01*
X0346583Y0240168D01*
X0347948Y0243543D01*
X0350647Y0242452D01*
G37*
G36*
X0352417Y0246832D02*
X0351052Y0243457D01*
X0348353Y0244548D01*
X0349718Y0247923D01*
X0352417Y0246832D01*
G37*
G36*
X0376417Y0236832D02*
X0375052Y0233457D01*
X0372353Y0234548D01*
X0373718Y0237923D01*
X0376417Y0236832D01*
G37*
G36*
X0374647Y0232452D02*
X0373282Y0229077D01*
X0370583Y0230168D01*
X0371948Y0233543D01*
X0374647Y0232452D01*
G37*
G36*
X0399647Y0222452D02*
X0398282Y0219077D01*
X0395583Y0220168D01*
X0396948Y0223543D01*
X0399647Y0222452D01*
G37*
G36*
X0401417Y0226832D02*
X0400052Y0223457D01*
X0397353Y0224548D01*
X0398718Y0227923D01*
X0401417Y0226832D01*
G37*
X0457138Y0258500D03*
X0461862Y0258500D03*
G36*
X0475251Y0294490D02*
X0476961Y0297705D01*
X0479531Y0296338D01*
X0477821Y0293123D01*
X0475251Y0294490D01*
G37*
G36*
X0477469Y0298662D02*
X0479179Y0301877D01*
X0481749Y0300510D01*
X0480039Y0297295D01*
X0477469Y0298662D01*
G37*
G36*
X0355832Y0155583D02*
X0352457Y0156948D01*
X0353548Y0159647D01*
X0356923Y0158282D01*
X0355832Y0155583D01*
G37*
G36*
X0351452Y0157353D02*
X0348077Y0158718D01*
X0349168Y0161417D01*
X0352543Y0160052D01*
X0351452Y0157353D01*
G37*
G36*
X0330832Y0165583D02*
X0327457Y0166948D01*
X0328548Y0169647D01*
X0331923Y0168282D01*
X0330832Y0165583D01*
G37*
G36*
X0326452Y0167353D02*
X0323077Y0168718D01*
X0324168Y0171417D01*
X0327543Y0170052D01*
X0326452Y0167353D01*
G37*
G36*
X0306832Y0175583D02*
X0303457Y0176948D01*
X0304548Y0179647D01*
X0307923Y0178282D01*
X0306832Y0175583D01*
G37*
G36*
X0302452Y0177353D02*
X0299077Y0178718D01*
X0300168Y0181417D01*
X0303543Y0180052D01*
X0302452Y0177353D01*
G37*
G36*
X0376452Y0146353D02*
X0373077Y0147718D01*
X0374168Y0150417D01*
X0377543Y0149052D01*
X0376452Y0146353D01*
G37*
G36*
X0380832Y0144583D02*
X0377457Y0145948D01*
X0378548Y0148647D01*
X0381923Y0147282D01*
X0380832Y0144583D01*
G37*
X0154862Y0239500D03*
X0150138Y0239500D03*
X0150138Y0244500D03*
X0154862Y0244500D03*
X0130862Y0244500D03*
X0126138Y0244500D03*
X0126138Y0239500D03*
X0130862Y0239500D03*
X0107862Y0321500D03*
X0103138Y0321500D03*
D15*
X0134185Y0111240D03*
X0134185Y0103760D03*
X0144815Y0103760D03*
X0144815Y0107500D03*
X0144815Y0111240D03*
D16*
X0153500Y0114437D03*
X0153500Y0106563D03*
X0125500Y0104563D03*
X0125500Y0112437D03*
D17*
X0135988Y0121500D03*
X0147012Y0121500D03*
D18*
X0103142Y0082390D03*
X0114953Y0082390D03*
X0120858Y0082390D03*
D19*
G36*
X0230799Y0086069D02*
X0225122Y0087697D01*
X0226207Y0091479D01*
X0231884Y0089851D01*
X0230799Y0086069D01*
G37*
G36*
X0234272Y0098179D02*
X0228595Y0099807D01*
X0229680Y0103589D01*
X0235357Y0101961D01*
X0234272Y0098179D01*
G37*
G36*
X0252816Y0092862D02*
X0247139Y0094490D01*
X0248224Y0098272D01*
X0253901Y0096644D01*
X0252816Y0092862D01*
G37*
G36*
X0249343Y0080752D02*
X0243666Y0082380D01*
X0244751Y0086162D01*
X0250428Y0084534D01*
X0249343Y0080752D01*
G37*
G36*
X0342766Y0169124D02*
X0337291Y0171336D01*
X0338766Y0174984D01*
X0344241Y0172772D01*
X0342766Y0169124D01*
G37*
G36*
X0349548Y0166351D02*
X0344073Y0168563D01*
X0345548Y0172211D01*
X0351023Y0169999D01*
X0349548Y0166351D01*
G37*
G36*
X0354267Y0178032D02*
X0348792Y0180244D01*
X0350267Y0183892D01*
X0355742Y0181680D01*
X0354267Y0178032D01*
G37*
G36*
X0347486Y0180805D02*
X0342011Y0183017D01*
X0343486Y0186665D01*
X0348961Y0184453D01*
X0347486Y0180805D01*
G37*
G36*
X0357548Y0186352D02*
X0352073Y0188564D01*
X0353548Y0192212D01*
X0359023Y0190000D01*
X0357548Y0186352D01*
G37*
G36*
X0350767Y0189125D02*
X0345292Y0191337D01*
X0346767Y0194985D01*
X0352242Y0192773D01*
X0350767Y0189125D01*
G37*
G36*
X0362268Y0198033D02*
X0356793Y0200245D01*
X0358268Y0203893D01*
X0363743Y0201681D01*
X0362268Y0198033D01*
G37*
G36*
X0355486Y0200806D02*
X0350011Y0203018D01*
X0351486Y0206666D01*
X0356961Y0204454D01*
X0355486Y0200806D01*
G37*
G36*
X0365549Y0206353D02*
X0360074Y0208565D01*
X0361549Y0212213D01*
X0367024Y0210001D01*
X0365549Y0206353D01*
G37*
G36*
X0358767Y0209126D02*
X0353292Y0211338D01*
X0354767Y0214986D01*
X0360242Y0212774D01*
X0358767Y0209126D01*
G37*
G36*
X0370268Y0218034D02*
X0364793Y0220246D01*
X0366268Y0223894D01*
X0371743Y0221682D01*
X0370268Y0218034D01*
G37*
G36*
X0363487Y0220807D02*
X0358012Y0223019D01*
X0359487Y0226667D01*
X0364962Y0224455D01*
X0363487Y0220807D01*
G37*
G36*
X0383435Y0199126D02*
X0377960Y0201338D01*
X0379435Y0204986D01*
X0384910Y0202774D01*
X0383435Y0199126D01*
G37*
G36*
X0390216Y0196352D02*
X0384741Y0198564D01*
X0386216Y0202212D01*
X0391691Y0200000D01*
X0390216Y0196352D01*
G37*
G36*
X0386936Y0188032D02*
X0381461Y0190244D01*
X0382936Y0193892D01*
X0388411Y0191680D01*
X0386936Y0188032D01*
G37*
G36*
X0380154Y0190806D02*
X0374679Y0193018D01*
X0376154Y0196666D01*
X0381629Y0194454D01*
X0380154Y0190806D01*
G37*
G36*
X0375435Y0179125D02*
X0369960Y0181337D01*
X0371435Y0184985D01*
X0376910Y0182773D01*
X0375435Y0179125D01*
G37*
G36*
X0382216Y0176351D02*
X0376741Y0178563D01*
X0378216Y0182211D01*
X0383691Y0179999D01*
X0382216Y0176351D01*
G37*
G36*
X0378935Y0168031D02*
X0373460Y0170243D01*
X0374935Y0173891D01*
X0380410Y0171679D01*
X0378935Y0168031D01*
G37*
G36*
X0372154Y0170805D02*
X0366679Y0173017D01*
X0368154Y0176665D01*
X0373629Y0174453D01*
X0372154Y0170805D01*
G37*
G36*
X0367434Y0159124D02*
X0361959Y0161336D01*
X0363434Y0164984D01*
X0368909Y0162772D01*
X0367434Y0159124D01*
G37*
G36*
X0374216Y0156350D02*
X0368741Y0158562D01*
X0370216Y0162210D01*
X0375691Y0159998D01*
X0374216Y0156350D01*
G37*
G36*
X0392102Y0149123D02*
X0386627Y0151335D01*
X0388102Y0154983D01*
X0393577Y0152771D01*
X0392102Y0149123D01*
G37*
G36*
X0396822Y0160804D02*
X0391347Y0163016D01*
X0392822Y0166664D01*
X0398297Y0164452D01*
X0396822Y0160804D01*
G37*
G36*
X0400103Y0169124D02*
X0394628Y0171336D01*
X0396103Y0174984D01*
X0401578Y0172772D01*
X0400103Y0169124D01*
G37*
G36*
X0404822Y0180805D02*
X0399347Y0183017D01*
X0400822Y0186665D01*
X0406297Y0184453D01*
X0404822Y0180805D01*
G37*
G36*
X0408103Y0189125D02*
X0402628Y0191337D01*
X0404103Y0194985D01*
X0409578Y0192773D01*
X0408103Y0189125D01*
G37*
G36*
X0412823Y0200806D02*
X0407348Y0203018D01*
X0408823Y0206666D01*
X0414298Y0204454D01*
X0412823Y0200806D01*
G37*
G36*
X0394936Y0208033D02*
X0389461Y0210245D01*
X0390936Y0213893D01*
X0396411Y0211681D01*
X0394936Y0208033D01*
G37*
G36*
X0388155Y0210807D02*
X0382680Y0213019D01*
X0384155Y0216667D01*
X0389630Y0214455D01*
X0388155Y0210807D01*
G37*
G36*
X0345600Y0228034D02*
X0340125Y0230246D01*
X0341600Y0233894D01*
X0347075Y0231682D01*
X0345600Y0228034D01*
G37*
G36*
X0338819Y0230808D02*
X0333344Y0233020D01*
X0334819Y0236668D01*
X0340294Y0234456D01*
X0338819Y0230808D01*
G37*
G36*
X0334099Y0219127D02*
X0328624Y0221339D01*
X0330099Y0224987D01*
X0335574Y0222775D01*
X0334099Y0219127D01*
G37*
G36*
X0340881Y0216353D02*
X0335406Y0218565D01*
X0336881Y0222213D01*
X0342356Y0220001D01*
X0340881Y0216353D01*
G37*
G36*
X0337600Y0208033D02*
X0332125Y0210245D01*
X0333600Y0213893D01*
X0339075Y0211681D01*
X0337600Y0208033D01*
G37*
G36*
X0330818Y0210807D02*
X0325343Y0213019D01*
X0326818Y0216667D01*
X0332293Y0214455D01*
X0330818Y0210807D01*
G37*
G36*
X0326099Y0199126D02*
X0320624Y0201338D01*
X0322099Y0204986D01*
X0327574Y0202774D01*
X0326099Y0199126D01*
G37*
G36*
X0332880Y0196352D02*
X0327405Y0198564D01*
X0328880Y0202212D01*
X0334355Y0200000D01*
X0332880Y0196352D01*
G37*
G36*
X0329599Y0188032D02*
X0324124Y0190244D01*
X0325599Y0193892D01*
X0331074Y0191680D01*
X0329599Y0188032D01*
G37*
G36*
X0322818Y0190806D02*
X0317343Y0193018D01*
X0318818Y0196666D01*
X0324293Y0194454D01*
X0322818Y0190806D01*
G37*
G36*
X0318099Y0179125D02*
X0312624Y0181337D01*
X0314099Y0184985D01*
X0319574Y0182773D01*
X0318099Y0179125D01*
G37*
G36*
X0324880Y0176351D02*
X0319405Y0178563D01*
X0320880Y0182211D01*
X0326355Y0179999D01*
X0324880Y0176351D01*
G37*
G36*
X0304931Y0198033D02*
X0299456Y0200245D01*
X0300931Y0203893D01*
X0306406Y0201681D01*
X0304931Y0198033D01*
G37*
G36*
X0300212Y0186352D02*
X0294737Y0188564D01*
X0296212Y0192212D01*
X0301687Y0190000D01*
X0300212Y0186352D01*
G37*
G36*
X0308212Y0206353D02*
X0302737Y0208565D01*
X0304212Y0212213D01*
X0309687Y0210001D01*
X0308212Y0206353D01*
G37*
G36*
X0312932Y0218034D02*
X0307457Y0220246D01*
X0308932Y0223894D01*
X0314407Y0221682D01*
X0312932Y0218034D01*
G37*
G36*
X0316213Y0226354D02*
X0310738Y0228566D01*
X0312213Y0232214D01*
X0317688Y0230002D01*
X0316213Y0226354D01*
G37*
G36*
X0320932Y0238035D02*
X0315457Y0240247D01*
X0316932Y0243895D01*
X0322407Y0241683D01*
X0320932Y0238035D01*
G37*
X0232490Y0194475D03*
X0232490Y0181876D03*
X0213198Y0181876D03*
X0213198Y0194475D03*
D20*
X0213500Y0201638D03*
X0213500Y0206362D03*
X0233500Y0113362D03*
X0233500Y0108638D03*
X0313500Y0248138D03*
X0313500Y0252862D03*
X0381500Y0313138D03*
X0381500Y0317862D03*
X0431500Y0287862D03*
X0431500Y0283138D03*
X0206500Y0312138D03*
X0206500Y0316862D03*
X0188500Y0393138D03*
X0188500Y0397862D03*
D21*
X0195000Y0391539D03*
X0195000Y0316776D03*
D22*
X0421500Y0220945D03*
X0421500Y0214055D03*
X0433500Y0214055D03*
X0433500Y0220945D03*
D23*
X0394098Y0325945D03*
X0389768Y0325945D03*
X0385437Y0325945D03*
X0381106Y0325945D03*
X0376776Y0325945D03*
X0372445Y0325945D03*
X0368114Y0325945D03*
X0363783Y0325945D03*
D24*
X0359059Y0326437D03*
D25*
X0403744Y0326437D03*
D26*
X0357976Y0356358D03*
D27*
X0405024Y0358917D03*
D28*
X0359354Y0362264D03*
D29*
X0403449Y0368465D03*
D30*
X0110500Y0312500D03*
X0110500Y0302500D03*
X0110500Y0292500D03*
X0110500Y0282500D03*
X0100500Y0282500D03*
X0100500Y0292500D03*
X0100500Y0302500D03*
X0100500Y0312500D03*
D31*
G36*
X0485820Y0293317D02*
X0482317Y0295180D01*
X0484180Y0298683D01*
X0487683Y0296820D01*
X0485820Y0293317D01*
G37*
D32*
X0483348Y0290657D02*
X0483745Y0290260D01*
X0482489Y0289876D01*
X0481328Y0290493D01*
X0480944Y0291749D01*
X0481561Y0292910D01*
X0482817Y0293294D01*
X0483978Y0292677D01*
X0484362Y0291421D01*
X0483745Y0290260D01*
X0483335Y0290757D01*
X0482551Y0290517D01*
X0481825Y0290903D01*
X0481585Y0291687D01*
X0481971Y0292413D01*
X0482755Y0292653D01*
X0483481Y0292267D01*
X0483721Y0291483D01*
X0483335Y0290757D01*
X0482926Y0291254D01*
X0482612Y0291158D01*
X0482322Y0291312D01*
X0482226Y0291626D01*
X0482380Y0291916D01*
X0482694Y0292012D01*
X0482984Y0291858D01*
X0483080Y0291544D01*
X0482926Y0291254D01*
X0487762Y0288310D02*
X0488159Y0287913D01*
X0486903Y0287529D01*
X0485742Y0288146D01*
X0485358Y0289402D01*
X0485975Y0290563D01*
X0487231Y0290947D01*
X0488392Y0290330D01*
X0488776Y0289074D01*
X0488159Y0287913D01*
X0487749Y0288410D01*
X0486965Y0288170D01*
X0486239Y0288556D01*
X0485999Y0289340D01*
X0486385Y0290066D01*
X0487169Y0290306D01*
X0487895Y0289920D01*
X0488135Y0289136D01*
X0487749Y0288410D01*
X0487340Y0288907D01*
X0487026Y0288811D01*
X0486736Y0288965D01*
X0486640Y0289279D01*
X0486794Y0289569D01*
X0487108Y0289665D01*
X0487398Y0289511D01*
X0487494Y0289197D01*
X0487340Y0288907D01*
X0485415Y0283895D02*
X0485812Y0283498D01*
X0484556Y0283114D01*
X0483395Y0283731D01*
X0483011Y0284987D01*
X0483628Y0286148D01*
X0484884Y0286532D01*
X0486045Y0285915D01*
X0486429Y0284659D01*
X0485812Y0283498D01*
X0485402Y0283995D01*
X0484618Y0283755D01*
X0483892Y0284141D01*
X0483652Y0284925D01*
X0484038Y0285651D01*
X0484822Y0285891D01*
X0485548Y0285505D01*
X0485788Y0284721D01*
X0485402Y0283995D01*
X0484993Y0284492D01*
X0484679Y0284396D01*
X0484389Y0284550D01*
X0484293Y0284864D01*
X0484447Y0285154D01*
X0484761Y0285250D01*
X0485051Y0285096D01*
X0485147Y0284782D01*
X0484993Y0284492D01*
X0483068Y0279480D02*
X0483465Y0279083D01*
X0482209Y0278699D01*
X0481048Y0279316D01*
X0480664Y0280572D01*
X0481281Y0281733D01*
X0482537Y0282117D01*
X0483698Y0281500D01*
X0484082Y0280244D01*
X0483465Y0279083D01*
X0483055Y0279580D01*
X0482271Y0279340D01*
X0481545Y0279726D01*
X0481305Y0280510D01*
X0481691Y0281236D01*
X0482475Y0281476D01*
X0483201Y0281090D01*
X0483441Y0280306D01*
X0483055Y0279580D01*
X0482646Y0280077D01*
X0482332Y0279981D01*
X0482042Y0280135D01*
X0481946Y0280449D01*
X0482100Y0280739D01*
X0482414Y0280835D01*
X0482704Y0280681D01*
X0482800Y0280367D01*
X0482646Y0280077D01*
X0480720Y0275066D02*
X0481117Y0274669D01*
X0479861Y0274285D01*
X0478700Y0274902D01*
X0478316Y0276158D01*
X0478933Y0277319D01*
X0480189Y0277703D01*
X0481350Y0277086D01*
X0481734Y0275830D01*
X0481117Y0274669D01*
X0480707Y0275166D01*
X0479923Y0274926D01*
X0479197Y0275312D01*
X0478957Y0276096D01*
X0479343Y0276822D01*
X0480127Y0277062D01*
X0480853Y0276676D01*
X0481093Y0275892D01*
X0480707Y0275166D01*
X0480298Y0275663D01*
X0479984Y0275567D01*
X0479694Y0275721D01*
X0479598Y0276035D01*
X0479752Y0276325D01*
X0480066Y0276421D01*
X0480356Y0276267D01*
X0480452Y0275953D01*
X0480298Y0275663D01*
X0476306Y0277413D02*
X0476703Y0277016D01*
X0475447Y0276632D01*
X0474286Y0277249D01*
X0473902Y0278505D01*
X0474519Y0279666D01*
X0475775Y0280050D01*
X0476936Y0279433D01*
X0477320Y0278177D01*
X0476703Y0277016D01*
X0476293Y0277513D01*
X0475509Y0277273D01*
X0474783Y0277659D01*
X0474543Y0278443D01*
X0474929Y0279169D01*
X0475713Y0279409D01*
X0476439Y0279023D01*
X0476679Y0278239D01*
X0476293Y0277513D01*
X0475884Y0278010D01*
X0475570Y0277914D01*
X0475280Y0278068D01*
X0475184Y0278382D01*
X0475338Y0278672D01*
X0475652Y0278768D01*
X0475942Y0278614D01*
X0476038Y0278300D01*
X0475884Y0278010D01*
X0478653Y0281828D02*
X0479050Y0281431D01*
X0477794Y0281047D01*
X0476633Y0281664D01*
X0476249Y0282920D01*
X0476866Y0284081D01*
X0478122Y0284465D01*
X0479283Y0283848D01*
X0479667Y0282592D01*
X0479050Y0281431D01*
X0478640Y0281928D01*
X0477856Y0281688D01*
X0477130Y0282074D01*
X0476890Y0282858D01*
X0477276Y0283584D01*
X0478060Y0283824D01*
X0478786Y0283438D01*
X0479026Y0282654D01*
X0478640Y0281928D01*
X0478231Y0282425D01*
X0477917Y0282329D01*
X0477627Y0282483D01*
X0477531Y0282797D01*
X0477685Y0283087D01*
X0477999Y0283183D01*
X0478289Y0283029D01*
X0478385Y0282715D01*
X0478231Y0282425D01*
X0481000Y0286243D02*
X0481397Y0285846D01*
X0480141Y0285462D01*
X0478980Y0286079D01*
X0478596Y0287335D01*
X0479213Y0288496D01*
X0480469Y0288880D01*
X0481630Y0288263D01*
X0482014Y0287007D01*
X0481397Y0285846D01*
X0480987Y0286343D01*
X0480203Y0286103D01*
X0479477Y0286489D01*
X0479237Y0287273D01*
X0479623Y0287999D01*
X0480407Y0288239D01*
X0481133Y0287853D01*
X0481373Y0287069D01*
X0480987Y0286343D01*
X0480578Y0286840D01*
X0480264Y0286744D01*
X0479974Y0286898D01*
X0479878Y0287212D01*
X0480032Y0287502D01*
X0480346Y0287598D01*
X0480636Y0287444D01*
X0480732Y0287130D01*
X0480578Y0286840D01*
X0490110Y0292725D02*
X0490507Y0292328D01*
X0489251Y0291944D01*
X0488090Y0292561D01*
X0487706Y0293817D01*
X0488323Y0294978D01*
X0489579Y0295362D01*
X0490740Y0294745D01*
X0491124Y0293489D01*
X0490507Y0292328D01*
X0490097Y0292825D01*
X0489313Y0292585D01*
X0488587Y0292971D01*
X0488347Y0293755D01*
X0488733Y0294481D01*
X0489517Y0294721D01*
X0490243Y0294335D01*
X0490483Y0293551D01*
X0490097Y0292825D01*
X0489688Y0293322D01*
X0489374Y0293226D01*
X0489084Y0293380D01*
X0488988Y0293694D01*
X0489142Y0293984D01*
X0489456Y0294080D01*
X0489746Y0293926D01*
X0489842Y0293612D01*
X0489688Y0293322D01*
D33*
X0174000Y0155750D03*
X0174000Y0105750D03*
D34*
X0163500Y0112500D02*
X0163500Y0098000D01*
X0160500Y0098197D02*
X0151763Y0098197D01*
X0151874Y0098086D02*
X0151086Y0098874D01*
X0150057Y0099300D01*
X0149500Y0099300D01*
X0149500Y0105500D01*
X0148282Y0105500D01*
X0148282Y0105521D01*
X0147462Y0106341D01*
X0142168Y0106341D01*
X0141348Y0105521D01*
X0141348Y0105500D01*
X0137652Y0105500D01*
X0137652Y0105521D01*
X0136832Y0106341D01*
X0131538Y0106341D01*
X0130718Y0105521D01*
X0130718Y0104718D01*
X0128500Y0102500D01*
X0128500Y0096500D01*
X0119400Y0096500D01*
X0119400Y0106713D01*
X0121187Y0108500D01*
X0121748Y0108500D01*
X0121770Y0108478D01*
X0129230Y0108478D01*
X0129252Y0108500D01*
X0160500Y0108500D01*
X0160500Y0091187D01*
X0157813Y0088500D01*
X0149500Y0088500D01*
X0149500Y0093700D01*
X0150057Y0093700D01*
X0151086Y0094126D01*
X0151874Y0094914D01*
X0152300Y0095943D01*
X0152300Y0097057D01*
X0151874Y0098086D01*
X0152300Y0096999D02*
X0160500Y0096999D01*
X0160500Y0095800D02*
X0152241Y0095800D01*
X0151562Y0094602D02*
X0160500Y0094602D01*
X0160500Y0093403D02*
X0149500Y0093403D01*
X0149500Y0092205D02*
X0160500Y0092205D01*
X0160319Y0091006D02*
X0149500Y0091006D01*
X0149500Y0089808D02*
X0159121Y0089808D01*
X0157922Y0088609D02*
X0149500Y0088609D01*
X0149500Y0096500D02*
X0144846Y0096500D01*
X0149500Y0099396D02*
X0160500Y0099396D01*
X0160500Y0100594D02*
X0149500Y0100594D01*
X0149500Y0101793D02*
X0160500Y0101793D01*
X0160500Y0102991D02*
X0149500Y0102991D01*
X0149500Y0104190D02*
X0160500Y0104190D01*
X0160500Y0105388D02*
X0149500Y0105388D01*
X0148500Y0110500D02*
X0148500Y0111500D01*
X0146500Y0113500D01*
X0145500Y0113500D01*
X0141500Y0117500D01*
X0141500Y0128500D01*
X0131500Y0128500D01*
X0131500Y0116187D01*
X0132287Y0115400D01*
X0138287Y0115400D01*
X0139400Y0114287D01*
X0139400Y0114158D01*
X0140086Y0113874D01*
X0140460Y0113500D01*
X0140500Y0113500D01*
X0141500Y0112500D01*
X0141500Y0110500D01*
X0148500Y0110500D01*
X0148500Y0111381D02*
X0141500Y0111381D01*
X0141421Y0112579D02*
X0147421Y0112579D01*
X0149050Y0113778D02*
X0158000Y0113778D01*
X0158000Y0114976D02*
X0147852Y0114976D01*
X0147328Y0115500D02*
X0146328Y0115500D01*
X0145500Y0116328D01*
X0145500Y0128500D01*
X0158000Y0128500D01*
X0158000Y0111500D01*
X0150500Y0111500D01*
X0150500Y0112328D01*
X0148500Y0114328D01*
X0147328Y0115500D01*
X0145653Y0116175D02*
X0158000Y0116175D01*
X0158000Y0117373D02*
X0145500Y0117373D01*
X0145500Y0118572D02*
X0158000Y0118572D01*
X0158000Y0119770D02*
X0145500Y0119770D01*
X0146500Y0119770D02*
X0349770Y0119770D01*
X0349500Y0119500D02*
X0375946Y0145946D01*
X0376709Y0147833D01*
X0358500Y0155500D01*
X0351500Y0148500D01*
X0244281Y0148500D01*
X0243557Y0148200D01*
X0242443Y0148200D01*
X0241719Y0148500D01*
X0204500Y0148500D01*
X0204500Y0280500D01*
X0181500Y0280500D01*
X0181500Y0148500D01*
X0146500Y0148500D01*
X0146500Y0145460D01*
X0146874Y0145086D01*
X0147300Y0144057D01*
X0147300Y0142943D01*
X0146874Y0141914D01*
X0146500Y0141540D01*
X0146500Y0119500D01*
X0349500Y0119500D01*
X0350969Y0120969D02*
X0146500Y0120969D01*
X0145500Y0120969D02*
X0158000Y0120969D01*
X0158000Y0122168D02*
X0145500Y0122168D01*
X0146500Y0122168D02*
X0352168Y0122168D01*
X0353366Y0123366D02*
X0146500Y0123366D01*
X0145500Y0123366D02*
X0158000Y0123366D01*
X0158000Y0124565D02*
X0145500Y0124565D01*
X0146500Y0124565D02*
X0354565Y0124565D01*
X0355763Y0125763D02*
X0146500Y0125763D01*
X0145500Y0125763D02*
X0158000Y0125763D01*
X0158000Y0126962D02*
X0145500Y0126962D01*
X0146500Y0126962D02*
X0356962Y0126962D01*
X0358160Y0128160D02*
X0146500Y0128160D01*
X0145500Y0128160D02*
X0158000Y0128160D01*
X0146500Y0129359D02*
X0359359Y0129359D01*
X0360557Y0130557D02*
X0146500Y0130557D01*
X0146500Y0131756D02*
X0361756Y0131756D01*
X0362954Y0132954D02*
X0146500Y0132954D01*
X0146500Y0134153D02*
X0364153Y0134153D01*
X0365351Y0135351D02*
X0146500Y0135351D01*
X0146500Y0136550D02*
X0366550Y0136550D01*
X0367748Y0137748D02*
X0146500Y0137748D01*
X0146500Y0138947D02*
X0368947Y0138947D01*
X0370145Y0140145D02*
X0146500Y0140145D01*
X0146500Y0141344D02*
X0371344Y0141344D01*
X0372542Y0142542D02*
X0147134Y0142542D01*
X0147300Y0143741D02*
X0373741Y0143741D01*
X0374939Y0144939D02*
X0146935Y0144939D01*
X0146500Y0146138D02*
X0376024Y0146138D01*
X0376181Y0146526D02*
X0356880Y0154506D01*
X0356914Y0154520D01*
X0358439Y0158297D01*
X0357986Y0159364D01*
X0353534Y0161163D01*
X0352467Y0160710D01*
X0350951Y0156958D01*
X0332020Y0164785D01*
X0333439Y0168297D01*
X0332986Y0169364D01*
X0328534Y0171163D01*
X0327467Y0170710D01*
X0326067Y0167246D01*
X0311966Y0173077D01*
X0312086Y0173126D01*
X0312874Y0173914D01*
X0313300Y0174943D01*
X0313300Y0176057D01*
X0312874Y0177086D01*
X0312086Y0177874D01*
X0311057Y0178300D01*
X0309943Y0178300D01*
X0309509Y0178120D01*
X0309389Y0178173D01*
X0309439Y0178297D01*
X0308986Y0179364D01*
X0304534Y0181163D01*
X0303467Y0180710D01*
X0302041Y0177180D01*
X0279500Y0186500D01*
X0310018Y0257380D01*
X0313859Y0257380D01*
X0316500Y0256500D01*
X0333935Y0249640D01*
X0333935Y0244605D01*
X0334755Y0243785D01*
X0335375Y0243785D01*
X0335165Y0238039D01*
X0334805Y0238185D01*
X0333738Y0237731D01*
X0331828Y0233006D01*
X0332282Y0231938D01*
X0338832Y0229291D01*
X0339900Y0229745D01*
X0341809Y0234470D01*
X0341356Y0235538D01*
X0339109Y0236446D01*
X0339378Y0243785D01*
X0340245Y0243785D01*
X0341065Y0244605D01*
X0341065Y0246835D01*
X0346847Y0244560D01*
X0346837Y0244534D01*
X0347290Y0243467D01*
X0351067Y0241941D01*
X0352134Y0242394D01*
X0352164Y0242468D01*
X0352837Y0242204D01*
X0352914Y0242126D01*
X0353943Y0241700D01*
X0354117Y0241700D01*
X0371042Y0235041D01*
X0370837Y0234534D01*
X0371290Y0233467D01*
X0375067Y0231941D01*
X0376134Y0232394D01*
X0376282Y0232759D01*
X0376914Y0232126D01*
X0377943Y0231700D01*
X0379057Y0231700D01*
X0380086Y0232126D01*
X0380874Y0232914D01*
X0381300Y0233943D01*
X0381300Y0234055D01*
X0399500Y0241500D01*
X0412500Y0241500D01*
X0412500Y0231500D01*
X0413500Y0217500D01*
X0409594Y0207866D01*
X0408809Y0208183D01*
X0407741Y0207730D01*
X0406689Y0205126D01*
X0401179Y0204281D01*
X0401086Y0204374D01*
X0400057Y0204800D01*
X0398943Y0204800D01*
X0397914Y0204374D01*
X0397126Y0203586D01*
X0396700Y0202557D01*
X0396700Y0201443D01*
X0397126Y0200414D01*
X0397914Y0199626D01*
X0398943Y0199200D01*
X0400057Y0199200D01*
X0400370Y0199330D01*
X0400126Y0199086D01*
X0399700Y0198057D01*
X0399700Y0196943D01*
X0400126Y0195914D01*
X0400914Y0195126D01*
X0401943Y0194700D01*
X0402472Y0194700D01*
X0402475Y0194696D01*
X0401113Y0191323D01*
X0401566Y0190256D01*
X0402330Y0189947D01*
X0401501Y0187902D01*
X0400809Y0188182D01*
X0399980Y0187830D01*
X0399874Y0188086D01*
X0399086Y0188874D01*
X0398057Y0189300D01*
X0396943Y0189300D01*
X0395914Y0188874D01*
X0395126Y0188086D01*
X0394700Y0187057D01*
X0394700Y0185943D01*
X0395126Y0184914D01*
X0395914Y0184126D01*
X0396943Y0183700D01*
X0398057Y0183700D01*
X0398125Y0183728D01*
X0397832Y0183003D01*
X0398285Y0181936D01*
X0398970Y0181659D01*
X0397585Y0178243D01*
X0397300Y0178528D01*
X0397300Y0179057D01*
X0396874Y0180086D01*
X0396086Y0180874D01*
X0395057Y0181300D01*
X0393943Y0181300D01*
X0392914Y0180874D01*
X0392126Y0180086D01*
X0391700Y0179057D01*
X0391700Y0177943D01*
X0392126Y0176914D01*
X0392914Y0176126D01*
X0393943Y0175700D01*
X0394472Y0175700D01*
X0394763Y0175408D01*
X0393112Y0171322D01*
X0393565Y0170255D01*
X0394237Y0169983D01*
X0393408Y0167939D01*
X0392808Y0168181D01*
X0391980Y0167830D01*
X0391874Y0168086D01*
X0391086Y0168874D01*
X0390057Y0169300D01*
X0388943Y0169300D01*
X0387914Y0168874D01*
X0387126Y0168086D01*
X0386700Y0167057D01*
X0386700Y0165943D01*
X0387126Y0164914D01*
X0387914Y0164126D01*
X0388943Y0163700D01*
X0390057Y0163700D01*
X0390125Y0163728D01*
X0389831Y0163002D01*
X0390284Y0161935D01*
X0390877Y0161695D01*
X0388674Y0156263D01*
X0388089Y0156500D01*
X0387021Y0156047D01*
X0386956Y0155887D01*
X0386874Y0156086D01*
X0386086Y0156874D01*
X0385057Y0157300D01*
X0383943Y0157300D01*
X0382914Y0156874D01*
X0382126Y0156086D01*
X0381700Y0155057D01*
X0381700Y0153943D01*
X0382126Y0152914D01*
X0382914Y0152126D01*
X0383943Y0151700D01*
X0385057Y0151700D01*
X0385307Y0151803D01*
X0385112Y0151321D01*
X0385565Y0150254D01*
X0386143Y0150020D01*
X0385737Y0149018D01*
X0385057Y0149300D01*
X0383943Y0149300D01*
X0382914Y0148874D01*
X0382587Y0148546D01*
X0382533Y0148548D01*
X0378534Y0150163D01*
X0377467Y0149710D01*
X0376181Y0146526D01*
X0376508Y0147336D02*
X0146500Y0147336D01*
X0141500Y0128160D02*
X0131500Y0128160D01*
X0131500Y0126962D02*
X0141500Y0126962D01*
X0141500Y0125763D02*
X0131500Y0125763D01*
X0131500Y0124565D02*
X0141500Y0124565D01*
X0141500Y0123366D02*
X0131500Y0123366D01*
X0131500Y0122168D02*
X0141500Y0122168D01*
X0141500Y0120969D02*
X0131500Y0120969D01*
X0131500Y0119770D02*
X0141500Y0119770D01*
X0141500Y0118572D02*
X0131500Y0118572D01*
X0131500Y0117373D02*
X0141627Y0117373D01*
X0142825Y0116175D02*
X0131512Y0116175D01*
X0134185Y0111240D02*
X0138240Y0111240D01*
X0138500Y0111500D01*
X0140182Y0113778D02*
X0145222Y0113778D01*
X0144024Y0114976D02*
X0138711Y0114976D01*
X0150249Y0112579D02*
X0158000Y0112579D01*
X0161500Y0114500D02*
X0153563Y0114500D01*
X0153500Y0114437D01*
X0161500Y0114500D02*
X0163500Y0112500D01*
X0160500Y0107785D02*
X0120472Y0107785D01*
X0119400Y0106587D02*
X0160500Y0106587D01*
X0138500Y0096154D02*
X0138154Y0096500D01*
X0138000Y0096500D01*
X0134500Y0100000D01*
X0134500Y0103445D01*
X0134185Y0103760D01*
X0130718Y0105388D02*
X0119400Y0105388D01*
X0119400Y0104190D02*
X0130190Y0104190D01*
X0128991Y0102991D02*
X0119400Y0102991D01*
X0119400Y0101793D02*
X0128500Y0101793D01*
X0128500Y0100594D02*
X0119400Y0100594D01*
X0119400Y0099396D02*
X0128500Y0099396D01*
X0128500Y0098197D02*
X0119400Y0098197D01*
X0119400Y0096999D02*
X0128500Y0096999D01*
X0138500Y0096154D02*
X0138500Y0093000D01*
X0141000Y0090500D01*
X0141154Y0090500D01*
X0090500Y0123500D02*
X0090437Y0123500D01*
X0090169Y0123768D01*
X0090232Y0123768D01*
X0090500Y0123500D01*
X0090169Y0123768D02*
X0073831Y0123768D01*
X0073831Y0132232D02*
X0079232Y0132232D01*
X0082500Y0135500D01*
X0085768Y0132232D01*
X0090169Y0132232D01*
X0098831Y0143768D02*
X0115169Y0143768D01*
X0115169Y0152232D02*
X0110768Y0152232D01*
X0106500Y0156500D01*
X0102232Y0152232D01*
X0098831Y0152232D01*
X0090169Y0163768D02*
X0073831Y0163768D01*
X0073831Y0172232D02*
X0079232Y0172232D01*
X0082500Y0175500D01*
X0085768Y0172232D01*
X0090169Y0172232D01*
X0065169Y0152232D02*
X0061768Y0152232D01*
X0057500Y0156500D01*
X0053232Y0152232D01*
X0048831Y0152232D01*
X0048831Y0143768D02*
X0065169Y0143768D01*
X0181500Y0148535D02*
X0204500Y0148535D01*
X0204500Y0149733D02*
X0181500Y0149733D01*
X0181500Y0150932D02*
X0204500Y0150932D01*
X0204500Y0152130D02*
X0181500Y0152130D01*
X0181500Y0153329D02*
X0204500Y0153329D01*
X0204500Y0154527D02*
X0181500Y0154527D01*
X0181500Y0155726D02*
X0204500Y0155726D01*
X0204500Y0156924D02*
X0181500Y0156924D01*
X0181500Y0158123D02*
X0204500Y0158123D01*
X0204500Y0159321D02*
X0181500Y0159321D01*
X0181500Y0160520D02*
X0204500Y0160520D01*
X0204500Y0161718D02*
X0181500Y0161718D01*
X0181500Y0162917D02*
X0204500Y0162917D01*
X0204500Y0164115D02*
X0181500Y0164115D01*
X0181500Y0165314D02*
X0204500Y0165314D01*
X0204500Y0166512D02*
X0181500Y0166512D01*
X0181500Y0167711D02*
X0204500Y0167711D01*
X0204500Y0168909D02*
X0181500Y0168909D01*
X0181500Y0170108D02*
X0204500Y0170108D01*
X0204500Y0171306D02*
X0181500Y0171306D01*
X0181500Y0172505D02*
X0204500Y0172505D01*
X0204500Y0173703D02*
X0181500Y0173703D01*
X0181500Y0174902D02*
X0204500Y0174902D01*
X0204500Y0176101D02*
X0181500Y0176101D01*
X0181500Y0177299D02*
X0204500Y0177299D01*
X0204500Y0178498D02*
X0181500Y0178498D01*
X0181500Y0179696D02*
X0204500Y0179696D01*
X0204500Y0180895D02*
X0181500Y0180895D01*
X0181500Y0182093D02*
X0204500Y0182093D01*
X0204500Y0183292D02*
X0181500Y0183292D01*
X0181500Y0184490D02*
X0204500Y0184490D01*
X0204500Y0185689D02*
X0181500Y0185689D01*
X0181500Y0186887D02*
X0204500Y0186887D01*
X0204500Y0188086D02*
X0181500Y0188086D01*
X0181500Y0189284D02*
X0204500Y0189284D01*
X0204500Y0190483D02*
X0181500Y0190483D01*
X0181500Y0191681D02*
X0204500Y0191681D01*
X0204500Y0192880D02*
X0181500Y0192880D01*
X0181500Y0194078D02*
X0204500Y0194078D01*
X0204500Y0195277D02*
X0181500Y0195277D01*
X0181500Y0196475D02*
X0204500Y0196475D01*
X0204500Y0197674D02*
X0181500Y0197674D01*
X0181500Y0198872D02*
X0204500Y0198872D01*
X0204500Y0200071D02*
X0181500Y0200071D01*
X0181500Y0201269D02*
X0204500Y0201269D01*
X0204500Y0202468D02*
X0181500Y0202468D01*
X0181500Y0203666D02*
X0204500Y0203666D01*
X0204500Y0204865D02*
X0181500Y0204865D01*
X0181500Y0206063D02*
X0204500Y0206063D01*
X0204500Y0207262D02*
X0181500Y0207262D01*
X0181500Y0208460D02*
X0204500Y0208460D01*
X0204500Y0209659D02*
X0181500Y0209659D01*
X0181500Y0210857D02*
X0204500Y0210857D01*
X0204500Y0212056D02*
X0181500Y0212056D01*
X0181500Y0213254D02*
X0204500Y0213254D01*
X0204500Y0214453D02*
X0181500Y0214453D01*
X0181500Y0215651D02*
X0204500Y0215651D01*
X0204500Y0216850D02*
X0181500Y0216850D01*
X0181500Y0218048D02*
X0204500Y0218048D01*
X0204500Y0219247D02*
X0181500Y0219247D01*
X0181500Y0220445D02*
X0204500Y0220445D01*
X0204500Y0221644D02*
X0181500Y0221644D01*
X0181500Y0222842D02*
X0204500Y0222842D01*
X0204500Y0224041D02*
X0181500Y0224041D01*
X0181500Y0225239D02*
X0204500Y0225239D01*
X0204500Y0226438D02*
X0181500Y0226438D01*
X0181500Y0227637D02*
X0204500Y0227637D01*
X0204500Y0228835D02*
X0181500Y0228835D01*
X0181500Y0230034D02*
X0204500Y0230034D01*
X0204500Y0231232D02*
X0181500Y0231232D01*
X0181500Y0232431D02*
X0204500Y0232431D01*
X0204500Y0233629D02*
X0181500Y0233629D01*
X0181500Y0234828D02*
X0204500Y0234828D01*
X0204500Y0236026D02*
X0181500Y0236026D01*
X0181500Y0237225D02*
X0204500Y0237225D01*
X0204500Y0238423D02*
X0181500Y0238423D01*
X0181500Y0239622D02*
X0204500Y0239622D01*
X0204500Y0240820D02*
X0181500Y0240820D01*
X0181500Y0242019D02*
X0204500Y0242019D01*
X0204500Y0243217D02*
X0181500Y0243217D01*
X0181500Y0244416D02*
X0204500Y0244416D01*
X0204500Y0245614D02*
X0181500Y0245614D01*
X0181500Y0246813D02*
X0204500Y0246813D01*
X0204500Y0248011D02*
X0181500Y0248011D01*
X0181500Y0249210D02*
X0204500Y0249210D01*
X0204500Y0250408D02*
X0181500Y0250408D01*
X0181500Y0251607D02*
X0204500Y0251607D01*
X0204500Y0252805D02*
X0181500Y0252805D01*
X0181500Y0254004D02*
X0204500Y0254004D01*
X0204500Y0255202D02*
X0181500Y0255202D01*
X0181500Y0256401D02*
X0204500Y0256401D01*
X0204500Y0257599D02*
X0181500Y0257599D01*
X0181500Y0258798D02*
X0204500Y0258798D01*
X0204500Y0259996D02*
X0181500Y0259996D01*
X0181500Y0261195D02*
X0204500Y0261195D01*
X0204500Y0262393D02*
X0181500Y0262393D01*
X0181500Y0263592D02*
X0204500Y0263592D01*
X0204500Y0264790D02*
X0181500Y0264790D01*
X0181500Y0265989D02*
X0204500Y0265989D01*
X0204500Y0267187D02*
X0181500Y0267187D01*
X0181500Y0268386D02*
X0204500Y0268386D01*
X0204500Y0269584D02*
X0181500Y0269584D01*
X0181500Y0270783D02*
X0204500Y0270783D01*
X0204500Y0271981D02*
X0181500Y0271981D01*
X0181500Y0273180D02*
X0204500Y0273180D01*
X0204500Y0274378D02*
X0181500Y0274378D01*
X0181500Y0275577D02*
X0204500Y0275577D01*
X0204500Y0276775D02*
X0181500Y0276775D01*
X0181500Y0277974D02*
X0204500Y0277974D01*
X0204500Y0279172D02*
X0181500Y0279172D01*
X0181500Y0280371D02*
X0204500Y0280371D01*
X0213500Y0206362D02*
X0217638Y0206362D01*
X0218000Y0206000D01*
X0213500Y0201638D02*
X0213198Y0201336D01*
X0213198Y0194475D01*
X0213198Y0181876D02*
X0213198Y0177302D01*
X0216000Y0174500D01*
X0239500Y0174500D01*
X0243000Y0194500D02*
X0232515Y0194500D01*
X0232490Y0194475D01*
X0243000Y0151000D02*
X0343000Y0151000D01*
X0343500Y0151500D01*
X0345234Y0159321D02*
X0351906Y0159321D01*
X0351422Y0158123D02*
X0348133Y0158123D01*
X0352390Y0160520D02*
X0342336Y0160520D01*
X0339437Y0161718D02*
X0358899Y0161718D01*
X0358943Y0161700D02*
X0360057Y0161700D01*
X0360369Y0161829D01*
X0360602Y0161713D01*
X0360444Y0161322D01*
X0360897Y0160254D01*
X0367448Y0157607D01*
X0367597Y0157671D01*
X0367678Y0157480D01*
X0368500Y0157148D01*
X0368500Y0156460D01*
X0368126Y0156086D01*
X0367700Y0155057D01*
X0367700Y0153943D01*
X0368126Y0152914D01*
X0368914Y0152126D01*
X0369943Y0151700D01*
X0371057Y0151700D01*
X0372086Y0152126D01*
X0372874Y0152914D01*
X0373300Y0153943D01*
X0373300Y0155057D01*
X0373224Y0155240D01*
X0374229Y0154834D01*
X0375297Y0155287D01*
X0377206Y0160012D01*
X0376753Y0161080D01*
X0370202Y0163727D01*
X0370053Y0163663D01*
X0369972Y0163854D01*
X0363421Y0166500D01*
X0362353Y0166047D01*
X0362124Y0165481D01*
X0361874Y0166086D01*
X0361086Y0166874D01*
X0360057Y0167300D01*
X0358943Y0167300D01*
X0357914Y0166874D01*
X0357126Y0166086D01*
X0356700Y0165057D01*
X0356700Y0163943D01*
X0357126Y0162914D01*
X0357914Y0162126D01*
X0358943Y0161700D01*
X0360101Y0161718D02*
X0360591Y0161718D01*
X0360784Y0160520D02*
X0355126Y0160520D01*
X0354690Y0157615D02*
X0352500Y0153500D01*
X0353932Y0150932D02*
X0369350Y0150932D01*
X0368910Y0152130D02*
X0362627Y0152130D01*
X0363657Y0153329D02*
X0356329Y0153329D01*
X0356916Y0154527D02*
X0367700Y0154527D01*
X0367954Y0153329D02*
X0359728Y0153329D01*
X0360810Y0154527D02*
X0357527Y0154527D01*
X0357401Y0155726D02*
X0367977Y0155726D01*
X0368500Y0156924D02*
X0357885Y0156924D01*
X0358369Y0158123D02*
X0366172Y0158123D01*
X0363206Y0159321D02*
X0358005Y0159321D01*
X0357125Y0162917D02*
X0336538Y0162917D01*
X0333639Y0164115D02*
X0356700Y0164115D01*
X0356806Y0165314D02*
X0350640Y0165314D01*
X0350629Y0165287D02*
X0352538Y0170013D01*
X0352085Y0171080D01*
X0351341Y0171381D01*
X0351874Y0171914D01*
X0352300Y0172943D01*
X0352300Y0174057D01*
X0351874Y0175086D01*
X0351086Y0175874D01*
X0350057Y0176300D01*
X0348943Y0176300D01*
X0347914Y0175874D01*
X0347126Y0175086D01*
X0346700Y0174057D01*
X0346700Y0173256D01*
X0345534Y0173727D01*
X0345385Y0173664D01*
X0345304Y0173854D01*
X0338753Y0176501D01*
X0337685Y0176048D01*
X0337461Y0175491D01*
X0337054Y0175650D01*
X0336874Y0176086D01*
X0336086Y0176874D01*
X0335057Y0177300D01*
X0333943Y0177300D01*
X0332914Y0176874D01*
X0332126Y0176086D01*
X0331700Y0175057D01*
X0331700Y0173943D01*
X0332126Y0172914D01*
X0332914Y0172126D01*
X0333943Y0171700D01*
X0335057Y0171700D01*
X0335599Y0171924D01*
X0335962Y0171783D01*
X0335776Y0171322D01*
X0336229Y0170255D01*
X0342780Y0167608D01*
X0342930Y0167671D01*
X0343010Y0167481D01*
X0349561Y0164834D01*
X0350629Y0165287D01*
X0351124Y0166512D02*
X0357553Y0166512D01*
X0359500Y0164500D02*
X0365500Y0161500D01*
X0365434Y0162054D01*
X0366358Y0165314D02*
X0386961Y0165314D01*
X0386700Y0166512D02*
X0361447Y0166512D01*
X0365617Y0171935D02*
X0372167Y0169288D01*
X0373235Y0169742D01*
X0375144Y0174467D01*
X0374691Y0175535D01*
X0368140Y0178182D01*
X0367073Y0177728D01*
X0367048Y0177666D01*
X0366874Y0178086D01*
X0366086Y0178874D01*
X0365057Y0179300D01*
X0363943Y0179300D01*
X0362914Y0178874D01*
X0362126Y0178086D01*
X0361700Y0177057D01*
X0361700Y0175943D01*
X0362126Y0174914D01*
X0362914Y0174126D01*
X0363943Y0173700D01*
X0365057Y0173700D01*
X0365390Y0173838D01*
X0365483Y0173793D01*
X0365163Y0173003D01*
X0365617Y0171935D01*
X0365375Y0172505D02*
X0352119Y0172505D01*
X0352300Y0173703D02*
X0363935Y0173703D01*
X0365065Y0173703D02*
X0365447Y0173703D01*
X0364500Y0176500D02*
X0370154Y0173735D01*
X0370325Y0177299D02*
X0376130Y0177299D01*
X0375679Y0177481D02*
X0382230Y0174835D01*
X0383297Y0175288D01*
X0383486Y0175754D01*
X0383626Y0175414D01*
X0384414Y0174626D01*
X0385443Y0174200D01*
X0386557Y0174200D01*
X0387586Y0174626D01*
X0388374Y0175414D01*
X0388800Y0176443D01*
X0388800Y0177557D01*
X0388374Y0178586D01*
X0387586Y0179374D01*
X0386557Y0179800D01*
X0385443Y0179800D01*
X0385055Y0179639D01*
X0385207Y0180013D01*
X0384753Y0181081D01*
X0378202Y0183728D01*
X0378053Y0183664D01*
X0377972Y0183855D01*
X0372874Y0185915D01*
X0373300Y0186943D01*
X0373300Y0188057D01*
X0372874Y0189086D01*
X0372086Y0189874D01*
X0371057Y0190300D01*
X0369943Y0190300D01*
X0368914Y0189874D01*
X0368126Y0189086D01*
X0367700Y0188057D01*
X0367700Y0186943D01*
X0368126Y0185914D01*
X0368200Y0185840D01*
X0368200Y0184037D01*
X0369155Y0183082D01*
X0368444Y0181323D01*
X0368897Y0180255D01*
X0375448Y0177608D01*
X0375598Y0177672D01*
X0375679Y0177481D01*
X0373248Y0178498D02*
X0366462Y0178498D01*
X0368626Y0180895D02*
X0349033Y0180895D01*
X0348567Y0179742D02*
X0350476Y0184468D01*
X0350023Y0185535D01*
X0343472Y0188182D01*
X0342405Y0187729D01*
X0342280Y0187419D01*
X0342119Y0187493D01*
X0341874Y0188086D01*
X0341086Y0188874D01*
X0340057Y0189300D01*
X0338943Y0189300D01*
X0337914Y0188874D01*
X0337126Y0188086D01*
X0336700Y0187057D01*
X0336700Y0185943D01*
X0337126Y0184914D01*
X0337914Y0184126D01*
X0338943Y0183700D01*
X0340057Y0183700D01*
X0340445Y0183861D01*
X0340779Y0183706D01*
X0340495Y0183003D01*
X0340949Y0181936D01*
X0347499Y0179289D01*
X0348567Y0179742D01*
X0348459Y0179696D02*
X0370281Y0179696D01*
X0368756Y0182093D02*
X0349517Y0182093D01*
X0350001Y0183292D02*
X0368945Y0183292D01*
X0368200Y0184490D02*
X0350467Y0184490D01*
X0349644Y0185689D02*
X0355449Y0185689D01*
X0357562Y0184835D02*
X0351011Y0187482D01*
X0350930Y0187672D01*
X0350780Y0187609D01*
X0344230Y0190256D01*
X0343776Y0191323D01*
X0345141Y0194700D01*
X0344943Y0194700D01*
X0343914Y0195126D01*
X0343126Y0195914D01*
X0342700Y0196943D01*
X0342700Y0198057D01*
X0343126Y0199086D01*
X0343914Y0199874D01*
X0344943Y0200300D01*
X0346057Y0200300D01*
X0347086Y0199874D01*
X0347874Y0199086D01*
X0348300Y0198057D01*
X0348300Y0197528D01*
X0350767Y0195062D01*
X0350767Y0194880D01*
X0353304Y0193855D01*
X0353385Y0193665D01*
X0353535Y0193728D01*
X0356029Y0192720D01*
X0356700Y0193436D01*
X0356700Y0194057D01*
X0357126Y0195086D01*
X0357914Y0195874D01*
X0358943Y0196300D01*
X0360057Y0196300D01*
X0361086Y0195874D01*
X0361874Y0195086D01*
X0362300Y0194057D01*
X0362300Y0192943D01*
X0361874Y0191914D01*
X0361086Y0191126D01*
X0360219Y0190767D01*
X0360539Y0190014D01*
X0358629Y0185288D01*
X0357562Y0184835D01*
X0358791Y0185689D02*
X0368200Y0185689D01*
X0367723Y0186887D02*
X0359275Y0186887D01*
X0359760Y0188086D02*
X0367712Y0188086D01*
X0368324Y0189284D02*
X0360244Y0189284D01*
X0360340Y0190483D02*
X0377214Y0190483D01*
X0380168Y0189289D02*
X0373617Y0191936D01*
X0373164Y0193004D01*
X0373483Y0193793D01*
X0373391Y0193838D01*
X0373057Y0193700D01*
X0371943Y0193700D01*
X0370914Y0194126D01*
X0370126Y0194914D01*
X0369700Y0195943D01*
X0369700Y0197057D01*
X0370126Y0198086D01*
X0370914Y0198874D01*
X0371943Y0199300D01*
X0373057Y0199300D01*
X0374086Y0198874D01*
X0374874Y0198086D01*
X0375048Y0197666D01*
X0375073Y0197729D01*
X0376141Y0198183D01*
X0382692Y0195536D01*
X0383145Y0194468D01*
X0381235Y0189743D01*
X0380168Y0189289D01*
X0381534Y0190483D02*
X0401469Y0190483D01*
X0401257Y0191681D02*
X0382019Y0191681D01*
X0382503Y0192880D02*
X0401741Y0192880D01*
X0402226Y0194078D02*
X0382987Y0194078D01*
X0382802Y0195277D02*
X0389138Y0195277D01*
X0390230Y0194836D02*
X0391265Y0195275D01*
X0391914Y0194626D01*
X0392943Y0194200D01*
X0394057Y0194200D01*
X0395086Y0194626D01*
X0395874Y0195414D01*
X0396300Y0196443D01*
X0396300Y0197557D01*
X0395874Y0198586D01*
X0395086Y0199374D01*
X0394057Y0199800D01*
X0393120Y0199800D01*
X0393207Y0200014D01*
X0392754Y0201082D01*
X0386203Y0203729D01*
X0386053Y0203665D01*
X0385972Y0203856D01*
X0383435Y0204881D01*
X0383435Y0205393D01*
X0381300Y0207528D01*
X0381300Y0208057D01*
X0380874Y0209086D01*
X0380086Y0209874D01*
X0379057Y0210300D01*
X0377943Y0210300D01*
X0376914Y0209874D01*
X0376126Y0209086D01*
X0375700Y0208057D01*
X0375700Y0206943D01*
X0376126Y0205914D01*
X0376914Y0205126D01*
X0377828Y0204748D01*
X0376445Y0201324D01*
X0376898Y0200256D01*
X0383449Y0197609D01*
X0383598Y0197673D01*
X0383679Y0197482D01*
X0390230Y0194836D01*
X0393500Y0197000D02*
X0388216Y0199282D01*
X0389324Y0202468D02*
X0396700Y0202468D01*
X0396772Y0201269D02*
X0392290Y0201269D01*
X0393183Y0200071D02*
X0397469Y0200071D01*
X0395588Y0198872D02*
X0400038Y0198872D01*
X0399700Y0197674D02*
X0396252Y0197674D01*
X0396300Y0196475D02*
X0399894Y0196475D01*
X0400763Y0195277D02*
X0395736Y0195277D01*
X0396905Y0189284D02*
X0372676Y0189284D01*
X0373288Y0188086D02*
X0395126Y0188086D01*
X0394700Y0186887D02*
X0373277Y0186887D01*
X0373433Y0185689D02*
X0394805Y0185689D01*
X0395550Y0184490D02*
X0376400Y0184490D01*
X0379282Y0183292D02*
X0397948Y0183292D01*
X0398218Y0182093D02*
X0382248Y0182093D01*
X0384832Y0180895D02*
X0392964Y0180895D01*
X0391965Y0179696D02*
X0386808Y0179696D01*
X0385192Y0179696D02*
X0385078Y0179696D01*
X0386000Y0177000D02*
X0380216Y0179281D01*
X0379096Y0176101D02*
X0373291Y0176101D01*
X0374960Y0174902D02*
X0382063Y0174902D01*
X0382389Y0174902D02*
X0384138Y0174902D01*
X0387862Y0174902D02*
X0394559Y0174902D01*
X0394074Y0173703D02*
X0374836Y0173703D01*
X0374351Y0172505D02*
X0393590Y0172505D01*
X0393119Y0171306D02*
X0373867Y0171306D01*
X0373383Y0170108D02*
X0393928Y0170108D01*
X0393801Y0168909D02*
X0391000Y0168909D01*
X0389500Y0166500D02*
X0394822Y0163734D01*
X0390820Y0161718D02*
X0375173Y0161718D01*
X0376991Y0160520D02*
X0390400Y0160520D01*
X0389914Y0159321D02*
X0376927Y0159321D01*
X0376443Y0158123D02*
X0389428Y0158123D01*
X0388942Y0156924D02*
X0385964Y0156924D01*
X0384500Y0154500D02*
X0390102Y0152053D01*
X0386027Y0149733D02*
X0379598Y0149733D01*
X0377522Y0149733D02*
X0368424Y0149733D01*
X0366503Y0152130D02*
X0355130Y0152130D01*
X0352733Y0149733D02*
X0372196Y0149733D01*
X0371323Y0148535D02*
X0376992Y0148535D01*
X0376508Y0147336D02*
X0374222Y0147336D01*
X0375042Y0148535D02*
X0351535Y0148535D01*
X0365525Y0150932D02*
X0385277Y0150932D01*
X0382910Y0152130D02*
X0372090Y0152130D01*
X0373046Y0153329D02*
X0381954Y0153329D01*
X0381700Y0154527D02*
X0373300Y0154527D01*
X0375474Y0155726D02*
X0381977Y0155726D01*
X0383036Y0156924D02*
X0375958Y0156924D01*
X0372216Y0159280D02*
X0370500Y0157564D01*
X0370500Y0154500D01*
X0372206Y0162917D02*
X0389867Y0162917D01*
X0387940Y0164115D02*
X0369324Y0164115D01*
X0370139Y0170108D02*
X0352498Y0170108D01*
X0352092Y0168909D02*
X0388000Y0168909D01*
X0386971Y0167711D02*
X0351608Y0167711D01*
X0351526Y0171306D02*
X0367173Y0171306D01*
X0362138Y0174902D02*
X0351950Y0174902D01*
X0350539Y0176101D02*
X0361700Y0176101D01*
X0361800Y0177299D02*
X0335059Y0177299D01*
X0333941Y0177299D02*
X0326774Y0177299D01*
X0327258Y0178498D02*
X0362538Y0178498D01*
X0355548Y0189282D02*
X0359500Y0193500D01*
X0361641Y0191681D02*
X0374248Y0191681D01*
X0373216Y0192880D02*
X0362274Y0192880D01*
X0362291Y0194078D02*
X0371030Y0194078D01*
X0369976Y0195277D02*
X0361683Y0195277D01*
X0357317Y0195277D02*
X0350552Y0195277D01*
X0349353Y0196475D02*
X0369700Y0196475D01*
X0369955Y0197674D02*
X0348300Y0197674D01*
X0347962Y0198872D02*
X0370912Y0198872D01*
X0372500Y0196500D02*
X0378154Y0193736D01*
X0380366Y0196475D02*
X0386172Y0196475D01*
X0383289Y0197674D02*
X0377400Y0197674D01*
X0375051Y0197674D02*
X0375045Y0197674D01*
X0374088Y0198872D02*
X0380323Y0198872D01*
X0377357Y0200071D02*
X0356700Y0200071D01*
X0356567Y0199743D02*
X0358477Y0204469D01*
X0358024Y0205536D01*
X0351473Y0208183D01*
X0350405Y0207730D01*
X0350188Y0207192D01*
X0349059Y0207638D01*
X0348874Y0208086D01*
X0348086Y0208874D01*
X0347057Y0209300D01*
X0345943Y0209300D01*
X0344914Y0208874D01*
X0344126Y0208086D01*
X0343700Y0207057D01*
X0343700Y0205943D01*
X0344126Y0204914D01*
X0344914Y0204126D01*
X0345943Y0203700D01*
X0347057Y0203700D01*
X0347587Y0203919D01*
X0348689Y0203483D01*
X0348496Y0203004D01*
X0348949Y0201937D01*
X0355500Y0199290D01*
X0356567Y0199743D01*
X0357184Y0201269D02*
X0376468Y0201269D01*
X0376907Y0202468D02*
X0357668Y0202468D01*
X0358153Y0203666D02*
X0377391Y0203666D01*
X0377545Y0204865D02*
X0365630Y0204865D01*
X0365562Y0204836D02*
X0366630Y0205289D01*
X0368539Y0210015D01*
X0368086Y0211082D01*
X0367092Y0211484D01*
X0367262Y0211785D01*
X0368086Y0212126D01*
X0368874Y0212914D01*
X0369300Y0213943D01*
X0369300Y0215057D01*
X0368874Y0216086D01*
X0368086Y0216874D01*
X0367057Y0217300D01*
X0365943Y0217300D01*
X0364914Y0216874D01*
X0364126Y0216086D01*
X0363700Y0215057D01*
X0363700Y0213943D01*
X0363779Y0213752D01*
X0363351Y0212995D01*
X0361535Y0213729D01*
X0361385Y0213666D01*
X0361305Y0213856D01*
X0358767Y0214881D01*
X0358767Y0215061D01*
X0356300Y0217528D01*
X0356300Y0218057D01*
X0355874Y0219086D01*
X0355086Y0219874D01*
X0354057Y0220300D01*
X0352943Y0220300D01*
X0351914Y0219874D01*
X0351126Y0219086D01*
X0350700Y0218057D01*
X0350700Y0216943D01*
X0351126Y0215914D01*
X0351914Y0215126D01*
X0352943Y0214700D01*
X0353141Y0214700D01*
X0351777Y0211324D01*
X0352230Y0210257D01*
X0358781Y0207610D01*
X0358930Y0207673D01*
X0359011Y0207483D01*
X0365562Y0204836D01*
X0365491Y0204865D02*
X0358309Y0204865D01*
X0356719Y0206063D02*
X0362524Y0206063D01*
X0359558Y0207262D02*
X0353753Y0207262D01*
X0353709Y0209659D02*
X0331700Y0209659D01*
X0331900Y0209744D02*
X0333809Y0214469D01*
X0333356Y0215537D01*
X0332388Y0215928D01*
X0332874Y0216414D01*
X0333300Y0217443D01*
X0333300Y0217939D01*
X0334113Y0217610D01*
X0334262Y0217674D01*
X0334343Y0217483D01*
X0340894Y0214837D01*
X0341962Y0215290D01*
X0343871Y0220015D01*
X0343580Y0220700D01*
X0344057Y0220700D01*
X0345086Y0221126D01*
X0345874Y0221914D01*
X0346300Y0222943D01*
X0346300Y0224057D01*
X0345874Y0225086D01*
X0345086Y0225874D01*
X0344057Y0226300D01*
X0342943Y0226300D01*
X0341914Y0225874D01*
X0341126Y0225086D01*
X0340700Y0224057D01*
X0340700Y0223652D01*
X0339583Y0222632D01*
X0336867Y0223730D01*
X0336718Y0223666D01*
X0336637Y0223857D01*
X0333843Y0224986D01*
X0331300Y0227528D01*
X0331300Y0228057D01*
X0330874Y0229086D01*
X0330086Y0229874D01*
X0329057Y0230300D01*
X0327943Y0230300D01*
X0326914Y0229874D01*
X0326126Y0229086D01*
X0325700Y0228057D01*
X0325700Y0226943D01*
X0326126Y0225914D01*
X0326914Y0225126D01*
X0327943Y0224700D01*
X0328472Y0224700D01*
X0328472Y0224699D01*
X0327109Y0221325D01*
X0327562Y0220257D01*
X0328442Y0219902D01*
X0328126Y0219586D01*
X0327700Y0218557D01*
X0327700Y0217822D01*
X0326805Y0218184D01*
X0325737Y0217730D01*
X0323828Y0213005D01*
X0324281Y0211937D01*
X0330832Y0209290D01*
X0331900Y0209744D01*
X0332350Y0210857D02*
X0351975Y0210857D01*
X0352072Y0212056D02*
X0332834Y0212056D01*
X0333318Y0213254D02*
X0352557Y0213254D01*
X0353041Y0214453D02*
X0333802Y0214453D01*
X0333072Y0215651D02*
X0338877Y0215651D01*
X0335911Y0216850D02*
X0333054Y0216850D01*
X0330500Y0218000D02*
X0328818Y0213737D01*
X0326954Y0210857D02*
X0311437Y0210857D01*
X0311057Y0210700D02*
X0312086Y0211126D01*
X0312874Y0211914D01*
X0313300Y0212943D01*
X0313300Y0214057D01*
X0312874Y0215086D01*
X0312086Y0215874D01*
X0311057Y0216300D01*
X0309943Y0216300D01*
X0308914Y0215874D01*
X0308126Y0215086D01*
X0307700Y0214057D01*
X0307700Y0213551D01*
X0306809Y0212675D01*
X0304199Y0213729D01*
X0303131Y0213276D01*
X0301222Y0208550D01*
X0301675Y0207483D01*
X0308226Y0204836D01*
X0309294Y0205289D01*
X0311203Y0210015D01*
X0310912Y0210700D01*
X0311057Y0210700D01*
X0311059Y0209659D02*
X0318699Y0209659D01*
X0318914Y0209874D02*
X0318126Y0209086D01*
X0317700Y0208057D01*
X0317700Y0206943D01*
X0318126Y0205914D01*
X0318914Y0205126D01*
X0319943Y0204700D01*
X0320472Y0204700D01*
X0320472Y0204699D01*
X0319109Y0201324D01*
X0319562Y0200256D01*
X0321153Y0199613D01*
X0320626Y0199086D01*
X0320200Y0198057D01*
X0320200Y0197619D01*
X0318804Y0198183D01*
X0317737Y0197729D01*
X0315828Y0193004D01*
X0316281Y0191936D01*
X0322832Y0189289D01*
X0323899Y0189743D01*
X0325808Y0194468D01*
X0325355Y0195536D01*
X0325099Y0195639D01*
X0325374Y0195914D01*
X0325800Y0196943D01*
X0325800Y0197736D01*
X0326113Y0197609D01*
X0326262Y0197673D01*
X0326343Y0197482D01*
X0332894Y0194836D01*
X0333961Y0195289D01*
X0335871Y0200014D01*
X0335418Y0201082D01*
X0335150Y0201190D01*
X0335874Y0201914D01*
X0336300Y0202943D01*
X0336300Y0204057D01*
X0335874Y0205086D01*
X0335086Y0205874D01*
X0334057Y0206300D01*
X0332943Y0206300D01*
X0331914Y0205874D01*
X0331126Y0205086D01*
X0330700Y0204057D01*
X0330700Y0202988D01*
X0328867Y0203729D01*
X0328717Y0203665D01*
X0328636Y0203856D01*
X0325845Y0204984D01*
X0323300Y0207528D01*
X0323300Y0208057D01*
X0322874Y0209086D01*
X0322086Y0209874D01*
X0321057Y0210300D01*
X0319943Y0210300D01*
X0318914Y0209874D01*
X0317867Y0208460D02*
X0310575Y0208460D01*
X0310091Y0207262D02*
X0317700Y0207262D01*
X0318064Y0206063D02*
X0309606Y0206063D01*
X0308294Y0204865D02*
X0319545Y0204865D01*
X0320055Y0203666D02*
X0286891Y0203666D01*
X0286375Y0202468D02*
X0319571Y0202468D01*
X0319132Y0201269D02*
X0285859Y0201269D01*
X0285343Y0200071D02*
X0320020Y0200071D01*
X0320538Y0198872D02*
X0284827Y0198872D01*
X0284311Y0197674D02*
X0317714Y0197674D01*
X0317230Y0196475D02*
X0283795Y0196475D01*
X0283279Y0195277D02*
X0300317Y0195277D01*
X0300126Y0195086D02*
X0299700Y0194057D01*
X0299700Y0193551D01*
X0298808Y0192674D01*
X0296198Y0193728D01*
X0295131Y0193275D01*
X0293222Y0188549D01*
X0293675Y0187482D01*
X0300226Y0184835D01*
X0301293Y0185288D01*
X0303202Y0190014D01*
X0302911Y0190700D01*
X0303057Y0190700D01*
X0304086Y0191126D01*
X0304874Y0191914D01*
X0305300Y0192943D01*
X0305300Y0194057D01*
X0304874Y0195086D01*
X0304086Y0195874D01*
X0303057Y0196300D01*
X0301943Y0196300D01*
X0300914Y0195874D01*
X0300126Y0195086D01*
X0299709Y0194078D02*
X0282763Y0194078D01*
X0282247Y0192880D02*
X0294971Y0192880D01*
X0294487Y0191681D02*
X0281731Y0191681D01*
X0281215Y0190483D02*
X0294003Y0190483D01*
X0293518Y0189284D02*
X0280699Y0189284D01*
X0280183Y0188086D02*
X0293418Y0188086D01*
X0295146Y0186887D02*
X0279667Y0186887D01*
X0281462Y0185689D02*
X0298113Y0185689D01*
X0301455Y0185689D02*
X0306962Y0185689D01*
X0307126Y0186086D02*
X0306700Y0185057D01*
X0306700Y0183943D01*
X0307126Y0182914D01*
X0307914Y0182126D01*
X0308943Y0181700D01*
X0310057Y0181700D01*
X0310644Y0181943D01*
X0311266Y0181713D01*
X0311108Y0181323D01*
X0311561Y0180255D01*
X0318112Y0177608D01*
X0318262Y0177672D01*
X0318343Y0177481D01*
X0324893Y0174835D01*
X0325961Y0175288D01*
X0327870Y0180013D01*
X0327501Y0180884D01*
X0328086Y0181126D01*
X0328874Y0181914D01*
X0329300Y0182943D01*
X0329300Y0184057D01*
X0328874Y0185086D01*
X0328086Y0185874D01*
X0327057Y0186300D01*
X0325943Y0186300D01*
X0324914Y0185874D01*
X0324126Y0185086D01*
X0323700Y0184057D01*
X0323700Y0183308D01*
X0323238Y0182769D01*
X0320866Y0183728D01*
X0320717Y0183664D01*
X0320636Y0183855D01*
X0317847Y0184982D01*
X0316927Y0185901D01*
X0315570Y0185901D01*
X0314085Y0186501D01*
X0313017Y0186048D01*
X0312765Y0185423D01*
X0312037Y0185693D01*
X0311874Y0186086D01*
X0311086Y0186874D01*
X0310057Y0187300D01*
X0308943Y0187300D01*
X0307914Y0186874D01*
X0307126Y0186086D01*
X0307946Y0186887D02*
X0301939Y0186887D01*
X0302423Y0188086D02*
X0337126Y0188086D01*
X0336700Y0186887D02*
X0311054Y0186887D01*
X0312048Y0185689D02*
X0312872Y0185689D01*
X0309500Y0184500D02*
X0316099Y0182055D01*
X0316099Y0183901D01*
X0317140Y0185689D02*
X0324729Y0185689D01*
X0323879Y0184490D02*
X0319063Y0184490D01*
X0321946Y0183292D02*
X0323686Y0183292D01*
X0326500Y0183500D02*
X0322880Y0179281D01*
X0321760Y0176101D02*
X0313282Y0176101D01*
X0313283Y0174902D02*
X0324726Y0174902D01*
X0325052Y0174902D02*
X0331700Y0174902D01*
X0331799Y0173703D02*
X0312663Y0173703D01*
X0313348Y0172505D02*
X0332535Y0172505D01*
X0331146Y0170108D02*
X0336592Y0170108D01*
X0335783Y0171306D02*
X0316247Y0171306D01*
X0319146Y0170108D02*
X0327224Y0170108D01*
X0326739Y0168909D02*
X0322045Y0168909D01*
X0324943Y0167711D02*
X0326255Y0167711D01*
X0329690Y0167615D02*
X0327500Y0163500D01*
X0332234Y0165314D02*
X0348374Y0165314D01*
X0345407Y0166512D02*
X0332718Y0166512D01*
X0333203Y0167711D02*
X0342525Y0167711D01*
X0339558Y0168909D02*
X0333179Y0168909D01*
X0334500Y0174500D02*
X0340766Y0172054D01*
X0340766Y0173234D01*
X0342711Y0174902D02*
X0347050Y0174902D01*
X0346700Y0173703D02*
X0345593Y0173703D01*
X0345478Y0173703D02*
X0345368Y0173703D01*
X0348461Y0176101D02*
X0339744Y0176101D01*
X0337809Y0176101D02*
X0336859Y0176101D01*
X0332141Y0176101D02*
X0326289Y0176101D01*
X0327742Y0179696D02*
X0346492Y0179696D01*
X0343525Y0180895D02*
X0327527Y0180895D01*
X0328948Y0182093D02*
X0340882Y0182093D01*
X0340612Y0183292D02*
X0329300Y0183292D01*
X0329121Y0184490D02*
X0337550Y0184490D01*
X0336805Y0185689D02*
X0328271Y0185689D01*
X0324198Y0190483D02*
X0344133Y0190483D01*
X0343921Y0191681D02*
X0324682Y0191681D01*
X0325167Y0192880D02*
X0344405Y0192880D01*
X0344890Y0194078D02*
X0325651Y0194078D01*
X0325465Y0195277D02*
X0331802Y0195277D01*
X0333933Y0195277D02*
X0343763Y0195277D01*
X0342894Y0196475D02*
X0334441Y0196475D01*
X0334925Y0197674D02*
X0342700Y0197674D01*
X0343038Y0198872D02*
X0335409Y0198872D01*
X0335847Y0200071D02*
X0344390Y0200071D01*
X0346610Y0200071D02*
X0353567Y0200071D01*
X0350601Y0201269D02*
X0335229Y0201269D01*
X0336103Y0202468D02*
X0348724Y0202468D01*
X0348227Y0203666D02*
X0336300Y0203666D01*
X0335965Y0204865D02*
X0344175Y0204865D01*
X0343700Y0206063D02*
X0334628Y0206063D01*
X0332372Y0206063D02*
X0324765Y0206063D01*
X0323567Y0207262D02*
X0343785Y0207262D01*
X0344501Y0208460D02*
X0323133Y0208460D01*
X0322301Y0209659D02*
X0329920Y0209659D01*
X0331035Y0204865D02*
X0326139Y0204865D01*
X0324099Y0203901D02*
X0320500Y0207500D01*
X0324099Y0203901D02*
X0324099Y0202056D01*
X0323000Y0197500D02*
X0320818Y0193736D01*
X0319878Y0190483D02*
X0303003Y0190483D01*
X0302908Y0189284D02*
X0338905Y0189284D01*
X0340095Y0189284D02*
X0346634Y0189284D01*
X0346677Y0186887D02*
X0352483Y0186887D01*
X0349600Y0188086D02*
X0343711Y0188086D01*
X0343245Y0188086D02*
X0341874Y0188086D01*
X0339500Y0186500D02*
X0345486Y0183735D01*
X0348767Y0192055D02*
X0348767Y0194233D01*
X0345500Y0197500D01*
X0352752Y0194078D02*
X0356709Y0194078D01*
X0356178Y0192880D02*
X0355635Y0192880D01*
X0353486Y0203736D02*
X0346500Y0206500D01*
X0348499Y0208460D02*
X0356676Y0208460D01*
X0356767Y0212056D02*
X0356767Y0214233D01*
X0353500Y0217500D01*
X0351389Y0215651D02*
X0342108Y0215651D01*
X0342592Y0216850D02*
X0350739Y0216850D01*
X0350700Y0218048D02*
X0343076Y0218048D01*
X0343561Y0219247D02*
X0351287Y0219247D01*
X0355713Y0219247D02*
X0383700Y0219247D01*
X0383700Y0218943D02*
X0384034Y0218138D01*
X0383073Y0217730D01*
X0381164Y0213005D01*
X0381617Y0211937D01*
X0388168Y0209290D01*
X0389236Y0209744D01*
X0391145Y0214469D01*
X0390692Y0215537D01*
X0388323Y0216494D01*
X0388379Y0217419D01*
X0388874Y0217914D01*
X0389300Y0218943D01*
X0389300Y0220057D01*
X0388874Y0221086D01*
X0388086Y0221874D01*
X0387057Y0222300D01*
X0385943Y0222300D01*
X0384914Y0221874D01*
X0384126Y0221086D01*
X0383700Y0220057D01*
X0383700Y0218943D01*
X0383823Y0218048D02*
X0356300Y0218048D01*
X0356979Y0216850D02*
X0364890Y0216850D01*
X0363946Y0215651D02*
X0358177Y0215651D01*
X0359828Y0214453D02*
X0363700Y0214453D01*
X0363498Y0213254D02*
X0362710Y0213254D01*
X0366500Y0214500D02*
X0363549Y0209283D01*
X0367427Y0207262D02*
X0375700Y0207262D01*
X0375867Y0208460D02*
X0367911Y0208460D01*
X0368395Y0209659D02*
X0376699Y0209659D01*
X0378500Y0207500D02*
X0381435Y0204565D01*
X0381435Y0202056D01*
X0383475Y0204865D02*
X0404986Y0204865D01*
X0407068Y0206063D02*
X0382765Y0206063D01*
X0381567Y0207262D02*
X0407552Y0207262D01*
X0409835Y0208460D02*
X0381133Y0208460D01*
X0380301Y0209659D02*
X0387256Y0209659D01*
X0389036Y0209659D02*
X0410321Y0209659D01*
X0410807Y0210857D02*
X0389686Y0210857D01*
X0390170Y0212056D02*
X0411293Y0212056D01*
X0411779Y0213254D02*
X0390654Y0213254D01*
X0391138Y0214453D02*
X0412265Y0214453D01*
X0412751Y0215651D02*
X0390408Y0215651D01*
X0388345Y0216850D02*
X0413236Y0216850D01*
X0413461Y0218048D02*
X0388929Y0218048D01*
X0389300Y0219247D02*
X0413375Y0219247D01*
X0413290Y0220445D02*
X0389139Y0220445D01*
X0388316Y0221644D02*
X0413204Y0221644D01*
X0413118Y0222842D02*
X0406802Y0222842D01*
X0406874Y0222914D02*
X0407300Y0223943D01*
X0407300Y0225057D01*
X0406874Y0226086D01*
X0406086Y0226874D01*
X0405057Y0227300D01*
X0404528Y0227300D01*
X0404138Y0227690D01*
X0402575Y0227690D01*
X0402480Y0227914D01*
X0398703Y0229439D01*
X0397636Y0228986D01*
X0395837Y0224534D01*
X0396290Y0223467D01*
X0400067Y0221941D01*
X0401134Y0222394D01*
X0401658Y0223690D01*
X0401805Y0223690D01*
X0402126Y0222914D01*
X0402914Y0222126D01*
X0403943Y0221700D01*
X0405057Y0221700D01*
X0406086Y0222126D01*
X0406874Y0222914D01*
X0407300Y0224041D02*
X0413033Y0224041D01*
X0412947Y0225239D02*
X0407224Y0225239D01*
X0406522Y0226438D02*
X0412862Y0226438D01*
X0412776Y0227637D02*
X0404192Y0227637D01*
X0403310Y0225690D02*
X0399385Y0225690D01*
X0396606Y0226438D02*
X0363795Y0226438D01*
X0363487Y0226562D02*
X0363487Y0227527D01*
X0363874Y0227914D01*
X0364300Y0228943D01*
X0364300Y0230057D01*
X0363874Y0231086D01*
X0363086Y0231874D01*
X0362057Y0232300D01*
X0360943Y0232300D01*
X0359914Y0231874D01*
X0359126Y0231086D01*
X0358700Y0230057D01*
X0358700Y0228943D01*
X0359083Y0228018D01*
X0358406Y0227731D01*
X0356496Y0223005D01*
X0356949Y0221938D01*
X0363500Y0219291D01*
X0364568Y0219744D01*
X0366477Y0224470D01*
X0366024Y0225537D01*
X0363487Y0226562D01*
X0363596Y0227637D02*
X0397090Y0227637D01*
X0397574Y0228835D02*
X0364255Y0228835D01*
X0364300Y0230034D02*
X0412605Y0230034D01*
X0412519Y0231232D02*
X0363728Y0231232D01*
X0361500Y0229500D02*
X0361487Y0229487D01*
X0361487Y0223737D01*
X0360643Y0220445D02*
X0343689Y0220445D01*
X0345604Y0221644D02*
X0357676Y0221644D01*
X0356565Y0222842D02*
X0346258Y0222842D01*
X0346300Y0224041D02*
X0356915Y0224041D01*
X0357399Y0225239D02*
X0345720Y0225239D01*
X0343500Y0223500D02*
X0338881Y0219283D01*
X0339063Y0222842D02*
X0339813Y0222842D01*
X0340700Y0224041D02*
X0336181Y0224041D01*
X0333589Y0225239D02*
X0341280Y0225239D01*
X0340017Y0230034D02*
X0358700Y0230034D01*
X0358745Y0228835D02*
X0330978Y0228835D01*
X0331300Y0227637D02*
X0358367Y0227637D01*
X0357883Y0226438D02*
X0332390Y0226438D01*
X0332099Y0223901D02*
X0328500Y0227500D01*
X0325909Y0226438D02*
X0322798Y0226438D01*
X0322800Y0226443D02*
X0322800Y0227557D01*
X0322374Y0228586D01*
X0321586Y0229374D01*
X0320557Y0229800D01*
X0319443Y0229800D01*
X0319050Y0229637D01*
X0319203Y0230016D01*
X0318750Y0231083D01*
X0312199Y0233730D01*
X0311132Y0233277D01*
X0309222Y0228551D01*
X0309675Y0227484D01*
X0316226Y0224837D01*
X0317294Y0225290D01*
X0317483Y0225759D01*
X0317626Y0225414D01*
X0318414Y0224626D01*
X0319443Y0224200D01*
X0320557Y0224200D01*
X0321586Y0224626D01*
X0322374Y0225414D01*
X0322800Y0226443D01*
X0322767Y0227637D02*
X0325700Y0227637D01*
X0326022Y0228835D02*
X0322125Y0228835D01*
X0320000Y0227000D02*
X0314213Y0229284D01*
X0315416Y0232431D02*
X0332073Y0232431D01*
X0332080Y0233629D02*
X0312449Y0233629D01*
X0311961Y0233629D02*
X0309063Y0233629D01*
X0308874Y0234086D02*
X0308086Y0234874D01*
X0307057Y0235300D01*
X0305943Y0235300D01*
X0304914Y0234874D01*
X0304126Y0234086D01*
X0303700Y0233057D01*
X0303700Y0232438D01*
X0302636Y0231986D01*
X0300837Y0227534D01*
X0301290Y0226467D01*
X0305067Y0224941D01*
X0306134Y0225394D01*
X0307933Y0229846D01*
X0307855Y0230030D01*
X0308086Y0230126D01*
X0308874Y0230914D01*
X0309300Y0231943D01*
X0309300Y0233057D01*
X0308874Y0234086D01*
X0308132Y0234828D02*
X0332564Y0234828D01*
X0333049Y0236026D02*
X0300824Y0236026D01*
X0301340Y0237225D02*
X0333533Y0237225D01*
X0335179Y0238423D02*
X0301856Y0238423D01*
X0302372Y0239622D02*
X0335223Y0239622D01*
X0335267Y0240820D02*
X0302888Y0240820D01*
X0303404Y0242019D02*
X0335311Y0242019D01*
X0335355Y0243217D02*
X0303920Y0243217D01*
X0304436Y0244416D02*
X0334124Y0244416D01*
X0333935Y0245614D02*
X0304952Y0245614D01*
X0305468Y0246813D02*
X0333935Y0246813D01*
X0333935Y0248011D02*
X0305984Y0248011D01*
X0306500Y0249210D02*
X0333935Y0249210D01*
X0331983Y0250408D02*
X0319368Y0250408D01*
X0319086Y0250126D02*
X0319874Y0250914D01*
X0320300Y0251943D01*
X0320300Y0253057D01*
X0319874Y0254086D01*
X0319086Y0254874D01*
X0318057Y0255300D01*
X0316943Y0255300D01*
X0316357Y0255057D01*
X0316357Y0255263D01*
X0315537Y0256083D01*
X0311463Y0256083D01*
X0310643Y0255263D01*
X0310643Y0250461D01*
X0311463Y0249641D01*
X0315537Y0249641D01*
X0315990Y0250095D01*
X0316943Y0249700D01*
X0318057Y0249700D01*
X0319086Y0250126D01*
X0320161Y0251607D02*
X0328937Y0251607D01*
X0325891Y0252805D02*
X0320300Y0252805D01*
X0319908Y0254004D02*
X0322845Y0254004D01*
X0319798Y0255202D02*
X0318293Y0255202D01*
X0316707Y0255202D02*
X0316357Y0255202D01*
X0316752Y0256401D02*
X0309596Y0256401D01*
X0309080Y0255202D02*
X0310643Y0255202D01*
X0310643Y0254004D02*
X0308564Y0254004D01*
X0308048Y0252805D02*
X0310643Y0252805D01*
X0310643Y0251607D02*
X0307532Y0251607D01*
X0307016Y0250408D02*
X0310697Y0250408D01*
X0313500Y0252862D02*
X0317138Y0252862D01*
X0317500Y0252500D01*
X0310790Y0232431D02*
X0309300Y0232431D01*
X0309005Y0231232D02*
X0310305Y0231232D01*
X0309821Y0230034D02*
X0307862Y0230034D01*
X0307524Y0228835D02*
X0309337Y0228835D01*
X0309611Y0227637D02*
X0307040Y0227637D01*
X0306556Y0226438D02*
X0312264Y0226438D01*
X0315230Y0225239D02*
X0305770Y0225239D01*
X0304328Y0225239D02*
X0296179Y0225239D01*
X0295663Y0224041D02*
X0328206Y0224041D01*
X0327722Y0222842D02*
X0295147Y0222842D01*
X0294631Y0221644D02*
X0327238Y0221644D01*
X0327482Y0220445D02*
X0294115Y0220445D01*
X0293599Y0219247D02*
X0327986Y0219247D01*
X0327700Y0218048D02*
X0327139Y0218048D01*
X0326487Y0218048D02*
X0293083Y0218048D01*
X0292567Y0216850D02*
X0325382Y0216850D01*
X0324897Y0215651D02*
X0312308Y0215651D01*
X0313136Y0214453D02*
X0324413Y0214453D01*
X0323929Y0213254D02*
X0313300Y0213254D01*
X0312933Y0212056D02*
X0324231Y0212056D01*
X0328717Y0203666D02*
X0328720Y0203666D01*
X0329021Y0203666D02*
X0330700Y0203666D01*
X0333500Y0203500D02*
X0330880Y0199282D01*
X0328835Y0196475D02*
X0325606Y0196475D01*
X0325800Y0197674D02*
X0325953Y0197674D01*
X0320200Y0197674D02*
X0320064Y0197674D01*
X0316746Y0195277D02*
X0304683Y0195277D01*
X0305291Y0194078D02*
X0316262Y0194078D01*
X0315880Y0192880D02*
X0305274Y0192880D01*
X0304641Y0191681D02*
X0316912Y0191681D01*
X0311290Y0180895D02*
X0305199Y0180895D01*
X0303902Y0180895D02*
X0293057Y0180895D01*
X0290159Y0182093D02*
X0307994Y0182093D01*
X0306970Y0183292D02*
X0287260Y0183292D01*
X0284361Y0184490D02*
X0306700Y0184490D01*
X0308165Y0179696D02*
X0312945Y0179696D01*
X0312661Y0177299D02*
X0318794Y0177299D01*
X0315911Y0178498D02*
X0309354Y0178498D01*
X0310500Y0175500D02*
X0305690Y0177615D01*
X0302573Y0178498D02*
X0298855Y0178498D01*
X0301754Y0177299D02*
X0302089Y0177299D01*
X0303057Y0179696D02*
X0295956Y0179696D01*
X0298212Y0189282D02*
X0302500Y0193500D01*
X0299018Y0192880D02*
X0298298Y0192880D01*
X0298067Y0203941D02*
X0294290Y0205467D01*
X0293837Y0206534D01*
X0295636Y0210986D01*
X0296703Y0211439D01*
X0296827Y0211389D01*
X0296880Y0211509D01*
X0296700Y0211943D01*
X0296700Y0213057D01*
X0297126Y0214086D01*
X0297914Y0214874D01*
X0298943Y0215300D01*
X0300057Y0215300D01*
X0301086Y0214874D01*
X0301874Y0214086D01*
X0302300Y0213057D01*
X0302300Y0211943D01*
X0301874Y0210914D01*
X0301086Y0210126D01*
X0300542Y0209901D01*
X0300513Y0209835D01*
X0300933Y0208846D01*
X0299134Y0204394D01*
X0298067Y0203941D01*
X0299324Y0204865D02*
X0308155Y0204865D01*
X0305188Y0206063D02*
X0299809Y0206063D01*
X0300293Y0207262D02*
X0302222Y0207262D01*
X0301260Y0208460D02*
X0300777Y0208460D01*
X0300588Y0209659D02*
X0301670Y0209659D01*
X0301817Y0210857D02*
X0302154Y0210857D01*
X0302300Y0212056D02*
X0302638Y0212056D01*
X0302218Y0213254D02*
X0303122Y0213254D01*
X0301507Y0214453D02*
X0307864Y0214453D01*
X0307398Y0213254D02*
X0305374Y0213254D01*
X0306212Y0209283D02*
X0310500Y0213500D01*
X0308692Y0215651D02*
X0292051Y0215651D01*
X0291535Y0214453D02*
X0297493Y0214453D01*
X0296782Y0213254D02*
X0291019Y0213254D01*
X0290503Y0212056D02*
X0296700Y0212056D01*
X0295583Y0210857D02*
X0289987Y0210857D01*
X0289471Y0209659D02*
X0295099Y0209659D01*
X0294615Y0208460D02*
X0288955Y0208460D01*
X0288439Y0207262D02*
X0294131Y0207262D01*
X0294037Y0206063D02*
X0287923Y0206063D01*
X0287407Y0204865D02*
X0295780Y0204865D01*
X0297385Y0207690D02*
X0299500Y0212500D01*
X0301361Y0226438D02*
X0296696Y0226438D01*
X0297212Y0227637D02*
X0300878Y0227637D01*
X0301362Y0228835D02*
X0297728Y0228835D01*
X0298244Y0230034D02*
X0301847Y0230034D01*
X0302331Y0231232D02*
X0298760Y0231232D01*
X0299276Y0232431D02*
X0303682Y0232431D01*
X0303937Y0233629D02*
X0299792Y0233629D01*
X0300308Y0234828D02*
X0304868Y0234828D01*
X0306500Y0232500D02*
X0304385Y0228690D01*
X0317174Y0225239D02*
X0317801Y0225239D01*
X0322199Y0225239D02*
X0326801Y0225239D01*
X0327300Y0230034D02*
X0319196Y0230034D01*
X0318382Y0231232D02*
X0334029Y0231232D01*
X0336996Y0230034D02*
X0329700Y0230034D01*
X0332099Y0223901D02*
X0332099Y0222057D01*
X0340501Y0231232D02*
X0359272Y0231232D01*
X0365492Y0237225D02*
X0339138Y0237225D01*
X0339182Y0238423D02*
X0362445Y0238423D01*
X0359399Y0239622D02*
X0339225Y0239622D01*
X0339269Y0240820D02*
X0356353Y0240820D01*
X0353174Y0242019D02*
X0351250Y0242019D01*
X0350874Y0242019D02*
X0339313Y0242019D01*
X0339357Y0243217D02*
X0347908Y0243217D01*
X0346887Y0244416D02*
X0340876Y0244416D01*
X0341065Y0245614D02*
X0344168Y0245614D01*
X0341122Y0246813D02*
X0341065Y0246813D01*
X0337500Y0247154D02*
X0337000Y0233500D01*
X0336819Y0233738D01*
X0340148Y0236026D02*
X0368538Y0236026D01*
X0370955Y0234828D02*
X0341658Y0234828D01*
X0341469Y0233629D02*
X0371221Y0233629D01*
X0372615Y0231310D02*
X0368268Y0220964D01*
X0365335Y0221644D02*
X0384684Y0221644D01*
X0383861Y0220445D02*
X0364851Y0220445D01*
X0365820Y0222842D02*
X0397835Y0222842D01*
X0397615Y0221310D02*
X0392936Y0210963D01*
X0386155Y0213737D02*
X0386500Y0219500D01*
X0382718Y0216850D02*
X0368110Y0216850D01*
X0369054Y0215651D02*
X0382234Y0215651D01*
X0381749Y0214453D02*
X0369300Y0214453D01*
X0369015Y0213254D02*
X0381265Y0213254D01*
X0381567Y0212056D02*
X0367916Y0212056D01*
X0368181Y0210857D02*
X0384290Y0210857D01*
X0386053Y0203666D02*
X0386056Y0203666D01*
X0386357Y0203666D02*
X0397206Y0203666D01*
X0399500Y0202000D02*
X0410823Y0203736D01*
X0402500Y0197500D02*
X0406103Y0193897D01*
X0406103Y0192055D01*
X0402061Y0189284D02*
X0398095Y0189284D01*
X0399874Y0188086D02*
X0400581Y0188086D01*
X0401047Y0188086D02*
X0401575Y0188086D01*
X0397500Y0186500D02*
X0402822Y0183735D01*
X0398660Y0180895D02*
X0396036Y0180895D01*
X0397035Y0179696D02*
X0398174Y0179696D01*
X0397688Y0178498D02*
X0397331Y0178498D01*
X0394500Y0178500D02*
X0398103Y0174897D01*
X0398103Y0172054D01*
X0392976Y0176101D02*
X0388658Y0176101D01*
X0388800Y0177299D02*
X0391967Y0177299D01*
X0391700Y0178498D02*
X0388410Y0178498D01*
X0376064Y0206063D02*
X0366942Y0206063D01*
X0350216Y0207262D02*
X0350011Y0207262D01*
X0366304Y0224041D02*
X0396046Y0224041D01*
X0396122Y0225239D02*
X0366150Y0225239D01*
X0373855Y0232431D02*
X0340985Y0232431D01*
X0343600Y0230964D02*
X0343500Y0230000D01*
X0348615Y0241310D01*
X0350385Y0245690D02*
X0353310Y0245690D01*
X0354500Y0244500D01*
X0374385Y0235690D02*
X0377310Y0235690D01*
X0378500Y0234500D01*
X0380390Y0232431D02*
X0412500Y0232431D01*
X0412500Y0233629D02*
X0381170Y0233629D01*
X0383190Y0234828D02*
X0412500Y0234828D01*
X0412500Y0236026D02*
X0386119Y0236026D01*
X0389049Y0237225D02*
X0412500Y0237225D01*
X0412500Y0238423D02*
X0391979Y0238423D01*
X0394908Y0239622D02*
X0412500Y0239622D01*
X0412500Y0240820D02*
X0397838Y0240820D01*
X0400199Y0228835D02*
X0412690Y0228835D01*
X0404500Y0224500D02*
X0403310Y0225690D01*
X0402198Y0222842D02*
X0401315Y0222842D01*
X0376610Y0232431D02*
X0376149Y0232431D01*
X0431500Y0279000D02*
X0431500Y0283138D01*
X0430638Y0287000D02*
X0431500Y0287862D01*
X0405024Y0358917D02*
X0405024Y0359976D01*
X0404000Y0361000D01*
X0404000Y0367913D01*
X0403449Y0368465D01*
X0349500Y0173500D02*
X0347548Y0169281D01*
X0379690Y0146615D02*
X0384500Y0146500D01*
X0454500Y0154500D02*
X0454732Y0154732D01*
X0463831Y0154732D01*
X0471732Y0154732D01*
X0472000Y0155000D01*
X0472268Y0154732D01*
X0480169Y0154732D01*
X0480169Y0146268D02*
X0463831Y0146268D01*
X0459232Y0146268D01*
X0459000Y0146500D01*
X0250520Y0095567D02*
X0250453Y0095500D01*
X0241000Y0095500D01*
X0231976Y0100884D02*
X0231976Y0107114D01*
X0232431Y0107569D01*
X0233500Y0108638D01*
X0233500Y0113362D02*
X0237138Y0113362D01*
X0237500Y0113000D01*
X0247047Y0083457D02*
X0247047Y0079547D01*
X0246000Y0078500D01*
D35*
X0251512Y0081503D02*
X0251512Y0082170D01*
X0252179Y0085503D01*
X0254846Y0092837D01*
X0256179Y0096171D01*
X0256846Y0097504D01*
X0257754Y0098360D01*
X0259371Y0098785D01*
X0263035Y0098024D01*
X0269891Y0096118D01*
X0275177Y0094643D01*
X0278547Y0093546D01*
X0279030Y0092165D01*
X0278180Y0088837D01*
X0277655Y0086884D01*
X0277225Y0085262D01*
X0276847Y0083503D01*
X0276180Y0081503D01*
X0275513Y0079503D01*
X0275366Y0079356D01*
X0268463Y0079640D01*
X0265066Y0079739D01*
X0260253Y0080028D01*
X0253796Y0080548D01*
X0252368Y0080789D01*
X0251512Y0081503D01*
X0251634Y0081402D02*
X0276146Y0081402D01*
X0276479Y0082400D02*
X0251558Y0082400D01*
X0251758Y0083399D02*
X0276812Y0083399D01*
X0277039Y0084397D02*
X0251958Y0084397D01*
X0252157Y0085396D02*
X0277260Y0085396D01*
X0277525Y0086394D02*
X0252503Y0086394D01*
X0252866Y0087393D02*
X0277792Y0087393D01*
X0278060Y0088391D02*
X0253229Y0088391D01*
X0253592Y0089390D02*
X0278321Y0089390D01*
X0278577Y0090388D02*
X0253955Y0090388D01*
X0254318Y0091387D02*
X0278832Y0091387D01*
X0278953Y0092385D02*
X0254681Y0092385D01*
X0255064Y0093384D02*
X0278604Y0093384D01*
X0275978Y0094382D02*
X0255464Y0094382D01*
X0255863Y0095381D02*
X0272533Y0095381D01*
X0268951Y0096379D02*
X0256283Y0096379D01*
X0256783Y0097378D02*
X0265359Y0097378D01*
X0261337Y0098376D02*
X0257817Y0098376D01*
X0255592Y0080403D02*
X0275813Y0080403D01*
X0275415Y0079405D02*
X0274184Y0079405D01*
X0226660Y0098376D02*
X0204392Y0098376D01*
X0203993Y0097378D02*
X0226260Y0097378D01*
X0225861Y0096379D02*
X0203593Y0096379D01*
X0203510Y0096171D02*
X0203510Y0093504D01*
X0204176Y0092837D01*
X0208177Y0090837D01*
X0210177Y0090170D01*
X0211615Y0089645D01*
X0214177Y0089504D01*
X0215510Y0090170D01*
X0216844Y0091504D01*
X0218844Y0092837D01*
X0220177Y0093504D01*
X0222844Y0094171D01*
X0224844Y0094171D01*
X0225511Y0095504D01*
X0226844Y0098837D01*
X0228178Y0103504D01*
X0226177Y0108171D01*
X0224177Y0109505D01*
X0220177Y0110838D01*
X0213510Y0112838D01*
X0211510Y0112838D01*
X0210177Y0112172D01*
X0208843Y0110171D01*
X0207510Y0106838D01*
X0204843Y0099504D01*
X0203510Y0096171D01*
X0203510Y0095381D02*
X0225449Y0095381D01*
X0224950Y0094382D02*
X0203510Y0094382D01*
X0203630Y0093384D02*
X0219937Y0093384D01*
X0218166Y0092385D02*
X0205080Y0092385D01*
X0207077Y0091387D02*
X0216727Y0091387D01*
X0215728Y0090388D02*
X0209523Y0090388D01*
X0204791Y0099375D02*
X0226998Y0099375D01*
X0227283Y0100373D02*
X0205159Y0100373D01*
X0205522Y0101372D02*
X0227568Y0101372D01*
X0227854Y0102370D02*
X0205885Y0102370D01*
X0206248Y0103369D02*
X0228139Y0103369D01*
X0227808Y0104368D02*
X0206612Y0104368D01*
X0206975Y0105366D02*
X0227380Y0105366D01*
X0226952Y0106365D02*
X0207338Y0106365D01*
X0207720Y0107363D02*
X0226524Y0107363D01*
X0225892Y0108362D02*
X0208119Y0108362D01*
X0208519Y0109360D02*
X0224394Y0109360D01*
X0221616Y0110359D02*
X0208968Y0110359D01*
X0209634Y0111357D02*
X0218447Y0111357D01*
X0215119Y0112356D02*
X0210545Y0112356D01*
X0178500Y0110500D02*
X0178500Y0091500D01*
X0158500Y0071500D01*
X0156500Y0071500D01*
X0150500Y0077500D01*
X0148412Y0077500D01*
X0147748Y0077721D01*
X0147069Y0078003D01*
X0146904Y0078003D01*
X0146747Y0078055D01*
X0146014Y0078003D01*
X0144237Y0078003D01*
X0144081Y0078055D01*
X0143347Y0078003D01*
X0142612Y0078003D01*
X0142459Y0077940D01*
X0142295Y0077928D01*
X0141637Y0077599D01*
X0141397Y0077500D01*
X0123865Y0077500D01*
X0123222Y0079053D01*
X0121458Y0080817D01*
X0120500Y0081214D01*
X0120500Y0085500D01*
X0157500Y0085500D01*
X0166500Y0094500D01*
X0166500Y0108500D01*
X0168500Y0110500D01*
X0178500Y0110500D01*
X0178500Y0110359D02*
X0168359Y0110359D01*
X0167360Y0109360D02*
X0178500Y0109360D01*
X0178500Y0108362D02*
X0166500Y0108362D01*
X0166500Y0107363D02*
X0178500Y0107363D01*
X0178500Y0106365D02*
X0166500Y0106365D01*
X0166500Y0105366D02*
X0178500Y0105366D01*
X0178500Y0104368D02*
X0166500Y0104368D01*
X0166500Y0103369D02*
X0178500Y0103369D01*
X0178500Y0102370D02*
X0166500Y0102370D01*
X0166500Y0101372D02*
X0178500Y0101372D01*
X0178500Y0100373D02*
X0166500Y0100373D01*
X0166500Y0099375D02*
X0178500Y0099375D01*
X0178500Y0098376D02*
X0166500Y0098376D01*
X0166500Y0097378D02*
X0178500Y0097378D01*
X0178500Y0096379D02*
X0166500Y0096379D01*
X0166500Y0095381D02*
X0178500Y0095381D01*
X0178500Y0094382D02*
X0166382Y0094382D01*
X0165384Y0093384D02*
X0178500Y0093384D01*
X0178500Y0092385D02*
X0164385Y0092385D01*
X0163387Y0091387D02*
X0178387Y0091387D01*
X0177388Y0090388D02*
X0162388Y0090388D01*
X0161390Y0089390D02*
X0176390Y0089390D01*
X0175391Y0088391D02*
X0160391Y0088391D01*
X0159393Y0087393D02*
X0174393Y0087393D01*
X0173394Y0086394D02*
X0158394Y0086394D01*
X0164408Y0077408D02*
X0150592Y0077408D01*
X0151591Y0076409D02*
X0163409Y0076409D01*
X0162411Y0075411D02*
X0152589Y0075411D01*
X0153588Y0074412D02*
X0161412Y0074412D01*
X0160414Y0073414D02*
X0154586Y0073414D01*
X0155585Y0072415D02*
X0159415Y0072415D01*
X0165406Y0078406D02*
X0123490Y0078406D01*
X0122870Y0079405D02*
X0166405Y0079405D01*
X0167403Y0080403D02*
X0121872Y0080403D01*
X0120500Y0081402D02*
X0168402Y0081402D01*
X0169400Y0082400D02*
X0120500Y0082400D01*
X0120500Y0083399D02*
X0170399Y0083399D01*
X0171397Y0084397D02*
X0120500Y0084397D01*
X0120500Y0085396D02*
X0172396Y0085396D01*
X0144815Y0103760D02*
X0144760Y0103760D01*
X0142500Y0101500D01*
X0140500Y0101500D01*
X0139500Y0102500D01*
X0137500Y0110500D02*
X0120500Y0110500D01*
X0117500Y0107500D01*
X0117500Y0081772D01*
X0116658Y0081772D01*
X0114353Y0080817D01*
X0113036Y0079500D01*
X0110964Y0079500D01*
X0109647Y0080817D01*
X0107500Y0081706D01*
X0107500Y0109500D01*
X0113500Y0115500D01*
X0129500Y0115500D01*
X0131500Y0113500D01*
X0137500Y0113500D01*
X0137500Y0110500D01*
X0137500Y0111357D02*
X0109357Y0111357D01*
X0108359Y0110359D02*
X0120359Y0110359D01*
X0119360Y0109360D02*
X0107500Y0109360D01*
X0107500Y0108362D02*
X0118362Y0108362D01*
X0117500Y0107363D02*
X0107500Y0107363D01*
X0107500Y0106365D02*
X0117500Y0106365D01*
X0117500Y0105366D02*
X0107500Y0105366D01*
X0107500Y0104368D02*
X0117500Y0104368D01*
X0117500Y0103369D02*
X0107500Y0103369D01*
X0107500Y0102370D02*
X0117500Y0102370D01*
X0117500Y0101372D02*
X0107500Y0101372D01*
X0107500Y0100373D02*
X0117500Y0100373D01*
X0117500Y0099375D02*
X0107500Y0099375D01*
X0107500Y0098376D02*
X0117500Y0098376D01*
X0117500Y0097378D02*
X0107500Y0097378D01*
X0107500Y0096379D02*
X0117500Y0096379D01*
X0117500Y0095381D02*
X0107500Y0095381D01*
X0107500Y0094382D02*
X0117500Y0094382D01*
X0117500Y0093384D02*
X0107500Y0093384D01*
X0107500Y0092385D02*
X0117500Y0092385D01*
X0117500Y0091387D02*
X0107500Y0091387D01*
X0107500Y0090388D02*
X0117500Y0090388D01*
X0117500Y0089390D02*
X0107500Y0089390D01*
X0107500Y0088391D02*
X0117500Y0088391D01*
X0117500Y0087393D02*
X0107500Y0087393D01*
X0107500Y0086394D02*
X0117500Y0086394D01*
X0117500Y0085396D02*
X0107500Y0085396D01*
X0107500Y0084397D02*
X0117500Y0084397D01*
X0117500Y0083399D02*
X0107500Y0083399D01*
X0107500Y0082400D02*
X0117500Y0082400D01*
X0115765Y0081402D02*
X0108235Y0081402D01*
X0110061Y0080403D02*
X0113939Y0080403D01*
X0110356Y0112356D02*
X0137500Y0112356D01*
X0137500Y0113354D02*
X0111354Y0113354D01*
X0112353Y0114353D02*
X0130647Y0114353D01*
X0129649Y0115351D02*
X0113351Y0115351D01*
X0100500Y0133500D02*
X0090500Y0123500D01*
X0100500Y0133500D02*
X0141500Y0133500D01*
X0144500Y0143500D02*
X0115437Y0143500D01*
X0115169Y0143768D01*
X0097500Y0161500D02*
X0087500Y0151500D01*
X0072902Y0151500D01*
X0065169Y0143768D01*
X0090169Y0163768D02*
X0090902Y0164500D01*
X0131500Y0164500D01*
X0137500Y0161500D02*
X0097500Y0161500D01*
X0121500Y0239500D02*
X0126138Y0239500D01*
X0130862Y0239500D02*
X0132500Y0239500D01*
X0137500Y0244500D01*
X0137500Y0251500D01*
X0137500Y0256154D01*
X0131500Y0256154D02*
X0131500Y0251500D01*
X0131500Y0245138D01*
X0130862Y0244500D01*
X0126138Y0244500D02*
X0121500Y0244500D01*
X0131500Y0262846D02*
X0131500Y0267500D01*
X0137500Y0267500D02*
X0137500Y0262846D01*
X0143500Y0262846D02*
X0143500Y0267500D01*
X0149500Y0267500D02*
X0149500Y0262846D01*
X0149500Y0256154D02*
X0149500Y0251500D01*
X0149500Y0245138D01*
X0150138Y0244500D01*
X0154862Y0244500D02*
X0159500Y0244500D01*
X0159500Y0239500D02*
X0154862Y0239500D01*
X0150138Y0239500D02*
X0148500Y0239500D01*
X0143500Y0244500D01*
X0143500Y0251500D01*
X0143500Y0256154D01*
X0122500Y0286500D02*
X0116500Y0292500D01*
X0110500Y0292500D01*
X0114500Y0297500D02*
X0105500Y0297500D01*
X0100500Y0302500D01*
X0110500Y0302500D02*
X0112500Y0302500D01*
X0124500Y0290500D01*
X0388500Y0290500D01*
X0391500Y0293500D01*
X0407500Y0293500D01*
X0420500Y0306500D01*
X0430500Y0306500D01*
X0431850Y0305150D01*
X0433238Y0305150D01*
X0431205Y0301795D02*
X0428500Y0304500D01*
X0421500Y0304500D01*
X0400500Y0283500D01*
X0351500Y0283500D01*
X0347500Y0280500D02*
X0343500Y0284500D01*
X0279500Y0284500D01*
X0278500Y0283500D01*
X0279500Y0302500D02*
X0156500Y0302500D01*
X0154500Y0304500D01*
X0138500Y0304500D01*
X0131500Y0297500D01*
X0130500Y0294500D02*
X0126500Y0298500D01*
X0121500Y0298500D01*
X0125500Y0295500D02*
X0128500Y0292500D01*
X0386500Y0292500D01*
X0390500Y0296500D01*
X0396500Y0296500D01*
X0399500Y0299500D02*
X0390500Y0299500D01*
X0385500Y0294500D01*
X0130500Y0294500D01*
X0137500Y0297500D02*
X0142500Y0302500D01*
X0153500Y0302500D01*
X0155500Y0300500D01*
X0382500Y0300500D01*
X0387500Y0305500D01*
X0409500Y0305500D01*
X0420621Y0316621D01*
X0439337Y0316621D01*
X0441449Y0313046D02*
X0445954Y0313046D01*
X0446000Y0313000D01*
X0443483Y0316870D02*
X0456630Y0316870D01*
X0458000Y0315500D01*
X0460039Y0318049D02*
X0465358Y0318049D01*
X0466468Y0316910D02*
X0466878Y0316500D01*
X0469500Y0316500D01*
X0475500Y0313500D01*
X0476027Y0311827D01*
X0479500Y0309500D01*
X0476500Y0311500D02*
X0476075Y0312351D01*
X0467267Y0317034D01*
X0466500Y0315500D01*
X0467434Y0314981D01*
X0467963Y0315200D01*
X0469037Y0315200D01*
X0470029Y0314789D01*
X0470766Y0314053D01*
X0471610Y0314311D01*
X0474299Y0312881D01*
X0474614Y0311851D01*
X0474261Y0311188D01*
X0475500Y0310500D01*
X0476500Y0311500D01*
X0476059Y0311059D02*
X0474493Y0311059D01*
X0474551Y0312058D02*
X0476221Y0312058D01*
X0474747Y0313056D02*
X0473969Y0313056D01*
X0472869Y0314055D02*
X0472091Y0314055D01*
X0470773Y0314055D02*
X0470763Y0314055D01*
X0470991Y0315053D02*
X0469391Y0315053D01*
X0469113Y0316052D02*
X0466776Y0316052D01*
X0466708Y0316052D02*
X0463534Y0316052D01*
X0464500Y0315500D02*
X0457500Y0319500D01*
X0443401Y0319500D01*
X0443210Y0319601D01*
X0442879Y0319500D01*
X0432500Y0319500D01*
X0432500Y0323500D01*
X0433000Y0330500D01*
X0438309Y0332431D01*
X0468344Y0316461D01*
X0464500Y0315500D01*
X0467304Y0315053D02*
X0467609Y0315053D01*
X0467236Y0317050D02*
X0461787Y0317050D01*
X0463480Y0319047D02*
X0458292Y0319047D01*
X0459724Y0321044D02*
X0432500Y0321044D01*
X0432500Y0320046D02*
X0461602Y0320046D01*
X0457846Y0322043D02*
X0432500Y0322043D01*
X0432500Y0323041D02*
X0455968Y0323041D01*
X0454090Y0324040D02*
X0432539Y0324040D01*
X0432610Y0325039D02*
X0452212Y0325039D01*
X0450334Y0326037D02*
X0432681Y0326037D01*
X0432753Y0327036D02*
X0448456Y0327036D01*
X0446578Y0328034D02*
X0432824Y0328034D01*
X0432895Y0329033D02*
X0444700Y0329033D01*
X0442822Y0330031D02*
X0432966Y0330031D01*
X0434456Y0331030D02*
X0440945Y0331030D01*
X0439067Y0332028D02*
X0437202Y0332028D01*
X0419500Y0319500D02*
X0419500Y0318500D01*
X0408500Y0307500D01*
X0386500Y0307500D01*
X0381500Y0302500D01*
X0290500Y0302500D01*
X0288500Y0304500D01*
X0287500Y0304500D01*
X0284500Y0307500D02*
X0279500Y0302500D01*
X0284500Y0307500D02*
X0290500Y0307500D01*
X0293500Y0304500D01*
X0380500Y0304500D01*
X0385500Y0309500D01*
X0407500Y0309500D01*
X0416500Y0318500D01*
X0416500Y0322500D01*
X0411500Y0322043D02*
X0400500Y0322043D01*
X0400500Y0323041D02*
X0411500Y0323041D01*
X0411500Y0324040D02*
X0400500Y0324040D01*
X0400500Y0325039D02*
X0411500Y0325039D01*
X0411500Y0326037D02*
X0400500Y0326037D01*
X0400500Y0327036D02*
X0411500Y0327036D01*
X0411500Y0328034D02*
X0400500Y0328034D01*
X0400500Y0329033D02*
X0411500Y0329033D01*
X0411500Y0330031D02*
X0400500Y0330031D01*
X0400500Y0331030D02*
X0411500Y0331030D01*
X0411500Y0332028D02*
X0400500Y0332028D01*
X0400500Y0333027D02*
X0411500Y0333027D01*
X0411500Y0334025D02*
X0400500Y0334025D01*
X0400500Y0335024D02*
X0411500Y0335024D01*
X0411500Y0336022D02*
X0400500Y0336022D01*
X0400500Y0337021D02*
X0411500Y0337021D01*
X0411500Y0338019D02*
X0400500Y0338019D01*
X0400500Y0339018D02*
X0411500Y0339018D01*
X0411500Y0340016D02*
X0400500Y0340016D01*
X0400500Y0341015D02*
X0411500Y0341015D01*
X0411500Y0342013D02*
X0400500Y0342013D01*
X0400500Y0343012D02*
X0411500Y0343012D01*
X0411500Y0344010D02*
X0400500Y0344010D01*
X0400500Y0345009D02*
X0411500Y0345009D01*
X0411500Y0346007D02*
X0400500Y0346007D01*
X0400500Y0347006D02*
X0410898Y0347006D01*
X0411500Y0346686D02*
X0411500Y0316046D01*
X0406754Y0311300D01*
X0384754Y0311300D01*
X0381954Y0308500D01*
X0359318Y0308500D01*
X0359789Y0308971D01*
X0360200Y0309963D01*
X0360200Y0311037D01*
X0359789Y0312029D01*
X0359029Y0312789D01*
X0358037Y0313200D01*
X0356963Y0313200D01*
X0355971Y0312789D01*
X0355482Y0312300D01*
X0351500Y0312300D01*
X0351500Y0359500D01*
X0355457Y0359500D01*
X0355962Y0358995D01*
X0361500Y0358995D01*
X0361500Y0330323D01*
X0361106Y0329928D01*
X0361106Y0321962D01*
X0361500Y0321567D01*
X0361500Y0315500D01*
X0378746Y0315500D01*
X0379505Y0314741D01*
X0383495Y0314741D01*
X0384254Y0315500D01*
X0400500Y0315500D01*
X0400500Y0361500D01*
X0411500Y0361500D01*
X0411500Y0353385D01*
X0408860Y0348421D01*
X0408981Y0348025D01*
X0411500Y0346686D01*
X0409020Y0348004D02*
X0400500Y0348004D01*
X0400500Y0349003D02*
X0409170Y0349003D01*
X0409701Y0350001D02*
X0400500Y0350001D01*
X0400500Y0351000D02*
X0410232Y0351000D01*
X0410763Y0351998D02*
X0400500Y0351998D01*
X0400500Y0352997D02*
X0411294Y0352997D01*
X0411500Y0353995D02*
X0400500Y0353995D01*
X0400500Y0354994D02*
X0411500Y0354994D01*
X0411500Y0355992D02*
X0400500Y0355992D01*
X0400500Y0356991D02*
X0411500Y0356991D01*
X0411500Y0357989D02*
X0400500Y0357989D01*
X0400500Y0358988D02*
X0411500Y0358988D01*
X0411500Y0359986D02*
X0400500Y0359986D01*
X0400500Y0360985D02*
X0411500Y0360985D01*
X0390000Y0336500D02*
X0393000Y0333500D01*
X0390000Y0336500D02*
X0382000Y0336500D01*
X0377000Y0331500D01*
X0377000Y0326169D01*
X0376776Y0325945D01*
X0381106Y0325945D02*
X0381106Y0318256D01*
X0381500Y0317862D01*
X0383862Y0317862D01*
X0385500Y0319500D01*
X0390000Y0319000D02*
X0390000Y0325713D01*
X0389768Y0325945D01*
X0385500Y0326008D02*
X0385500Y0333500D01*
X0385500Y0326008D02*
X0385437Y0325945D01*
X0383807Y0315053D02*
X0410508Y0315053D01*
X0411500Y0316052D02*
X0400500Y0316052D01*
X0400500Y0317050D02*
X0411500Y0317050D01*
X0411500Y0318049D02*
X0400500Y0318049D01*
X0400500Y0319047D02*
X0411500Y0319047D01*
X0411500Y0320046D02*
X0400500Y0320046D01*
X0400500Y0321044D02*
X0411500Y0321044D01*
X0409509Y0314055D02*
X0351500Y0314055D01*
X0351500Y0315053D02*
X0379193Y0315053D01*
X0383515Y0310061D02*
X0360200Y0310061D01*
X0360191Y0311059D02*
X0384514Y0311059D01*
X0382517Y0309062D02*
X0359827Y0309062D01*
X0357500Y0310500D02*
X0278500Y0310500D01*
X0283500Y0315500D02*
X0348500Y0315500D01*
X0351500Y0316052D02*
X0361500Y0316052D01*
X0361500Y0317050D02*
X0351500Y0317050D01*
X0351500Y0318049D02*
X0361500Y0318049D01*
X0361500Y0319047D02*
X0351500Y0319047D01*
X0351500Y0320046D02*
X0361500Y0320046D01*
X0361500Y0321044D02*
X0351500Y0321044D01*
X0351500Y0322043D02*
X0361106Y0322043D01*
X0361106Y0323041D02*
X0351500Y0323041D01*
X0351500Y0324040D02*
X0361106Y0324040D01*
X0361106Y0325039D02*
X0351500Y0325039D01*
X0351500Y0326037D02*
X0361106Y0326037D01*
X0361106Y0327036D02*
X0351500Y0327036D01*
X0351500Y0328034D02*
X0361106Y0328034D01*
X0361106Y0329033D02*
X0351500Y0329033D01*
X0351500Y0330031D02*
X0361208Y0330031D01*
X0361500Y0331030D02*
X0351500Y0331030D01*
X0351500Y0332028D02*
X0361500Y0332028D01*
X0361500Y0333027D02*
X0351500Y0333027D01*
X0351500Y0334025D02*
X0361500Y0334025D01*
X0361500Y0335024D02*
X0351500Y0335024D01*
X0351500Y0336022D02*
X0361500Y0336022D01*
X0361500Y0337021D02*
X0351500Y0337021D01*
X0351500Y0338019D02*
X0361500Y0338019D01*
X0361500Y0339018D02*
X0351500Y0339018D01*
X0351500Y0340016D02*
X0361500Y0340016D01*
X0361500Y0341015D02*
X0351500Y0341015D01*
X0351500Y0342013D02*
X0361500Y0342013D01*
X0361500Y0343012D02*
X0351500Y0343012D01*
X0351500Y0344010D02*
X0361500Y0344010D01*
X0361500Y0345009D02*
X0351500Y0345009D01*
X0351500Y0346007D02*
X0361500Y0346007D01*
X0361500Y0347006D02*
X0351500Y0347006D01*
X0351500Y0348004D02*
X0361500Y0348004D01*
X0361500Y0349003D02*
X0351500Y0349003D01*
X0351500Y0350001D02*
X0361500Y0350001D01*
X0361500Y0351000D02*
X0351500Y0351000D01*
X0351500Y0351998D02*
X0361500Y0351998D01*
X0361500Y0352997D02*
X0351500Y0352997D01*
X0351500Y0353995D02*
X0361500Y0353995D01*
X0361500Y0354994D02*
X0351500Y0354994D01*
X0351500Y0355992D02*
X0361500Y0355992D01*
X0361500Y0356991D02*
X0351500Y0356991D01*
X0351500Y0357989D02*
X0361500Y0357989D01*
X0361500Y0358988D02*
X0351500Y0358988D01*
X0359354Y0362264D02*
X0359591Y0362500D01*
X0364500Y0362500D01*
X0368500Y0378500D02*
X0352500Y0378500D01*
X0339461Y0391539D01*
X0208807Y0391539D01*
X0201846Y0398500D01*
X0281500Y0321500D02*
X0348500Y0321500D01*
X0351500Y0313056D02*
X0356616Y0313056D01*
X0358384Y0313056D02*
X0408511Y0313056D01*
X0407512Y0312058D02*
X0359760Y0312058D01*
X0368114Y0325945D02*
X0368000Y0326059D01*
X0368000Y0332500D01*
X0388500Y0303500D02*
X0383500Y0298500D01*
X0153500Y0298500D01*
X0151500Y0300500D01*
X0146500Y0300500D01*
X0143500Y0297500D01*
X0149500Y0297500D02*
X0150500Y0296500D01*
X0384500Y0296500D01*
X0389500Y0301500D01*
X0400500Y0301500D01*
X0403500Y0298500D01*
X0405500Y0298500D01*
X0406500Y0295500D02*
X0403500Y0295500D01*
X0399500Y0299500D01*
X0406500Y0295500D02*
X0419974Y0308974D01*
X0435271Y0308974D01*
X0439416Y0309222D02*
X0442778Y0309222D01*
X0443500Y0309000D01*
X0446000Y0305500D02*
X0445898Y0305398D01*
X0437383Y0305398D01*
X0439500Y0303000D02*
X0438074Y0301574D01*
X0435350Y0301574D01*
X0436980Y0299774D02*
X0438820Y0299774D01*
X0440246Y0301200D01*
X0441500Y0301200D01*
X0441500Y0298046D01*
X0441175Y0297720D01*
X0440123Y0298280D01*
X0439093Y0297965D01*
X0437787Y0295509D01*
X0436547Y0296168D01*
X0436418Y0296128D01*
X0436300Y0296246D01*
X0435300Y0297246D01*
X0434246Y0298300D01*
X0429754Y0298300D01*
X0418754Y0287300D01*
X0417700Y0286246D01*
X0417700Y0276500D01*
X0411500Y0276500D01*
X0411500Y0280980D01*
X0411700Y0281463D01*
X0411700Y0282537D01*
X0411500Y0283020D01*
X0411500Y0291500D01*
X0422500Y0302500D01*
X0427954Y0302500D01*
X0428795Y0301659D01*
X0428473Y0301054D01*
X0428788Y0300024D01*
X0431477Y0298594D01*
X0432507Y0298909D01*
X0433166Y0300149D01*
X0435622Y0298843D01*
X0436652Y0299158D01*
X0436980Y0299774D01*
X0436389Y0299077D02*
X0441500Y0299077D01*
X0441500Y0298079D02*
X0440500Y0298079D01*
X0439465Y0298079D02*
X0434467Y0298079D01*
X0435181Y0299077D02*
X0432596Y0299077D01*
X0433127Y0300076D02*
X0433303Y0300076D01*
X0431205Y0301326D02*
X0431205Y0301795D01*
X0430569Y0299077D02*
X0419077Y0299077D01*
X0418079Y0298079D02*
X0429533Y0298079D01*
X0428535Y0297080D02*
X0417080Y0297080D01*
X0416082Y0296082D02*
X0427536Y0296082D01*
X0426538Y0295083D02*
X0415083Y0295083D01*
X0414085Y0294085D02*
X0425539Y0294085D01*
X0424541Y0293086D02*
X0413086Y0293086D01*
X0412088Y0292088D02*
X0423542Y0292088D01*
X0422544Y0291089D02*
X0411500Y0291089D01*
X0411500Y0290091D02*
X0421545Y0290091D01*
X0420547Y0289092D02*
X0411500Y0289092D01*
X0411500Y0288094D02*
X0419548Y0288094D01*
X0418549Y0287095D02*
X0411500Y0287095D01*
X0411500Y0286097D02*
X0417700Y0286097D01*
X0417700Y0285098D02*
X0411500Y0285098D01*
X0411500Y0284100D02*
X0417700Y0284100D01*
X0417700Y0283101D02*
X0411500Y0283101D01*
X0411700Y0282103D02*
X0417700Y0282103D01*
X0417700Y0281104D02*
X0411551Y0281104D01*
X0411500Y0280105D02*
X0417700Y0280105D01*
X0417700Y0279107D02*
X0411500Y0279107D01*
X0411500Y0278108D02*
X0417700Y0278108D01*
X0417700Y0277110D02*
X0411500Y0277110D01*
X0407500Y0280500D02*
X0409000Y0282000D01*
X0407500Y0280500D02*
X0367500Y0280500D01*
X0363500Y0277500D02*
X0398500Y0277500D01*
X0401500Y0274500D01*
X0425500Y0274500D01*
X0427500Y0276500D01*
X0427500Y0282500D01*
X0425500Y0280682D02*
X0425500Y0277046D01*
X0424954Y0276500D01*
X0419500Y0276500D01*
X0419500Y0285500D01*
X0429004Y0295004D01*
X0429444Y0294770D01*
X0430474Y0295085D01*
X0431226Y0296500D01*
X0433500Y0296500D01*
X0435042Y0294958D01*
X0434087Y0293164D01*
X0434402Y0292134D01*
X0434700Y0291976D01*
X0434700Y0290754D01*
X0435754Y0289700D01*
X0436500Y0288954D01*
X0436500Y0287500D01*
X0434500Y0285500D01*
X0434254Y0285500D01*
X0433495Y0286259D01*
X0429505Y0286259D01*
X0428746Y0285500D01*
X0427500Y0285500D01*
X0427200Y0285200D01*
X0426963Y0285200D01*
X0425971Y0284789D01*
X0425211Y0284029D01*
X0424800Y0283037D01*
X0424800Y0281963D01*
X0425211Y0280971D01*
X0425500Y0280682D01*
X0425156Y0281104D02*
X0419500Y0281104D01*
X0419500Y0280105D02*
X0425500Y0280105D01*
X0425500Y0279107D02*
X0419500Y0279107D01*
X0419500Y0278108D02*
X0425500Y0278108D01*
X0425500Y0277110D02*
X0419500Y0277110D01*
X0419500Y0282103D02*
X0424800Y0282103D01*
X0424827Y0283101D02*
X0419500Y0283101D01*
X0419500Y0284100D02*
X0425281Y0284100D01*
X0426717Y0285098D02*
X0419500Y0285098D01*
X0420097Y0286097D02*
X0429343Y0286097D01*
X0431500Y0287862D02*
X0431862Y0287500D01*
X0432500Y0287500D01*
X0435500Y0284500D01*
X0435097Y0286097D02*
X0433657Y0286097D01*
X0436095Y0287095D02*
X0421095Y0287095D01*
X0422094Y0288094D02*
X0436500Y0288094D01*
X0436362Y0289092D02*
X0423092Y0289092D01*
X0424091Y0290091D02*
X0435364Y0290091D01*
X0434700Y0291089D02*
X0425089Y0291089D01*
X0426088Y0292088D02*
X0434489Y0292088D01*
X0434111Y0293086D02*
X0427086Y0293086D01*
X0428085Y0294085D02*
X0434577Y0294085D01*
X0434917Y0295083D02*
X0430466Y0295083D01*
X0431003Y0296082D02*
X0433918Y0296082D01*
X0435465Y0297080D02*
X0438622Y0297080D01*
X0438091Y0296082D02*
X0436709Y0296082D01*
X0436819Y0293436D02*
X0436500Y0293117D01*
X0436500Y0291500D01*
X0438500Y0289500D01*
X0438500Y0278500D01*
X0432500Y0272500D01*
X0400500Y0272500D01*
X0397500Y0275500D01*
X0373500Y0275500D01*
X0372500Y0274500D01*
X0364500Y0274500D01*
X0363500Y0277500D02*
X0361500Y0275500D01*
X0356500Y0275500D01*
X0354500Y0277500D01*
X0359500Y0280500D02*
X0347500Y0280500D01*
X0348500Y0271500D02*
X0373500Y0271500D01*
X0375500Y0273500D01*
X0396500Y0273500D01*
X0399500Y0270500D01*
X0434500Y0270500D01*
X0435500Y0271500D01*
X0437500Y0268500D02*
X0395500Y0268500D01*
X0393500Y0270500D01*
X0393500Y0267500D02*
X0389500Y0267500D01*
X0393500Y0267500D02*
X0394500Y0266500D01*
X0438500Y0266500D01*
X0442500Y0270500D01*
X0442500Y0284500D01*
X0444467Y0289370D01*
X0444515Y0293515D02*
X0449500Y0298500D01*
X0449500Y0302000D01*
X0451500Y0304000D01*
X0451500Y0307000D01*
X0452000Y0307500D01*
X0452000Y0313000D01*
X0451500Y0313500D01*
X0454500Y0310000D02*
X0455500Y0311000D01*
X0454500Y0310000D02*
X0454500Y0303500D01*
X0452000Y0301000D01*
X0452000Y0297500D01*
X0448042Y0293542D01*
X0448042Y0291482D01*
X0444515Y0293515D02*
X0444218Y0293515D01*
X0441548Y0295548D02*
X0443500Y0297500D01*
X0445500Y0297500D01*
X0447500Y0299500D01*
X0447500Y0303000D01*
X0449000Y0304500D01*
X0449000Y0309000D01*
X0443000Y0303000D02*
X0444500Y0301500D01*
X0443000Y0303000D02*
X0439500Y0303000D01*
X0440120Y0301074D02*
X0441500Y0301074D01*
X0441500Y0300076D02*
X0439121Y0300076D01*
X0440395Y0295548D02*
X0441548Y0295548D01*
X0440643Y0291403D02*
X0440643Y0271643D01*
X0437500Y0268500D01*
X0443500Y0264500D02*
X0361500Y0264500D01*
X0360500Y0265500D01*
X0358500Y0262500D02*
X0357500Y0261500D01*
X0358500Y0262500D02*
X0440500Y0262500D01*
X0443500Y0259500D01*
X0444500Y0259500D01*
X0444500Y0263500D02*
X0443500Y0264500D01*
X0447500Y0270500D02*
X0447500Y0229500D01*
X0446500Y0228500D01*
X0428500Y0228500D01*
X0426500Y0226500D01*
X0426500Y0216500D01*
X0424500Y0214500D01*
X0421945Y0214500D01*
X0421500Y0214055D01*
X0420800Y0213355D01*
X0420800Y0199300D01*
X0433500Y0210500D02*
X0433500Y0214055D01*
X0433055Y0214500D01*
X0430500Y0214500D01*
X0428500Y0216500D01*
X0428500Y0225500D01*
X0429500Y0226500D01*
X0447500Y0226500D01*
X0449500Y0228500D01*
X0449500Y0273500D01*
X0446500Y0271500D02*
X0447500Y0270500D01*
X0446500Y0271500D02*
X0446500Y0285500D01*
X0448291Y0287291D01*
X0448291Y0287337D01*
X0451866Y0289448D02*
X0452500Y0290083D01*
X0452500Y0293500D01*
X0455690Y0297690D02*
X0455690Y0287415D01*
X0454722Y0285343D02*
X0455962Y0284684D01*
X0456992Y0284998D01*
X0457790Y0286500D01*
X0458835Y0286500D01*
X0459722Y0286028D01*
X0459063Y0284789D01*
X0459378Y0283759D01*
X0461500Y0282631D01*
X0461500Y0276500D01*
X0454300Y0276500D01*
X0454300Y0280859D01*
X0454366Y0280940D01*
X0454300Y0281591D01*
X0454300Y0282246D01*
X0454226Y0282319D01*
X0454048Y0284075D01*
X0454722Y0285343D01*
X0454592Y0285098D02*
X0455182Y0285098D01*
X0454061Y0284100D02*
X0459274Y0284100D01*
X0459228Y0285098D02*
X0457045Y0285098D01*
X0457576Y0286097D02*
X0459594Y0286097D01*
X0461795Y0285061D02*
X0462939Y0285061D01*
X0463500Y0284500D01*
X0463500Y0274500D01*
X0462500Y0273500D01*
X0461500Y0277110D02*
X0454300Y0277110D01*
X0454300Y0278108D02*
X0461500Y0278108D01*
X0461500Y0279107D02*
X0454300Y0279107D01*
X0454300Y0280105D02*
X0461500Y0280105D01*
X0461500Y0281104D02*
X0454349Y0281104D01*
X0454300Y0282103D02*
X0461500Y0282103D01*
X0460615Y0283101D02*
X0454147Y0283101D01*
X0452500Y0281500D02*
X0452500Y0270500D01*
X0453500Y0269500D01*
X0452500Y0281500D02*
X0452114Y0285303D01*
X0458500Y0290000D02*
X0458500Y0294000D01*
X0459000Y0294500D01*
X0460500Y0298500D02*
X0460500Y0308000D01*
X0463500Y0312500D01*
X0468500Y0312500D02*
X0471421Y0311579D01*
X0471882Y0311579D01*
X0473994Y0308004D02*
X0479500Y0304500D01*
X0480500Y0304500D01*
X0481500Y0305500D01*
X0484500Y0305500D01*
X0486500Y0303500D01*
X0486500Y0302500D01*
X0494500Y0297500D01*
X0495500Y0296500D01*
X0495500Y0290500D01*
X0494500Y0288500D01*
X0493500Y0292500D02*
X0489500Y0285500D01*
X0484720Y0284823D01*
X0480305Y0287171D02*
X0482653Y0291585D01*
X0477391Y0294391D02*
X0477391Y0295414D01*
X0471500Y0296500D02*
X0470500Y0295500D01*
X0470500Y0288500D01*
X0469500Y0287500D01*
X0469500Y0286500D01*
X0468500Y0285500D01*
X0468500Y0277500D01*
X0472500Y0273500D01*
X0477532Y0273500D01*
X0480025Y0275994D01*
X0472500Y0270000D02*
X0472500Y0261500D01*
X0465500Y0254500D01*
X0468846Y0265500D02*
X0467500Y0265846D01*
X0467500Y0270500D01*
X0472500Y0270000D02*
X0465500Y0277000D01*
X0465500Y0285500D01*
X0467500Y0287500D01*
X0467500Y0289500D01*
X0468500Y0290500D01*
X0468500Y0295500D01*
X0467895Y0296105D01*
X0467895Y0296532D01*
X0471500Y0296500D02*
X0471500Y0298500D01*
X0469928Y0300072D01*
X0469928Y0300356D01*
X0465783Y0300108D02*
X0463500Y0303500D01*
X0460500Y0298500D02*
X0463749Y0296284D01*
X0463716Y0296284D01*
X0456500Y0298500D02*
X0455690Y0297690D01*
X0458500Y0290000D02*
X0459683Y0288817D01*
X0459683Y0288636D01*
X0483500Y0301500D02*
X0493500Y0295500D01*
X0493500Y0292500D01*
X0483500Y0301500D02*
X0483500Y0302500D01*
X0437304Y0312797D02*
X0419797Y0312797D01*
X0410500Y0303500D01*
X0388500Y0303500D01*
X0395500Y0290500D02*
X0393500Y0288500D01*
X0123500Y0288500D01*
X0114500Y0297500D01*
X0122500Y0286500D02*
X0397500Y0286500D01*
X0420076Y0300076D02*
X0428772Y0300076D01*
X0428484Y0301074D02*
X0421074Y0301074D01*
X0422073Y0302073D02*
X0428382Y0302073D01*
X0444500Y0254500D02*
X0375500Y0254500D01*
X0350000Y0258000D02*
X0339500Y0258000D01*
X0337500Y0256000D01*
X0337500Y0253846D01*
X0360500Y0279500D02*
X0359500Y0280500D01*
X0421500Y0225500D02*
X0421500Y0220945D01*
X0433500Y0220945D02*
X0438055Y0220945D01*
X0438500Y0220500D01*
X0433500Y0210500D02*
X0437500Y0206500D01*
X0437500Y0205500D01*
X0265500Y0305500D02*
X0263500Y0305500D01*
X0262500Y0304500D01*
X0213846Y0304500D01*
X0212846Y0306500D01*
X0207500Y0306067D02*
X0198500Y0306067D01*
X0198500Y0305500D02*
X0198500Y0311500D01*
X0200500Y0313500D01*
X0207500Y0313500D01*
X0207500Y0305500D01*
X0198500Y0305500D01*
X0198500Y0307065D02*
X0207500Y0307065D01*
X0207500Y0308064D02*
X0198500Y0308064D01*
X0198500Y0309062D02*
X0207500Y0309062D01*
X0207500Y0310061D02*
X0198500Y0310061D01*
X0198500Y0311059D02*
X0207500Y0311059D01*
X0207500Y0312058D02*
X0199058Y0312058D01*
X0200056Y0313056D02*
X0207500Y0313056D01*
X0206500Y0316500D02*
X0210500Y0316500D01*
X0206500Y0316862D02*
X0202862Y0316862D01*
X0202500Y0316500D01*
X0226876Y0181876D02*
X0226500Y0181500D01*
X0226876Y0181876D02*
X0232490Y0181876D01*
D36*
X0226500Y0181500D03*
X0239500Y0174500D03*
X0243000Y0194500D03*
X0218000Y0206000D03*
X0243000Y0151000D03*
X0237500Y0113000D03*
X0241000Y0095500D03*
X0246000Y0078500D03*
X0180500Y0087500D03*
X0163500Y0098000D03*
X0160500Y0101500D03*
X0156500Y0101500D03*
X0152500Y0101500D03*
X0149500Y0096500D03*
X0139500Y0102500D03*
X0138500Y0111500D03*
X0128500Y0099500D03*
X0126500Y0096500D03*
X0124500Y0099500D03*
X0122500Y0096500D03*
X0120500Y0099500D03*
X0141500Y0133500D03*
X0144500Y0143500D03*
X0137500Y0161500D03*
X0131500Y0164500D03*
X0106500Y0156500D03*
X0082500Y0175500D03*
X0057500Y0156500D03*
X0082500Y0135500D03*
X0121500Y0239500D03*
X0121500Y0244500D03*
X0131500Y0251500D03*
X0137500Y0251500D03*
X0143500Y0251500D03*
X0149500Y0251500D03*
X0159500Y0244500D03*
X0159500Y0239500D03*
X0149500Y0267500D03*
X0143500Y0267500D03*
X0137500Y0267500D03*
X0131500Y0267500D03*
X0125500Y0295500D03*
X0121500Y0298500D03*
X0131500Y0297500D03*
X0137500Y0297500D03*
X0143500Y0297500D03*
X0149500Y0297500D03*
X0186500Y0278500D03*
X0190500Y0278500D03*
X0194500Y0278500D03*
X0198500Y0278500D03*
X0202500Y0278500D03*
X0200500Y0306500D03*
X0200500Y0310500D03*
X0265500Y0305500D03*
X0278500Y0310500D03*
X0283500Y0315500D03*
X0281500Y0321500D03*
X0287500Y0304500D03*
X0278500Y0283500D03*
X0317500Y0252500D03*
X0306500Y0232500D03*
X0320000Y0227000D03*
X0328500Y0227500D03*
X0330500Y0218000D03*
X0343500Y0223500D03*
X0353500Y0217500D03*
X0346500Y0206500D03*
X0345500Y0197500D03*
X0339500Y0186500D03*
X0326500Y0183500D03*
X0334500Y0174500D03*
X0327500Y0163500D03*
X0343500Y0151500D03*
X0352500Y0153500D03*
X0359500Y0164500D03*
X0349500Y0173500D03*
X0364500Y0176500D03*
X0370500Y0187500D03*
X0372500Y0196500D03*
X0378500Y0207500D03*
X0386500Y0219500D03*
X0385500Y0233500D03*
X0378500Y0234500D03*
X0361500Y0229500D03*
X0366500Y0214500D03*
X0359500Y0193500D03*
X0333500Y0203500D03*
X0323000Y0197500D03*
X0320500Y0207500D03*
X0310500Y0213500D03*
X0299500Y0212500D03*
X0302500Y0193500D03*
X0309500Y0184500D03*
X0310500Y0175500D03*
X0370500Y0154500D03*
X0384500Y0154500D03*
X0384500Y0146500D03*
X0389500Y0166500D03*
X0386000Y0177000D03*
X0394500Y0178500D03*
X0397500Y0186500D03*
X0393500Y0197000D03*
X0399500Y0202000D03*
X0402500Y0197500D03*
X0404500Y0224500D03*
X0403500Y0233500D03*
X0401500Y0236500D03*
X0405500Y0236500D03*
X0407500Y0233500D03*
X0409500Y0236500D03*
X0389500Y0267500D03*
X0393500Y0270500D03*
X0397500Y0286500D03*
X0395500Y0290500D03*
X0396500Y0296500D03*
X0405500Y0298500D03*
X0409000Y0282000D03*
X0413500Y0280500D03*
X0416500Y0278500D03*
X0416500Y0282500D03*
X0420500Y0280500D03*
X0423500Y0278500D03*
X0423500Y0282500D03*
X0427500Y0282500D03*
X0431500Y0279000D03*
X0435500Y0271500D03*
X0444500Y0263500D03*
X0444500Y0259500D03*
X0444500Y0254500D03*
X0452500Y0258500D03*
X0453500Y0269500D03*
X0449500Y0273500D03*
X0462500Y0273500D03*
X0465500Y0254500D03*
X0494500Y0288500D03*
X0483500Y0302500D03*
X0479500Y0309500D03*
X0475500Y0300500D03*
X0468500Y0312500D03*
X0463500Y0312500D03*
X0458000Y0315500D03*
X0455500Y0311000D03*
X0451500Y0313500D03*
X0449000Y0309000D03*
X0446000Y0305500D03*
X0444500Y0301500D03*
X0443500Y0309000D03*
X0446000Y0313000D03*
X0456500Y0298500D03*
X0459000Y0294500D03*
X0424500Y0298500D03*
X0419500Y0319500D03*
X0416500Y0322500D03*
X0393000Y0333500D03*
X0385500Y0333500D03*
X0385500Y0319500D03*
X0390000Y0319000D03*
X0368000Y0332500D03*
X0348500Y0321500D03*
X0348500Y0315500D03*
X0357500Y0310500D03*
X0351500Y0283500D03*
X0354500Y0277500D03*
X0360500Y0279500D03*
X0364500Y0274500D03*
X0367500Y0280500D03*
X0360500Y0265500D03*
X0357500Y0261500D03*
X0350000Y0258000D03*
X0348500Y0271500D03*
X0354500Y0244500D03*
X0375500Y0254500D03*
X0459500Y0205500D03*
X0472000Y0155000D03*
X0459000Y0146500D03*
X0454500Y0154500D03*
X0364500Y0362500D03*
X0368500Y0378500D03*
X0188500Y0388500D03*
D37*
X0110500Y0318862D02*
X0107862Y0321500D01*
X0110500Y0318862D02*
X0110500Y0312500D01*
X0100500Y0312500D02*
X0100500Y0318862D01*
X0103138Y0321500D01*
X0205475Y0194475D02*
X0204500Y0193500D01*
X0204500Y0145500D01*
X0229500Y0120500D01*
X0229500Y0110500D01*
X0232431Y0107569D01*
X0213198Y0194475D02*
X0205475Y0194475D01*
X0452500Y0258500D02*
X0457138Y0258500D01*
X0457500Y0258862D01*
X0457500Y0268500D01*
X0458500Y0269500D01*
X0458500Y0285500D01*
X0474500Y0291500D02*
X0477391Y0294391D01*
X0477391Y0295414D02*
X0482653Y0291585D01*
X0485000Y0296000D02*
X0479609Y0299586D01*
X0478695Y0300500D01*
X0475500Y0300500D01*
X0462154Y0265500D02*
X0462154Y0258791D01*
X0461862Y0258500D01*
X0461862Y0207862D01*
X0459500Y0205500D01*
D38*
X0438500Y0220500D03*
X0421500Y0225500D03*
X0467500Y0270500D03*
X0474500Y0291500D03*
X0463500Y0303500D03*
X0452500Y0293500D03*
X0435500Y0284500D03*
X0457500Y0319500D03*
X0462500Y0316500D03*
X0441500Y0329500D03*
X0439500Y0326500D03*
X0437500Y0329500D03*
X0434000Y0329500D03*
X0435500Y0326500D03*
X0409500Y0326500D03*
X0409500Y0358500D03*
X0372500Y0319500D03*
X0377500Y0313500D03*
X0353500Y0326500D03*
X0353500Y0356500D03*
X0210500Y0316500D03*
X0202500Y0316500D03*
D39*
X0188500Y0388500D02*
X0188500Y0393138D01*
X0188500Y0397862D02*
X0195154Y0397862D01*
X0195154Y0398500D01*
X0195154Y0391539D01*
X0195000Y0391539D01*
X0436571Y0297581D02*
X0436581Y0297581D01*
X0473500Y0286500D02*
X0477244Y0282756D01*
X0477958Y0282756D01*
D40*
X0373435Y0182055D02*
X0370500Y0184990D01*
X0370500Y0187500D01*
X0372500Y0319500D02*
X0372445Y0319555D01*
X0372445Y0325945D01*
D41*
X0181500Y0087500D02*
X0180500Y0087500D01*
X0181500Y0087500D02*
X0198500Y0070500D01*
X0259500Y0070500D01*
D42*
X0259500Y0070500D03*
X0259500Y0157500D03*
X0259500Y0248500D03*
X0353500Y0250500D03*
X0441500Y0249500D03*
X0466500Y0249500D03*
X0475500Y0259500D03*
X0473500Y0286500D03*
D43*
X0475500Y0259500D02*
X0475500Y0258500D01*
X0466500Y0249500D01*
X0441500Y0249500D02*
X0357500Y0249500D01*
X0356500Y0250500D01*
X0353500Y0250500D01*
X0259500Y0248500D02*
X0259500Y0157500D01*
D44*
X0200500Y0310500D02*
X0184500Y0310500D01*
X0167500Y0327500D01*
X0106500Y0327500D01*
X0103138Y0324138D01*
X0103138Y0321500D01*
D45*
X0420800Y0199300D02*
X0519200Y0199300D01*
X0519200Y0105000D01*
X0420800Y0105000D01*
X0420800Y0195200D01*
X0515100Y0195200D01*
X0515100Y0109100D01*
X0424900Y0109100D01*
X0424900Y0191100D01*
X0511000Y0191100D01*
X0511000Y0113200D01*
X0429000Y0113200D01*
X0429000Y0187000D01*
X0506900Y0187000D01*
X0506900Y0117300D01*
X0433100Y0117300D01*
X0433100Y0182900D01*
X0502800Y0182900D01*
X0502800Y0121400D01*
X0437200Y0121400D01*
X0437200Y0178800D01*
D46*
X0437200Y0178800D03*
X0437500Y0205500D03*
M02*
