%
M48
M72
T01C0.01000
T02C0.01200
T03C0.01600
T04C0.01800
T05C0.01969
T06C0.02362
T07C0.02756
T08C0.03543
T09C0.04000
T10C0.04724
T11C0.15748
T12C0.19685
%
T01
X202500Y316500
X210500Y316500
X353500Y326500
X372500Y319500
X377500Y313500
X409500Y326500
X434000Y329500
X435500Y326500
X437500Y329500
X439500Y326500
X441500Y329500
X457500Y319500
X462500Y316500
X463500Y303500
X452500Y293500
X435500Y284500
X467500Y270500
X474500Y291500
X421500Y225500
X438500Y220500
X409500Y358500
X353500Y356500
T02
X364500Y362500
X368500Y378500
X368000Y332500
X385500Y333500
X393000Y333500
X390000Y319000
X385500Y319500
X396500Y296500
X395500Y290500
X397500Y286500
X409000Y282000
X413500Y280500
X416500Y278500
X416500Y282500
X420500Y280500
X423500Y278500
X423500Y282500
X427500Y282500
X431500Y279000
X435500Y271500
X444500Y263500
X444500Y259500
X444500Y254500
X452500Y258500
X453500Y269500
X449500Y273500
X462500Y273500
X465500Y254500
X494500Y288500
X483500Y302500
X479500Y309500
X475500Y300500
X468500Y312500
X463500Y312500
X458000Y315500
X455500Y311000
X451500Y313500
X449000Y309000
X446000Y305500
X444500Y301500
X443500Y309000
X446000Y313000
X456500Y298500
X459000Y294500
X424500Y298500
X405500Y298500
X419500Y319500
X416500Y322500
X367500Y280500
X364500Y274500
X360500Y279500
X354500Y277500
X351500Y283500
X348500Y271500
X360500Y265500
X357500Y261500
X350000Y258000
X354500Y244500
X361500Y229500
X353500Y217500
X343500Y223500
X330500Y218000
X328500Y227500
X320000Y227000
X310500Y213500
X299500Y212500
X302500Y193500
X309500Y184500
X310500Y175500
X326500Y183500
X334500Y174500
X327500Y163500
X343500Y151500
X352500Y153500
X359500Y164500
X349500Y173500
X364500Y176500
X370500Y187500
X372500Y196500
X378500Y207500
X386500Y219500
X385500Y233500
X378500Y234500
X375500Y254500
X389500Y267500
X393500Y270500
X401500Y236500
X403500Y233500
X405500Y236500
X407500Y233500
X409500Y236500
X404500Y224500
X399500Y202000
X402500Y197500
X393500Y197000
X397500Y186500
X394500Y178500
X386000Y177000
X389500Y166500
X384500Y154500
X384500Y146500
X370500Y154500
X339500Y186500
X345500Y197500
X346500Y206500
X333500Y203500
X323000Y197500
X320500Y207500
X306500Y232500
X317500Y252500
X278500Y283500
X287500Y304500
X278500Y310500
X283500Y315500
X281500Y321500
X265500Y305500
X200500Y306500
X200500Y310500
X202500Y278500
X198500Y278500
X194500Y278500
X190500Y278500
X186500Y278500
X159500Y244500
X159500Y239500
X149500Y251500
X143500Y251500
X137500Y251500
X131500Y251500
X121500Y244500
X121500Y239500
X131500Y267500
X137500Y267500
X143500Y267500
X149500Y267500
X149500Y297500
X143500Y297500
X137500Y297500
X131500Y297500
X125500Y295500
X121500Y298500
X188500Y388500
X348500Y321500
X348500Y315500
X357500Y310500
X366500Y214500
X359500Y193500
X454500Y154500
X459000Y146500
X472000Y155000
X459500Y205500
X243000Y194500
X226500Y181500
X239500Y174500
X243000Y151000
X237500Y113000
X241000Y95500
X246000Y78500
X180500Y87500
X163500Y98000
X160500Y101500
X156500Y101500
X152500Y101500
X149500Y96500
X139500Y102500
X138500Y111500
X128500Y99500
X126500Y96500
X124500Y99500
X122500Y96500
X120500Y99500
X141500Y133500
X144500Y143500
X137500Y161500
X131500Y164500
X106500Y156500
X82500Y175500
X57500Y156500
X82500Y135500
X218000Y206000
T03
X437500Y205500
X437200Y178800
T04
X441500Y249500
X466500Y249500
X475500Y259500
X473500Y286500
X353500Y250500
X259500Y248500
X259500Y157500
X259500Y70500
T05
X475611Y278341
X480025Y275994
X482373Y280408
X484720Y284823
X480305Y287171
X482653Y291585
X487067Y289238
X489415Y293653
X485000Y296000
X477958Y282756
T06
X195000Y316776
X195000Y391539
T07
X213827Y418673
X342173Y418673
T08
X117906Y75500
X106094Y75500
T09
X110500Y282500
X110500Y292500
X110500Y302500
X110500Y312500
X100500Y312500
X100500Y302500
X100500Y292500
X100500Y282500
T10
X174000Y155750
X174000Y105750
T11
X79500Y90500
X54500Y100500
X34500Y180500
X64500Y205500
X449500Y85500
X479500Y90500
X479500Y213000
T12
X497500Y313500
X77500Y310500
M30
