G75*
%MOIN*%
%OFA0B0*%
%FSLAX25Y25*%
%IPPOS*%
%LPD*%
%AMOC8*
5,1,8,0,0,1.08239X$1,22.5*
%
%ADD10C,0.20485*%
%ADD11C,0.16548*%
%ADD12C,0.04343*%
%ADD13R,0.01981X0.04737*%
%ADD14R,0.08674X0.05918*%
%ADD15C,0.05162*%
%ADD16OC8,0.06800*%
%ADD17R,0.04769X0.04769*%
%ADD18C,0.00954*%
%ADD19C,0.03556*%
%ADD20C,0.07887*%
%ADD21C,0.03600*%
%ADD22C,0.03400*%
%ADD23C,0.04200*%
%ADD24C,0.04000*%
D10*
X0077500Y0310500D03*
X0497500Y0313500D03*
D11*
X0079500Y0090500D03*
X0054500Y0100500D03*
X0034500Y0180500D03*
X0064500Y0205500D03*
X0449500Y0085500D03*
X0479500Y0090500D03*
X0479500Y0213000D03*
D12*
X0117906Y0075500D03*
X0106094Y0075500D03*
D13*
X0269142Y0410500D03*
X0271110Y0410500D03*
X0273079Y0410500D03*
X0275047Y0410500D03*
X0277016Y0410500D03*
X0278984Y0410500D03*
X0280953Y0410500D03*
X0282921Y0410500D03*
X0284890Y0410500D03*
X0286858Y0410500D03*
D14*
X0295913Y0399870D03*
X0260087Y0399870D03*
D15*
X0195000Y0391539D03*
X0195000Y0316776D03*
D16*
X0110500Y0312500D03*
X0110500Y0302500D03*
X0110500Y0292500D03*
X0110500Y0282500D03*
X0100500Y0282500D03*
X0100500Y0292500D03*
X0100500Y0302500D03*
X0100500Y0312500D03*
D17*
G36*
X0485985Y0292776D02*
X0481776Y0295015D01*
X0484015Y0299224D01*
X0488224Y0296985D01*
X0485985Y0292776D01*
G37*
D18*
X0483488Y0290470D02*
X0483965Y0289993D01*
X0482456Y0289531D01*
X0481061Y0290273D01*
X0480599Y0291782D01*
X0481341Y0293177D01*
X0482850Y0293639D01*
X0484245Y0292897D01*
X0484707Y0291388D01*
X0483965Y0289993D01*
X0483474Y0290591D01*
X0482529Y0290302D01*
X0481659Y0290764D01*
X0481370Y0291709D01*
X0481832Y0292579D01*
X0482777Y0292868D01*
X0483647Y0292406D01*
X0483936Y0291461D01*
X0483474Y0290591D01*
X0482981Y0291188D01*
X0482604Y0291072D01*
X0482256Y0291257D01*
X0482140Y0291634D01*
X0482325Y0291982D01*
X0482702Y0292098D01*
X0483050Y0291913D01*
X0483166Y0291536D01*
X0482981Y0291188D01*
X0487902Y0288123D02*
X0488379Y0287646D01*
X0486870Y0287184D01*
X0485475Y0287926D01*
X0485013Y0289435D01*
X0485755Y0290830D01*
X0487264Y0291292D01*
X0488659Y0290550D01*
X0489121Y0289041D01*
X0488379Y0287646D01*
X0487888Y0288244D01*
X0486943Y0287955D01*
X0486073Y0288417D01*
X0485784Y0289362D01*
X0486246Y0290232D01*
X0487191Y0290521D01*
X0488061Y0290059D01*
X0488350Y0289114D01*
X0487888Y0288244D01*
X0487395Y0288841D01*
X0487018Y0288725D01*
X0486670Y0288910D01*
X0486554Y0289287D01*
X0486739Y0289635D01*
X0487116Y0289751D01*
X0487464Y0289566D01*
X0487580Y0289189D01*
X0487395Y0288841D01*
X0485555Y0283708D02*
X0486032Y0283231D01*
X0484523Y0282769D01*
X0483128Y0283511D01*
X0482666Y0285020D01*
X0483408Y0286415D01*
X0484917Y0286877D01*
X0486312Y0286135D01*
X0486774Y0284626D01*
X0486032Y0283231D01*
X0485541Y0283829D01*
X0484596Y0283540D01*
X0483726Y0284002D01*
X0483437Y0284947D01*
X0483899Y0285817D01*
X0484844Y0286106D01*
X0485714Y0285644D01*
X0486003Y0284699D01*
X0485541Y0283829D01*
X0485048Y0284426D01*
X0484671Y0284310D01*
X0484323Y0284495D01*
X0484207Y0284872D01*
X0484392Y0285220D01*
X0484769Y0285336D01*
X0485117Y0285151D01*
X0485233Y0284774D01*
X0485048Y0284426D01*
X0483208Y0279293D02*
X0483685Y0278816D01*
X0482176Y0278354D01*
X0480781Y0279096D01*
X0480319Y0280605D01*
X0481061Y0282000D01*
X0482570Y0282462D01*
X0483965Y0281720D01*
X0484427Y0280211D01*
X0483685Y0278816D01*
X0483194Y0279414D01*
X0482249Y0279125D01*
X0481379Y0279587D01*
X0481090Y0280532D01*
X0481552Y0281402D01*
X0482497Y0281691D01*
X0483367Y0281229D01*
X0483656Y0280284D01*
X0483194Y0279414D01*
X0482701Y0280011D01*
X0482324Y0279895D01*
X0481976Y0280080D01*
X0481860Y0280457D01*
X0482045Y0280805D01*
X0482422Y0280921D01*
X0482770Y0280736D01*
X0482886Y0280359D01*
X0482701Y0280011D01*
X0480860Y0274879D02*
X0481337Y0274402D01*
X0479828Y0273940D01*
X0478433Y0274682D01*
X0477971Y0276191D01*
X0478713Y0277586D01*
X0480222Y0278048D01*
X0481617Y0277306D01*
X0482079Y0275797D01*
X0481337Y0274402D01*
X0480846Y0275000D01*
X0479901Y0274711D01*
X0479031Y0275173D01*
X0478742Y0276118D01*
X0479204Y0276988D01*
X0480149Y0277277D01*
X0481019Y0276815D01*
X0481308Y0275870D01*
X0480846Y0275000D01*
X0480353Y0275597D01*
X0479976Y0275481D01*
X0479628Y0275666D01*
X0479512Y0276043D01*
X0479697Y0276391D01*
X0480074Y0276507D01*
X0480422Y0276322D01*
X0480538Y0275945D01*
X0480353Y0275597D01*
X0476446Y0277226D02*
X0476923Y0276749D01*
X0475414Y0276287D01*
X0474019Y0277029D01*
X0473557Y0278538D01*
X0474299Y0279933D01*
X0475808Y0280395D01*
X0477203Y0279653D01*
X0477665Y0278144D01*
X0476923Y0276749D01*
X0476432Y0277347D01*
X0475487Y0277058D01*
X0474617Y0277520D01*
X0474328Y0278465D01*
X0474790Y0279335D01*
X0475735Y0279624D01*
X0476605Y0279162D01*
X0476894Y0278217D01*
X0476432Y0277347D01*
X0475939Y0277944D01*
X0475562Y0277828D01*
X0475214Y0278013D01*
X0475098Y0278390D01*
X0475283Y0278738D01*
X0475660Y0278854D01*
X0476008Y0278669D01*
X0476124Y0278292D01*
X0475939Y0277944D01*
X0478793Y0281641D02*
X0479270Y0281164D01*
X0477761Y0280702D01*
X0476366Y0281444D01*
X0475904Y0282953D01*
X0476646Y0284348D01*
X0478155Y0284810D01*
X0479550Y0284068D01*
X0480012Y0282559D01*
X0479270Y0281164D01*
X0478779Y0281762D01*
X0477834Y0281473D01*
X0476964Y0281935D01*
X0476675Y0282880D01*
X0477137Y0283750D01*
X0478082Y0284039D01*
X0478952Y0283577D01*
X0479241Y0282632D01*
X0478779Y0281762D01*
X0478286Y0282359D01*
X0477909Y0282243D01*
X0477561Y0282428D01*
X0477445Y0282805D01*
X0477630Y0283153D01*
X0478007Y0283269D01*
X0478355Y0283084D01*
X0478471Y0282707D01*
X0478286Y0282359D01*
X0481140Y0286056D02*
X0481617Y0285579D01*
X0480108Y0285117D01*
X0478713Y0285859D01*
X0478251Y0287368D01*
X0478993Y0288763D01*
X0480502Y0289225D01*
X0481897Y0288483D01*
X0482359Y0286974D01*
X0481617Y0285579D01*
X0481126Y0286177D01*
X0480181Y0285888D01*
X0479311Y0286350D01*
X0479022Y0287295D01*
X0479484Y0288165D01*
X0480429Y0288454D01*
X0481299Y0287992D01*
X0481588Y0287047D01*
X0481126Y0286177D01*
X0480633Y0286774D01*
X0480256Y0286658D01*
X0479908Y0286843D01*
X0479792Y0287220D01*
X0479977Y0287568D01*
X0480354Y0287684D01*
X0480702Y0287499D01*
X0480818Y0287122D01*
X0480633Y0286774D01*
X0490250Y0292538D02*
X0490727Y0292061D01*
X0489218Y0291599D01*
X0487823Y0292341D01*
X0487361Y0293850D01*
X0488103Y0295245D01*
X0489612Y0295707D01*
X0491007Y0294965D01*
X0491469Y0293456D01*
X0490727Y0292061D01*
X0490236Y0292659D01*
X0489291Y0292370D01*
X0488421Y0292832D01*
X0488132Y0293777D01*
X0488594Y0294647D01*
X0489539Y0294936D01*
X0490409Y0294474D01*
X0490698Y0293529D01*
X0490236Y0292659D01*
X0489743Y0293256D01*
X0489366Y0293140D01*
X0489018Y0293325D01*
X0488902Y0293702D01*
X0489087Y0294050D01*
X0489464Y0294166D01*
X0489812Y0293981D01*
X0489928Y0293604D01*
X0489743Y0293256D01*
D19*
X0342173Y0418673D03*
X0213827Y0418673D03*
D20*
X0174000Y0155750D03*
X0174000Y0105750D03*
D21*
X0163500Y0098000D03*
X0160500Y0101500D03*
X0156500Y0101500D03*
X0152500Y0101500D03*
X0149500Y0096500D03*
X0139500Y0102500D03*
X0138500Y0111500D03*
X0128500Y0099500D03*
X0126500Y0096500D03*
X0124500Y0099500D03*
X0122500Y0096500D03*
X0120500Y0099500D03*
X0141500Y0133500D03*
X0144500Y0143500D03*
X0137500Y0161500D03*
X0131500Y0164500D03*
X0106500Y0156500D03*
X0082500Y0175500D03*
X0057500Y0156500D03*
X0082500Y0135500D03*
X0180500Y0087500D03*
X0241000Y0095500D03*
X0246000Y0078500D03*
X0237500Y0113000D03*
X0243000Y0151000D03*
X0239500Y0174500D03*
X0226500Y0181500D03*
X0243000Y0194500D03*
X0218000Y0206000D03*
X0159500Y0239500D03*
X0159500Y0244500D03*
X0149500Y0251500D03*
X0143500Y0251500D03*
X0137500Y0251500D03*
X0131500Y0251500D03*
X0121500Y0244500D03*
X0121500Y0239500D03*
X0131500Y0267500D03*
X0137500Y0267500D03*
X0143500Y0267500D03*
X0149500Y0267500D03*
X0149500Y0297500D03*
X0143500Y0297500D03*
X0137500Y0297500D03*
X0131500Y0297500D03*
X0125500Y0295500D03*
X0121500Y0298500D03*
X0186500Y0278500D03*
X0190500Y0278500D03*
X0194500Y0278500D03*
X0198500Y0278500D03*
X0202500Y0278500D03*
X0200500Y0306500D03*
X0200500Y0310500D03*
X0265500Y0305500D03*
X0278500Y0310500D03*
X0283500Y0315500D03*
X0281500Y0321500D03*
X0287500Y0304500D03*
X0278500Y0283500D03*
X0317500Y0252500D03*
X0306500Y0232500D03*
X0320000Y0227000D03*
X0328500Y0227500D03*
X0330500Y0218000D03*
X0343500Y0223500D03*
X0353500Y0217500D03*
X0346500Y0206500D03*
X0345500Y0197500D03*
X0339500Y0186500D03*
X0326500Y0183500D03*
X0334500Y0174500D03*
X0327500Y0163500D03*
X0343500Y0151500D03*
X0352500Y0153500D03*
X0359500Y0164500D03*
X0349500Y0173500D03*
X0364500Y0176500D03*
X0370500Y0187500D03*
X0372500Y0196500D03*
X0378500Y0207500D03*
X0386500Y0219500D03*
X0385500Y0233500D03*
X0378500Y0234500D03*
X0361500Y0229500D03*
X0366500Y0214500D03*
X0359500Y0193500D03*
X0333500Y0203500D03*
X0323000Y0197500D03*
X0320500Y0207500D03*
X0310500Y0213500D03*
X0299500Y0212500D03*
X0302500Y0193500D03*
X0309500Y0184500D03*
X0310500Y0175500D03*
X0370500Y0154500D03*
X0384500Y0154500D03*
X0384500Y0146500D03*
X0389500Y0166500D03*
X0386000Y0177000D03*
X0394500Y0178500D03*
X0397500Y0186500D03*
X0393500Y0197000D03*
X0399500Y0202000D03*
X0402500Y0197500D03*
X0404500Y0224500D03*
X0403500Y0233500D03*
X0401500Y0236500D03*
X0405500Y0236500D03*
X0407500Y0233500D03*
X0409500Y0236500D03*
X0389500Y0267500D03*
X0393500Y0270500D03*
X0397500Y0286500D03*
X0395500Y0290500D03*
X0396500Y0296500D03*
X0405500Y0298500D03*
X0409000Y0282000D03*
X0413500Y0280500D03*
X0416500Y0278500D03*
X0416500Y0282500D03*
X0420500Y0280500D03*
X0423500Y0278500D03*
X0423500Y0282500D03*
X0427500Y0282500D03*
X0431500Y0279000D03*
X0435500Y0271500D03*
X0444500Y0263500D03*
X0444500Y0259500D03*
X0444500Y0254500D03*
X0452500Y0258500D03*
X0453500Y0269500D03*
X0449500Y0273500D03*
X0462500Y0273500D03*
X0465500Y0254500D03*
X0494500Y0288500D03*
X0483500Y0302500D03*
X0479500Y0309500D03*
X0475500Y0300500D03*
X0468500Y0312500D03*
X0463500Y0312500D03*
X0458000Y0315500D03*
X0455500Y0311000D03*
X0451500Y0313500D03*
X0449000Y0309000D03*
X0446000Y0305500D03*
X0444500Y0301500D03*
X0443500Y0309000D03*
X0446000Y0313000D03*
X0456500Y0298500D03*
X0459000Y0294500D03*
X0424500Y0298500D03*
X0419500Y0319500D03*
X0416500Y0322500D03*
X0393000Y0333500D03*
X0385500Y0333500D03*
X0385500Y0319500D03*
X0390000Y0319000D03*
X0368000Y0332500D03*
X0348500Y0321500D03*
X0348500Y0315500D03*
X0357500Y0310500D03*
X0351500Y0283500D03*
X0354500Y0277500D03*
X0360500Y0279500D03*
X0364500Y0274500D03*
X0367500Y0280500D03*
X0360500Y0265500D03*
X0357500Y0261500D03*
X0350000Y0258000D03*
X0348500Y0271500D03*
X0354500Y0244500D03*
X0375500Y0254500D03*
X0459500Y0205500D03*
X0472000Y0155000D03*
X0459000Y0146500D03*
X0454500Y0154500D03*
X0364500Y0362500D03*
X0368500Y0378500D03*
X0188500Y0388500D03*
D22*
X0202500Y0316500D03*
X0210500Y0316500D03*
X0353500Y0326500D03*
X0372500Y0319500D03*
X0377500Y0313500D03*
X0409500Y0326500D03*
X0434000Y0329500D03*
X0435500Y0326500D03*
X0437500Y0329500D03*
X0439500Y0326500D03*
X0441500Y0329500D03*
X0457500Y0319500D03*
X0462500Y0316500D03*
X0463500Y0303500D03*
X0452500Y0293500D03*
X0435500Y0284500D03*
X0467500Y0270500D03*
X0474500Y0291500D03*
X0421500Y0225500D03*
X0438500Y0220500D03*
X0409500Y0358500D03*
X0353500Y0356500D03*
D23*
X0353500Y0250500D03*
X0441500Y0249500D03*
X0466500Y0249500D03*
X0475500Y0259500D03*
X0473500Y0286500D03*
X0259500Y0248500D03*
X0259500Y0157500D03*
X0259500Y0070500D03*
D24*
X0437200Y0178800D03*
X0437500Y0205500D03*
M02*
