G75*
%MOIN*%
%OFA0B0*%
%FSLAX25Y25*%
%IPPOS*%
%LPD*%
%AMOC8*
5,1,8,0,0,1.08239X$1,22.5*
%
%ADD10C,0.16548*%
%ADD11R,0.01981X0.04737*%
%ADD12R,0.08674X0.05918*%
%ADD13C,0.05162*%
%ADD14C,0.01360*%
%ADD15R,0.04769X0.04769*%
%ADD16C,0.00954*%
%ADD17C,0.03556*%
%ADD18C,0.07887*%
%ADD19R,0.05918X0.06706*%
%ADD20C,0.04343*%
%ADD21C,0.04200*%
%ADD22C,0.04000*%
D10*
X0079500Y0090500D03*
X0054500Y0100500D03*
X0034500Y0180500D03*
X0064500Y0205500D03*
X0077500Y0310500D03*
X0449500Y0085500D03*
X0479500Y0090500D03*
X0479500Y0213000D03*
X0497500Y0313500D03*
D11*
X0286858Y0414437D03*
X0284890Y0414437D03*
X0282921Y0414437D03*
X0280953Y0414437D03*
X0278984Y0414437D03*
X0277016Y0414437D03*
X0275047Y0414437D03*
X0273079Y0414437D03*
X0271110Y0414437D03*
X0269142Y0414437D03*
D12*
X0260087Y0403807D03*
X0295913Y0403807D03*
D13*
X0195000Y0393539D03*
X0195000Y0318776D03*
D14*
X0162052Y0352166D02*
X0161372Y0351486D01*
X0161955Y0353662D01*
X0163906Y0354788D01*
X0166082Y0354205D01*
X0167208Y0352254D01*
X0166625Y0350078D01*
X0164674Y0348952D01*
X0162498Y0349535D01*
X0161372Y0351486D01*
X0162466Y0351630D01*
X0162831Y0352990D01*
X0164050Y0353694D01*
X0165410Y0353329D01*
X0166114Y0352110D01*
X0165749Y0350750D01*
X0164530Y0350046D01*
X0163170Y0350411D01*
X0162466Y0351630D01*
X0163561Y0351774D01*
X0163707Y0352318D01*
X0164194Y0352599D01*
X0164738Y0352453D01*
X0165019Y0351966D01*
X0164873Y0351422D01*
X0164386Y0351141D01*
X0163842Y0351287D01*
X0163561Y0351774D01*
X0153392Y0347166D02*
X0152712Y0346486D01*
X0153295Y0348662D01*
X0155246Y0349788D01*
X0157422Y0349205D01*
X0158548Y0347254D01*
X0157965Y0345078D01*
X0156014Y0343952D01*
X0153838Y0344535D01*
X0152712Y0346486D01*
X0153806Y0346630D01*
X0154171Y0347990D01*
X0155390Y0348694D01*
X0156750Y0348329D01*
X0157454Y0347110D01*
X0157089Y0345750D01*
X0155870Y0345046D01*
X0154510Y0345411D01*
X0153806Y0346630D01*
X0154901Y0346774D01*
X0155047Y0347318D01*
X0155534Y0347599D01*
X0156078Y0347453D01*
X0156359Y0346966D01*
X0156213Y0346422D01*
X0155726Y0346141D01*
X0155182Y0346287D01*
X0154901Y0346774D01*
X0148392Y0355826D02*
X0147712Y0355146D01*
X0148295Y0357322D01*
X0150246Y0358448D01*
X0152422Y0357865D01*
X0153548Y0355914D01*
X0152965Y0353738D01*
X0151014Y0352612D01*
X0148838Y0353195D01*
X0147712Y0355146D01*
X0148806Y0355290D01*
X0149171Y0356650D01*
X0150390Y0357354D01*
X0151750Y0356989D01*
X0152454Y0355770D01*
X0152089Y0354410D01*
X0150870Y0353706D01*
X0149510Y0354071D01*
X0148806Y0355290D01*
X0149901Y0355434D01*
X0150047Y0355978D01*
X0150534Y0356259D01*
X0151078Y0356113D01*
X0151359Y0355626D01*
X0151213Y0355082D01*
X0150726Y0354801D01*
X0150182Y0354947D01*
X0149901Y0355434D01*
X0139732Y0350826D02*
X0139052Y0350146D01*
X0139635Y0352322D01*
X0141586Y0353448D01*
X0143762Y0352865D01*
X0144888Y0350914D01*
X0144305Y0348738D01*
X0142354Y0347612D01*
X0140178Y0348195D01*
X0139052Y0350146D01*
X0140146Y0350290D01*
X0140511Y0351650D01*
X0141730Y0352354D01*
X0143090Y0351989D01*
X0143794Y0350770D01*
X0143429Y0349410D01*
X0142210Y0348706D01*
X0140850Y0349071D01*
X0140146Y0350290D01*
X0141241Y0350434D01*
X0141387Y0350978D01*
X0141874Y0351259D01*
X0142418Y0351113D01*
X0142699Y0350626D01*
X0142553Y0350082D01*
X0142066Y0349801D01*
X0141522Y0349947D01*
X0141241Y0350434D01*
X0131072Y0345826D02*
X0130392Y0345146D01*
X0130975Y0347322D01*
X0132926Y0348448D01*
X0135102Y0347865D01*
X0136228Y0345914D01*
X0135645Y0343738D01*
X0133694Y0342612D01*
X0131518Y0343195D01*
X0130392Y0345146D01*
X0131486Y0345290D01*
X0131851Y0346650D01*
X0133070Y0347354D01*
X0134430Y0346989D01*
X0135134Y0345770D01*
X0134769Y0344410D01*
X0133550Y0343706D01*
X0132190Y0344071D01*
X0131486Y0345290D01*
X0132581Y0345434D01*
X0132727Y0345978D01*
X0133214Y0346259D01*
X0133758Y0346113D01*
X0134039Y0345626D01*
X0133893Y0345082D01*
X0133406Y0344801D01*
X0132862Y0344947D01*
X0132581Y0345434D01*
X0136072Y0337166D02*
X0135392Y0336486D01*
X0135975Y0338662D01*
X0137926Y0339788D01*
X0140102Y0339205D01*
X0141228Y0337254D01*
X0140645Y0335078D01*
X0138694Y0333952D01*
X0136518Y0334535D01*
X0135392Y0336486D01*
X0136486Y0336630D01*
X0136851Y0337990D01*
X0138070Y0338694D01*
X0139430Y0338329D01*
X0140134Y0337110D01*
X0139769Y0335750D01*
X0138550Y0335046D01*
X0137190Y0335411D01*
X0136486Y0336630D01*
X0137581Y0336774D01*
X0137727Y0337318D01*
X0138214Y0337599D01*
X0138758Y0337453D01*
X0139039Y0336966D01*
X0138893Y0336422D01*
X0138406Y0336141D01*
X0137862Y0336287D01*
X0137581Y0336774D01*
X0144732Y0342166D02*
X0144052Y0341486D01*
X0144635Y0343662D01*
X0146586Y0344788D01*
X0148762Y0344205D01*
X0149888Y0342254D01*
X0149305Y0340078D01*
X0147354Y0338952D01*
X0145178Y0339535D01*
X0144052Y0341486D01*
X0145146Y0341630D01*
X0145511Y0342990D01*
X0146730Y0343694D01*
X0148090Y0343329D01*
X0148794Y0342110D01*
X0148429Y0340750D01*
X0147210Y0340046D01*
X0145850Y0340411D01*
X0145146Y0341630D01*
X0146241Y0341774D01*
X0146387Y0342318D01*
X0146874Y0342599D01*
X0147418Y0342453D01*
X0147699Y0341966D01*
X0147553Y0341422D01*
X0147066Y0341141D01*
X0146522Y0341287D01*
X0146241Y0341774D01*
X0157052Y0360826D02*
X0156372Y0360146D01*
X0156955Y0362322D01*
X0158906Y0363448D01*
X0161082Y0362865D01*
X0162208Y0360914D01*
X0161625Y0358738D01*
X0159674Y0357612D01*
X0157498Y0358195D01*
X0156372Y0360146D01*
X0157466Y0360290D01*
X0157831Y0361650D01*
X0159050Y0362354D01*
X0160410Y0361989D01*
X0161114Y0360770D01*
X0160749Y0359410D01*
X0159530Y0358706D01*
X0158170Y0359071D01*
X0157466Y0360290D01*
X0158561Y0360434D01*
X0158707Y0360978D01*
X0159194Y0361259D01*
X0159738Y0361113D01*
X0160019Y0360626D01*
X0159873Y0360082D01*
X0159386Y0359801D01*
X0158842Y0359947D01*
X0158561Y0360434D01*
D15*
G36*
X0485985Y0292776D02*
X0481776Y0295015D01*
X0484015Y0299224D01*
X0488224Y0296985D01*
X0485985Y0292776D01*
G37*
D16*
X0483488Y0290470D02*
X0483965Y0289993D01*
X0482456Y0289531D01*
X0481061Y0290273D01*
X0480599Y0291782D01*
X0481341Y0293177D01*
X0482850Y0293639D01*
X0484245Y0292897D01*
X0484707Y0291388D01*
X0483965Y0289993D01*
X0483474Y0290591D01*
X0482529Y0290302D01*
X0481659Y0290764D01*
X0481370Y0291709D01*
X0481832Y0292579D01*
X0482777Y0292868D01*
X0483647Y0292406D01*
X0483936Y0291461D01*
X0483474Y0290591D01*
X0482981Y0291188D01*
X0482604Y0291072D01*
X0482256Y0291257D01*
X0482140Y0291634D01*
X0482325Y0291982D01*
X0482702Y0292098D01*
X0483050Y0291913D01*
X0483166Y0291536D01*
X0482981Y0291188D01*
X0487902Y0288123D02*
X0488379Y0287646D01*
X0486870Y0287184D01*
X0485475Y0287926D01*
X0485013Y0289435D01*
X0485755Y0290830D01*
X0487264Y0291292D01*
X0488659Y0290550D01*
X0489121Y0289041D01*
X0488379Y0287646D01*
X0487888Y0288244D01*
X0486943Y0287955D01*
X0486073Y0288417D01*
X0485784Y0289362D01*
X0486246Y0290232D01*
X0487191Y0290521D01*
X0488061Y0290059D01*
X0488350Y0289114D01*
X0487888Y0288244D01*
X0487395Y0288841D01*
X0487018Y0288725D01*
X0486670Y0288910D01*
X0486554Y0289287D01*
X0486739Y0289635D01*
X0487116Y0289751D01*
X0487464Y0289566D01*
X0487580Y0289189D01*
X0487395Y0288841D01*
X0485555Y0283708D02*
X0486032Y0283231D01*
X0484523Y0282769D01*
X0483128Y0283511D01*
X0482666Y0285020D01*
X0483408Y0286415D01*
X0484917Y0286877D01*
X0486312Y0286135D01*
X0486774Y0284626D01*
X0486032Y0283231D01*
X0485541Y0283829D01*
X0484596Y0283540D01*
X0483726Y0284002D01*
X0483437Y0284947D01*
X0483899Y0285817D01*
X0484844Y0286106D01*
X0485714Y0285644D01*
X0486003Y0284699D01*
X0485541Y0283829D01*
X0485048Y0284426D01*
X0484671Y0284310D01*
X0484323Y0284495D01*
X0484207Y0284872D01*
X0484392Y0285220D01*
X0484769Y0285336D01*
X0485117Y0285151D01*
X0485233Y0284774D01*
X0485048Y0284426D01*
X0483208Y0279293D02*
X0483685Y0278816D01*
X0482176Y0278354D01*
X0480781Y0279096D01*
X0480319Y0280605D01*
X0481061Y0282000D01*
X0482570Y0282462D01*
X0483965Y0281720D01*
X0484427Y0280211D01*
X0483685Y0278816D01*
X0483194Y0279414D01*
X0482249Y0279125D01*
X0481379Y0279587D01*
X0481090Y0280532D01*
X0481552Y0281402D01*
X0482497Y0281691D01*
X0483367Y0281229D01*
X0483656Y0280284D01*
X0483194Y0279414D01*
X0482701Y0280011D01*
X0482324Y0279895D01*
X0481976Y0280080D01*
X0481860Y0280457D01*
X0482045Y0280805D01*
X0482422Y0280921D01*
X0482770Y0280736D01*
X0482886Y0280359D01*
X0482701Y0280011D01*
X0480860Y0274879D02*
X0481337Y0274402D01*
X0479828Y0273940D01*
X0478433Y0274682D01*
X0477971Y0276191D01*
X0478713Y0277586D01*
X0480222Y0278048D01*
X0481617Y0277306D01*
X0482079Y0275797D01*
X0481337Y0274402D01*
X0480846Y0275000D01*
X0479901Y0274711D01*
X0479031Y0275173D01*
X0478742Y0276118D01*
X0479204Y0276988D01*
X0480149Y0277277D01*
X0481019Y0276815D01*
X0481308Y0275870D01*
X0480846Y0275000D01*
X0480353Y0275597D01*
X0479976Y0275481D01*
X0479628Y0275666D01*
X0479512Y0276043D01*
X0479697Y0276391D01*
X0480074Y0276507D01*
X0480422Y0276322D01*
X0480538Y0275945D01*
X0480353Y0275597D01*
X0476446Y0277226D02*
X0476923Y0276749D01*
X0475414Y0276287D01*
X0474019Y0277029D01*
X0473557Y0278538D01*
X0474299Y0279933D01*
X0475808Y0280395D01*
X0477203Y0279653D01*
X0477665Y0278144D01*
X0476923Y0276749D01*
X0476432Y0277347D01*
X0475487Y0277058D01*
X0474617Y0277520D01*
X0474328Y0278465D01*
X0474790Y0279335D01*
X0475735Y0279624D01*
X0476605Y0279162D01*
X0476894Y0278217D01*
X0476432Y0277347D01*
X0475939Y0277944D01*
X0475562Y0277828D01*
X0475214Y0278013D01*
X0475098Y0278390D01*
X0475283Y0278738D01*
X0475660Y0278854D01*
X0476008Y0278669D01*
X0476124Y0278292D01*
X0475939Y0277944D01*
X0478793Y0281641D02*
X0479270Y0281164D01*
X0477761Y0280702D01*
X0476366Y0281444D01*
X0475904Y0282953D01*
X0476646Y0284348D01*
X0478155Y0284810D01*
X0479550Y0284068D01*
X0480012Y0282559D01*
X0479270Y0281164D01*
X0478779Y0281762D01*
X0477834Y0281473D01*
X0476964Y0281935D01*
X0476675Y0282880D01*
X0477137Y0283750D01*
X0478082Y0284039D01*
X0478952Y0283577D01*
X0479241Y0282632D01*
X0478779Y0281762D01*
X0478286Y0282359D01*
X0477909Y0282243D01*
X0477561Y0282428D01*
X0477445Y0282805D01*
X0477630Y0283153D01*
X0478007Y0283269D01*
X0478355Y0283084D01*
X0478471Y0282707D01*
X0478286Y0282359D01*
X0481140Y0286056D02*
X0481617Y0285579D01*
X0480108Y0285117D01*
X0478713Y0285859D01*
X0478251Y0287368D01*
X0478993Y0288763D01*
X0480502Y0289225D01*
X0481897Y0288483D01*
X0482359Y0286974D01*
X0481617Y0285579D01*
X0481126Y0286177D01*
X0480181Y0285888D01*
X0479311Y0286350D01*
X0479022Y0287295D01*
X0479484Y0288165D01*
X0480429Y0288454D01*
X0481299Y0287992D01*
X0481588Y0287047D01*
X0481126Y0286177D01*
X0480633Y0286774D01*
X0480256Y0286658D01*
X0479908Y0286843D01*
X0479792Y0287220D01*
X0479977Y0287568D01*
X0480354Y0287684D01*
X0480702Y0287499D01*
X0480818Y0287122D01*
X0480633Y0286774D01*
X0490250Y0292538D02*
X0490727Y0292061D01*
X0489218Y0291599D01*
X0487823Y0292341D01*
X0487361Y0293850D01*
X0488103Y0295245D01*
X0489612Y0295707D01*
X0491007Y0294965D01*
X0491469Y0293456D01*
X0490727Y0292061D01*
X0490236Y0292659D01*
X0489291Y0292370D01*
X0488421Y0292832D01*
X0488132Y0293777D01*
X0488594Y0294647D01*
X0489539Y0294936D01*
X0490409Y0294474D01*
X0490698Y0293529D01*
X0490236Y0292659D01*
X0489743Y0293256D01*
X0489366Y0293140D01*
X0489018Y0293325D01*
X0488902Y0293702D01*
X0489087Y0294050D01*
X0489464Y0294166D01*
X0489812Y0293981D01*
X0489928Y0293604D01*
X0489743Y0293256D01*
D17*
X0342173Y0418673D03*
X0213827Y0418673D03*
D18*
X0174000Y0155750D03*
X0174000Y0105750D03*
D19*
X0417654Y0331000D03*
X0424346Y0331000D03*
D20*
X0117906Y0078500D03*
X0106094Y0078500D03*
D21*
X0259500Y0070500D03*
X0259500Y0157500D03*
X0259500Y0248500D03*
X0353500Y0250500D03*
X0441500Y0249500D03*
X0466500Y0249500D03*
X0475500Y0259500D03*
X0473500Y0286500D03*
D22*
X0437500Y0205500D03*
X0437200Y0178800D03*
M02*
